<svg width="48" height="48" viewBox="0 0 48 48" fill="none" xmlns="http://www.w3.org/2000/svg">
<path d="M31.0506 7.69202C29.3476 9.70728 26.6228 11.2968 23.8979 11.0697C23.5573 8.34485 24.8913 5.4497 26.4525 3.66152C28.1555 1.5895 31.1358 0.113535 33.5484 0C33.8323 2.83839 32.7253 5.62 31.0506 7.69202ZM33.52 11.609C29.5747 11.3819 26.197 13.8513 24.3237 13.8513C22.4219 13.8513 19.5552 11.7225 16.433 11.7793C12.3741 11.8361 8.59901 14.1352 6.52699 17.7967C2.26941 25.1197 5.42002 35.9623 9.53568 41.923C11.5509 44.8749 13.9636 48.1106 17.1426 47.9971C20.1512 47.8836 21.3434 46.0386 24.9765 46.0386C28.638 46.0386 29.6882 47.9971 32.8672 47.9403C36.1597 47.8836 38.2318 44.9884 40.247 42.0365C42.5461 38.6872 43.4828 35.423 43.5395 35.2527C43.4828 35.196 37.1816 32.7834 37.1248 25.5171C37.068 19.4429 42.092 16.5478 42.319 16.3775C39.4806 12.1767 35.0528 11.7225 33.52 11.609Z" fill="black"/>
</svg>
