<svg width="27" height="25" viewBox="0 0 27 25" fill="none" xmlns="http://www.w3.org/2000/svg">
<path d="M13.4411 7.4306C13.8793 7.4306 14.2996 7.27634 14.6095 7.00177C14.9194 6.72719 15.0935 6.35479 15.0935 5.96648C15.0935 5.57817 14.9194 5.20577 14.6095 4.93119C14.2996 4.65662 13.8793 4.50236 13.4411 4.50236C13.0028 4.50236 12.5825 4.65662 12.2726 4.93119C11.9627 5.20577 11.7886 5.57817 11.7886 5.96648C11.7886 6.35479 11.9627 6.72719 12.2726 7.00177C12.5825 7.27634 13.0028 7.4306 13.4411 7.4306ZM15.0627 0.510206C14.6043 0.180164 14.0317 0 13.4411 0C12.8505 0 12.2778 0.180164 11.8195 0.510206L0.798783 8.44572C-0.540798 9.41399 0.230342 11.3349 1.9577 11.3349H2.42479V19.534C1.11605 20.1255 0.221529 21.3299 0.221529 22.7218V24.0239C0.221529 24.2828 0.337594 24.5311 0.544189 24.7141C0.750785 24.8972 1.03099 25 1.32316 25H25.559C25.8512 25 26.1314 24.8972 26.338 24.7141C26.5446 24.5311 26.6606 24.2828 26.6606 24.0239V22.7218C26.6606 21.3319 25.7661 20.1255 24.4574 19.534V11.3349H24.9245C26.6518 11.3349 27.423 9.41204 26.0812 8.44572L15.0649 0.508253L15.0627 0.510206ZM13.2119 2.02508C13.2774 1.97817 13.3591 1.95258 13.4433 1.95258C13.5275 1.95258 13.6091 1.97817 13.6746 2.02508L23.8867 9.38275H2.99323L13.2119 2.02313V2.02508ZM22.2541 19.1435H20.0508V11.3349H22.2541V19.1435ZM17.8476 19.1435H14.5427V11.3349H17.8476V19.1435ZM12.3394 19.1435H9.03456V11.3349H12.3394V19.1435ZM22.6221 21.0957C23.6356 21.0957 24.4574 21.8238 24.4574 22.7218V23.0478H2.42479V22.7218C2.42479 21.8238 3.2466 21.0957 4.2601 21.0957H22.6221ZM6.8313 19.1435H4.62805V11.3349H6.8313V19.1435Z" fill="white"/>
</svg>
