<svg width="48" height="48" viewBox="0 0 48 48" fill="none" xmlns="http://www.w3.org/2000/svg">
<path d="M6.598 35.1921C7.462 37.8561 10.088 39.5561 12.89 39.5561H13C13.2571 40.8107 13.9394 41.9381 14.9316 42.7478C15.9239 43.5575 17.1653 43.9999 18.446 44.0001C19.36 44.0001 20.214 43.7701 20.97 43.3741C21.2855 43.2011 21.548 42.9455 21.7295 42.6348C21.9109 42.3241 22.0044 41.9698 22 41.6101V6.05405C22.004 5.59585 21.8501 5.15024 21.5642 4.79218C21.2783 4.43412 20.8777 4.18547 20.43 4.08805C19.4266 3.89316 18.387 4.03445 17.472 4.49005C15.984 5.20205 15.112 6.79205 15.112 8.44605V8.55605C13.9984 8.32877 12.8419 8.44847 11.7985 8.89899C10.7551 9.34952 9.87492 10.1092 9.27674 11.0756C8.67856 12.042 8.39113 13.1685 8.45323 14.3034C8.51532 15.4382 8.92395 16.5267 9.624 17.4221C8.05617 17.6677 6.62775 18.4656 5.59648 19.6718C4.56521 20.878 3.999 22.4131 4 24.0001C4 26.3561 5.222 28.4221 7.066 29.6241C6.206 31.1661 5.924 33.1161 6.598 35.1921ZM38.376 17.4221C39.076 16.5267 39.4847 15.4382 39.5468 14.3034C39.6089 13.1685 39.3214 12.042 38.7233 11.0756C38.1251 10.1092 37.2449 9.34952 36.2015 8.89899C35.1581 8.44847 34.0016 8.32877 32.888 8.55605V8.44605C32.888 6.79405 32.014 5.20205 30.526 4.49005C29.6118 4.03432 28.5727 3.89301 27.57 4.08805C27.1224 4.18581 26.7221 4.43456 26.4362 4.79254C26.1504 5.15052 25.9963 5.59595 26 6.05405V41.6081C26 42.3381 26.384 43.0321 27.032 43.3721C27.788 43.7701 28.64 44.0001 29.554 44.0001C30.835 43.9998 32.0766 43.5572 33.0689 42.7471C34.0612 41.937 34.7433 40.8091 35 39.5541H35.112C37.912 39.5541 40.54 37.8541 41.404 35.1901C42.078 33.1141 41.796 31.1641 40.936 29.6221C41.8754 29.0151 42.6478 28.1827 43.183 27.2007C43.7182 26.2188 43.9991 25.1184 44 24.0001C44.001 22.4131 43.4348 20.878 42.4035 19.6718C41.3722 18.4656 39.9438 17.6677 38.376 17.4221Z" fill="#246BFD"/>
</svg>
