<svg width="24" height="24" viewBox="0 0 24 24" fill="none" xmlns="http://www.w3.org/2000/svg">
<g clip-path="url(#clip0_103_553)">
<path d="M19.7781 4.22197C22.1211 6.56497 22.1211 10.364 19.7781 12.707L12.7081 19.778C10.3641 22.121 6.56509 22.121 4.22209 19.778C1.87909 17.435 1.87909 13.636 4.22209 11.293L11.2921 4.22197C13.6361 1.87897 17.4351 1.87897 19.7781 4.22197ZM14.1221 15.535L8.46509 9.87797L5.63609 12.708C4.07409 14.269 4.07409 16.802 5.63609 18.364C7.19809 19.926 9.73109 19.926 11.2931 18.364L14.1221 15.534V15.535ZM18.3641 5.63597C16.8021 4.07397 14.2691 4.07397 12.7071 5.63597L9.88009 8.46397L15.5371 14.121L18.3651 11.293C19.9271 9.73097 19.9271 7.19797 18.3651 5.63597H18.3641Z" fill="#246BFD"/>
</g>
<defs>
<clipPath id="clip0_103_553">
<rect width="24" height="24" fill="white"/>
</clipPath>
</defs>
</svg>
