<svg width="48" height="48" viewBox="0 0 48 48" fill="none" xmlns="http://www.w3.org/2000/svg">
<path d="M44.9329 13.3942C44.8743 6.59564 39.3323 1.03598 32.5338 0.957041C30.1345 0.929198 27.8883 1.57504 25.9719 2.71692C24.7528 3.44329 23.2472 3.44329 22.0281 2.71692C20.1117 1.57504 17.8655 0.929291 15.4662 0.957041C8.66785 1.03598 3.12572 6.59564 3.06713 13.3942C3.04257 16.2417 3.96675 18.8721 5.5426 20.9889C7.46222 23.5677 8.70235 26.5912 9.23747 29.7612C10.688 38.3538 13.5257 47.0439 16.7889 47.0439C20.0656 47.0439 20.4593 38.2824 20.3902 29.6553C20.3705 27.192 21.4956 24.862 23.4233 23.3282C23.4345 23.3192 23.4458 23.3102 23.4571 23.3011C23.7742 23.0471 24.2258 23.0471 24.5429 23.3011C24.5542 23.3102 24.5655 23.3192 24.5768 23.3282C26.5043 24.8621 27.6294 27.192 27.6098 29.6553C27.5409 38.2823 27.9345 47.0439 31.2111 47.0439C34.4743 47.0439 37.312 38.3539 38.7624 29.7612C39.2975 26.5913 40.5377 23.5678 42.4573 20.9889C44.0333 18.8721 44.9575 16.2418 44.9329 13.3942Z" fill="#89ADF8"/>
<path d="M31.2111 48C30.4721 48 29.7845 47.7007 29.2229 47.1346C27.314 45.2105 26.5697 40.1442 26.6537 29.6477C26.6712 27.4801 25.7041 25.4563 24.0001 24.0912C22.2957 25.4569 21.329 27.4804 21.3464 29.6477C21.4302 40.1443 20.6859 45.2106 18.7772 47.1346C18.2156 47.7007 17.5281 48 16.789 48C14.814 48 13.0661 46.0308 11.4457 41.9799C10.2015 38.8692 9.08246 34.5864 8.29477 29.9204C7.77586 26.8466 6.5589 23.9556 4.77568 21.5599C3.0068 19.1838 2.08552 16.3573 2.11111 13.386C2.14149 9.84599 3.54465 6.50578 6.06202 3.98062C8.57958 1.45537 11.9154 0.041901 15.4551 0.000838541C17.9483 -0.0266302 20.389 0.626995 22.5175 1.89543C23.432 2.44031 24.5679 2.44031 25.4825 1.89543C27.6111 0.626995 30.0499 -0.028224 32.5449 0.000932291C36.0846 0.0420885 39.4203 1.45537 41.9379 3.98071C44.4553 6.50596 45.8585 9.84618 45.889 13.386C45.9146 16.3572 44.9932 19.1838 43.2244 21.5599C41.4411 23.9555 40.2242 26.8464 39.7053 29.9203C38.9177 34.5862 37.7987 38.869 36.5545 41.9798C34.934 46.0308 33.1861 48 31.2111 48ZM24 22.1512C24.4024 22.1512 24.8049 22.2858 25.1407 22.5549L25.173 22.5806C27.3511 24.3138 28.5882 26.8954 28.566 29.6629C28.5354 33.4867 28.4541 43.6444 30.5804 45.7877C30.8441 46.0535 31.056 46.0876 31.211 46.0876C33.0657 46.0876 36.0121 40.3098 37.8196 29.6018C38.3887 26.231 39.7271 23.0551 41.6903 20.4179C43.2079 18.379 43.9986 15.9531 43.9765 13.4024C43.9227 7.13999 38.7842 1.9859 32.5225 1.91324C30.3845 1.88699 28.2871 2.45034 26.4612 3.5384C24.9429 4.44299 23.0566 4.4429 21.5384 3.5384C19.7124 2.45034 17.616 1.88878 15.4771 1.91324C9.21549 1.98581 4.07724 7.1399 4.02324 13.4024C4.0013 15.9531 4.7919 18.3791 6.30952 20.418C8.27274 23.0553 9.61121 26.2311 10.1802 29.602C11.9879 40.3099 14.9341 46.0876 16.7888 46.0876C16.9439 46.0876 17.1556 46.0536 17.4194 45.7877C19.5456 43.6443 19.4644 33.4867 19.434 29.6629C19.4118 26.8953 20.6489 24.3137 22.8278 22.5799L22.859 22.555C23.195 22.2859 23.5976 22.1512 24 22.1512Z" fill="#246BFD"/>
<path d="M6.42098 14.221C6.41817 14.221 6.41535 14.221 6.41254 14.221C5.88445 14.2165 5.46014 13.7847 5.46464 13.2567C5.49726 9.46335 7.63514 6.04007 11.0439 4.32276C11.5153 4.08501 12.0904 4.27476 12.3281 4.74651C12.5657 5.21807 12.376 5.79304 11.9043 6.03069C9.13823 7.42419 7.40338 10.1994 7.37695 13.2732C7.37235 13.7983 6.94513 14.221 6.42098 14.221Z" fill="#246BFD"/>
<path d="M14.6284 5.21044C14.1439 5.21044 13.7285 4.8436 13.6783 4.35113C13.6248 3.82585 14.0073 3.35654 14.5326 3.303C14.8322 3.27254 15.1372 3.25519 15.4389 3.25163C15.9677 3.24675 16.4 3.66854 16.4062 4.19663C16.4123 4.72463 15.9893 5.15775 15.4612 5.16394C15.2165 5.16685 14.9694 5.18082 14.7266 5.20557C14.6936 5.20885 14.6608 5.21044 14.6284 5.21044Z" fill="#246BFD"/>
</svg>
