<svg width="31" height="30" viewBox="0 0 31 30" fill="none" xmlns="http://www.w3.org/2000/svg">
<path d="M11.6041 16.25V20H19.1265V16.25H27.9027V25C27.9027 25.3315 27.7706 25.6495 27.5355 25.8839C27.3004 26.1183 26.9815 26.25 26.649 26.25H4.08162C3.74911 26.25 3.43022 26.1183 3.19509 25.8839C2.95997 25.6495 2.82788 25.3315 2.82788 25V16.25H11.6041ZM14.1116 13.75H16.619V17.5H14.1116V13.75ZM9.09659 6.25V2.5C9.09659 2.16848 9.22868 1.85054 9.46381 1.61612C9.69893 1.3817 10.0178 1.25 10.3503 1.25H20.3803C20.7128 1.25 21.0317 1.3817 21.2668 1.61612C21.5019 1.85054 21.634 2.16848 21.634 2.5V6.25H26.649C26.9815 6.25 27.3004 6.3817 27.5355 6.61612C27.7706 6.85054 27.9027 7.16848 27.9027 7.5V13.75H19.1265V11.25H11.6041V13.75H2.82788V7.5C2.82788 7.16848 2.95997 6.85054 3.19509 6.61612C3.43022 6.3817 3.74911 6.25 4.08162 6.25H9.09659ZM11.6041 3.75V6.25H19.1265V3.75H11.6041Z" fill="#246BFD"/>
</svg>
