<svg width="48" height="48" viewBox="0 0 48 48" fill="none" xmlns="http://www.w3.org/2000/svg">
<g clip-path="url(#clip0_561_4161)">
<path fill-rule="evenodd" clip-rule="evenodd" d="M47.04 24.5458C47.04 22.844 46.8873 21.2076 46.6036 19.6367H24V28.9204H36.9164C36.36 31.9204 34.6691 34.4622 32.1273 36.164V42.1858H39.8836C44.4218 38.0076 47.04 31.8549 47.04 24.5458Z" fill="#4285F4"/>
<path fill-rule="evenodd" clip-rule="evenodd" d="M24 47.9996C30.48 47.9996 35.9127 45.8505 39.8836 42.185L32.1273 36.1632C29.9782 37.6032 27.2291 38.4541 24 38.4541C17.7491 38.4541 12.4582 34.2323 10.5709 28.5596H2.55273V34.7778C6.50183 42.6214 14.6182 47.9996 24 47.9996Z" fill="#34A853"/>
<path fill-rule="evenodd" clip-rule="evenodd" d="M10.5709 28.5599C10.0909 27.1199 9.81818 25.5817 9.81818 23.9999C9.81818 22.418 10.0909 20.8799 10.5709 19.4399V13.2217H2.55273C0.927273 16.4617 0 20.1271 0 23.9999C0 27.8726 0.927273 31.538 2.55273 34.778L10.5709 28.5599Z" fill="#FBBC05"/>
<path fill-rule="evenodd" clip-rule="evenodd" d="M24 9.54545C27.5236 9.54545 30.6873 10.7564 33.1746 13.1345L40.0582 6.25091C35.9018 2.37818 30.4691 0 24 0C14.6182 0 6.50183 5.37818 2.55273 13.2218L10.5709 19.44C12.4582 13.7673 17.7491 9.54545 24 9.54545Z" fill="#EA4335"/>
</g>
<defs>
<clipPath id="clip0_561_4161">
<rect width="48" height="48" fill="white"/>
</clipPath>
</defs>
</svg>
