<svg width="36" height="36" viewBox="0 0 36 36" fill="none" xmlns="http://www.w3.org/2000/svg">
<rect width="36" height="36" rx="18" fill="#D9E5FF"/>
<g clip-path="url(#clip0_126_697)">
<path d="M26 28H24V26C24 25.2044 23.6839 24.4413 23.1213 23.8787C22.5587 23.3161 21.7956 23 21 23H15C14.2044 23 13.4413 23.3161 12.8787 23.8787C12.3161 24.4413 12 25.2044 12 26V28H10V26C10 24.6739 10.5268 23.4021 11.4645 22.4645C12.4021 21.5268 13.6739 21 15 21H21C22.3261 21 23.5979 21.5268 24.5355 22.4645C25.4732 23.4021 26 24.6739 26 26V28ZM18 19C17.2121 19 16.4319 18.8448 15.7039 18.5433C14.9759 18.2417 14.3145 17.7998 13.7574 17.2426C13.2002 16.6855 12.7583 16.0241 12.4567 15.2961C12.1552 14.5681 12 13.7879 12 13C12 12.2121 12.1552 11.4319 12.4567 10.7039C12.7583 9.97595 13.2002 9.31451 13.7574 8.75736C14.3145 8.20021 14.9759 7.75825 15.7039 7.45672C16.4319 7.15519 17.2121 7 18 7C19.5913 7 21.1174 7.63214 22.2426 8.75736C23.3679 9.88258 24 11.4087 24 13C24 14.5913 23.3679 16.1174 22.2426 17.2426C21.1174 18.3679 19.5913 19 18 19ZM18 17C19.0609 17 20.0783 16.5786 20.8284 15.8284C21.5786 15.0783 22 14.0609 22 13C22 11.9391 21.5786 10.9217 20.8284 10.1716C20.0783 9.42143 19.0609 9 18 9C16.9391 9 15.9217 9.42143 15.1716 10.1716C14.4214 10.9217 14 11.9391 14 13C14 14.0609 14.4214 15.0783 15.1716 15.8284C15.9217 16.5786 16.9391 17 18 17Z" fill="#246BFD"/>
</g>
<defs>
<clipPath id="clip0_126_697">
<rect width="24" height="24" fill="white" transform="translate(6 6)"/>
</clipPath>
</defs>
</svg>
