<svg width="58" height="58" viewBox="0 0 58 58" fill="none" xmlns="http://www.w3.org/2000/svg">
<circle cx="29" cy="29" r="29" fill="#D9E2F4"/>
<g clip-path="url(#clip0_216_1269)">
<path d="M30.6814 9.66663H27.3191L26.4785 18.913H31.522L30.6814 9.66663Z" fill="#7FA7F9"/>
<path d="M29.0004 22.2753H24.3772V27.3187H29.0004V22.2753Z" fill="#7FA7F9"/>
<path d="M20.5945 18.913V22.2753H29.0003V27.3188H33.6235V22.2753H37.4061V18.913H20.5945Z" fill="#4285F4"/>
<path d="M24.7974 44.9709C24.3339 44.9709 23.9568 44.5938 23.9568 44.1303V31.5216C23.9568 31.0581 24.3339 30.681 24.7974 30.681H29.0003V27.3187H24.7974C22.4762 27.3187 20.5945 29.2004 20.5945 31.5216V44.1303C20.5945 46.4515 22.4762 48.3332 24.7974 48.3332H29.0003V44.9709H24.7974Z" fill="#3376FF"/>
<path d="M33.2031 27.3187H29.0002V30.681H33.2031C33.6666 30.681 34.0437 31.0581 34.0437 31.5216V44.1303C34.0437 44.5938 33.6666 44.9709 33.2031 44.9709H29.0002V48.3332H33.2031C35.5243 48.3332 37.406 46.4515 37.406 44.1303V31.5216C37.406 29.2004 35.5243 27.3187 33.2031 27.3187Z" fill="#246BFD"/>
<path d="M34.0437 31.5217C34.0437 31.0582 33.6666 30.6812 33.2031 30.6812H29.0002V37.4058H34.0437V31.5217Z" fill="#4285F4"/>
<path d="M29.0002 37.4058V44.971H33.2031C33.6666 44.971 34.0437 44.5939 34.0437 44.1304V37.4058H29.0002Z" fill="#3376FF"/>
<path d="M29.0003 30.6812H24.7974C24.3339 30.6812 23.9568 31.0582 23.9568 31.5217V37.4058H29.0003V30.6812Z" fill="#7FA7F9"/>
<path d="M23.9568 37.4058V44.1304C23.9568 44.5939 24.3339 44.971 24.7974 44.971H29.0003V37.4058H23.9568Z" fill="#4285F4"/>
</g>
<defs>
<clipPath id="clip0_216_1269">
<rect width="38.6667" height="38.6667" fill="white" transform="translate(9.66675 9.66663)"/>
</clipPath>
</defs>
</svg>
