<svg width="58" height="58" viewBox="0 0 58 58" fill="none" xmlns="http://www.w3.org/2000/svg">
<circle cx="29" cy="29" r="29" fill="#D9E2F4"/>
<path opacity="0.5" d="M28.2158 28.8652C26.7871 27.6878 25.6598 26.1813 24.3937 23.9556L17.4707 31.9108C15.3852 34.3072 15.6373 37.9406 18.0338 40.0261C20.4302 42.1116 24.0636 41.8595 26.1491 39.4631L26.8502 38.6574C26.1681 37.4746 25.7779 36.1023 25.7779 34.6389C25.7779 32.3747 26.712 30.3287 28.2158 28.8652Z" fill="#246BFD"/>
<path fill-rule="evenodd" clip-rule="evenodd" d="M37.6443 17.4914C35.5834 15.6979 32.4589 15.9147 30.6655 17.9756L25.379 24.0502C26.341 25.6827 27.2155 26.8553 28.2114 27.7892C29.741 26.5323 31.6991 25.7777 33.8334 25.7777C34.8005 25.7777 35.7326 25.9329 36.6056 26.2202L38.1285 24.4702C39.9219 22.4094 39.7052 19.2848 37.6443 17.4914ZM26.5834 34.6388C26.5834 30.6348 29.8293 27.3888 33.8334 27.3888C34.7947 27.3888 35.7104 27.5755 36.5478 27.9139L37.0802 28.129L39.3438 25.5279C41.7214 22.7958 41.434 18.6536 38.7019 16.276C35.9699 13.8985 31.8277 14.1858 29.4501 16.9179L16.8629 31.3819C14.4854 34.114 14.7728 38.2562 17.5048 40.6338C19.1868 42.0975 21.0831 42.4704 22.874 42.0791C24.6316 41.6951 26.2361 40.5901 27.4578 39.1862L27.8351 38.7527L27.548 38.2549C26.9346 37.1913 26.5834 35.9573 26.5834 34.6388ZM27.0635 28.9212C25.7588 30.4644 24.9722 32.4598 24.9722 34.6388C24.9722 36.0338 25.2951 37.3552 25.8706 38.5307C24.8857 39.5326 23.7158 40.2461 22.5301 40.5052C21.2245 40.7904 19.8508 40.5396 18.5625 39.4184C16.5016 37.625 16.2848 34.5004 18.0783 32.4396L24.2669 25.3281" fill="#246BFD"/>
<path fill-rule="evenodd" clip-rule="evenodd" d="M36.1606 18.706C36.2717 18.2752 36.0126 17.8359 35.5818 17.7248C33.0218 17.0643 31.4599 18.8612 30.837 19.5779C30.8275 19.5889 30.8182 19.5996 30.8091 19.61C30.517 19.9456 30.5523 20.4545 30.8879 20.7465C31.2235 21.0386 31.7324 21.0033 32.0244 20.6677C32.6798 19.9146 33.627 18.8843 35.1794 19.2848C35.6101 19.3959 36.0495 19.1368 36.1606 18.706Z" fill="#246BFD"/>
<path fill-rule="evenodd" clip-rule="evenodd" d="M33.8335 27.3888C29.8295 27.3888 26.5835 30.6348 26.5835 34.6388C26.5835 38.6429 29.8295 41.8888 33.8335 41.8888C37.8376 41.8888 41.0835 38.6429 41.0835 34.6388C41.0835 30.6348 37.8376 27.3888 33.8335 27.3888ZM24.9724 34.6388C24.9724 29.745 28.9397 25.7777 33.8335 25.7777C38.7274 25.7777 42.6946 29.745 42.6946 34.6388C42.6946 39.5327 38.7274 43.4999 33.8335 43.4999C28.9397 43.4999 24.9724 39.5327 24.9724 34.6388Z" fill="#246BFD"/>
<path fill-rule="evenodd" clip-rule="evenodd" d="M27.6086 36.3068C27.4935 35.8771 27.7485 35.4353 28.1783 35.3202L39.0717 32.4013C39.5015 32.2861 39.9432 32.5412 40.0583 32.9709C40.1735 33.4006 39.9185 33.8424 39.4887 33.9575L28.5952 36.8764C28.1655 36.9916 27.7238 36.7365 27.6086 36.3068Z" fill="#246BFD"/>
</svg>
