<svg width="58" height="58" viewBox="0 0 58 58" fill="none" xmlns="http://www.w3.org/2000/svg">
<circle cx="29" cy="29" r="29" fill="#D9E2F4"/>
<g clip-path="url(#clip0_216_1289)">
<path d="M43.4326 17.4212C40.8427 14.9381 38.2436 13.6792 35.7075 13.6792C31.6805 13.6792 29.0886 16.8065 28.2885 17.929C25.0288 17.1603 24.3689 14.3811 24.3421 14.2611L24.1795 13.5049L18.2638 15.8438L18.3602 16.3726C18.4073 16.6315 19.5856 22.6101 27.7426 24.3402C27.8782 25.2354 28.3501 27.0421 29.9819 28.054V30.8431C29.181 31.2212 27.4955 32.1865 26.9293 33.8163C26.5885 33.7547 26.1436 33.6997 25.639 33.6997C24.4961 33.6997 22.9082 33.9847 21.5896 35.2757C20.7076 34.8648 18.68 34.0457 16.5278 34.0457C13.398 34.0463 9.6665 35.7456 9.6665 43.8396V44.495H14.2538V43.8396C14.2538 41.584 15.0448 40.4031 15.826 40.4031C16.0547 40.4031 16.2762 40.5033 16.4669 40.694C17.3726 41.5997 18.271 42.1705 19.1492 42.4005C18.9683 42.2832 18.8412 42.0899 18.8412 41.8586C18.8412 41.4968 19.1348 41.2032 19.4965 41.2032C19.8583 41.2032 20.1518 41.4968 20.1518 41.8586C20.1518 42.1777 19.9192 42.4307 19.6177 42.4897C19.7547 42.5067 19.891 42.5165 20.0267 42.5165C20.9363 42.5165 21.6021 42.1305 21.9973 41.8107C27.4693 44.9196 32.1523 44.5055 32.7441 44.4366C32.8791 44.4399 33.0134 44.4419 33.1465 44.4419C39.2601 44.4419 44.7623 40.58 47.1647 34.6027C49.5993 28.5461 48.1693 21.9626 43.4326 17.4212ZM19.4965 38.5819C19.1348 38.5819 18.8412 38.2883 18.8412 37.9266C18.8412 37.5648 19.1348 37.2712 19.4965 37.2712C19.8583 37.2712 20.1518 37.5648 20.1518 37.9266C20.1518 38.2883 19.8583 38.5819 19.4965 38.5819ZM21.4625 36.6159C21.1008 36.6159 20.8072 36.3223 20.8072 35.9606C20.8072 35.5988 21.1008 35.3052 21.4625 35.3052C21.8243 35.3052 22.1178 35.5988 22.1178 35.9606C22.1178 36.3223 21.8243 36.6159 21.4625 36.6159ZM23.4285 38.5819C23.0668 38.5819 22.7732 38.2883 22.7732 37.9266C22.7732 37.5648 23.0668 37.2712 23.4285 37.2712C23.7903 37.2712 24.0838 37.5648 24.0838 37.9266C24.0838 38.2883 23.7903 38.5819 23.4285 38.5819ZM25.3945 40.5479C25.0328 40.5479 24.7392 40.2543 24.7392 39.8926C24.7392 39.5308 25.0328 39.2372 25.3945 39.2372C25.7563 39.2372 26.0499 39.5308 26.0499 39.8926C26.0499 40.2543 25.7563 40.5479 25.3945 40.5479ZM25.3945 36.6159C25.0328 36.6159 24.7392 36.3223 24.7392 35.9606C24.7392 35.5988 25.0328 35.3052 25.3945 35.3052C25.7563 35.3052 26.0499 35.5988 26.0499 35.9606C26.0499 36.3223 25.7563 36.6159 25.3945 36.6159ZM27.3605 42.5139C26.9988 42.5139 26.7052 42.2203 26.7052 41.8586C26.7052 41.4968 26.9988 41.2032 27.3605 41.2032C27.7223 41.2032 28.0159 41.4968 28.0159 41.8586C28.0159 42.2203 27.7223 42.5139 27.3605 42.5139ZM27.3605 38.5819C26.9988 38.5819 26.7052 38.2883 26.7052 37.9266C26.7052 37.5648 26.9988 37.2712 27.3605 37.2712C27.7223 37.2712 28.0159 37.5648 28.0159 37.9266C28.0159 38.2883 27.7223 38.5819 27.3605 38.5819ZM29.3265 40.5479C28.9648 40.5479 28.6712 40.2543 28.6712 39.8926C28.6712 39.5308 28.9648 39.2372 29.3265 39.2372C29.6883 39.2372 29.9819 39.5308 29.9819 39.8926C29.9819 40.2543 29.6883 40.5479 29.3265 40.5479ZM29.3265 36.6159C28.9648 36.6159 28.6712 36.3223 28.6712 35.9606C28.6712 35.5988 28.9648 35.3052 29.3265 35.3052C29.6883 35.3052 29.9819 35.5988 29.9819 35.9606C29.9819 36.3223 29.6883 36.6159 29.3265 36.6159ZM31.2925 42.5139C30.9308 42.5139 30.6372 42.2203 30.6372 41.8586C30.6372 41.4968 30.9308 41.2032 31.2925 41.2032C31.6543 41.2032 31.9479 41.4968 31.9479 41.8586C31.9479 42.2203 31.6543 42.5139 31.2925 42.5139ZM31.2925 38.5819C30.9308 38.5819 30.6372 38.2883 30.6372 37.9266C30.6372 37.5648 30.9308 37.2712 31.2925 37.2712C31.6543 37.2712 31.9479 37.5648 31.9479 37.9266C31.9479 38.2883 31.6543 38.5819 31.2925 38.5819ZM33.2585 40.5479C32.8968 40.5479 32.6032 40.2543 32.6032 39.8926C32.6032 39.5308 32.8968 39.2372 33.2585 39.2372C33.6203 39.2372 33.9139 39.5308 33.9139 39.8926C33.9139 40.2543 33.6203 40.5479 33.2585 40.5479ZM33.2585 36.6159C32.8968 36.6159 32.6032 36.3223 32.6032 35.9606C32.6032 35.5988 32.8968 35.3052 33.2585 35.3052C33.6203 35.3052 33.9139 35.5988 33.9139 35.9606C33.9139 36.3223 33.6203 36.6159 33.2585 36.6159ZM35.2245 42.5139C34.8628 42.5139 34.5692 42.2203 34.5692 41.8586C34.5692 41.4968 34.8628 41.2032 35.2245 41.2032C35.5863 41.2032 35.8799 41.4968 35.8799 41.8586C35.8799 42.2203 35.5863 42.5139 35.2245 42.5139ZM35.2245 38.5819C34.8628 38.5819 34.5692 38.2883 34.5692 37.9266C34.5692 37.5648 34.8628 37.2712 35.2245 37.2712C35.5863 37.2712 35.8799 37.5648 35.8799 37.9266C35.8799 38.2883 35.5863 38.5819 35.2245 38.5819ZM37.1905 40.5479C36.8288 40.5479 36.5352 40.2543 36.5352 39.8926C36.5352 39.5308 36.8288 39.2372 37.1905 39.2372C37.5523 39.2372 37.8459 39.5308 37.8459 39.8926C37.8459 40.2543 37.5523 40.5479 37.1905 40.5479ZM37.1905 36.6159C36.8288 36.6159 36.5352 36.3223 36.5352 35.9606C36.5352 35.5988 36.8288 35.3052 37.1905 35.3052C37.5523 35.3052 37.8459 35.5988 37.8459 35.9606C37.8459 36.3223 37.5523 36.6159 37.1905 36.6159ZM39.1565 42.5139C38.7948 42.5139 38.5012 42.2203 38.5012 41.8586C38.5012 41.4968 38.7948 41.2032 39.1565 41.2032C39.5183 41.2032 39.8119 41.4968 39.8119 41.8586C39.8119 42.2203 39.5183 42.5139 39.1565 42.5139ZM39.1565 38.5819C38.7948 38.5819 38.5012 38.2883 38.5012 37.9266C38.5012 37.5648 38.7948 37.2712 39.1565 37.2712C39.5183 37.2712 39.8119 37.5648 39.8119 37.9266C39.8119 38.2883 39.5183 38.5819 39.1565 38.5819ZM39.1565 34.6499C38.7948 34.6499 38.5012 34.3563 38.5012 33.9946C38.5012 33.6328 38.7948 33.3392 39.1565 33.3392C39.5183 33.3392 39.8119 33.6328 39.8119 33.9946C39.8119 34.3563 39.5183 34.6499 39.1565 34.6499ZM41.1225 40.5479C40.7608 40.5479 40.4672 40.2543 40.4672 39.8926C40.4672 39.5308 40.7608 39.2372 41.1225 39.2372C41.4843 39.2372 41.7779 39.5308 41.7779 39.8926C41.7779 40.2543 41.4843 40.5479 41.1225 40.5479ZM41.1225 36.6159C40.7608 36.6159 40.4672 36.3223 40.4672 35.9606C40.4672 35.5988 40.7608 35.3052 41.1225 35.3052C41.4843 35.3052 41.7779 35.5988 41.7779 35.9606C41.7779 36.3223 41.4843 36.6159 41.1225 36.6159ZM43.0885 38.5819C42.7268 38.5819 42.4332 38.2883 42.4332 37.9266C42.4332 37.5648 42.7268 37.2712 43.0885 37.2712C43.4503 37.2712 43.7439 37.5648 43.7439 37.9266C43.7439 38.2883 43.4503 38.5819 43.0885 38.5819ZM43.0885 34.6499C42.7268 34.6499 42.4332 34.3563 42.4332 33.9946C42.4332 33.6328 42.7268 33.3392 43.0885 33.3392C43.4503 33.3392 43.7439 33.6328 43.7439 33.9946C43.7439 34.3563 43.4503 34.6499 43.0885 34.6499ZM45.0545 36.6159C44.6928 36.6159 44.3992 36.3223 44.3992 35.9606C44.3992 35.5988 44.6928 35.3052 45.0545 35.3052C45.4163 35.3052 45.7099 35.5988 45.7099 35.9606C45.7099 36.3223 45.4163 36.6159 45.0545 36.6159ZM45.0545 32.6839C44.6928 32.6839 44.3992 32.3903 44.3992 32.0286C44.3992 31.6668 44.6928 31.3732 45.0545 31.3732C45.4163 31.3732 45.7099 31.6668 45.7099 32.0286C45.7099 32.3903 45.4163 32.6839 45.0545 32.6839Z" fill="#246BFD"/>
</g>
<defs>
<clipPath id="clip0_216_1289">
<rect width="38.6667" height="38.6667" fill="white" transform="translate(9.6665 9.66663)"/>
</clipPath>
</defs>
</svg>
