<svg width="58" height="58" viewBox="0 0 58 58" fill="none" xmlns="http://www.w3.org/2000/svg">
<circle cx="29" cy="29" r="29" fill="#D9E2F4"/>
<path fill-rule="evenodd" clip-rule="evenodd" d="M29 14.5C20.547 14.5 14.5 20.547 14.5 29C14.5 37.4531 20.547 43.5 29 43.5C37.4531 43.5 43.5 37.4531 43.5 29C43.5 20.547 37.4531 14.5 29 14.5ZM12.8889 29C12.8889 19.6572 19.6572 12.8889 29 12.8889C38.3428 12.8889 45.1111 19.6572 45.1111 29C45.1111 38.3428 38.3428 45.1111 29 45.1111C19.6572 45.1111 12.8889 38.3428 12.8889 29Z" fill="#246BFD"/>
<path d="M29.0001 25.7778C27.2205 25.7778 25.7778 27.2205 25.7778 29.0001C25.7778 30.7796 27.2205 32.2223 29.0001 32.2223C30.7796 32.2223 32.2223 30.7796 32.2223 29.0001C32.2223 27.2205 30.7796 25.7778 29.0001 25.7778Z" fill="#246BFD"/>
<path opacity="0.5" d="M23.7756 16.5976C23.5336 16.5115 23.3265 16.559 23.2262 16.5914C23.1791 16.6066 23.1415 16.623 23.1225 16.6315C23.1047 16.6395 23.0871 16.648 23.0786 16.6521L23.0767 16.653C20.7658 17.7616 18.8118 19.4969 17.4377 21.6621C16.0636 23.8274 15.3255 26.3343 15.3063 28.8973L15.3063 28.8993C15.3062 28.9088 15.306 28.9283 15.3064 28.9479C15.3067 28.9686 15.3079 29.0097 15.3142 29.0588C15.3276 29.1632 15.3728 29.3709 15.5537 29.5532C15.7352 29.736 15.9432 29.7824 16.0469 29.7965C16.0958 29.8031 16.1367 29.8045 16.1575 29.8051C16.177 29.8056 16.1965 29.8056 16.206 29.8055L24.266 29.8056C24.2703 29.8056 24.3479 29.8069 24.4239 29.7969C24.5233 29.7838 24.7294 29.7402 24.9117 29.5617C25.0957 29.3815 25.1426 29.174 25.1572 29.0773C25.1685 29.0029 25.1689 28.9261 25.169 28.9201C25.1835 28.2207 25.3893 27.5381 25.7647 26.9466C26.1401 26.3551 26.6701 25.8782 27.2967 25.5673C27.3021 25.5647 27.3714 25.5316 27.434 25.4897C27.5153 25.4353 27.683 25.3046 27.7677 25.0613C27.8516 24.8204 27.8033 24.6153 27.7728 24.5198C27.7495 24.4466 27.7151 24.3767 27.7135 24.3733L24.2817 17.0804C24.2777 17.0718 24.2693 17.0541 24.2605 17.0366C24.2512 17.0181 24.2325 16.9817 24.2057 16.9402C24.1489 16.8524 24.0183 16.684 23.7756 16.5976Z" fill="#246BFD"/>
<path opacity="0.5" d="M34.2248 16.5976C34.4668 16.5115 34.6739 16.559 34.7742 16.5914C34.8213 16.6066 34.8589 16.623 34.8779 16.6315C34.8957 16.6395 34.9133 16.648 34.9218 16.6521L34.9237 16.653C37.2346 17.7616 39.1886 19.4969 40.5627 21.6621C41.9368 23.8274 42.6749 26.3343 42.6941 28.8973L42.6941 28.8993C42.6942 28.9088 42.6944 28.9283 42.694 28.9479C42.6936 28.9686 42.6925 29.0097 42.6862 29.0588C42.6728 29.1632 42.6276 29.3709 42.4467 29.5532C42.2652 29.736 42.0572 29.7824 41.9535 29.7965C41.9046 29.8031 41.8637 29.8045 41.8429 29.8051C41.8234 29.8056 41.8039 29.8056 41.7944 29.8055L33.7344 29.8056C33.7301 29.8056 33.6525 29.8069 33.5765 29.7969C33.4771 29.7838 33.271 29.7402 33.0887 29.5617C32.9047 29.3815 32.8578 29.174 32.8432 29.0773C32.8319 29.0029 32.8315 28.9261 32.8314 28.9201C32.8169 28.2207 32.6111 27.5381 32.2357 26.9466C31.8603 26.3551 31.3303 25.8782 30.7037 25.5673C30.6983 25.5647 30.629 25.5316 30.5664 25.4897C30.4851 25.4353 30.3174 25.3046 30.2327 25.0613C30.1488 24.8204 30.1971 24.6153 30.2275 24.5198C30.2509 24.4466 30.2853 24.3767 30.2869 24.3733L33.7187 17.0804C33.7227 17.0718 33.7311 17.0541 33.7399 17.0366C33.7492 17.0181 33.7679 16.9817 33.7947 16.9402C33.8515 16.8524 33.9821 16.684 34.2248 16.5976Z" fill="#246BFD"/>
<path opacity="0.5" d="M29.0121 32.8321C29.7127 32.83 30.3987 32.6358 30.9959 32.2715C31.0011 32.2682 31.066 32.2273 31.1347 32.1967C31.2241 32.157 31.4241 32.0848 31.6751 32.1428C31.9236 32.2003 32.0714 32.3505 32.136 32.4272C32.1854 32.4859 32.2261 32.5521 32.2282 32.5556L36.567 39.3457C36.5715 39.3528 36.5829 39.3705 36.5938 39.3886C36.6045 39.4064 36.6254 39.4417 36.6461 39.4864C36.6901 39.5813 36.763 39.7816 36.7067 40.033C36.6505 40.2836 36.4998 40.4335 36.419 40.5011C36.381 40.5328 36.347 40.5559 36.3298 40.5674C36.3136 40.5781 36.2971 40.5885 36.2891 40.5935L36.2872 40.5947C34.1171 41.9585 31.6072 42.6864 29.0428 42.6943C26.4784 42.7023 23.964 41.9901 21.7855 40.6398L21.7742 40.6328C21.7656 40.6274 21.7541 40.6201 21.7427 40.6127C21.7254 40.6013 21.6912 40.5784 21.6531 40.5469C21.5718 40.4799 21.4202 40.3309 21.3625 40.0807C21.3046 39.8297 21.3762 39.6289 21.4196 39.5338C21.4401 39.4889 21.4607 39.4534 21.4713 39.4356C21.4813 39.4188 21.4918 39.4022 21.4968 39.3942L25.7944 32.5756C25.7964 32.5723 25.8368 32.5057 25.8858 32.4467C25.9499 32.3696 26.0967 32.2184 26.345 32.1594C26.5956 32.0998 26.796 32.1707 26.8857 32.21C26.9547 32.2401 27.0196 32.2805 27.0246 32.2837C27.624 32.6442 28.3116 32.8343 29.0121 32.8321Z" fill="#246BFD"/>
</svg>
