<svg width="58" height="58" viewBox="0 0 58 58" fill="none" xmlns="http://www.w3.org/2000/svg">
<circle cx="29" cy="29" r="29" fill="#D9E2F4"/>
<g clip-path="url(#clip0_216_1321)">
<path d="M48.3334 9.66675H9.66675V48.3334H48.3334V9.66675Z" fill="white" fill-opacity="0.01"/>
<path d="M28.1946 13.6945C27.2713 17.2874 27.2713 19.9558 28.1946 21.6997C29.5794 24.3154 32.7864 25.762 28.6572 29.251C24.528 32.74 20.3415 29.8123 17.7567 29.8123C15.172 29.8123 12.9072 32.7227 12.9072 37.0556C12.9072 39.9441 13.4382 42.3608 14.5001 44.3056" stroke="#246BFD" stroke-width="3.91837" stroke-linecap="round" stroke-linejoin="round"/>
<path d="M33.8208 13.6945C32.6597 17.9873 32.9242 20.7098 34.6145 21.8622C37.1499 23.5907 37.3442 19.9806 42.0027 22.1286C46.6612 24.2765 45.45 31.764 42.7705 35.6181C40.0909 39.4723 34.3713 43.3668 29.007 42.6945C23.6427 42.0221 21.6482 35.4607 20.9576 35.4607C20.2672 35.4607 18.8083 35.4811 18.5234 38.1972C18.3335 40.0079 18.8733 42.044 20.143 44.3056" stroke="#246BFD" stroke-width="3.91837" stroke-linecap="round" stroke-linejoin="round"/>
<path d="M38.3806 32.4558C37.9149 33.8463 37.1282 34.9115 36.0204 35.686C34.9127 36.4606 33.5066 36.9171 31.8022 37.0556" stroke="#246BFD" stroke-width="3.91837" stroke-linecap="round"/>
</g>
<defs>
<clipPath id="clip0_216_1321">
<rect width="38.6667" height="38.6667" fill="white" transform="translate(9.66675 9.66675)"/>
</clipPath>
</defs>
</svg>
