<svg width="222" height="215" viewBox="0 0 222 215" fill="none" xmlns="http://www.w3.org/2000/svg">
<path d="M215.361 41.6409L213.201 78.9474L213.096 80.7728L211.59 106.737L211.481 108.641L210.016 133.901L209.888 136.111L209.22 147.663C208.762 155.494 201.988 161.531 194.157 161.073L110.809 156.245L108.818 156.13L90.4879 155.068L88.6571 154.963L63.0086 153.476L60.7745 153.348L27.6245 151.425C24.7781 151.254 22.0482 150.234 19.7857 148.499C17.5232 146.763 15.8316 144.391 14.9285 141.686C14.7266 141.094 14.566 140.488 14.448 139.873C14.2247 138.717 14.1463 137.538 14.2145 136.363L15.4999 114.175L15.605 112.335L17.9179 72.42L18.0278 70.5665L19.8721 38.6888L19.9866 36.7803L20.3574 30.3407C20.8105 22.5099 27.5888 16.477 35.4197 16.9307L55.4433 18.0886L58.0429 18.2397L100.987 20.7295L102.841 20.8347L129.295 22.3679L131.231 22.4823L155.483 23.8874L157.374 23.9972L201.952 26.5785C209.782 27.0318 215.815 33.8106 215.361 41.6409Z" fill="#246BFD" fill-opacity="0.19"/>
<path d="M95.7922 59.6645C91.2549 91.2512 89.48 123.173 90.4875 155.068L88.6568 154.963C87.6553 123.016 89.4363 91.042 93.9797 59.4036C95.8424 46.5014 98.1903 33.5354 100.987 20.7295L102.84 20.8348C100.026 33.691 97.6593 46.712 95.7922 59.6645Z" fill="white"/>
<path d="M211.59 106.737L211.48 108.641C204.254 110.348 196.855 111.218 189.429 111.232C181.809 111.25 174.219 110.264 166.856 108.298C149.483 103.602 135.382 93.4185 128.178 80.3517C116.777 59.6873 123.885 35.3341 129.295 22.3679L131.23 22.4823C125.912 34.9771 118.566 59.1381 129.78 79.4683C136.746 92.1004 150.434 101.964 167.337 106.526C174.543 108.454 181.973 109.421 189.433 109.4C196.898 109.384 204.334 108.49 211.59 106.737Z" fill="white"/>
<path d="M210.016 133.901L209.888 136.111C190.866 121.003 165.772 116.564 143.862 125.301C126.567 132.198 116.475 145.37 110.809 156.245L108.818 156.13C114.566 144.83 125.001 130.852 143.18 123.603C156.243 118.394 170.628 117.648 184.779 121.447C193.927 123.902 202.502 128.134 210.016 133.901Z" fill="white"/>
<path d="M213.201 78.9467L213.096 80.7728C212.524 80.7866 211.957 80.7958 211.389 80.7958C194.089 80.7958 177.855 74.2601 167.365 61.7104C156.985 49.2981 155.136 34.4463 155.483 23.8875L157.374 23.9974C157.09 34.1077 158.834 48.6528 168.765 60.5388C179.273 73.102 195.754 79.4226 213.201 78.9467Z" fill="white"/>
<path d="M67.9283 90.7135C61.7124 100.224 51.3511 107.552 38.7602 111.346C32.3526 113.273 25.4966 114.239 18.5308 114.239C17.5239 114.239 16.5123 114.22 15.501 114.175L15.6061 112.335C16.5123 112.367 17.4186 112.385 18.3248 112.385C38.4399 112.385 56.9991 104.083 66.3998 89.7114C74.0842 77.9582 75.8692 62.0628 71.3061 46.0989C68.3129 35.6409 62.839 26.0891 55.4429 18.0888L58.0425 18.2398C64.9948 26.1578 70.1664 35.4578 73.0636 45.5954C77.7777 62.0718 75.9056 78.5164 67.9283 90.7135Z" fill="white"/>
<path d="M37.7717 57.6094C37.2545 61.3945 34.4946 65.1979 30.1971 68.0491C26.6043 70.4337 22.4028 71.9074 17.9175 72.42L18.0274 70.5665C22.1054 70.0493 25.9177 68.69 29.1857 66.5206C33.0439 63.9621 35.5109 60.6256 35.9547 57.3623C36.8105 51.119 30.513 42.5884 19.8722 38.6888L19.9866 36.7803C31.9178 40.9041 38.7556 50.3873 37.7717 57.6094Z" fill="white"/>
<path d="M63.0083 153.476L60.7742 153.347C57.4102 148.134 52.7372 143.823 47.062 141.031C36.9976 136.079 25.1115 136.409 14.9275 141.686C14.7256 141.093 14.565 140.488 14.447 139.873C25.056 134.514 37.3951 134.235 47.8714 139.388C54.2483 142.528 59.4247 147.485 63.0083 153.476Z" fill="white"/>
<path d="M0 214.28C3.48766 203.804 9.98463 190.351 22.4618 187.755C37.8427 184.555 45.9506 201.259 67.7204 202.641C97.8751 204.557 110.412 174.291 134.77 178.552C154.146 181.942 158.377 203.219 178.353 202.641C187.267 202.383 191.038 198.012 200.144 199.393C210.145 200.911 217.042 207.921 221.45 213.983L0 214.28Z" fill="#246BFD" fill-opacity="0.31"/>
<path d="M41.3664 71.1557V39.4328C41.3683 37.9462 41.9597 36.5211 43.0109 35.47C44.0621 34.4189 45.4873 33.8276 46.9739 33.8259H79.5493C81.0361 33.8276 82.4614 34.4189 83.5127 35.4701C84.564 36.5213 85.1555 37.9467 85.1572 39.4334V71.1557H98.8878V39.4328C98.882 34.3057 96.8427 29.3904 93.2172 25.765C89.5918 22.1397 84.6764 20.1005 79.5493 20.0949H46.9739C41.8469 20.1007 36.9316 22.1399 33.3063 25.7652C29.681 29.3905 27.6418 34.3058 27.636 39.4328V71.1557H41.3664Z" fill="#30354F"/>
<path d="M104.644 64.2271H21.8802C18.8469 64.2271 16.3879 66.686 16.3879 69.7193V208.717C16.3879 211.751 18.8469 214.21 21.8802 214.21H104.644C107.677 214.21 110.136 211.751 110.136 208.717V69.7193C110.136 66.686 107.677 64.2271 104.644 64.2271Z" fill="#246BFD"/>
<path d="M68.329 79.0833C68.329 76.2847 66.0603 74.016 63.2618 74.016C60.4633 74.016 58.1946 76.2847 58.1946 79.0833V108.385C58.1946 111.184 60.4633 113.453 63.2618 113.453C66.0603 113.453 68.329 111.184 68.329 108.385V79.0833Z" fill="#30354F"/>
<path d="M63.262 94.966C69.0472 94.966 73.7369 90.2762 73.7369 84.4911C73.7369 78.7059 69.0472 74.0162 63.262 74.0162C57.4769 74.0162 52.7871 78.7059 52.7871 84.4911C52.7871 90.2762 57.4769 94.966 63.262 94.966Z" fill="#30354F"/>
<path d="M92.591 126.328H33.9327C30.8994 126.328 28.4404 128.787 28.4404 131.82V134.095C28.4404 137.128 30.8994 139.587 33.9327 139.587H92.591C95.6243 139.587 98.0833 137.128 98.0833 134.095V131.82C98.0833 128.787 95.6243 126.328 92.591 126.328Z" fill="white"/>
<path d="M92.591 152.574H33.9327C30.8994 152.574 28.4404 155.033 28.4404 158.066V160.341C28.4404 163.374 30.8994 165.833 33.9327 165.833H92.591C95.6243 165.833 98.0833 163.374 98.0833 160.341V158.066C98.0833 155.033 95.6243 152.574 92.591 152.574Z" fill="white"/>
<path d="M81.6451 178.843H44.8788C40.4853 178.843 36.9236 182.404 36.9236 186.798C36.9236 191.192 40.4853 194.753 44.8788 194.753H81.6451C86.0387 194.753 89.6003 191.192 89.6003 186.798C89.6003 182.404 86.0387 178.843 81.6451 178.843Z" fill="#262BC6"/>
<path d="M152.755 206.193L136.199 209.569C135.674 209.681 135.204 209.971 134.867 210.389C134.531 210.808 134.35 211.33 134.354 211.867C134.348 212.482 134.586 213.074 135.016 213.513C135.446 213.953 136.033 214.203 136.648 214.21H160.188L159.715 206.278L152.755 206.193Z" fill="#494E6D"/>
<path d="M152.505 200.564H159.464V207.241C159.464 207.936 159.188 208.602 158.697 209.093C158.206 209.584 157.54 209.86 156.846 209.86H155.124C154.429 209.86 153.763 209.584 153.272 209.093C152.781 208.602 152.505 207.936 152.505 207.241V200.564H152.505Z" fill="#FB855F"/>
<path d="M101.404 205.226L85.0994 209.612C84.5838 209.755 84.1341 210.073 83.8275 210.512C83.5209 210.95 83.3765 211.481 83.4192 212.015C83.4587 212.63 83.7389 213.205 84.1992 213.615C84.6594 214.026 85.2627 214.238 85.8786 214.207L109.402 212.754L108.364 204.881L101.404 205.226Z" fill="#494E6D"/>
<path d="M104.14 208.971C103.235 208.736 102.459 208.154 101.979 207.351C101.5 206.548 101.356 205.588 101.579 204.68L102.904 199.099L109.668 200.774L108.342 206.355C108.241 206.804 108.051 207.229 107.785 207.604C107.518 207.98 107.179 208.298 106.788 208.542C106.397 208.785 105.962 208.948 105.507 209.022C105.053 209.096 104.588 209.078 104.14 208.971Z" fill="#FB855F"/>
<path d="M92.2321 27.7401C92.2321 27.7401 117.983 57.6251 109.322 64.0175C99.557 71.2257 85.9255 30.1257 85.9255 30.1257C85.9255 30.1257 86.7968 26.923 92.2321 27.7401Z" fill="#EB8F90"/>
<path d="M133.498 37.041C133.498 37.041 125.539 40.7543 117.358 45.1711C108.288 50.0677 99.0093 55.9502 101.389 61.1827C106.627 72.7035 139.534 47.8137 139.534 47.8137C144.063 43.1449 139.124 36.0548 133.498 37.041Z" fill="#EB8F90"/>
<path d="M112.736 47.4153L108.129 50.3304L108.454 50.8443L113.061 47.9291L112.736 47.4153Z" fill="#D16B70"/>
<path d="M93.8036 29.6215C93.8036 29.6215 95.1175 27.6081 95.089 25.6221C95.0605 23.6362 94.797 22.2978 95.921 20.2877C97.0449 18.2776 94.6301 17.3423 93.7346 19.1319C92.8391 20.9215 91.8327 23.9714 90.0188 22.1267C88.2049 20.282 88.8165 13.7471 85.1152 15.3771C85.1152 15.3771 84.6634 12.3805 83.3761 12.7017C82.0889 13.0228 82.4814 15.741 82.4814 15.741C82.4814 15.741 79.2068 14.1772 81.4352 20.9253C81.4352 20.9253 79.7367 21.0444 79.9977 22.4044C80.4161 24.5799 83.2302 28.6876 86.2909 31.1979C91.2662 35.2778 93.8036 29.6215 93.8036 29.6215Z" fill="#EB8F90"/>
<path d="M119.681 42.325C121.081 47.8312 123.758 53.3329 127.714 58.8299L144.619 45.6046L138.124 34.3482L119.681 42.325Z" fill="#80C2C1"/>
<path d="M127.859 54.1921L128.832 53.4628C126.234 49.9924 123.064 41.0568 123.031 40.9668L121.884 41.3718C122.016 41.7457 125.149 50.5727 127.859 54.1921Z" fill="#251138"/>
<path d="M87.4507 23.1297L87.9994 22.8667C85.302 17.2423 85.4172 15.4238 85.4189 15.406L84.8138 15.3448C84.8053 15.4205 84.6443 17.2773 87.4507 23.1297Z" fill="#D16B70"/>
<path d="M85.1677 23.7685L85.6915 23.4597C83.9905 20.5725 82.7891 15.7168 82.7772 15.6684L82.187 15.8133C82.2363 16.0156 83.4216 20.8047 85.1677 23.7685Z" fill="#D16B70"/>
<path d="M83.494 25.1443L84.0153 24.8306C82.9636 23.0828 81.7153 20.8023 81.7029 20.7795L81.1694 21.071C81.182 21.0946 82.4357 23.3854 83.494 25.1443Z" fill="#D16B70"/>
<path d="M117.304 154.932C112.392 153.529 109.399 148.453 110.5 143.367C115.161 121.833 120.607 100.682 125.458 84.8877H147.129C141.517 102.854 134.171 129.002 129.184 148.014C127.799 153.295 122.46 156.405 117.304 154.932Z" fill="#262BC6"/>
<path d="M122.29 136.696C116.978 135.179 111.511 138.542 110.344 144.048C106.408 162.631 101.046 186.64 98.63 198.586L114.314 203.066C117.348 189.536 124.606 165.356 128.969 148.636C130.319 143.46 127.342 138.139 122.29 136.696Z" fill="#262BC6"/>
<path d="M153.779 155.276C148.679 155.276 144.458 151.211 144.176 146.011C142.984 123.991 142.46 101.433 142.966 84.8877H164.011C163.346 103.734 163.183 125.664 163.396 145.345C163.455 150.812 159.133 155.276 153.779 155.276Z" fill="#262BC6"/>
<path d="M153.771 136.343C148.255 136.343 143.876 141.085 144.206 146.709C145.317 165.687 146.901 189.133 147.725 201.301H164.011C163.364 187.437 163.56 163.306 163.351 146.004C163.288 140.648 159.016 136.343 153.771 136.343Z" fill="#262BC6"/>
<path d="M125.439 84.8877C125.439 84.8877 125.928 41.2684 136.639 35.0593C142.779 31.4995 155.486 32.4662 161.966 37.3843C168.506 42.3477 163.887 84.8877 163.887 84.8877H125.439Z" fill="#80C2C1"/>
<path d="M128.226 58.0619C128.235 57.9737 129.192 49.1586 132.919 41.6507L131.829 41.1103C128.003 48.8192 127.025 57.8452 127.016 57.9355L128.226 58.0619Z" fill="#251138"/>
<path d="M58.8297 20.1779L114.509 57.276C116.074 58.3187 118.187 57.8953 119.23 56.3304C120.273 54.7654 119.85 52.6514 118.285 51.6087L62.6057 14.5106C61.0408 13.4679 58.9268 13.8913 57.8841 15.4563C56.8413 17.0212 57.2647 19.1352 58.8297 20.1779Z" fill="#246BFD"/>
<path d="M112.731 56.092C112.194 58.4355 112.552 60.895 113.736 62.9877C114.919 65.0803 116.843 66.6548 119.128 67.4019C121.413 68.149 123.895 68.0146 126.086 67.0253C128.277 66.0359 130.019 64.2631 130.97 62.0549C131.921 59.8467 132.012 57.3628 131.225 55.0911C130.438 52.8193 128.83 50.9239 126.717 49.7771C124.604 48.6303 122.138 48.315 119.805 48.8931C117.471 49.4712 115.438 50.901 114.105 52.9016C113.457 53.8728 112.991 54.9539 112.731 56.092ZM124.002 55.3904C124.565 55.7652 125.003 56.2982 125.263 56.9222C125.522 57.5463 125.591 58.2332 125.46 58.8961C125.329 59.5591 125.004 60.1684 124.527 60.6468C124.05 61.1253 123.441 61.4515 122.779 61.5842C122.116 61.7168 121.429 61.6501 120.804 61.3922C120.18 61.1344 119.645 60.6972 119.269 60.1357C118.893 59.5743 118.692 58.914 118.691 58.2382C118.69 57.5624 118.89 56.9015 119.264 56.3392C119.513 55.9657 119.833 55.645 120.206 55.3952C120.579 55.1454 120.997 54.9715 121.437 54.8834C121.877 54.7953 122.33 54.7948 122.77 54.8818C123.21 54.9687 123.629 55.1416 124.002 55.3904Z" fill="#246BFD"/>
<path d="M79.8767 25.8963C78.8218 27.4795 79.2501 29.618 80.8333 30.6729C82.4165 31.7278 84.5551 31.2995 85.61 29.7163L94.8273 15.8823C95.8822 14.2991 95.4539 12.1605 93.8707 11.1057C92.2875 10.0508 90.1489 10.4791 89.0941 12.0623L79.8767 25.8963Z" fill="#246BFD"/>
<path d="M65.9677 16.6967C64.9137 18.2795 65.3425 20.417 66.9253 21.471C68.5081 22.5249 70.6457 22.0962 71.6996 20.5133L80.909 6.68264C81.9629 5.09981 81.5342 2.96228 79.9514 1.90833C78.3685 0.854384 76.231 1.28313 75.1771 2.86595L65.9677 16.6967Z" fill="#246BFD"/>
<path d="M135.071 61.5726C135.071 61.5726 173.438 66.2255 171.345 77.0074C168.984 89.1654 132.054 67.7206 132.054 67.7206C132.054 67.7206 130.582 64.7135 135.071 61.5726Z" fill="#EB8F90"/>
<path d="M151.669 43.2641C151.669 43.2641 153.505 52.0016 155.967 61.1105C158.696 71.2099 162.322 81.7301 167.838 80.4847C179.984 77.7422 163.271 39.5657 163.271 39.5657C159.781 34.0443 151.938 37.4417 151.669 43.2641Z" fill="#EB8F90"/>
<path d="M137.45 61.8998C137.45 61.8998 137.081 59.4804 135.755 58.0083C134.43 56.5362 133.358 55.713 132.853 53.4281C132.349 51.1432 129.978 52.1081 130.504 54.0708C131.029 56.0334 132.303 59.0184 129.772 58.8862C127.24 58.754 123.389 53.4247 121.768 57.2053C121.768 57.2053 119.47 55.2674 118.745 56.3975C118.021 57.5275 120.093 59.2978 120.093 59.2978C120.093 59.2978 116.684 60.3855 122.74 63.9132C122.74 63.9132 121.583 65.1763 122.667 66.017C124.402 67.3614 129.148 68.5019 133.024 68.2727C139.324 67.8996 137.45 61.8998 137.45 61.8998Z" fill="#EB8F90"/>
<path d="M153.745 58.1808C160.032 58.2114 165.791 56.4603 171.259 53.7263L165.435 40.9797C163.619 37.0057 159.184 35.0407 155.102 36.401L148.195 38.7022L153.745 58.1808Z" fill="#80C2C1"/>
<path d="M128.559 61.4061L128.793 60.8449C123.137 58.4856 122.027 57.0417 122.016 57.0273L121.521 57.3792C121.565 57.4424 122.668 58.9492 128.559 61.4061Z" fill="#D16B70"/>
<path d="M127.32 63.4634L127.504 62.8837C124.373 61.8915 120.307 59.0762 120.266 59.0481L119.919 59.5469C120.089 59.6648 124.101 62.4433 127.32 63.4634Z" fill="#D16B70"/>
<path d="M127.008 65.6523L127.186 65.0708C125.274 64.4846 122.867 63.6344 122.843 63.6262L122.64 64.1992C122.664 64.2081 125.083 65.0626 127.008 65.6523Z" fill="#D16B70"/>
<path d="M145.886 40.2498C141.431 40.2498 139.4 34.9353 140.597 33.7127C140.956 33.3247 141.241 32.8741 141.438 32.3832H141.441C141.743 31.6437 141.947 30.8677 142.046 30.0751L142.049 30.0719L150.286 22.5694C149.841 27.3461 151.843 30.6999 152.569 33.0881C153.292 35.4764 150.953 40.2498 145.886 40.2498Z" fill="#EB8F90"/>
<path d="M148.84 28.218C146.478 32.8311 141.578 32.3733 141.441 32.3832C141.743 31.6437 141.946 30.8677 142.046 30.0751L142.049 30.0719C142.272 29.9415 151.054 23.8939 148.84 28.218Z" fill="#D16B70"/>
<path d="M158.432 13.9867C158.432 13.9867 158.078 18.3466 151.87 22.8384C145.362 27.5475 152.77 13.0741 152.77 13.0741L158.432 13.9867Z" fill="#8E3332"/>
<path d="M141.487 11.3676C141.487 11.3676 140.608 15.1247 139.468 19.3417C137.839 25.3695 137.701 30.2438 143.714 30.2438C153.813 30.2438 153.141 13.1301 153.141 13.1301L141.487 11.3676Z" fill="#EB8F90"/>
<path d="M149.894 15.0632C149.894 15.0632 134.75 14.7169 136.838 4.25795C138.925 -6.20105 144.865 6.76214 147.945 6.76214C151.558 6.76214 161.398 7.29955 157.787 16.0811C156.849 18.3622 155.351 15.4198 149.894 15.0632Z" fill="#8E3332"/>
<path d="M157.544 65.9605L157.342 66.5343L161.864 68.1257L162.066 67.5519L157.544 65.9605Z" fill="#D16B70"/>
<path d="M153.284 48.7423L152.109 49.0571L155.381 61.2673L156.556 60.9525L153.284 48.7423Z" fill="#251138"/>
<path d="M145.919 43.4347C150.117 43.4347 153.737 40.4825 156.473 34.7875L155.377 34.2607C152.465 40.3224 148.731 42.9428 144.269 42.0494C139.483 41.0911 138.357 34.4931 138.346 34.4265L137.145 34.6201C137.195 34.9261 138.413 42.1181 144.03 43.2419C144.652 43.3685 145.285 43.433 145.919 43.4347Z" fill="#251138"/>
<path d="M154.307 55.4894C159.951 55.1692 169.044 50.4533 169.429 50.2529L168.866 49.1744C168.774 49.2224 159.62 53.9698 154.238 54.275L154.307 55.4894Z" fill="#251138"/>
<path d="M133.82 108.468L149.521 109.101L147.662 95.1768C147.662 95.1768 141.671 94.966 140.225 94.966C138.779 94.966 133.82 108.468 133.82 108.468Z" fill="#262BC6"/>
<path d="M144.604 102.091L144.935 100.921L139.464 99.3793L141.651 85.5676L140.45 85.3775L138.093 100.257L144.604 102.091Z" fill="#30354F"/>
<path d="M158.146 85.0439L157.01 85.4769L162.795 100.666L163.932 100.233L158.146 85.0439Z" fill="#30354F"/>
<path d="M129.783 84.7407L119.867 101.618L120.915 102.235L130.832 85.357L129.783 84.7407Z" fill="#30354F"/>
<path d="M99.9393 191.589L98.63 198.586L114.314 203.066L115.847 197.285L99.9393 191.589Z" fill="#494E6D"/>
<path d="M147.042 194.753L147.726 201.301H164.011L163.776 194.753H147.042Z" fill="#494E6D"/>
<path d="M152.052 27.351C153.735 27.351 155.099 25.9578 155.099 24.2393C155.099 22.5208 153.735 21.1276 152.052 21.1276C150.369 21.1276 149.005 22.5208 149.005 24.2393C149.005 25.9578 150.369 27.351 152.052 27.351Z" fill="#EB8F90"/>
<path d="M140.328 24.1867L143.53 24.6085C143.53 24.6085 143.22 27.5094 141.464 27.2457C139.708 26.982 140.328 24.1867 140.328 24.1867Z" fill="white"/>
<path d="M145.451 18.3725C145.772 18.3725 146.032 18.1065 146.032 17.7784C146.032 17.4504 145.772 17.1844 145.451 17.1844C145.13 17.1844 144.869 17.4504 144.869 17.7784C144.869 18.1065 145.13 18.3725 145.451 18.3725Z" fill="#8E3332"/>
<path d="M141.824 17.5549C142.146 17.5549 142.406 17.2889 142.406 16.9608C142.406 16.6328 142.146 16.3668 141.824 16.3668C141.503 16.3668 141.243 16.6328 141.243 16.9608C141.243 17.2889 141.503 17.5549 141.824 17.5549Z" fill="#8E3332"/>
<path d="M142.347 22.5279C142.711 22.5251 143.071 22.4433 143.401 22.288L142.891 21.1833C142.299 21.4571 141.82 21.2338 141.72 21.0312C141.643 20.8756 141.888 20.6595 142.166 20.5143C144.25 19.4207 143.961 17.2101 143.948 17.1172L142.743 17.2889L143.345 17.2031L142.743 17.2848C142.75 17.3442 142.914 18.7486 141.601 19.4376C140.491 20.0199 140.313 20.9276 140.629 21.5691C140.9 22.1187 141.558 22.5279 142.347 22.5279Z" fill="#8E3332"/>
<path d="M146.866 16.9082L147.979 16.4176C147.797 15.9863 147.502 15.6121 147.125 15.3343C146.748 15.0564 146.303 14.8853 145.837 14.8387L145.773 16.0533L145.805 15.4461L145.766 16.053C146.008 16.0865 146.237 16.1832 146.43 16.3333C146.623 16.4834 146.774 16.6817 146.866 16.9082Z" fill="#8E3332"/>
<path d="M142.923 15.3878L143.637 14.4031C142.542 13.6094 141.126 13.9424 141.066 13.9569L141.354 15.1387L141.21 14.5479L141.351 15.1393C141.359 15.1373 142.288 14.9278 142.923 15.3878Z" fill="#8E3332"/>
<path d="M144.701 52.4148C145.673 52.4148 145.674 50.9049 144.701 50.9049C143.728 50.9049 143.728 52.4148 144.701 52.4148Z" fill="#CC7B16"/>
</svg>
