<svg width="58" height="58" viewBox="0 0 58 58" fill="none" xmlns="http://www.w3.org/2000/svg">
<circle cx="29" cy="29" r="29" fill="#D9E2F4"/>
<g clip-path="url(#clip0_216_1300)">
<path d="M42.636 23.5766C42.8591 23.1919 42.7269 22.6987 42.341 22.4768C42.0685 22.3187 41.7416 22.34 41.495 22.5028V22.5016L40.407 23.2203L37.8605 21.7499L40.407 20.2796L41.495 20.9983V20.9971C41.7417 21.1599 42.0685 21.1811 42.341 21.0231C42.7269 20.8012 42.8591 20.3079 42.636 19.9233C42.5712 19.81 42.4838 19.7203 42.3823 19.6543V19.6531L41.967 19.3793L42.2336 19.2247C42.6184 19.0028 42.7505 18.5096 42.5286 18.1249C42.3056 17.7391 41.8136 17.6069 41.4277 17.8299L41.1611 17.9833L41.1315 17.4865C41.1233 17.3661 41.0902 17.2446 41.0253 17.1325C40.8023 16.7467 40.3102 16.6145 39.9244 16.8375C39.6518 16.9944 39.5066 17.2883 39.5243 17.5833H39.5231L39.601 18.8848L36.2498 20.8201L32.8974 18.8848L32.9764 17.5833H32.9752C32.9929 17.2883 32.8477 16.9944 32.574 16.8375C32.1893 16.6145 31.6961 16.7467 31.4743 17.1325C31.4094 17.2445 31.3752 17.3661 31.3681 17.4865L31.3374 17.9833L31.0719 17.8299C30.686 17.6069 30.1939 17.7391 29.9715 18.1249C29.7486 18.5096 29.8807 19.0028 30.2659 19.2247L30.5326 19.3793L30.1172 19.6531V19.6543C30.0163 19.7204 29.9278 19.81 29.8636 19.9233C29.6412 20.308 29.7727 20.8013 30.1579 21.0231C30.4311 21.1811 30.7579 21.1599 31.0046 20.9971V20.9983L32.0926 20.2796L34.639 21.7499L32.0926 23.2203L31.0046 22.5016V22.5028C30.7579 22.34 30.4311 22.3187 30.1579 22.4768C29.7726 22.6987 29.6411 23.1919 29.8636 23.5766C29.9279 23.6887 30.0163 23.7784 30.1172 23.8456L30.5326 24.1206L30.2659 24.274C29.8806 24.497 29.7491 24.9891 29.9715 25.375C30.1939 25.7596 30.686 25.8918 31.0719 25.6699L31.3374 25.5154L31.3681 26.0121C31.3752 26.1336 31.4094 26.2552 31.4743 26.3673C31.6962 26.752 32.1894 26.8841 32.574 26.6623C32.8478 26.5041 32.993 26.2103 32.9752 25.9165H32.9764L32.8974 24.615L36.2498 22.6797L39.601 24.615L39.5231 25.9165H39.5243C39.5066 26.2103 39.6518 26.5041 39.9244 26.6623C40.3102 26.8841 40.8023 26.752 41.0253 26.3673C41.0902 26.2552 41.1233 26.1336 41.1315 26.0121L41.1611 25.5154L41.4277 25.6699C41.8136 25.8918 42.3056 25.7596 42.5286 25.375C42.7505 24.9891 42.6184 24.497 42.2336 24.274L41.967 24.1206L42.3823 23.8456C42.4838 23.7784 42.5711 23.6887 42.636 23.5766Z" fill="#7FA7F9"/>
<path d="M38.2204 26.6683L37.0545 26.0853V17.4146L38.2204 16.8316V16.8304C38.4847 16.6983 38.6664 16.4258 38.6664 16.1107C38.6664 15.6658 38.3054 15.3047 37.8604 15.3047C37.7306 15.3047 37.6092 15.3366 37.5006 15.3909V15.3897L37.0545 15.6127V15.3047C37.0545 14.8598 36.6946 14.5 36.2498 14.5C35.8049 14.5 35.4438 14.8599 35.4438 15.3047V15.6127L34.9989 15.3908C34.8903 15.3365 34.7676 15.3046 34.6389 15.3046C34.193 15.3046 33.833 15.6657 33.833 16.1106C33.833 16.4257 34.0147 16.6983 34.2779 16.8304V16.8316L35.4438 17.4145V26.0853L34.2779 26.6683C34.0148 26.8004 33.833 27.073 33.833 27.3881C33.833 27.8341 34.193 28.194 34.6389 28.194C34.7675 28.194 34.8903 28.1633 34.9989 28.109L35.4438 27.886V28.194C35.4438 28.6389 35.8049 29 36.2498 29C36.6947 29 37.0545 28.6389 37.0545 28.194V27.886L37.5006 28.109C37.6092 28.1633 37.7306 28.194 37.8604 28.194C38.3054 28.194 38.6664 27.8341 38.6664 27.3881C38.6664 27.073 38.4847 26.8004 38.2204 26.6683Z" fill="#7FA7F9"/>
<path d="M34.3699 24.7036C32.2661 24.7036 30.3638 25.5685 28.9998 26.961C27.6351 25.5685 25.7335 24.7036 23.6295 24.7036C19.4771 24.7036 16.1111 28.0701 16.1111 32.2214C16.1111 40.8143 28.9998 48.3334 28.9998 48.3334C28.9998 48.3334 41.8891 40.8143 41.8891 32.2214C41.8891 28.0702 38.5225 24.7036 34.3699 24.7036Z" fill="#246BFD"/>
<path d="M28.1367 18.7433C28.3591 18.3586 28.227 17.8653 27.8417 17.6423C27.5685 17.4854 27.2423 17.5066 26.9956 17.6683H26.995L25.9076 18.387L23.3612 16.9166L25.9076 15.4463L26.995 16.165L26.9956 16.1638C27.2423 16.3266 27.5685 16.3479 27.8417 16.1898C28.227 15.9679 28.3592 15.4747 28.1367 15.09C28.0718 14.9767 27.9839 14.887 27.8824 14.821L27.883 14.8198L27.4676 14.5461L27.7337 14.3915C28.119 14.1696 28.2511 13.6764 28.0287 13.2917C27.8063 12.9059 27.3137 12.7737 26.9283 12.9967L26.6617 13.1501L26.6321 12.6533H26.6315C26.6238 12.5329 26.5902 12.4114 26.5253 12.2993C26.3029 11.9135 25.8102 11.7813 25.425 12.0043C25.1518 12.1613 25.0072 12.4551 25.0243 12.7501H25.0237L25.1016 14.0516L21.7498 15.9869L18.398 14.0516L18.4765 12.75H18.4753C18.493 12.455 18.3478 12.1612 18.0746 12.0043C17.6894 11.7813 17.1967 11.9134 16.9743 12.2993C16.9099 12.4113 16.8757 12.5329 16.8687 12.6532H16.8681L16.838 13.15L16.5719 12.9967C16.1866 12.7736 15.694 12.9058 15.4716 13.2916C15.2486 13.6764 15.3807 14.1696 15.766 14.3914L16.0326 14.546L15.6173 14.8197V14.8209C15.5164 14.887 15.4278 14.9767 15.3636 15.0899C15.1412 15.4747 15.2727 15.9679 15.658 16.1897C15.9311 16.3479 16.258 16.3266 16.5046 16.1637V16.1649L17.5926 15.4463L20.139 16.9165L17.5926 18.3869L16.5046 17.6682C16.2579 17.5065 15.9311 17.4853 15.658 17.6423C15.2726 17.8653 15.1411 18.3585 15.3636 18.7432C15.4279 18.8553 15.5164 18.945 15.6173 19.0122L16.0326 19.2872L15.766 19.4406C15.3807 19.6636 15.2492 20.1558 15.4716 20.5416C15.694 20.9263 16.1866 21.0585 16.5719 20.8366L16.838 20.682L16.8681 21.1787H16.8687C16.8758 21.3002 16.91 21.4218 16.9743 21.5339C17.1967 21.9186 17.6894 22.0508 18.0746 21.8289C18.3478 21.6708 18.493 21.377 18.4753 21.0832H18.4765L18.398 19.7816L21.7498 17.8464L25.1016 19.7816L25.0238 21.0832H25.0244C25.0072 21.377 25.1519 21.6708 25.425 21.8289C25.8103 22.0508 26.303 21.9186 26.5254 21.5339C26.5903 21.4218 26.624 21.3002 26.6316 21.1787H26.6322L26.6617 20.682L26.9284 20.8366C27.3137 21.0585 27.8064 20.9263 28.0288 20.5416C28.2512 20.1558 28.119 19.6636 27.7338 19.4406L27.4677 19.2872L27.8831 19.0122H27.8825C27.9839 18.9451 28.0718 18.8555 28.1367 18.7433Z" fill="#7FA7F9"/>
<path d="M23.721 21.835L22.5551 21.2521V12.5814L23.721 11.9985V11.9973C23.9847 11.8651 24.1664 11.5925 24.1664 11.2774C24.1664 10.8325 23.806 10.4715 23.3611 10.4715C23.2312 10.4715 23.1097 10.5033 23.0011 10.5576L23.0005 10.5564L22.5551 10.7794V10.4715C22.5551 10.0266 22.1946 9.66675 21.7497 9.66675C21.3048 9.66675 20.9443 10.0267 20.9443 10.4715V10.7794L20.4989 10.5575C20.3903 10.5032 20.2681 10.4714 20.1389 10.4714C19.6941 10.4714 19.333 10.8325 19.333 11.2774C19.333 11.5924 19.5147 11.865 19.7784 11.9972V11.9984L20.9443 12.5813V21.2521L19.7784 21.835C19.5147 21.9672 19.333 22.2397 19.333 22.5548C19.333 23.0009 19.6941 23.3608 20.1389 23.3608C20.2681 23.3608 20.3903 23.3302 20.4989 23.2746V23.2759L20.9443 23.0528V23.3608C20.9443 23.8057 21.3048 24.1667 21.7497 24.1667C22.1946 24.1667 22.5551 23.8057 22.5551 23.3608V23.0528L23.0005 23.2759L23.0011 23.2746C23.1097 23.3301 23.2312 23.3608 23.3611 23.3608C23.8059 23.3608 24.1664 23.0009 24.1664 22.5548C24.1664 22.2397 23.9847 21.9672 23.721 21.835Z" fill="#7FA7F9"/>
</g>
<defs>
<clipPath id="clip0_216_1300">
<rect width="38.6667" height="38.6667" fill="white" transform="translate(9.6665 9.66675)"/>
</clipPath>
</defs>
</svg>
