<svg width="58" height="58" viewBox="0 0 58 58" fill="none" xmlns="http://www.w3.org/2000/svg">
<circle cx="29" cy="29" r="29" fill="#246BFD" fill-opacity="0.1"/>
<circle opacity="0.5" cx="28.9999" cy="29" r="10.0694" fill="#246BFD"/>
<path d="M29.8055 24.1665C29.8055 25.0563 29.0842 25.7776 28.1944 25.7776C27.3046 25.7776 26.5833 25.0563 26.5833 24.1665C26.5833 23.2767 27.3046 22.5554 28.1944 22.5554C29.0842 22.5554 29.8055 23.2767 29.8055 24.1665Z" fill="#246BFD"/>
<path d="M26.5833 30.611C26.5833 31.5008 25.862 32.2221 24.9722 32.2221C24.0824 32.2221 23.3611 31.5008 23.3611 30.611C23.3611 29.7212 24.0824 28.9999 24.9722 28.9999C25.862 28.9999 26.5833 29.7212 26.5833 30.611Z" fill="#246BFD"/>
<path d="M35.4444 32.2221C35.4444 33.1119 34.7231 33.8332 33.8333 33.8332C32.9435 33.8332 32.2222 33.1119 32.2222 32.2221C32.2222 31.3323 32.9435 30.611 33.8333 30.611C34.7231 30.611 35.4444 31.3323 35.4444 32.2221Z" fill="#246BFD"/>
<path d="M29 12.8888C30.1122 12.8888 31.0139 13.7904 31.0139 14.9027C31.0139 15.7285 30.5168 16.4382 29.8055 16.749V19.3332C29.8055 19.7781 29.4449 20.1388 29 20.1388C28.5551 20.1388 28.1944 19.7781 28.1944 19.3332V16.749C27.4831 16.4382 26.9861 15.7285 26.9861 14.9027C26.9861 13.7904 27.8877 12.8888 29 12.8888Z" fill="#246BFD"/>
<path d="M29.8055 38.6666C29.8055 38.2217 29.4449 37.8611 29 37.8611C28.5551 37.8611 28.1944 38.2217 28.1944 38.6666V41.2509C27.4831 41.5616 26.9861 42.2714 26.9861 43.0972C26.9861 44.2094 27.8877 45.1111 29 45.1111C30.1122 45.1111 31.0139 44.2094 31.0139 43.0972C31.0139 42.2714 30.5168 41.5616 29.8055 41.2509V38.6666Z" fill="#246BFD"/>
<path d="M18.9306 16.9166C20.0429 16.9166 20.9445 17.8183 20.9445 18.9305C20.9445 19.1902 20.8954 19.4385 20.8058 19.6664L23.1253 21.9859C23.4399 22.3005 23.4399 22.8105 23.1253 23.1251C22.8107 23.4397 22.3006 23.4397 21.986 23.1251L19.6666 20.8057C19.4386 20.8952 19.1904 20.9444 18.9306 20.9444C17.8184 20.9444 16.9167 20.0428 16.9167 18.9305C16.9167 17.8183 17.8184 16.9166 18.9306 16.9166Z" fill="#246BFD"/>
<path d="M39.0695 16.9166C40.1817 16.9166 41.0834 17.8183 41.0834 18.9305C41.0834 20.0428 40.1817 20.9444 39.0695 20.9444C38.8097 20.9444 38.5615 20.8952 38.3335 20.8057L36.0141 23.1252C35.6995 23.4397 35.1894 23.4397 34.8749 23.1252C34.5603 22.8106 34.5603 22.3005 34.8749 21.9859L37.1943 19.6665C37.1048 19.4385 37.0556 19.1903 37.0556 18.9305C37.0556 17.8183 37.9572 16.9166 39.0695 16.9166Z" fill="#246BFD"/>
<path d="M38.3335 37.1942C38.5615 37.1046 38.8098 37.0555 39.0695 37.0555C40.1817 37.0555 41.0834 37.9571 41.0834 39.0693C41.0834 40.1816 40.1817 41.0832 39.0695 41.0832C37.9573 41.0832 37.0556 40.1816 37.0556 39.0693C37.0556 38.8096 37.1048 38.5614 37.1943 38.3334L34.8749 36.014C34.5603 35.6994 34.5603 35.1893 34.8749 34.8747C35.1894 34.5601 35.6995 34.5601 36.0141 34.8747L38.3335 37.1942Z" fill="#246BFD"/>
<path d="M16.7491 28.1944C16.4384 27.4831 15.7286 26.9861 14.9028 26.9861C13.7906 26.9861 12.8889 27.8877 12.8889 29C12.8889 30.1122 13.7906 31.0139 14.9028 31.0139C15.7286 31.0139 16.4384 30.5168 16.7491 29.8055L19.3334 29.8055C19.7783 29.8055 20.1389 29.4449 20.1389 29C20.1389 28.5551 19.7783 28.1944 19.3334 28.1944L16.7491 28.1944Z" fill="#246BFD"/>
<path d="M43.0972 26.9861C44.2094 26.9861 45.1111 27.8877 45.1111 29C45.1111 30.1122 44.2094 31.0139 43.0972 31.0139C42.2714 31.0139 41.5616 30.5168 41.2509 29.8055H38.6666C38.2217 29.8055 37.8611 29.4449 37.8611 29C37.8611 28.5551 38.2217 28.1944 38.6666 28.1944L41.2509 28.1944C41.5616 27.4831 42.2714 26.9861 43.0972 26.9861Z" fill="#246BFD"/>
<path d="M20.8058 38.3334C20.8954 38.5614 20.9445 38.8096 20.9445 39.0694C20.9445 40.1816 20.0429 41.0833 18.9306 41.0833C17.8184 41.0833 16.9167 40.1816 16.9167 39.0694C16.9167 37.9571 17.8184 37.0555 18.9306 37.0555C19.1904 37.0555 19.4386 37.1047 19.6666 37.1942L21.986 34.8747C22.3006 34.5601 22.8107 34.5601 23.1253 34.8747C23.4398 35.1893 23.4398 35.6994 23.1253 36.014L20.8058 38.3334Z" fill="#246BFD"/>
</svg>
