<svg width="50" height="50" viewBox="0 0 50 50" fill="none" xmlns="http://www.w3.org/2000/svg">
<rect width="50" height="50" rx="25" fill="#D8E5FF"/>
<g clip-path="url(#clip0_31_715)">
<path d="M21.2685 23.1328C22.5978 25.4682 24.5318 27.4022 26.8672 28.7315L28.1195 26.9777C28.3209 26.6957 28.6187 26.4972 28.9565 26.42C29.2943 26.3427 29.6487 26.3919 29.9527 26.5583C31.9563 27.6533 34.169 28.3118 36.4452 28.4907C36.8005 28.5188 37.1321 28.6798 37.3739 28.9416C37.6158 29.2034 37.75 29.5467 37.75 29.9031V36.2242C37.7501 36.575 37.62 36.9133 37.385 37.1737C37.15 37.4341 36.8268 37.5981 36.4778 37.6338C35.727 37.7117 34.9705 37.75 34.2083 37.75C22.0817 37.75 12.25 27.9183 12.25 15.7917C12.25 15.0295 12.2883 14.273 12.3662 13.5222C12.4019 13.1732 12.5659 12.85 12.8263 12.615C13.0867 12.38 13.425 12.2499 13.7758 12.25H20.0969C20.4533 12.25 20.7966 12.3842 21.0584 12.6261C21.3202 12.8679 21.4812 13.1995 21.5093 13.5547C21.6882 15.831 22.3467 18.0437 23.4417 20.0473C23.6081 20.3513 23.6573 20.7057 23.58 21.0435C23.5028 21.3813 23.3043 21.6791 23.0223 21.8805L21.2685 23.1328ZM17.6957 22.2021L20.3873 20.2797C19.6234 18.6308 19.1001 16.8809 18.8332 15.0833H15.0975C15.089 15.3185 15.0847 15.5551 15.0847 15.7917C15.0833 26.3543 23.6457 34.9167 34.2083 34.9167C34.4449 34.9167 34.6815 34.9124 34.9167 34.9025V31.1667C33.1191 30.8999 31.3692 30.3766 29.7203 29.6127L27.7979 32.3043C27.0239 32.0036 26.2722 31.6485 25.5483 31.2418L25.4661 31.1951C22.6874 29.6137 20.3863 27.3126 18.8049 24.5339L18.7582 24.4517C18.3515 23.7278 17.9964 22.9761 17.6957 22.2021Z" fill="#246BFD"/>
</g>
<defs>
<clipPath id="clip0_31_715">
<rect width="34" height="34" fill="white" transform="translate(8 8)"/>
</clipPath>
</defs>
</svg>
