<svg width="50" height="50" viewBox="0 0 50 50" fill="none" xmlns="http://www.w3.org/2000/svg">
<rect width="50" height="50" rx="25" fill="#D8E5FF"/>
<g clip-path="url(#clip0_31_722)">
<path d="M11.25 12.25H36.75C37.1257 12.25 37.4861 12.3993 37.7517 12.6649C38.0174 12.9306 38.1667 13.2909 38.1667 13.6667V36.3333C38.1667 36.7091 38.0174 37.0694 37.7517 37.3351C37.4861 37.6007 37.1257 37.75 36.75 37.75H11.25C10.8743 37.75 10.5139 37.6007 10.2483 37.3351C9.98259 37.0694 9.83334 36.7091 9.83334 36.3333V13.6667C9.83334 13.2909 9.98259 12.9306 10.2483 12.6649C10.5139 12.3993 10.8743 12.25 11.25 12.25ZM35.3333 18.2538L24.102 28.3122L12.6667 18.2227V34.9167H35.3333V18.2538ZM13.3906 15.0833L24.0864 24.5212L34.6278 15.0833H13.3906Z" fill="#246BFD"/>
</g>
<defs>
<clipPath id="clip0_31_722">
<rect width="34" height="34" fill="white" transform="translate(7 8)"/>
</clipPath>
</defs>
</svg>
