<svg width="16" height="16" viewBox="0 0 16 16" fill="none" xmlns="http://www.w3.org/2000/svg">
<g clip-path="url(#clip0_217_1569)">
<path d="M14 13.3335H15.3333V14.6668H0.666626V13.3335H1.99996V2.00016C1.99996 1.82335 2.0702 1.65378 2.19522 1.52876C2.32025 1.40373 2.48981 1.3335 2.66663 1.3335H13.3333C13.5101 1.3335 13.6797 1.40373 13.8047 1.52876C13.9297 1.65378 14 1.82335 14 2.00016V13.3335ZM7.33329 5.3335H5.99996V6.66683H7.33329V8.00016H8.66663V6.66683H9.99996V5.3335H8.66663V4.00016H7.33329V5.3335ZM9.33329 13.3335H10.6666V9.3335H5.33329V13.3335H6.66663V10.6668H9.33329V13.3335Z" fill="white"/>
</g>
<defs>
<clipPath id="clip0_217_1569">
<rect width="16" height="16" fill="white"/>
</clipPath>
</defs>
</svg>
