<svg width="40" height="40" viewBox="0 0 40 40" fill="none" xmlns="http://www.w3.org/2000/svg">
<circle opacity="0.5" cx="19.9999" cy="20.0002" r="10.4167" fill="#246BFD"/>
<path d="M20.8333 15.0002C20.8333 15.9206 20.0871 16.6668 19.1667 16.6668C18.2462 16.6668 17.5 15.9206 17.5 15.0002C17.5 14.0797 18.2462 13.3335 19.1667 13.3335C20.0871 13.3335 20.8333 14.0797 20.8333 15.0002Z" fill="#246BFD"/>
<path d="M17.5001 21.6667C17.5001 22.5871 16.7539 23.3333 15.8334 23.3333C14.9129 23.3333 14.1667 22.5871 14.1667 21.6667C14.1667 20.7462 14.9129 20 15.8334 20C16.7539 20 17.5001 20.7462 17.5001 21.6667Z" fill="#246BFD"/>
<path d="M26.6666 23.3332C26.6666 24.2536 25.9204 24.9998 24.9999 24.9998C24.0794 24.9998 23.3333 24.2536 23.3333 23.3332C23.3333 22.4127 24.0794 21.6665 24.9999 21.6665C25.9204 21.6665 26.6666 22.4127 26.6666 23.3332Z" fill="#246BFD"/>
<path d="M20.0001 3.3335C21.1507 3.3335 22.0834 4.26624 22.0834 5.41683C22.0834 6.27113 21.5692 7.00533 20.8334 7.32681V10.0002C20.8334 10.4604 20.4603 10.8335 20.0001 10.8335C19.5398 10.8335 19.1667 10.4604 19.1667 10.0002V7.32681C18.431 7.00533 17.9167 6.27113 17.9167 5.41683C17.9167 4.26624 18.8495 3.3335 20.0001 3.3335Z" fill="#246BFD"/>
<path d="M20.8334 29.9998C20.8334 29.5396 20.4603 29.1665 20.0001 29.1665C19.5398 29.1665 19.1667 29.5396 19.1667 29.9998V32.6732C18.431 32.9947 17.9167 33.7289 17.9167 34.5832C17.9167 35.7338 18.8495 36.6665 20.0001 36.6665C21.1507 36.6665 22.0834 35.7338 22.0834 34.5832C22.0834 33.7289 21.5692 32.9947 20.8334 32.6732V29.9998Z" fill="#246BFD"/>
<path d="M9.58333 7.5C10.7339 7.5 11.6667 8.43274 11.6667 9.58333C11.6667 9.85202 11.6158 10.1088 11.5232 10.3446L13.9226 12.7441C14.248 13.0695 14.248 13.5972 13.9226 13.9226C13.5972 14.248 13.0695 14.248 12.7441 13.9226L10.3447 11.5232C10.1088 11.6158 9.85203 11.6667 9.58333 11.6667C8.43274 11.6667 7.5 10.7339 7.5 9.58333C7.5 8.43274 8.43274 7.5 9.58333 7.5Z" fill="#246BFD"/>
<path d="M30.4166 7.5C31.5672 7.5 32.4999 8.43274 32.4999 9.58333C32.4999 10.7339 31.5672 11.6667 30.4166 11.6667C30.1479 11.6667 29.8911 11.6158 29.6553 11.5232L27.2558 13.9226C26.9304 14.248 26.4028 14.248 26.0773 13.9226C25.7519 13.5972 25.7519 13.0695 26.0773 12.7441L28.4768 10.3447C28.3841 10.1088 28.3333 9.85203 28.3333 9.58333C28.3333 8.43274 29.266 7.5 30.4166 7.5Z" fill="#246BFD"/>
<path d="M29.6553 28.477C29.8911 28.3844 30.1479 28.3335 30.4166 28.3335C31.5672 28.3335 32.4999 29.2662 32.4999 30.4168C32.4999 31.5674 31.5672 32.5002 30.4166 32.5002C29.266 32.5002 28.3333 31.5674 28.3333 30.4168C28.3333 30.1481 28.3841 29.8913 28.4768 29.6555L26.0773 27.2561C25.7519 26.9306 25.7519 26.403 26.0773 26.0776C26.4028 25.7521 26.9304 25.7521 27.2558 26.0776L29.6553 28.477Z" fill="#246BFD"/>
<path d="M7.32657 19.1665C7.00508 18.4307 6.27088 17.9165 5.41659 17.9165C4.26599 17.9165 3.33325 18.8492 3.33325 19.9998C3.33325 21.1504 4.26599 22.0832 5.41659 22.0832C6.27088 22.0832 7.00509 21.569 7.32657 20.8332L9.99992 20.8332C10.4602 20.8332 10.8333 20.4601 10.8333 19.9998C10.8333 19.5396 10.4602 19.1665 9.99992 19.1665L7.32657 19.1665Z" fill="#246BFD"/>
<path d="M34.5834 17.9165C35.734 17.9165 36.6667 18.8492 36.6667 19.9998C36.6667 21.1504 35.734 22.0832 34.5834 22.0832C33.7291 22.0832 32.9949 21.569 32.6734 20.8332H30.0001C29.5398 20.8332 29.1667 20.4601 29.1667 19.9998C29.1667 19.5396 29.5398 19.1665 30.0001 19.1665L32.6734 19.1665C32.9949 18.4307 33.7291 17.9165 34.5834 17.9165Z" fill="#246BFD"/>
<path d="M11.5232 29.6555C11.6158 29.8913 11.6667 30.1482 11.6667 30.4169C11.6667 31.5674 10.7339 32.5002 9.58333 32.5002C8.43274 32.5002 7.5 31.5674 7.5 30.4169C7.5 29.2663 8.43274 28.3335 9.58333 28.3335C9.85202 28.3335 10.1088 28.3844 10.3446 28.477L12.7441 26.0776C13.0695 25.7521 13.5972 25.7521 13.9226 26.0776C14.248 26.403 14.248 26.9306 13.9226 27.2561L11.5232 29.6555Z" fill="#246BFD"/>
</svg>
