<svg width="40" height="40" viewBox="0 0 40 40" fill="none" xmlns="http://www.w3.org/2000/svg">
<path d="M34.9304 8.02202C32.2512 5.45334 29.5626 4.15103 26.939 4.15103C22.7731 4.15103 20.0919 7.38612 19.2641 8.54742C15.8921 7.75221 15.2094 4.8771 15.1816 4.75304L15.0135 3.9707L8.89379 6.39024L8.99344 6.93733C9.04225 7.20512 10.2612 13.3899 18.6994 15.1796C18.8397 16.1057 19.3278 17.9747 21.0159 19.0215V21.9067C20.1874 22.2979 18.4438 23.2965 17.8581 24.9825C17.5056 24.9188 17.0452 24.8618 16.5232 24.8618C15.3409 24.8618 13.6983 25.1567 12.3343 26.4923C11.4218 26.0672 9.32427 25.2198 7.09794 25.2198C3.86014 25.2205 0 26.9783 0 35.3515V36.0294H4.74552V35.3515C4.74552 33.018 5.56379 31.7964 6.37188 31.7964C6.60848 31.7964 6.83762 31.9001 7.0349 32.0974C7.9718 33.0343 8.90124 33.6248 9.80967 33.8627C9.62256 33.7414 9.49104 33.5414 9.49104 33.3021C9.49104 32.9279 9.79476 32.6242 10.169 32.6242C10.5432 32.6242 10.8469 32.9279 10.8469 33.3021C10.8469 33.6322 10.6062 33.8939 10.2944 33.9549C10.4361 33.9726 10.5771 33.9827 10.7174 33.9827C11.6584 33.9827 12.3472 33.5834 12.756 33.2526C18.4167 36.4687 23.2612 36.0403 23.8734 35.9691C24.013 35.9725 24.152 35.9745 24.2896 35.9745C30.614 35.9745 36.306 31.9795 38.7913 25.796C41.3098 19.5306 39.8305 12.7201 34.9304 8.02202ZM10.169 29.9124C9.79476 29.9124 9.49104 29.6087 9.49104 29.2345C9.49104 28.8603 9.79476 28.5566 10.169 28.5566C10.5432 28.5566 10.8469 28.8603 10.8469 29.2345C10.8469 29.6087 10.5432 29.9124 10.169 29.9124ZM12.2028 27.8786C11.8286 27.8786 11.5248 27.5749 11.5248 27.2007C11.5248 26.8265 11.8286 26.5228 12.2028 26.5228C12.577 26.5228 12.8807 26.8265 12.8807 27.2007C12.8807 27.5749 12.577 27.8786 12.2028 27.8786ZM14.2366 29.9124C13.8623 29.9124 13.5586 29.6087 13.5586 29.2345C13.5586 28.8603 13.8623 28.5566 14.2366 28.5566C14.6108 28.5566 14.9145 28.8603 14.9145 29.2345C14.9145 29.6087 14.6108 29.9124 14.2366 29.9124ZM16.2704 31.9462C15.8961 31.9462 15.5924 31.6425 15.5924 31.2683C15.5924 30.8941 15.8961 30.5904 16.2704 30.5904C16.6446 30.5904 16.9483 30.8941 16.9483 31.2683C16.9483 31.6425 16.6446 31.9462 16.2704 31.9462ZM16.2704 27.8786C15.8961 27.8786 15.5924 27.5749 15.5924 27.2007C15.5924 26.8265 15.8961 26.5228 16.2704 26.5228C16.6446 26.5228 16.9483 26.8265 16.9483 27.2007C16.9483 27.5749 16.6446 27.8786 16.2704 27.8786ZM18.3042 33.98C17.9299 33.98 17.6262 33.6763 17.6262 33.3021C17.6262 32.9279 17.9299 32.6242 18.3042 32.6242C18.6784 32.6242 18.9821 32.9279 18.9821 33.3021C18.9821 33.6763 18.6784 33.98 18.3042 33.98ZM18.3042 29.9124C17.9299 29.9124 17.6262 29.6087 17.6262 29.2345C17.6262 28.8603 17.9299 28.5566 18.3042 28.5566C18.6784 28.5566 18.9821 28.8603 18.9821 29.2345C18.9821 29.6087 18.6784 29.9124 18.3042 29.9124ZM20.3379 31.9462C19.9637 31.9462 19.66 31.6425 19.66 31.2683C19.66 30.8941 19.9637 30.5904 20.3379 30.5904C20.7122 30.5904 21.0159 30.8941 21.0159 31.2683C21.0159 31.6425 20.7122 31.9462 20.3379 31.9462ZM20.3379 27.8786C19.9637 27.8786 19.66 27.5749 19.66 27.2007C19.66 26.8265 19.9637 26.5228 20.3379 26.5228C20.7122 26.5228 21.0159 26.8265 21.0159 27.2007C21.0159 27.5749 20.7122 27.8786 20.3379 27.8786ZM22.3717 33.98C21.9975 33.98 21.6938 33.6763 21.6938 33.3021C21.6938 32.9279 21.9975 32.6242 22.3717 32.6242C22.746 32.6242 23.0497 32.9279 23.0497 33.3021C23.0497 33.6763 22.746 33.98 22.3717 33.98ZM22.3717 29.9124C21.9975 29.9124 21.6938 29.6087 21.6938 29.2345C21.6938 28.8603 21.9975 28.5566 22.3717 28.5566C22.746 28.5566 23.0497 28.8603 23.0497 29.2345C23.0497 29.6087 22.746 29.9124 22.3717 29.9124ZM24.4055 31.9462C24.0313 31.9462 23.7276 31.6425 23.7276 31.2683C23.7276 30.8941 24.0313 30.5904 24.4055 30.5904C24.7798 30.5904 25.0835 30.8941 25.0835 31.2683C25.0835 31.6425 24.7798 31.9462 24.4055 31.9462ZM24.4055 27.8786C24.0313 27.8786 23.7276 27.5749 23.7276 27.2007C23.7276 26.8265 24.0313 26.5228 24.4055 26.5228C24.7798 26.5228 25.0835 26.8265 25.0835 27.2007C25.0835 27.5749 24.7798 27.8786 24.4055 27.8786ZM26.4393 33.98C26.0651 33.98 25.7614 33.6763 25.7614 33.3021C25.7614 32.9279 26.0651 32.6242 26.4393 32.6242C26.8136 32.6242 27.1173 32.9279 27.1173 33.3021C27.1173 33.6763 26.8136 33.98 26.4393 33.98ZM26.4393 29.9124C26.0651 29.9124 25.7614 29.6087 25.7614 29.2345C25.7614 28.8603 26.0651 28.5566 26.4393 28.5566C26.8136 28.5566 27.1173 28.8603 27.1173 29.2345C27.1173 29.6087 26.8136 29.9124 26.4393 29.9124ZM28.4731 31.9462C28.0989 31.9462 27.7952 31.6425 27.7952 31.2683C27.7952 30.8941 28.0989 30.5904 28.4731 30.5904C28.8473 30.5904 29.1511 30.8941 29.1511 31.2683C29.1511 31.6425 28.8473 31.9462 28.4731 31.9462ZM28.4731 27.8786C28.0989 27.8786 27.7952 27.5749 27.7952 27.2007C27.7952 26.8265 28.0989 26.5228 28.4731 26.5228C28.8473 26.5228 29.1511 26.8265 29.1511 27.2007C29.1511 27.5749 28.8473 27.8786 28.4731 27.8786ZM30.5069 33.98C30.1327 33.98 29.829 33.6763 29.829 33.3021C29.829 32.9279 30.1327 32.6242 30.5069 32.6242C30.8811 32.6242 31.1849 32.9279 31.1849 33.3021C31.1849 33.6763 30.8811 33.98 30.5069 33.98ZM30.5069 29.9124C30.1327 29.9124 29.829 29.6087 29.829 29.2345C29.829 28.8603 30.1327 28.5566 30.5069 28.5566C30.8811 28.5566 31.1849 28.8603 31.1849 29.2345C31.1849 29.6087 30.8811 29.9124 30.5069 29.9124ZM30.5069 25.8448C30.1327 25.8448 29.829 25.5411 29.829 25.1669C29.829 24.7927 30.1327 24.489 30.5069 24.489C30.8811 24.489 31.1849 24.7927 31.1849 25.1669C31.1849 25.5411 30.8811 25.8448 30.5069 25.8448ZM32.5407 31.9462C32.1665 31.9462 31.8628 31.6425 31.8628 31.2683C31.8628 30.8941 32.1665 30.5904 32.5407 30.5904C32.9149 30.5904 33.2187 30.8941 33.2187 31.2683C33.2187 31.6425 32.9149 31.9462 32.5407 31.9462ZM32.5407 27.8786C32.1665 27.8786 31.8628 27.5749 31.8628 27.2007C31.8628 26.8265 32.1665 26.5228 32.5407 26.5228C32.9149 26.5228 33.2187 26.8265 33.2187 27.2007C33.2187 27.5749 32.9149 27.8786 32.5407 27.8786ZM34.5745 29.9124C34.2003 29.9124 33.8966 29.6087 33.8966 29.2345C33.8966 28.8603 34.2003 28.5566 34.5745 28.5566C34.9487 28.5566 35.2524 28.8603 35.2524 29.2345C35.2524 29.6087 34.9487 29.9124 34.5745 29.9124ZM34.5745 25.8448C34.2003 25.8448 33.8966 25.5411 33.8966 25.1669C33.8966 24.7927 34.2003 24.489 34.5745 24.489C34.9487 24.489 35.2524 24.7927 35.2524 25.1669C35.2524 25.5411 34.9487 25.8448 34.5745 25.8448ZM36.6083 27.8786C36.2341 27.8786 35.9304 27.5749 35.9304 27.2007C35.9304 26.8265 36.2341 26.5228 36.6083 26.5228C36.9825 26.5228 37.2862 26.8265 37.2862 27.2007C37.2862 27.5749 36.9825 27.8786 36.6083 27.8786ZM36.6083 23.8111C36.2341 23.8111 35.9304 23.5073 35.9304 23.1331C35.9304 22.7589 36.2341 22.4552 36.6083 22.4552C36.9825 22.4552 37.2862 22.7589 37.2862 23.1331C37.2862 23.5073 36.9825 23.8111 36.6083 23.8111Z" fill="#246BFD"/>
</svg>
