<svg width="40" height="40" viewBox="0 0 40 40" fill="none" xmlns="http://www.w3.org/2000/svg">
<path opacity="0.5" d="M19.1887 19.8607C17.7107 18.6427 16.5445 17.0842 15.2347 14.7817L8.07303 23.0113C5.91561 25.4904 6.17639 29.249 8.6555 31.4064C11.1346 33.5639 14.8933 33.3031 17.0507 30.824L17.776 29.9905C17.0704 28.767 16.6667 27.3473 16.6667 25.8334C16.6667 23.4912 17.633 21.3746 19.1887 19.8607Z" fill="#246BFD"/>
<path fill-rule="evenodd" clip-rule="evenodd" d="M28.9423 8.0947C26.8104 6.23941 23.5781 6.46366 21.7228 8.59559L16.2541 14.8797C17.2493 16.5685 18.1539 17.7815 19.1842 18.7476C20.7665 17.4474 22.7921 16.6668 25 16.6668C26.0004 16.6668 26.9648 16.8274 27.8678 17.1246L29.4432 15.3142C31.2985 13.1823 31.0743 9.94999 28.9423 8.0947ZM17.5 25.8335C17.5 21.6913 20.8578 18.3335 25 18.3335C25.9945 18.3335 26.9418 18.5266 27.808 18.8766L28.3588 19.0991L30.7005 16.4083C33.16 13.582 32.8627 9.297 30.0364 6.83744C27.2101 4.37789 22.9251 4.67519 20.4656 7.50148L7.44437 22.4642C4.98482 25.2905 5.28212 29.5756 8.10841 32.0351C9.8484 33.5493 11.81 33.9351 13.6627 33.5303C15.4809 33.1331 17.1407 31.9899 18.4046 30.5376L18.7948 30.0892L18.4979 29.5742C17.8633 28.4739 17.5 27.1974 17.5 25.8335ZM17.9967 19.9186C16.647 21.5151 15.8333 23.5792 15.8333 25.8335C15.8333 27.2765 16.1673 28.6435 16.7627 29.8595C15.7438 30.896 14.5336 31.6341 13.3069 31.9021C11.9563 32.1972 10.5353 31.9377 9.20253 30.7779C7.0706 28.9226 6.84634 25.6903 8.70163 23.5583L15.1037 16.2017" fill="#246BFD"/>
<path fill-rule="evenodd" clip-rule="evenodd" d="M27.4075 9.35128C27.5224 8.90564 27.2544 8.45117 26.8087 8.3362C24.1604 7.65297 22.5447 9.51185 21.9003 10.2533C21.8904 10.2646 21.8808 10.2757 21.8714 10.2865C21.5693 10.6337 21.6058 11.16 21.953 11.4622C22.3002 11.7643 22.8265 11.7278 23.1287 11.3806C23.8066 10.6015 24.7865 9.53574 26.3924 9.95002C26.838 10.065 27.2925 9.79693 27.4075 9.35128Z" fill="#246BFD"/>
<path fill-rule="evenodd" clip-rule="evenodd" d="M25 18.3332C20.8579 18.3332 17.5 21.691 17.5 25.8332C17.5 29.9753 20.8579 33.3332 25 33.3332C29.1422 33.3332 32.5 29.9753 32.5 25.8332C32.5 21.691 29.1422 18.3332 25 18.3332ZM15.8334 25.8332C15.8334 20.7706 19.9374 16.6665 25 16.6665C30.0627 16.6665 34.1667 20.7706 34.1667 25.8332C34.1667 30.8958 30.0627 34.9998 25 34.9998C19.9374 34.9998 15.8334 30.8958 15.8334 25.8332Z" fill="#246BFD"/>
<path fill-rule="evenodd" clip-rule="evenodd" d="M18.5605 27.5588C18.4414 27.1143 18.7052 26.6573 19.1498 26.5382L30.4189 23.5187C30.8635 23.3995 31.3204 23.6634 31.4395 24.1079C31.5587 24.5525 31.2948 25.0094 30.8503 25.1285L19.5812 28.1481C19.1366 28.2672 18.6796 28.0034 18.5605 27.5588Z" fill="#246BFD"/>
</svg>
