<svg width="40" height="40" viewBox="0 0 40 40" fill="none" xmlns="http://www.w3.org/2000/svg">
<path d="M21.7391 0H18.2608L17.3912 9.56522H22.6086L21.7391 0Z" fill="#7FA7F9"/>
<path d="M20 13.0435H15.2174V18.2608H20V13.0435Z" fill="#7FA7F9"/>
<path d="M11.3043 9.56543V13.0437H20V18.2611H24.7826V13.0437H28.6956V9.56543H11.3043Z" fill="#4285F4"/>
<path d="M15.6521 36.5216C15.1727 36.5216 14.7826 36.1315 14.7826 35.652V22.6086C14.7826 22.1291 15.1727 21.739 15.6521 21.739H20V18.2607H15.6521C13.2509 18.2607 11.3043 20.2074 11.3043 22.6086V35.652C11.3043 38.0533 13.2509 39.9999 15.6521 39.9999H20V36.5216H15.6521Z" fill="#3376FF"/>
<path d="M24.3478 18.2607H20V21.739H24.3478C24.8273 21.739 25.2174 22.1291 25.2174 22.6086V35.652C25.2174 36.1315 24.8273 36.5216 24.3478 36.5216H20V39.9999H24.3478C26.749 39.9999 28.6957 38.0533 28.6957 35.652V22.6086C28.6957 20.2074 26.749 18.2607 24.3478 18.2607Z" fill="#246BFD"/>
<path d="M25.2174 22.6088C25.2174 22.1293 24.8273 21.7393 24.3478 21.7393H20V28.6958H25.2174V22.6088Z" fill="#4285F4"/>
<path d="M20 28.6958V36.5219H24.3478C24.8273 36.5219 25.2174 36.1318 25.2174 35.6523V28.6958H20Z" fill="#3376FF"/>
<path d="M20 21.7393H15.6522C15.1727 21.7393 14.7826 22.1293 14.7826 22.6088V28.6958H20V21.7393Z" fill="#7FA7F9"/>
<path d="M14.7826 28.6958V35.6523C14.7826 36.1318 15.1727 36.5219 15.6522 36.5219H20V28.6958H14.7826Z" fill="#4285F4"/>
</svg>
