<svg width="40" height="40" viewBox="0 0 40 40" fill="none" xmlns="http://www.w3.org/2000/svg">
<path fill-rule="evenodd" clip-rule="evenodd" d="M19.9999 5.00016C11.2554 5.00016 4.99992 11.2557 4.99992 20.0002C4.99992 28.7447 11.2554 35.0002 19.9999 35.0002C28.7444 35.0002 34.9999 28.7447 34.9999 20.0002C34.9999 11.2557 28.7444 5.00016 19.9999 5.00016ZM3.33325 20.0002C3.33325 10.3352 10.3349 3.3335 19.9999 3.3335C29.6649 3.3335 36.6666 10.3352 36.6666 20.0002C36.6666 29.6651 29.6649 36.6668 19.9999 36.6668C10.3349 36.6668 3.33325 29.6651 3.33325 20.0002Z" fill="#246BFD"/>
<path d="M20.0001 16.6665C18.1591 16.6665 16.6667 18.1589 16.6667 19.9998C16.6667 21.8408 18.1591 23.3332 20.0001 23.3332C21.841 23.3332 23.3334 21.8408 23.3334 19.9998C23.3334 18.1589 21.841 16.6665 20.0001 16.6665Z" fill="#246BFD"/>
<path opacity="0.5" d="M14.5952 7.17009C14.3449 7.08105 14.1306 7.1302 14.0269 7.16366C13.9782 7.17938 13.9392 7.19641 13.9197 7.20519C13.9012 7.21347 13.883 7.22221 13.8742 7.22643L13.8722 7.22738C11.4817 8.37427 9.46028 10.1694 8.03881 12.4093C6.61735 14.6491 5.85375 17.2425 5.83386 19.8939L5.83384 19.896C5.83377 19.9058 5.8336 19.926 5.83397 19.9462C5.83436 19.9677 5.83554 20.0102 5.84206 20.0609C5.85593 20.169 5.90272 20.3839 6.08985 20.5724C6.27757 20.7615 6.4928 20.8096 6.59999 20.8241C6.65058 20.8309 6.69297 20.8324 6.7144 20.833C6.7346 20.8335 6.75481 20.8335 6.76461 20.8335L15.1026 20.8335C15.107 20.8336 15.1873 20.8349 15.2658 20.8246C15.3687 20.811 15.5819 20.7659 15.7705 20.5812C15.9609 20.3948 16.0094 20.1802 16.0245 20.0801C16.0362 20.0031 16.0366 19.9237 16.0366 19.9175C16.0517 19.194 16.2646 18.4878 16.6529 17.8759C17.0412 17.264 17.5896 16.7708 18.2378 16.4491C18.2434 16.4464 18.315 16.4122 18.3797 16.3689C18.4639 16.3125 18.6374 16.1773 18.725 15.9257C18.8118 15.6764 18.7619 15.4642 18.7303 15.3654C18.7062 15.2897 18.6706 15.2174 18.6689 15.2139L15.1188 7.66953C15.1146 7.66068 15.106 7.64236 15.0969 7.62426C15.0873 7.6051 15.0679 7.56738 15.0401 7.52452C14.9814 7.43372 14.8463 7.25942 14.5952 7.17009Z" fill="#246BFD"/>
<path opacity="0.5" d="M25.4051 7.17009C25.6554 7.08105 25.8697 7.1302 25.9734 7.16366C26.0221 7.17938 26.0611 7.19641 26.0807 7.20519C26.0991 7.21347 26.1173 7.22221 26.1261 7.22643L26.1281 7.22738C28.5186 8.37427 30.54 10.1694 31.9615 12.4093C33.383 14.6491 34.1466 17.2425 34.1665 19.8939L34.1665 19.896C34.1666 19.9058 34.1667 19.926 34.1664 19.9462C34.166 19.9677 34.1648 20.0102 34.1583 20.0609C34.1444 20.169 34.0976 20.3839 33.9105 20.5724C33.7228 20.7615 33.5075 20.8096 33.4003 20.8241C33.3497 20.8309 33.3074 20.8324 33.2859 20.833C33.2657 20.8335 33.2455 20.8335 33.2357 20.8335L24.8977 20.8335C24.8933 20.8336 24.813 20.8349 24.7345 20.8246C24.6316 20.811 24.4184 20.7659 24.2298 20.5812C24.0394 20.3948 23.9909 20.1802 23.9758 20.0801C23.9642 20.0031 23.9637 19.9237 23.9637 19.9175C23.9486 19.194 23.7357 18.4878 23.3474 17.8759C22.9591 17.264 22.4108 16.7708 21.7625 16.4491C21.757 16.4464 21.6853 16.4122 21.6206 16.3689C21.5365 16.3125 21.363 16.1773 21.2753 15.9257C21.1885 15.6764 21.2385 15.4642 21.27 15.3654C21.2942 15.2897 21.3297 15.2174 21.3314 15.2139L24.8816 7.66953C24.8857 7.66068 24.8943 7.64236 24.9034 7.62426C24.913 7.6051 24.9324 7.56738 24.9602 7.52452C25.019 7.43372 25.1541 7.25942 25.4051 7.17009Z" fill="#246BFD"/>
<path opacity="0.5" d="M20.0123 23.9646C20.737 23.9623 21.4466 23.7615 22.0644 23.3846C22.0698 23.3812 22.1369 23.3389 22.208 23.3073C22.3005 23.2661 22.5074 23.1914 22.767 23.2515C23.0242 23.3109 23.177 23.4663 23.2438 23.5457C23.2949 23.6064 23.337 23.6749 23.3392 23.6785L27.8276 30.7027C27.8323 30.71 27.8441 30.7284 27.8554 30.7471C27.8665 30.7655 27.888 30.802 27.9095 30.8483C27.955 30.9465 28.0304 31.1537 27.9721 31.4137C27.914 31.6729 27.7581 31.828 27.6745 31.8979C27.6353 31.9308 27.6001 31.9546 27.5822 31.9665C27.5655 31.9777 27.5484 31.9884 27.5401 31.9936L27.5382 31.9948C25.2933 33.4057 22.6968 34.1586 20.044 34.1668C17.3911 34.1751 14.79 33.4383 12.5364 32.0414L12.5247 32.0342C12.5158 32.0286 12.5039 32.0211 12.4922 32.0134C12.4742 32.0016 12.4389 31.978 12.3994 31.9454C12.3154 31.876 12.1586 31.7219 12.0988 31.4631C12.0389 31.2034 12.1131 30.9957 12.1579 30.8973C12.1791 30.8508 12.2005 30.8142 12.2114 30.7958C12.2218 30.7783 12.2326 30.7612 12.2378 30.7529L16.6836 23.6992C16.6857 23.6957 16.7274 23.6269 16.7782 23.5658C16.8445 23.486 16.9963 23.3297 17.2531 23.2686C17.5124 23.207 17.7197 23.2804 17.8125 23.3209C17.8839 23.3521 17.951 23.3939 17.9562 23.3972C18.5763 23.7702 19.2875 23.9668 20.0123 23.9646Z" fill="#246BFD"/>
</svg>
