<svg width="40" height="40" viewBox="0 0 40 40" fill="none" xmlns="http://www.w3.org/2000/svg">
<g clip-path="url(#clip0_64_543)">
<path d="M34.1063 14.3897C34.337 13.9918 34.2003 13.4816 33.8011 13.252C33.5192 13.0884 33.181 13.1105 32.926 13.2789V13.2777L31.8005 14.0211L29.1661 12.5001L31.8005 10.9791L32.926 11.7225V11.7213C33.1811 11.8897 33.5192 11.9117 33.8011 11.7482C34.2003 11.5186 34.337 11.0084 34.1063 10.6105C34.0392 10.4933 33.9488 10.4005 33.8439 10.3322V10.3309L33.4143 10.0477L33.6901 9.88778C34.088 9.65824 34.2248 9.14806 33.9952 8.75008C33.7645 8.35093 33.2555 8.2142 32.8564 8.44491L32.5805 8.60359L32.5499 8.08967C32.5414 7.96513 32.5072 7.83942 32.4401 7.7234C32.2094 7.32433 31.7003 7.1876 31.3011 7.41824C31.0192 7.58059 30.869 7.88458 30.8873 8.18975H30.886L30.9666 9.5362L27.4998 11.5381L24.0318 9.5362L24.1136 8.18975H24.1124C24.1307 7.88458 23.9805 7.58059 23.6974 7.41824C23.2994 7.1876 22.7891 7.32433 22.5597 7.7234C22.4925 7.83935 22.4572 7.96513 22.4498 8.08967L22.4181 8.60359L22.1434 8.44491C21.7442 8.2142 21.2352 8.35093 21.0051 8.75008C20.7744 9.14806 20.9112 9.65824 21.3096 9.88778L21.5855 10.0477L21.1558 10.3309V10.3322C21.0514 10.4005 20.9599 10.4933 20.8934 10.6105C20.6633 11.0084 20.7994 11.5187 21.1979 11.7482C21.4805 11.9117 21.8186 11.8897 22.0738 11.7213V11.7225L23.1993 10.9791L25.8335 12.5001L23.1993 14.0211L22.0738 13.2777V13.2789C21.8186 13.1105 21.4805 13.0884 21.1979 13.252C20.7994 13.4816 20.6633 13.9918 20.8934 14.3897C20.96 14.5057 21.0514 14.5985 21.1558 14.668L21.5855 14.9525L21.3096 15.1112C20.9111 15.3419 20.775 15.851 21.0051 16.2501C21.2352 16.648 21.7442 16.7847 22.1434 16.5552L22.4181 16.3954L22.4498 16.9092C22.4572 17.0349 22.4925 17.1607 22.5597 17.2766C22.7892 17.6746 23.2995 17.8113 23.6974 17.5818C23.9806 17.4182 24.1307 17.1143 24.1124 16.8103H24.1136L24.0318 15.4639L27.4998 13.462L30.9666 15.4639L30.886 16.8103H30.8873C30.869 17.1143 31.0192 17.4182 31.3011 17.5818C31.7003 17.8113 32.2094 17.6746 32.4401 17.2766C32.5072 17.1607 32.5414 17.0349 32.5499 16.9092L32.5805 16.3954L32.8564 16.5552C33.2555 16.7847 33.7645 16.648 33.9952 16.2501C34.2248 15.851 34.088 15.3419 33.6901 15.1112L33.4143 14.9525L33.8439 14.668C33.9488 14.5985 34.0391 14.5058 34.1063 14.3897Z" fill="#7FA7F9"/>
<path d="M29.5384 17.5879L28.3324 16.9848V8.01511L29.5384 7.41204V7.41079C29.8119 7.27414 29.9999 6.99218 29.9999 6.66623C29.9999 6.20598 29.6263 5.83245 29.1661 5.83245C29.0318 5.83245 28.9061 5.86542 28.7938 5.92159V5.92034L28.3324 6.15106V5.83245C28.3324 5.3722 27.96 5 27.4998 5C27.0397 5 26.6661 5.37228 26.6661 5.83245V6.15106L26.2058 5.92152C26.0935 5.86534 25.9666 5.83237 25.8335 5.83237C25.3721 5.83237 24.9998 6.2059 24.9998 6.66615C24.9998 6.9921 25.1877 7.27406 25.46 7.41071V7.41196L26.6661 8.01503V16.9848L25.46 17.5879C25.1878 17.7246 24.9998 18.0066 24.9998 18.3325C24.9998 18.7938 25.3721 19.1662 25.8335 19.1662C25.9665 19.1662 26.0935 19.1345 26.2058 19.0783L26.6661 18.8476V19.1662C26.6661 19.6265 27.0396 20 27.4998 20C27.9601 20 28.3324 19.6265 28.3324 19.1662V18.8476L28.7938 19.0783C28.9061 19.1345 29.0318 19.1662 29.1661 19.1662C29.6263 19.1662 29.9999 18.7938 29.9999 18.3325C29.9999 18.0066 29.8119 17.7246 29.5384 17.5879Z" fill="#7FA7F9"/>
<path d="M25.5552 15.5552C23.3788 15.5552 21.4109 16.4499 19.9999 17.8904C18.5882 16.4499 16.6209 15.5552 14.4444 15.5552C10.1488 15.5552 6.66675 19.0378 6.66675 23.3322C6.66675 32.2214 19.9999 39.9998 19.9999 39.9998C19.9999 39.9998 33.3337 32.2214 33.3337 23.3322C33.3337 19.0379 29.851 15.5552 25.5552 15.5552Z" fill="#246BFD"/>
<path d="M19.107 9.38971C19.3371 8.99172 19.2004 8.48147 18.8019 8.25076C18.5193 8.08841 18.1818 8.11036 17.9266 8.27764H17.926L16.8011 9.0211L14.1668 7.50003L16.8011 5.97904L17.926 6.7225L17.9266 6.72125C18.1818 6.8897 18.5193 6.91173 18.8019 6.74813C19.2005 6.51859 19.3372 6.00834 19.107 5.61043C19.0399 5.49324 18.949 5.40043 18.844 5.33214L18.8446 5.33089L18.4149 5.04776L18.6901 4.88783C19.0887 4.65829 19.2254 4.14804 18.9953 3.75013C18.7652 3.35098 18.2556 3.21425 17.857 3.44497L17.5811 3.60364L17.5506 3.08972H17.5499C17.542 2.96518 17.5072 2.83948 17.4401 2.72353C17.21 2.32438 16.7003 2.18766 16.3018 2.41837C16.0192 2.58072 15.8696 2.88463 15.8873 3.1898H15.8867L15.9672 4.53625L12.4998 6.5382L9.03252 4.53618L9.1137 3.18972H9.11245C9.13073 2.88456 8.98057 2.58064 8.69798 2.41829C8.29945 2.18758 7.78974 2.3243 7.55966 2.72346C7.49309 2.83932 7.4577 2.96511 7.45044 3.08964H7.44981L7.41872 3.60357L7.14347 3.44489C6.74486 3.21418 6.23524 3.3509 6.00515 3.75006C5.77444 4.14804 5.91116 4.65829 6.30969 4.88775L6.58556 5.04768L6.15586 5.33081V5.33206C6.05148 5.40043 5.95991 5.49316 5.89343 5.61035C5.66334 6.00834 5.79944 6.51859 6.19797 6.74805C6.48056 6.91165 6.81869 6.88962 7.07378 6.72118V6.72242L8.19929 5.97896L10.8335 7.49995L8.19929 9.02102L7.07378 8.27756C6.81862 8.11029 6.48048 8.08833 6.19797 8.25068C5.79936 8.48139 5.66326 8.99165 5.89343 9.38963C5.95999 9.50557 6.05148 9.59839 6.15586 9.66792L6.58556 9.95238L6.30969 10.1111C5.91116 10.3418 5.77506 10.8509 6.00515 11.25C6.23524 11.648 6.74486 11.7847 7.14347 11.5552L7.41872 11.3952L7.44981 11.9091H7.45044C7.45778 12.0348 7.49317 12.1606 7.55966 12.2765C7.78974 12.6745 8.29945 12.8112 8.69798 12.5817C8.98057 12.4181 9.13073 12.1142 9.11245 11.8103H9.1137L9.03252 10.4638L12.4999 8.46186L15.9673 10.4638L15.8867 11.8103H15.8874C15.8696 12.1142 16.0193 12.4181 16.3018 12.5817C16.7004 12.8112 17.2101 12.6745 17.4402 12.2765C17.5073 12.1606 17.5421 12.0348 17.55 11.9091H17.5506L17.5812 11.3952L17.8571 11.5552C18.2557 11.7847 18.7653 11.648 18.9954 11.25C19.2255 10.8509 19.0887 10.3418 18.6902 10.1111L18.415 9.95238L18.8447 9.66792H18.844C18.9489 9.59846 19.0398 9.50573 19.107 9.38971Z" fill="#7FA7F9"/>
<path d="M14.5391 12.5879L13.333 11.9848V3.01511L14.5391 2.41212V2.41087C14.8119 2.27414 14.9999 1.99218 14.9999 1.66623C14.9999 1.20598 14.627 0.832451 14.1667 0.832451C14.0324 0.832451 13.9067 0.865421 13.7943 0.921595L13.7937 0.920345L13.3329 1.15106V0.832451C13.3329 0.372279 12.96 0 12.4998 0C12.0395 0 11.6666 0.372357 11.6666 0.832451V1.15106L11.2058 0.921517C11.0935 0.865343 10.9671 0.832373 10.8335 0.832373C10.3733 0.832373 9.99976 1.2059 9.99976 1.66615C9.99976 1.9921 10.1877 2.27406 10.4606 2.41079V2.41204L11.6666 3.01503V11.9848L10.4606 12.5879C10.1877 12.7246 9.99976 13.0066 9.99976 13.3325C9.99976 13.7939 10.3733 14.1663 10.8335 14.1663C10.9671 14.1663 11.0935 14.1346 11.2058 14.0771V14.0784L11.6666 13.8477V14.1663C11.6666 14.6265 12.0395 15 12.4998 15C12.96 15 13.3329 14.6265 13.3329 14.1663V13.8477L13.7937 14.0784L13.7943 14.0771C13.9067 14.1345 14.0324 14.1663 14.1667 14.1663C14.6269 14.1663 14.9999 13.7939 14.9999 13.3325C14.9999 13.0066 14.8119 12.7246 14.5391 12.5879Z" fill="#7FA7F9"/>
</g>
<defs>
<clipPath id="clip0_64_543">
<rect width="40" height="40" fill="white"/>
</clipPath>
</defs>
</svg>
