<svg width="40" height="40" viewBox="0 0 40 40" fill="none" xmlns="http://www.w3.org/2000/svg">
<path d="M21.1859 27.6581L20.6738 27.4926V8.37863C20.6738 7.96509 20.2963 7.63086 19.8301 7.63086C19.364 7.63086 18.9871 7.96462 18.9871 8.37863V27.5703L18.5182 27.7667C17.0762 28.3674 16.1445 29.7642 16.1445 31.3249C16.1445 33.4515 17.8738 35.1806 19.9997 35.1806C22.1258 35.1806 23.8552 33.452 23.8552 31.3249C23.8553 29.6483 22.7821 28.1746 21.1859 27.6581Z" fill="#246BFD"/>
<path d="M24.3371 23.8108V4.57828C24.3371 2.05368 22.2833 0 19.7588 0C17.2343 0 15.1805 2.05368 15.1805 4.57828V24.1102C12.7954 25.6989 11.3253 28.3832 11.3253 31.3248C11.3253 36.1086 15.217 39.9999 19.9997 39.9999C24.7828 39.9999 28.6746 36.1086 28.6746 31.3248C28.6741 28.1708 26.9877 25.3358 24.3371 23.8108ZM19.9997 37.5906C16.54 37.5906 13.7348 34.7852 13.7348 31.3248C13.7348 28.72 15.3267 26.4857 17.5902 25.5417V4.57828C17.5902 3.38159 18.5607 2.40976 19.7587 2.40976C20.9565 2.40976 21.9272 3.38167 21.9272 4.57828V12.4097H21.2644V13.3743H21.9272V15.8444H21.2644V16.8081H21.9272V19.5186H21.2644V20.4823H21.9272V25.3654C24.4431 26.1798 26.2644 28.538 26.2644 31.3248C26.2644 34.7848 23.46 37.5906 19.9997 37.5906Z" fill="#246BFD"/>
</svg>
