<svg width="40" height="40" viewBox="0 0 40 40" fill="none" xmlns="http://www.w3.org/2000/svg">
<g clip-path="url(#clip0_64_598)">
<path d="M40 0H0V40H40V0Z" fill="white" fill-opacity="0.01"/>
<path d="M19.1666 4.1665C18.2114 7.88336 18.2114 10.6438 19.1666 12.4478C20.5992 15.1537 23.9167 16.6502 19.6451 20.2594C15.3735 23.8688 11.0427 20.8401 8.36875 20.8401C5.6949 20.8401 3.35205 23.8509 3.35205 28.3332C3.35205 31.3214 3.90133 33.8214 4.99988 35.8332" stroke="#246BFD" stroke-width="4" stroke-linecap="round" stroke-linejoin="round"/>
<path d="M24.9868 4.1665C23.7856 8.60735 24.0592 11.4238 25.8078 12.6159C28.4306 14.404 28.6316 10.6694 33.4508 12.8914C38.27 15.1134 37.017 22.8591 34.2451 26.8461C31.4731 30.8332 25.5562 34.862 20.007 34.1665C14.4577 33.4709 12.3944 26.6833 11.6801 26.6833C10.9658 26.6833 9.45656 26.7044 9.16189 29.5142C8.96539 31.3873 9.52389 33.4936 10.8373 35.8332" stroke="#246BFD" stroke-width="4" stroke-linecap="round" stroke-linejoin="round"/>
<path d="M29.704 23.5747C29.2222 25.0131 28.4084 26.115 27.2624 26.9163C26.1165 27.7176 24.6619 28.1899 22.8988 28.3331" stroke="#246BFD" stroke-width="4" stroke-linecap="round"/>
</g>
<defs>
<clipPath id="clip0_64_598">
<rect width="40" height="40" fill="white"/>
</clipPath>
</defs>
</svg>
