<svg width="226" height="180" viewBox="0 0 226 180" fill="none" xmlns="http://www.w3.org/2000/svg">
<path d="M186.66 81.3443V81.5201C186.651 87.0975 186.071 92.6592 184.929 98.1183C184.838 98.5521 184.744 98.9846 184.645 99.4156C183.356 105.103 181.453 110.634 178.97 115.911C178.767 116.347 178.558 116.779 178.344 117.209C176.86 120.231 175.187 123.157 173.337 125.97C173.05 126.405 172.759 126.838 172.465 127.267C166.661 135.737 159.313 143.038 150.807 148.788C150.378 149.078 149.945 149.363 149.51 149.644C146.929 151.319 144.255 152.846 141.5 154.215C141.07 154.43 140.638 154.64 140.203 154.845C134.172 157.714 127.808 159.824 121.258 161.125C120.827 161.21 120.394 161.292 119.961 161.372C115.342 162.21 110.66 162.648 105.966 162.683C105.749 162.685 105.533 162.686 105.317 162.686C105.101 162.686 104.885 162.685 104.668 162.683C94.6833 162.617 84.7963 160.706 75.5052 157.048C74.4612 156.637 73.4276 156.205 72.4046 155.751C58.5736 149.613 46.7211 139.751 38.1704 127.267C37.8749 126.837 37.5837 126.405 37.2969 125.969C34.1108 121.124 31.4539 115.951 29.3718 110.539C29.2061 110.108 29.0442 109.675 28.8861 109.241C26.9829 104.029 25.6222 98.6346 24.8255 93.1433C24.7621 92.7125 24.7025 92.2801 24.6468 91.8461C24.1989 88.3633 23.9746 84.8553 23.9751 81.3438C23.9751 80.0104 24.0068 78.6847 24.0702 77.3667C24.0919 76.9329 24.1159 76.5005 24.1424 76.0695C24.7512 66.4582 27.0725 57.0329 30.9969 48.2382C31.1887 47.8043 31.3852 47.3719 31.5865 46.9408C36.1583 37.1717 42.6216 28.4059 50.6025 21.1504C51.0839 20.7122 51.5711 20.2798 52.0641 19.8531C60.6991 12.3597 70.8193 6.77437 81.7622 3.46253C82.193 3.33271 82.6254 3.20632 83.0594 3.08335C89.3802 1.29115 95.895 0.272301 102.461 0.049123C102.892 0.0347464 103.325 0.023239 103.759 0.0145959C104.276 0.00445532 104.796 9.01619e-05 105.317 9.01619e-05C124.882 -0.0290841 143.798 7.02272 158.569 19.8531C159.062 20.2798 159.55 20.7122 160.031 21.1504C168.013 28.4058 174.477 37.1715 179.049 46.9407C179.25 47.3717 179.446 47.8042 179.639 48.238C181.261 51.8687 182.611 55.6147 183.678 59.4452C183.799 59.8762 183.916 60.3087 184.028 60.7426C185.687 67.1058 186.568 73.6468 186.652 80.2222C186.657 80.5954 186.66 80.9695 186.66 81.3443Z" fill="#C7D6F5"/>
<path d="M158.569 19.8531H52.064C51.5711 20.2797 51.084 20.7122 50.6025 21.1504H160.031C159.55 20.7122 159.062 20.2797 158.569 19.8531ZM179.049 46.9407H31.5855C31.3851 47.3717 31.1886 47.8042 30.996 48.238H179.639C179.447 47.8042 179.251 47.3717 179.049 46.9407Z" fill="white"/>
<path d="M25.1208 155.751V157.048H26.4181V155.751H25.1208ZM24.1421 76.0694C24.1164 76.5003 24.0924 76.9327 24.0699 77.3666H74.4671V155.751H72.4044C73.4279 156.205 74.4614 156.637 75.505 157.048H75.7644V76.0694H24.1421Z" fill="white"/>
<path d="M104.668 67.5879V162.683C104.884 162.684 105.1 162.686 105.317 162.686C105.533 162.686 105.749 162.684 105.965 162.683V68.8852H119.96V161.371C120.394 161.292 120.827 161.21 121.257 161.125V67.5879H104.668Z" fill="white"/>
<path d="M186.652 80.2221H139.725V60.7422H184.028C183.916 60.3082 183.799 59.8758 183.678 59.4448H138.428V81.5195H186.66V81.3443C186.66 80.969 186.657 80.595 186.652 80.2221Z" fill="white"/>
<path d="M140.202 96.434V154.844C140.638 154.64 141.07 154.43 141.5 154.215V97.7314H149.51V149.643C149.945 149.362 150.377 149.077 150.807 148.787V96.434H140.202Z" fill="white"/>
<path d="M184.645 99.415C184.743 98.9839 184.838 98.5515 184.929 98.1176H160.987V117.209H178.344C178.558 116.779 178.766 116.347 178.97 115.911H162.284V99.4155L184.645 99.415Z" fill="white"/>
<path d="M25.1207 155.751V157.048H26.418V155.751H25.1207ZM37.2965 125.969C37.5834 126.404 37.8746 126.837 38.17 127.266H172.465C172.76 126.837 173.051 126.405 173.337 125.969H37.2965Z" fill="white"/>
<path d="M24.6464 91.846C24.7026 92.2798 24.7621 92.7122 24.825 93.1432H92.5787V109.241H28.8854C29.044 109.675 29.2059 110.108 29.3711 110.539H93.8756V91.846H24.6464Z" fill="white"/>
<path d="M102.461 0.0491088V57.0538H83.0594V3.08333C82.6256 3.20596 82.1932 3.33236 81.7622 3.46251V58.3512H103.759V0.0140686C103.325 0.0226261 102.892 0.0343044 102.461 0.0491088Z" fill="white"/>
<path d="M81.9839 177.816L80.6759 178.128C80.5321 178.161 80.3834 178.165 80.2381 178.14C80.0928 178.115 79.9539 178.061 79.8293 177.983C79.7046 177.904 79.5968 177.802 79.5118 177.681C79.4268 177.561 79.3664 177.425 79.3341 177.281L70.2739 139.275L67.7709 128.769L72.5162 127.642L74.3316 136.239L82.8261 176.455C82.8906 176.747 82.8387 177.052 82.6814 177.307C82.5242 177.561 82.2739 177.744 81.9839 177.816Z" fill="#FDAB71"/>
<path d="M74.3313 136.039L70.2739 139.005L67.7706 128.744L72.5159 127.642L74.3313 136.039Z" fill="#E99163"/>
<path d="M61.8038 128.77L60.024 136.239L50.2404 177.281C50.208 177.425 50.1475 177.561 50.0625 177.681C49.9775 177.802 49.8696 177.904 49.745 177.983C49.6204 178.062 49.4815 178.115 49.3362 178.14C49.191 178.165 49.0423 178.161 48.8985 178.129L47.5905 177.817C47.3007 177.744 47.0507 177.561 46.8935 177.307C46.7363 177.053 46.6843 176.748 46.7486 176.456L54.6004 139.276H54.6023L57.0585 127.643L61.8038 128.77Z" fill="#FDAB71"/>
<path d="M61.8038 128.744L60.024 136.039L54.6023 139.005L57.0585 127.642L61.8038 128.744Z" fill="#E99163"/>
<path d="M49.418 126.109H79.0286C80.0992 126.109 81.1259 126.534 81.8829 127.291C82.64 128.048 83.0652 129.075 83.0652 130.146V134.837C83.0652 135.156 82.9386 135.462 82.7132 135.687C82.4877 135.913 82.182 136.039 81.8631 136.039H46.5835C46.2646 136.039 45.9589 135.913 45.7334 135.687C45.508 135.462 45.3813 135.156 45.3813 134.837V130.146C45.3813 129.075 45.8066 128.048 46.5636 127.291C47.3207 126.534 48.3474 126.109 49.418 126.109Z" fill="#C7C7E3"/>
<path d="M123.223 70.947L122.701 70.7038C122.703 70.6979 122.978 70.1052 123.342 69.1187L123.883 69.3189C123.509 70.329 123.235 70.9213 123.223 70.947ZM124.448 67.6669L123.898 67.494C124.07 66.9463 124.23 66.3913 124.373 65.8441L124.931 65.9896C124.786 66.5456 124.623 67.11 124.448 67.6665V67.6669ZM125.327 64.289L124.762 64.1734C124.878 63.6058 124.977 63.0378 125.057 62.4855L125.628 62.5676C125.546 63.1305 125.445 63.7096 125.327 64.2886V64.289ZM102.491 62.0013C102.192 62.0013 101.889 61.9897 101.59 61.967L101.633 61.3922C101.92 61.4138 102.21 61.4257 102.496 61.4247C102.769 61.4247 103.046 61.4148 103.319 61.3953L103.36 61.9703C103.074 61.9907 102.783 62.0013 102.496 62.0013H102.491ZM105.11 61.7182L104.988 61.155C105.539 61.0348 106.081 60.878 106.611 60.6857L106.808 61.2276C106.254 61.4287 105.687 61.5925 105.111 61.7177L105.11 61.7182ZM99.8392 61.7026C99.263 61.571 98.6973 61.3968 98.1468 61.1816L98.3568 60.6446C98.8806 60.8495 99.419 61.0152 99.9673 61.1404L99.8392 61.7026ZM125.82 60.8284L125.245 60.7841C125.289 60.2065 125.312 59.6342 125.312 59.0827L125.888 59.0778C125.889 59.6488 125.866 60.236 125.82 60.8284H125.82ZM108.424 60.524L108.163 60.0105C108.666 59.7527 109.156 59.4672 109.628 59.1554L109.945 59.6369C109.455 59.9604 108.947 60.2565 108.424 60.524ZM96.5501 60.4159C96.0373 60.1211 95.5476 59.7879 95.0852 59.419L95.4446 58.9686C95.8842 59.3191 96.3496 59.6359 96.837 59.9162L96.5501 60.4159ZM111.361 58.5974L110.997 58.1498C111.427 57.8011 111.856 57.4207 112.271 57.0186L112.672 57.4334C112.245 57.8468 111.804 58.2391 111.361 58.5974ZM93.7907 58.2048C93.3913 57.7651 93.0315 57.2911 92.7154 56.7881L93.2042 56.4824C93.5023 56.9563 93.8416 57.403 94.2183 57.8173L93.7907 58.2048ZM125.237 57.3761C125.187 56.8119 125.108 56.2506 125 55.6946L125.565 55.5834C125.678 56.1593 125.76 56.7406 125.812 57.3249L125.237 57.3761ZM113.882 56.168L113.451 55.7855C113.819 55.3707 114.185 54.9276 114.541 54.4685L114.997 54.8213C114.634 55.2906 114.259 55.7438 113.883 56.168H113.882ZM91.9242 55.188C91.714 54.6255 91.5728 54.0397 91.5037 53.4432L92.0765 53.3791C92.1405 53.929 92.2709 54.4692 92.4648 54.9878L91.9242 55.188ZM124.577 54.0554C124.403 53.5194 124.193 52.9959 123.948 52.4884L124.467 52.2372C124.723 52.7682 124.943 53.316 125.125 53.8769L124.577 54.0554ZM116.024 53.4087L115.548 53.0835C115.862 52.6235 116.174 52.1388 116.477 51.643L116.969 51.943C116.662 52.4474 116.344 52.9406 116.024 53.4087ZM92.1193 51.7381L91.551 51.6405C91.6536 51.0437 91.844 50.4653 92.1158 49.9242L92.6312 50.1826C92.3848 50.673 92.2123 51.1972 92.1193 51.7381ZM123.104 51.0304C122.788 50.5665 122.437 50.1271 122.054 49.7161L122.476 49.3232C122.878 49.7555 123.248 50.2176 123.581 50.7055L123.104 51.0304ZM117.839 50.4338L117.333 50.1569L117.427 49.9854C117.673 49.5296 117.917 49.0803 118.157 48.6376L118.664 48.9126C118.424 49.3552 118.18 49.8044 117.934 50.2604L117.839 50.4338ZM93.5641 48.8257L93.1348 48.4406C93.5354 47.998 93.9819 47.5992 94.4666 47.2508L94.805 47.7175C94.3534 48.042 93.9374 48.4135 93.5641 48.8257ZM120.819 48.5715C120.378 48.22 119.915 47.8979 119.432 47.6074L119.73 47.1137C120.235 47.4175 120.719 47.7542 121.179 48.1215L120.819 48.5715ZM119.489 47.393L118.983 47.1173C119.264 46.6019 119.54 46.0957 119.811 45.5988L120.317 45.8754C120.045 46.3719 119.77 46.8776 119.489 47.3925V47.393ZM96.2429 46.8504L95.984 46.3352C96.5105 46.0728 97.0524 45.8429 97.6069 45.6465L97.8006 46.1895C97.2686 46.378 96.7486 46.5987 96.2436 46.8504H96.2429ZM117.933 46.8203C117.434 46.5929 116.903 46.3828 116.354 46.1958L116.54 45.6501C117.107 45.8427 117.656 46.0609 118.172 46.2955L117.933 46.8203ZM114.72 45.7164C114.186 45.5827 113.624 45.4638 113.05 45.3626L113.15 44.7947C113.737 44.8982 114.312 45.0201 114.86 45.157L114.72 45.7164ZM99.429 45.6984L99.2878 45.1394C99.831 45.0022 100.407 44.8805 101 44.7775L101.099 45.3457C100.521 45.4459 99.9587 45.5646 99.4296 45.6981L99.429 45.6984ZM111.357 45.1177C110.806 45.0544 110.232 45.0036 109.65 44.9666L109.686 44.3912C110.278 44.4288 110.862 44.481 111.422 44.5452L111.357 45.1177ZM102.793 45.1066L102.729 44.5336C103.288 44.4718 103.873 44.4225 104.466 44.3872L104.501 44.9627C103.918 44.9973 103.343 45.0457 102.794 45.1065L102.793 45.1066ZM106.218 44.8974L106.207 44.3211C106.804 44.3095 107.384 44.3093 107.947 44.3203L107.936 44.8968C107.381 44.8862 106.808 44.8863 106.218 44.8973L106.218 44.8974ZM121.147 44.3598L120.642 44.0821C120.926 43.5666 121.204 43.0618 121.478 42.5674L121.982 42.8467C121.709 43.3406 121.431 43.8449 121.148 44.3597L121.147 44.3598ZM122.822 41.3363L122.319 41.0552C122.606 40.5403 122.889 40.0374 123.166 39.5464L123.668 39.8298C123.392 40.3201 123.11 40.8222 122.823 41.3361L122.822 41.3363ZM124.521 38.3278L124.021 38.0415C124.315 37.528 124.603 37.0281 124.885 36.5418L125.384 36.8314C125.102 37.3164 124.815 37.8152 124.522 38.3277L124.521 38.3278ZM157.251 35.9976C157.14 35.4606 157.005 34.8997 156.849 34.3303L157.405 34.1778C157.564 34.759 157.703 35.3321 157.816 35.881L157.251 35.9976ZM126.257 35.3429L125.761 35.049C126.064 34.5375 126.361 34.0424 126.652 33.5637L127.145 33.8629C126.855 34.3396 126.56 34.8328 126.258 35.3423L126.257 35.3429ZM156.346 32.6904C156.161 32.1445 155.959 31.6044 155.746 31.0849L156.28 30.8667C156.497 31.3971 156.703 31.9485 156.892 32.5056L156.346 32.6904ZM128.049 32.3944L127.561 32.0884C127.879 31.5809 128.192 31.0891 128.493 30.6268L128.976 30.9413C128.678 31.4001 128.366 31.8891 128.05 32.3938L128.049 32.3944ZM155.045 29.5234C154.79 29.0034 154.517 28.4965 154.235 28.0187L154.732 27.7259C155.021 28.2169 155.301 28.7361 155.563 29.2692L155.045 29.5234ZM129.931 29.5082L129.455 29.1829C129.796 28.6837 130.133 28.206 130.455 27.763L130.921 28.1024C130.602 28.5402 130.269 29.0131 129.932 29.5076L129.931 29.5082ZM131.958 26.7343L131.506 26.3763C131.884 25.8983 132.261 25.4481 132.624 25.038L133.055 25.4204C132.7 25.8219 132.331 26.2641 131.959 26.7337L131.958 26.7343ZM153.308 26.5881C152.972 26.1173 152.617 25.6683 152.253 25.2531L152.687 24.8731C153.063 25.3023 153.43 25.7666 153.777 26.253L153.308 26.5881ZM134.232 24.1865L133.831 23.7718C134.252 23.3632 134.694 22.9775 135.156 22.6166L135.51 23.072C135.065 23.4201 134.638 23.7919 134.233 24.1858L134.232 24.1865ZM151.066 24.0423C150.649 23.6626 150.208 23.3098 149.746 22.986L150.076 22.5134C150.558 22.8512 151.019 23.2193 151.454 23.6155L151.066 24.0423ZM136.908 22.1361L136.625 21.6338C137.141 21.3418 137.682 21.0961 138.242 20.8996L138.432 21.444C137.905 21.6284 137.395 21.8599 136.909 22.1355L136.908 22.1361ZM148.3 22.1164C147.799 21.8608 147.281 21.641 146.749 21.4588L146.935 20.9133C147.493 21.1044 148.037 21.3349 148.562 21.6029L148.3 22.1164ZM140.064 21.0267L139.959 20.4596C140.538 20.353 141.122 20.2808 141.709 20.2436L141.746 20.819C141.182 20.8547 140.621 20.9238 140.065 21.0261L140.064 21.0267ZM145.117 21.0251C144.563 20.9186 144.003 20.8484 143.439 20.815L143.474 20.2394C144.062 20.2744 144.647 20.3477 145.226 20.4589L145.117 21.0251Z" fill="#FEB701"/>
<path d="M205.048 31.7664H139.96C135.592 31.7664 132.052 35.3066 132.052 39.6737V169.894C132.052 174.261 135.592 177.802 139.96 177.802H205.048C209.415 177.802 212.955 174.261 212.955 169.894V39.6737C212.955 35.3066 209.415 31.7664 205.048 31.7664Z" fill="url(#paint0_linear_29_293)"/>
<path d="M202.996 34.9609H142.012C138.327 34.9609 135.339 37.9484 135.339 41.6336V164.284C135.339 167.969 138.327 170.956 142.012 170.956H202.996C206.681 170.956 209.669 167.969 209.669 164.284V41.6336C209.669 37.9484 206.681 34.9609 202.996 34.9609Z" fill="white"/>
<path d="M177.767 33.82H168.737C167.702 33.82 166.863 34.659 166.863 35.6939V37.8788C166.863 38.9137 167.702 39.7527 168.737 39.7527H177.767C178.802 39.7527 179.641 38.9137 179.641 37.8788V35.6939C179.641 34.659 178.802 33.82 177.767 33.82Z" fill="url(#paint1_linear_29_293)"/>
<path d="M202.014 150.876H143.806C142.174 150.876 140.851 152.199 140.851 153.831V157.277C140.851 158.909 142.174 160.232 143.806 160.232H202.014C203.646 160.232 204.969 158.909 204.969 157.277V153.831C204.969 152.199 203.646 150.876 202.014 150.876Z" fill="#262BC6"/>
<path d="M84.9899 172.702L87.1411 173.319C87.4814 173.421 87.8483 173.388 88.1647 173.226C88.4811 173.064 88.7223 172.785 88.8378 172.449L90.3184 167.758L85.5586 166.393L84.078 171.084C84.0283 171.25 84.0126 171.424 84.0319 171.597C84.0512 171.769 84.105 171.936 84.1901 172.087C84.2752 172.238 84.3899 172.37 84.5273 172.476C84.6648 172.581 84.8221 172.658 84.9899 172.702Z" fill="#FB855F"/>
<path d="M117.663 172.147L115.413 172.811C115.079 172.909 114.72 172.871 114.414 172.705C114.108 172.539 113.881 172.258 113.783 171.924L112.314 166.947L117.081 165.54L118.55 170.517C118.648 170.85 118.61 171.21 118.444 171.515C118.278 171.821 117.997 172.048 117.663 172.147Z" fill="#FB855F"/>
<path d="M111.453 127.229L111.431 127.32C110.991 129.085 109.869 130.603 108.311 131.542C106.753 132.481 104.886 132.763 103.12 132.327C102.038 132.061 100.945 131.793 99.8437 131.526C87.3463 128.486 73.7506 125.43 61.8588 123.085L65.2966 108.452C75.8912 110.595 89.9063 114.2 103.763 118.211C104.747 118.497 105.731 118.784 106.713 119.071C108.398 119.566 109.828 120.687 110.71 122.205C111.592 123.722 111.858 125.521 111.453 127.229V127.229Z" fill="#262BC6"/>
<path d="M121.272 164.572L110.117 167.865C108.049 159.393 103.19 143.18 99.8443 131.525C99.4651 130.206 99.1062 128.945 98.7718 127.76C98.2904 126.053 98.4912 124.225 99.3319 122.663C100.172 121.101 101.587 119.927 103.277 119.388C103.325 119.371 103.373 119.357 103.421 119.342C104.316 119.079 105.255 119 106.181 119.113C107.107 119.225 108.001 119.525 108.806 119.995C109.612 120.465 110.313 121.095 110.867 121.846C111.42 122.597 111.815 123.453 112.025 124.361C112.208 125.154 112.397 125.968 112.59 126.802C115.551 139.592 119.541 156.753 121.272 164.572Z" fill="#262BC6"/>
<path d="M97.4624 132.407C97.4047 132.629 97.3383 132.848 97.2635 133.064C96.9641 133.922 96.4976 134.712 95.8908 135.388C95.2841 136.064 94.5492 136.614 93.7288 137.004C92.9083 137.394 92.0186 137.618 91.1111 137.662C90.2035 137.706 89.2963 137.57 88.4418 137.261C87.1603 136.799 85.865 136.334 84.5558 135.866C77.3989 133.315 69.8832 130.725 62.5608 128.301C60.7134 127.693 59.0058 126.722 57.5378 125.446C56.0698 124.17 54.8707 122.615 54.0108 120.87C53.1508 119.125 52.6472 117.227 52.5292 115.285C52.4113 113.344 52.6815 111.398 53.324 109.563C63.2944 112.693 76.7691 117.214 89.7882 122.386C91.0394 122.882 92.2848 123.385 93.5244 123.895C93.6728 123.954 93.8227 124.015 93.9711 124.077C97.1279 125.377 98.3128 129.112 97.4624 132.407Z" fill="#262BC6"/>
<path d="M98.6775 131.08C98.6518 131.269 98.6262 131.458 98.5982 131.65C96.8653 144.196 94.4136 162.136 93.2375 170.067L81.6354 169.279C82.5981 161.599 83.6476 147.123 84.5557 135.866C84.7344 133.656 84.9075 131.571 85.0732 129.684C85.2657 127.476 86.5939 125.616 88.4663 124.583C89.6609 123.925 91.0198 123.627 92.3798 123.723C92.7653 123.75 93.1481 123.807 93.5244 123.895C96.8512 124.667 99.1408 127.729 98.6775 131.08Z" fill="#262BC6"/>
<path d="M73.268 125.181L60.2717 125.01L60.0507 108.238L70.1468 110.815L73.268 125.181Z" fill="#262BC6"/>
<path d="M109.945 168.141L109.168 163.557L120.747 160.617L121.521 164.725L109.945 168.141ZM109.661 163.878L110.29 167.589L121.024 164.42L120.408 161.15L109.661 163.878Z" fill="#30354F"/>
<path d="M93.4231 170.297L81.3871 169.478L82.0859 164.772L94.0781 165.607L93.4231 170.297ZM81.8833 169.078L93.0508 169.838L93.5861 166.006L82.4552 165.231L81.8833 169.078Z" fill="#30354F"/>
<path d="M118.023 169.367L130.032 168.284C130.409 168.25 130.787 168.348 131.1 168.561C131.413 168.773 131.643 169.088 131.75 169.452C131.811 169.658 131.831 169.875 131.808 170.089C131.786 170.303 131.721 170.51 131.618 170.699C131.515 170.888 131.376 171.055 131.209 171.19C131.042 171.325 130.849 171.426 130.643 171.487L114.519 176.247L113.272 170.831L118.023 169.367Z" fill="#5F6386"/>
<path d="M89.0129 171.302L99.6555 176.705C99.9849 176.864 100.246 177.136 100.393 177.471C100.54 177.807 100.561 178.183 100.454 178.533C100.194 179.36 99.2799 179.828 98.4135 179.579L82.3145 174.962L84.2362 169.992L89.0129 171.302Z" fill="#5F6386"/>
<path d="M69.9047 109.837C70.1362 109.837 70.3238 109.65 70.3238 109.418C70.3238 109.187 70.1362 108.999 69.9047 108.999C69.6732 108.999 69.4856 109.187 69.4856 109.418C69.4856 109.65 69.6732 109.837 69.9047 109.837Z" fill="#001065"/>
<path d="M76.6947 70.3319C76.6947 70.3319 83.0175 73.2201 89.5164 76.6565C96.7219 80.466 104.093 85.0416 102.203 89.1122C98.0409 98.0743 71.8998 78.7128 71.8998 78.7128C68.3025 75.0802 72.2256 69.5647 76.6947 70.3319Z" fill="#EB8F90"/>
<path d="M87.6709 74.4424C86.5593 78.7258 84.4323 83.0057 81.2901 87.2819L67.8601 76.9937L73.0203 68.2371L87.6709 74.4424Z" fill="#80C2C1"/>
<path d="M116.318 71.1179C116.318 71.1179 90.3257 81.9732 93.4953 89.4253C97.0695 97.8288 119.395 75.0126 119.395 75.0126C119.395 75.0126 119.943 72.5343 116.318 71.1179Z" fill="#EB8F90"/>
<path d="M114.712 71.8198C114.712 71.8198 114.585 69.9842 115.275 68.6535C115.965 67.3228 116.581 66.5145 116.569 64.7501C116.558 62.9858 118.363 63.2288 118.308 64.7614C118.254 66.2941 117.84 68.7179 119.583 68.1293C121.325 67.5406 123.163 62.9063 124.891 65.3473C124.891 65.3473 126.185 63.4874 126.869 64.1703C127.553 64.8532 126.391 66.5467 126.391 66.5467C126.391 66.5467 128.938 66.6765 125.278 70.4262C125.278 70.4262 126.285 71.1218 125.663 71.9455C124.669 73.2628 121.543 75.0176 118.806 75.6038C114.358 76.5574 114.712 71.8198 114.712 71.8198Z" fill="#EB8F90"/>
<path d="M120.793 69.6644C124.488 66.7427 125.009 65.453 125.029 65.3994L124.753 65.293C124.748 65.3058 124.212 66.5829 120.609 69.4316L120.793 69.6644Z" fill="#D16B70"/>
<path d="M121.989 70.919C124.06 69.5558 126.48 66.6702 126.505 66.6412L126.277 66.4511C126.253 66.4797 123.86 69.3322 121.826 70.6712L121.989 70.919Z" fill="#D16B70"/>
<path d="M122.554 72.4538C123.801 71.65 125.349 70.5578 125.364 70.5467L125.193 70.3045C125.177 70.3154 123.634 71.404 122.393 72.2042L122.554 72.4538Z" fill="#D16B70"/>
<path d="M83.1487 112.934C83.1487 112.934 82.7084 73.6205 74.2 68.7905C69.3223 66.0213 59.2278 66.7733 54.0799 70.5991C48.8845 74.4602 52.9853 111.887 52.9853 111.887L83.1487 112.934Z" fill="#80C2C1"/>
<path d="M58.7085 76.2175C58.7085 76.2175 62.7134 81.899 66.5952 88.1423C70.8987 95.0641 74.9589 102.731 71.2748 105.294C63.1635 110.937 50.3437 81.0393 50.3437 81.0393C49.0666 76.089 55.2352 73.3025 58.7085 76.2175Z" fill="#EB8F90"/>
<path d="M64.3766 82.7252C60.9821 86.3886 56.8619 88.7988 52.3415 90.5175L48.2615 80.3649C47.6469 78.8353 47.6134 77.1337 48.1673 75.5812C48.7212 74.0286 49.8242 72.7325 51.2682 71.9374L56.324 69.1536L64.3766 82.7252Z" fill="#80C2C1"/>
<path d="M96.2665 99.7876C96.2665 99.7876 66.2724 93.2742 65.1105 101.745C63.8001 111.298 96.973 105.09 96.973 105.09C96.973 105.09 98.8409 103.26 96.2665 99.7876Z" fill="#EB8F90"/>
<path d="M94.3964 99.4121C94.3964 99.4121 95.2867 97.7283 96.6555 96.989C98.0244 96.2498 99.0381 95.9225 99.9964 94.372C100.955 92.8215 102.49 94.1458 101.598 95.4529C100.706 96.76 98.9922 98.6255 100.927 99.1839C102.862 99.7423 107.105 96.8202 107.363 100.02C107.363 100.02 109.581 99.1899 109.838 100.209C110.096 101.228 108.091 101.993 108.091 101.993C108.091 101.993 110.375 103.676 104.932 104.701C104.932 104.701 105.48 105.93 104.453 106.267C102.81 106.807 98.9557 106.417 96.1033 105.245C91.4677 103.339 94.3964 99.4121 94.3964 99.4121Z" fill="#EB8F90"/>
<path d="M101.19 101.263C106.21 100.983 107.401 100.175 107.449 100.141L107.278 99.8982C107.267 99.9063 106.069 100.693 101.174 100.966L101.19 101.263Z" fill="#D16B70"/>
<path d="M101.921 103.102C104.56 103.102 108.093 102.147 108.13 102.137L108.052 101.85C108.014 101.861 104.234 102.882 101.616 102.8L101.607 103.097C101.71 103.1 101.815 103.101 101.921 103.102Z" fill="#D16B70"/>
<path d="M104.908 104.85H104.932V104.553C104.912 104.555 102.888 104.555 101.3 104.491L101.288 104.787C102.786 104.847 104.673 104.85 104.908 104.85Z" fill="#D16B70"/>
<path d="M66.8538 72.8281C70.3928 72.8281 72.0065 68.6939 71.0554 67.7428C70.771 67.4423 70.5447 67.0916 70.3879 66.7087H70.3853C70.1456 66.1343 69.9839 65.5303 69.9045 64.913L69.902 64.9105L63.359 59.0742C63.7124 62.7902 62.1221 65.399 61.5452 67.2569C60.9707 69.1148 62.8286 72.8281 66.8538 72.8281Z" fill="#EB8F90"/>
<path d="M64.5074 63.4683C66.3837 67.0571 70.276 66.7008 70.3851 66.7087C70.1455 66.1342 69.9838 65.5303 69.9044 64.913L69.9018 64.9105C69.725 64.8092 62.7488 60.1047 64.5074 63.4683Z" fill="#D16B70"/>
<path d="M56.8872 52.3976C56.8872 52.3976 57.1685 55.7893 62.1 59.2834C67.2704 62.9468 61.3851 51.6876 61.3851 51.6876L56.8872 52.3976Z" fill="#8E3332"/>
<path d="M70.3491 50.3601C70.3491 50.3601 71.0474 53.2829 71.9525 56.5633C73.2463 61.2525 73.3567 65.0443 68.58 65.0443C60.5574 65.0443 61.0912 51.7313 61.0912 51.7313L70.3491 50.3601Z" fill="#EB8F90"/>
<path d="M63.6701 53.235C63.6701 53.235 75.7005 52.9655 74.0417 44.8295C72.3829 36.6935 67.6646 46.7775 65.2179 46.7775C62.3478 46.7775 54.5308 47.1956 57.3997 54.0269C58.1452 55.8015 59.3355 53.5124 63.6701 53.235Z" fill="#8E3332"/>
<path d="M81.0684 86.6667L81.6589 86.6038C81.6516 86.5338 80.8787 79.5431 77.8528 73.5735L77.3237 73.8418C80.2985 79.7118 81.061 86.5979 81.0684 86.6667Z" fill="#50A5A0"/>
<path d="M66.7806 75.1349C67.2876 75.1334 67.7932 75.0828 68.2904 74.9836C72.6279 74.133 73.5755 68.6553 73.6135 68.4221L73.0281 68.3257C73.0191 68.3787 72.1069 73.6304 68.1761 74.401C64.538 75.1149 61.4997 73.0426 59.1449 68.2433L58.6122 68.5046C60.7743 72.9109 63.5174 75.1349 66.7806 75.1349Z" fill="#50A5A0"/>
<path d="M51.5569 88.5168C51.9221 88.3433 60.5235 84.234 63.0182 81.0533L62.5511 80.6869C60.1424 83.7581 51.3905 87.9394 51.3025 87.9807L51.5569 88.5168Z" fill="#50A5A0"/>
<path d="M81.0238 83.5706C83.1607 80.7764 85.6401 73.9341 85.7444 73.6441L85.1862 73.4428C85.1606 73.5132 82.6335 80.4887 80.5524 83.2101L81.0238 83.5706Z" fill="#50A5A0"/>
<path d="M61.9559 62.794C63.2928 62.794 64.3766 61.7103 64.3766 60.3734C64.3766 59.0365 63.2928 57.9527 61.9559 57.9527C60.619 57.9527 59.5353 59.0365 59.5353 60.3734C59.5353 61.7103 60.619 62.794 61.9559 62.794Z" fill="#EB8F90"/>
<path d="M61.4227 55.655C61.4227 55.655 62.7356 58.8552 64.3767 59.8396C66.0178 60.824 68.7257 58.1985 72.6645 58.9371C72.6645 58.9371 72.9927 63.2862 71.5977 65.6657C71.5977 65.6657 67.4131 66.4863 64.9511 63.7788C63.3841 62.025 61.9832 60.1296 60.7665 58.1169L61.4227 55.655Z" fill="#8E3332"/>
<path d="M71.2695 60.3323L68.7257 60.6605C68.7257 60.6605 68.9719 62.9171 70.3668 62.712C71.7617 62.5069 71.2695 60.3323 71.2695 60.3323Z" fill="white"/>
<path d="M67.1997 55.8093C67.4549 55.8093 67.6618 55.6024 67.6618 55.3472C67.6618 55.092 67.4549 54.8851 67.1997 54.8851C66.9444 54.8851 66.7375 55.092 66.7375 55.3472C66.7375 55.6024 66.9444 55.8093 67.1997 55.8093Z" fill="#8E3332"/>
<path d="M70.0804 55.1733C70.3356 55.1733 70.5425 54.9664 70.5425 54.7112C70.5425 54.456 70.3356 54.2491 70.0804 54.2491C69.8252 54.2491 69.6183 54.456 69.6183 54.7112C69.6183 54.9664 69.8252 55.1733 70.0804 55.1733Z" fill="#8E3332"/>
<path d="M69.6705 58.8669C70.2282 58.8669 70.6858 58.5857 70.869 58.2061C71.0568 57.8162 70.9863 57.2122 70.1694 56.7926C68.9986 56.1911 69.1642 54.9543 69.1659 54.9419L68.5788 54.8564C68.5206 55.3528 68.6159 55.8551 68.8518 56.2957C69.0877 56.7363 69.4528 57.0941 69.8982 57.3209C70.0373 57.3922 70.4792 57.6484 70.3346 57.9487C70.2146 58.1976 69.7243 58.4139 69.1528 58.1555L68.9089 58.6966C69.1478 58.8068 69.4074 58.8649 69.6705 58.8669Z" fill="#8E3332"/>
<path d="M65.904 54.6012C65.9925 54.3934 66.1342 54.2126 66.3149 54.0771C66.4956 53.9415 66.7088 53.856 66.9331 53.8292L66.9029 53.2366C66.5695 53.2691 66.2509 53.3903 65.98 53.5874C65.7092 53.7846 65.496 54.0506 65.3625 54.3578L65.904 54.6012Z" fill="#8E3332"/>
<path d="M69.0956 53.3466C69.6732 52.9375 70.4928 53.1209 70.5015 53.1231L70.6381 52.5455C70.5946 52.5346 69.5519 52.295 68.7524 52.8625L69.0956 53.3466Z" fill="#8E3332"/>
<path d="M71.5034 98.0086L74.1905 97.6908L74.121 97.1014L71.8656 97.3681L70.528 94.4064L69.9872 94.6507L71.5034 98.0086Z" fill="#50A5A0"/>
<path d="M86.5575 134.829L84.4957 135.537L84.6362 135.946L86.698 135.238L86.5575 134.829Z" fill="#30354F"/>
<path d="M112.59 126.802C112.222 127.013 111.834 127.187 111.431 127.32C110.318 127.688 109.124 127.744 107.981 127.481C106.838 127.219 105.788 126.647 104.947 125.829C104.106 125.011 103.506 123.978 103.211 122.843C102.917 121.707 102.94 120.513 103.277 119.389C103.399 118.981 103.562 118.586 103.763 118.211C104.747 118.497 105.731 118.783 106.713 119.071C107.961 119.458 109.095 120.141 110.021 121.063C110.946 121.984 111.634 123.116 112.025 124.361C112.208 125.155 112.397 125.968 112.59 126.802Z" fill="#246BFD"/>
<path d="M98.6775 131.08C98.6518 131.269 98.6262 131.458 98.5982 131.65C97.3483 132.688 95.7508 133.212 94.129 133.117C92.5072 133.021 90.9822 132.313 89.8626 131.136C88.7431 129.959 88.1126 128.4 88.0987 126.776C88.0849 125.151 88.6888 123.582 89.7882 122.386C91.0394 122.882 92.2848 123.385 93.5244 123.895C96.8512 124.667 99.1408 127.729 98.6775 131.08Z" fill="#246BFD"/>
<path d="M98.1725 128.18C98.0955 126.161 91.4592 122.431 87.5095 120.387C82.0194 117.546 76.6471 115.266 76.6096 115.252L76.7522 114.844C76.8934 114.891 82.3351 117.226 87.6414 119.969C94.8513 123.694 98.5394 126.452 98.6046 128.164L98.1725 128.18Z" fill="#30354F"/>
<path d="M68.7917 125.44L68.3612 125.401L68.7203 121.45L60.2977 118.126L60.4565 117.724L69.1804 121.167L68.7917 125.44Z" fill="#30354F"/>
<path d="M127.455 62.7592L121.534 61.4325C121.054 61.325 120.578 61.6269 120.471 62.1068L117.608 74.8843C117.5 75.3643 117.802 75.8405 118.282 75.9481L124.203 77.2748C124.683 77.3823 125.159 77.0804 125.266 76.6005L128.13 63.823C128.237 63.3431 127.935 62.8668 127.455 62.7592Z" fill="#1C5276"/>
<path d="M24.7458 162.454C24.7458 163.255 25.119 163.99 25.7445 164.573H26.2997C27.4819 164.573 28.4651 163.907 28.56 163.043L29.0004 159.041C26.6147 159.194 24.7458 160.663 24.7458 162.454Z" fill="#B0B0D6"/>
<path d="M32.7655 146.669C31.4819 148.624 27.9206 150.389 24.5072 148.772C21.0938 147.154 19.0015 141.736 19.0015 141.736C19.0015 141.736 23.2805 141.09 23.2888 140.362C23.297 139.634 21.0938 141.09 19.6627 139.311C18.2315 137.532 13.4964 130.173 14.5976 129.445C15.2234 129.038 15.8128 128.578 16.3594 128.07C16.3594 128.07 15.2017 128.172 13.4969 126.534C9.20256 122.41 9.86324 109.957 9.86324 109.957C16.1401 107.774 21.48 119.337 21.6177 120.793C21.7555 122.248 21.6177 125.483 21.6177 125.483C21.6177 125.483 23.9575 124.27 24.7283 124.998C25.4992 125.725 29.6831 133.893 29.3531 135.025C29.0231 136.156 26.6002 138.421 28.8026 138.502C31.0049 138.583 32.216 139.149 32.7665 140.038C33.317 140.928 34.7475 143.65 32.7655 146.669Z" fill="#246BFD"/>
<path d="M30.3979 151.795C30.4109 151.795 30.4237 151.794 30.4364 151.791C30.5182 151.776 30.5674 151.714 30.5461 151.654C30.0623 150.286 18.6314 118.102 12.934 114.561C12.9009 114.542 12.8627 114.533 12.8243 114.535C12.7859 114.537 12.7491 114.551 12.7185 114.574C12.7059 114.584 12.696 114.597 12.6898 114.612C12.6836 114.626 12.6813 114.642 12.6831 114.658C12.6849 114.674 12.6908 114.689 12.7001 114.702C12.7094 114.715 12.722 114.726 12.7365 114.732C18.3601 118.227 30.1317 151.376 30.2501 151.711C30.2636 151.738 30.2848 151.76 30.3112 151.775C30.3375 151.79 30.3677 151.797 30.3979 151.795Z" fill="#30354F"/>
<path d="M22.2498 149.984L23.2882 159.423L23.5253 161.587L24.3953 169.495L24.6324 171.659L25.1401 176.271C25.2349 177.136 26.2183 177.802 27.4004 177.802H33.3949C34.5771 177.802 35.5604 177.136 35.6552 176.271L36.0957 172.269L36.2777 170.607L36.8359 165.531L37.0837 163.281L37.9018 155.836L38.1496 153.589L38.5457 149.985L22.2498 149.984Z" fill="#C7C7E3"/>
<path d="M23.2883 159.423L23.5254 161.587L24.3955 169.495L24.6325 171.659C27.9909 170.789 30.398 168.438 30.398 165.672C30.3982 162.55 27.3303 159.956 23.2883 159.423Z" fill="#B0B0D6"/>
<path d="M23.5254 161.587L24.3954 169.495C26.2919 168.788 27.5901 167.341 27.5901 165.672C27.5902 163.758 25.8835 162.138 23.5254 161.587Z" fill="#B0B0D6"/>
<path d="M31.7058 159.729C31.7058 162.316 33.8131 164.541 36.8367 165.531L37.0844 163.281L37.9026 155.836L38.1504 153.589C34.4417 154.302 31.7058 156.78 31.7058 159.729Z" fill="#B0B0D6"/>
<path d="M34.5135 159.729C34.5135 161.208 35.5336 162.512 37.0844 163.281L37.9026 155.836C35.9022 156.515 34.5135 158.002 34.5135 159.729Z" fill="#B0B0D6"/>
<path d="M29.5952 175.682C29.5997 176.434 29.8179 177.169 30.2242 177.802H33.396C34.5782 177.802 35.5615 177.136 35.6563 176.271L36.0968 172.269L36.2788 170.607C32.5667 170.697 29.5952 172.934 29.5952 175.682Z" fill="#B0B0D6"/>
<path d="M35.6278 147.515C33.2033 148.99 28.6588 149.54 26.2792 146.861C23.8996 144.183 25.0841 138.253 25.0841 138.253C25.0841 138.253 29.6638 139.02 30.1059 138.317C30.548 137.614 27.5207 138.307 27.18 136.118C26.8394 133.928 26.5928 125.257 28.1064 124.912C28.972 124.718 29.8232 124.465 30.6538 124.154C30.6538 124.154 29.4588 123.875 28.7654 121.733C27.0197 116.339 35.1019 104.491 35.1019 104.491C42.5564 104.421 40.8859 117.362 40.1517 118.817C39.4174 120.271 37.3514 123.36 37.3514 123.36C37.3514 123.36 40.3687 122.947 40.6896 123.903C41.0105 124.859 40.2346 134.134 39.235 135.123C38.2355 136.112 34.5094 137.516 36.6194 138.312C38.7294 139.108 39.5783 140.051 39.5867 141.092C39.5952 142.133 39.3726 145.236 35.6278 147.515Z" fill="#262BC6"/>
<path d="M30.3146 151.712C30.3465 151.715 30.3784 151.708 30.4055 151.691C30.4327 151.674 30.4536 151.649 30.4652 151.619C30.8081 150.136 38.8216 115.237 35.3531 109.954C35.3288 109.925 35.2961 109.904 35.2595 109.895C35.2229 109.885 35.1842 109.888 35.149 109.901C35.0729 109.928 35.0409 109.995 35.0776 110.051C38.5037 115.271 30.2474 151.219 30.1637 151.581C30.1496 151.642 30.2055 151.7 30.2888 151.711C30.2974 151.712 30.306 151.712 30.3146 151.712Z" fill="#30354F"/>
<path d="M22.2972 152.815H38.4991C39.1942 152.815 39.7577 152.251 39.7577 151.556V150.677C39.7577 149.982 39.1942 149.419 38.4991 149.419H22.2972C21.6021 149.419 21.0387 149.982 21.0387 150.677V151.556C21.0387 152.251 21.6021 152.815 22.2972 152.815Z" fill="#B0B0D6"/>
<path d="M225.205 177.802H0.725246C0.324704 177.802 0 178.126 0 178.527C0 178.927 0.324704 179.252 0.725246 179.252H225.205C225.606 179.252 225.931 178.927 225.931 178.527C225.931 178.126 225.606 177.802 225.205 177.802Z" fill="#5F6386"/>
<path d="M200.607 54.6301H143.995C141.709 54.6301 139.856 56.4833 139.856 58.7692V115.382C139.856 117.667 141.709 119.521 143.995 119.521H200.607C202.893 119.521 204.746 117.667 204.746 115.382V58.7692C204.746 56.4833 202.893 54.6301 200.607 54.6301Z" fill="#246BFD"/>
<path d="M194.987 88.0039H149.615C147.329 88.0039 145.476 89.8571 145.476 92.143V93.7432C145.476 96.0292 147.329 97.8823 149.615 97.8823H194.987C197.273 97.8823 199.126 96.0292 199.126 93.7432V92.143C199.126 89.8571 197.273 88.0039 194.987 88.0039Z" fill="#30354F"/>
<path d="M194.987 101.566H149.615C147.329 101.566 145.476 103.419 145.476 105.705V107.305C145.476 109.591 147.329 111.444 149.615 111.444H194.987C197.273 111.444 199.126 109.591 199.126 107.305V105.705C199.126 103.419 197.273 101.566 194.987 101.566Z" fill="#30354F"/>
<path d="M183.834 71.4588C183.834 73.7398 183.158 75.9697 181.891 77.8665C180.624 79.7633 178.823 81.2418 176.716 82.115C174.609 82.9882 172.29 83.2169 170.053 82.7722C167.815 82.3275 165.76 81.2293 164.147 79.6166C162.534 78.0039 161.435 75.949 160.99 73.7118C160.545 71.4747 160.773 69.1557 161.645 67.0482C162.518 64.9407 163.996 63.1393 165.892 61.8717C167.789 60.6042 170.019 59.9276 172.3 59.9273C173.815 59.9228 175.317 60.2179 176.718 60.7958C178.12 61.3737 179.393 62.2229 180.465 63.2945C181.537 64.3662 182.386 65.6392 182.964 67.0403C183.543 68.4414 183.838 69.943 183.834 71.4588Z" fill="#30354F"/>
<path d="M172.301 73.8352C174.763 73.8352 176.759 71.8391 176.759 69.3769C176.759 66.9146 174.763 64.9186 172.301 64.9186C169.838 64.9186 167.842 66.9146 167.842 69.3769C167.842 71.8391 169.838 73.8352 172.301 73.8352Z" fill="white"/>
<path d="M180.533 79.5364C179.459 80.6301 178.178 81.4988 176.765 82.0918C175.351 82.6848 173.834 82.9902 172.301 82.9902C170.768 82.9902 169.251 82.6848 167.838 82.0918C166.424 81.4988 165.143 80.6301 164.069 79.5364C164.634 77.9592 165.641 76.5776 166.969 75.556C168.296 74.5344 169.89 73.9158 171.559 73.7738C172.052 73.7282 172.547 73.7282 173.04 73.7738C174.71 73.9152 176.304 74.5336 177.632 75.5552C178.961 76.5769 179.968 77.9588 180.533 79.5364Z" fill="white"/>
<defs>
<linearGradient id="paint0_linear_29_293" x1="172.504" y1="31.7664" x2="172.504" y2="177.802" gradientUnits="userSpaceOnUse">
<stop stop-color="#246BFD"/>
<stop offset="1" stop-color="#262BC6"/>
</linearGradient>
<linearGradient id="paint1_linear_29_293" x1="173.252" y1="33.82" x2="173.252" y2="39.7527" gradientUnits="userSpaceOnUse">
<stop stop-color="#246BFD"/>
<stop offset="1" stop-color="#262BC6"/>
</linearGradient>
</defs>
</svg>
