<svg width="291" height="217" viewBox="0 0 291 217" fill="none" xmlns="http://www.w3.org/2000/svg">
<path d="M109.55 34.72C118.862 34.72 126.41 27.1715 126.41 17.86C126.41 8.5485 118.862 1 109.55 1C100.238 1 92.69 8.5485 92.69 17.86C92.69 27.1715 100.238 34.72 109.55 34.72Z" fill="#EEEDFF" stroke="#C7C7E3" stroke-width="0.42" stroke-miterlimit="10"/>
<path d="M110.26 2.63013H108.85V5.56015H110.26V2.63013Z" fill="#C7C7E3"/>
<path d="M124.77 18.5602V17.1501H121.84V18.5602H124.77Z" fill="#C7C7E3"/>
<path d="M108.85 33.0702H110.26V30.1402H108.85V33.0702Z" fill="#C7C7E3"/>
<path d="M94.33 17.1601V18.5701H97.26V17.1601H94.33Z" fill="#C7C7E3"/>
<path d="M109.55 6.78027V17.8503H102.45" stroke="#C7C7E3" stroke-width="0.84" stroke-miterlimit="10" stroke-linecap="round"/>
<path d="M255.1 206.7H160.03V216.07H255.1V206.7Z" fill="#C7C7E3"/>
<path d="M183.37 206.7H160.03V216.07H183.37V206.7Z" fill="#B0B0D6"/>
<path d="M203.82 182.29C203.861 182.293 203.901 182.28 203.933 182.254C203.965 182.228 203.985 182.191 203.99 182.15C205.102 176.524 204.578 170.697 202.48 165.36C200.682 161.115 199.97 156.489 200.41 151.9C200.414 151.877 200.414 151.853 200.408 151.83C200.403 151.808 200.393 151.786 200.379 151.767C200.365 151.748 200.347 151.733 200.326 151.721C200.306 151.71 200.283 151.703 200.26 151.7C200.215 151.697 200.171 151.711 200.136 151.738C200.101 151.766 200.077 151.806 200.07 151.85C199.625 156.511 200.35 161.21 202.18 165.52C204.245 170.789 204.762 176.538 203.67 182.09C203.666 182.112 203.666 182.135 203.671 182.158C203.675 182.18 203.685 182.201 203.698 182.22C203.711 182.238 203.727 182.254 203.747 182.266C203.766 182.278 203.788 182.286 203.81 182.29H203.82Z" fill="#246BFD"/>
<path d="M206.75 182.29C206.772 182.287 206.794 182.278 206.813 182.266C206.833 182.254 206.849 182.238 206.862 182.22C206.875 182.201 206.885 182.18 206.889 182.158C206.894 182.136 206.894 182.113 206.89 182.09C206.75 181.33 206.59 180.59 206.43 179.88C205.74 176.74 205.14 174.03 206.87 170.96C207.22 170.35 207.59 169.83 207.95 169.32C209.84 166.65 211.62 164.13 210.22 148.8C210.219 148.778 210.213 148.756 210.203 148.736C210.194 148.716 210.18 148.698 210.163 148.683C210.146 148.668 210.127 148.657 210.106 148.649C210.085 148.642 210.062 148.639 210.04 148.64C210.017 148.641 209.994 148.647 209.973 148.658C209.952 148.668 209.934 148.683 209.919 148.7C209.904 148.718 209.893 148.739 209.886 148.761C209.879 148.784 209.877 148.807 209.88 148.83C211.27 164.04 209.52 166.51 207.66 169.12C207.3 169.63 206.93 170.12 206.57 170.79C204.77 173.97 205.38 176.79 206.09 179.95C206.25 180.66 206.41 181.39 206.55 182.15C206.554 182.173 206.562 182.194 206.574 182.214C206.586 182.233 206.602 182.249 206.62 182.263C206.639 182.276 206.66 182.285 206.682 182.289C206.705 182.294 206.728 182.294 206.75 182.29Z" fill="#246BFD"/>
<path d="M199.11 165.19C200.49 163.38 204.28 168.58 203.98 170.92C203.98 170.92 197.71 167.01 199.11 165.19Z" fill="#246BFD"/>
<path d="M195.4 152.81C196.78 151 200.57 156.2 200.27 158.54C200.27 158.54 194 154.63 195.4 152.81Z" fill="#246BFD"/>
<path d="M205.8 153.15C207.19 151.34 210.98 156.54 210.68 158.88C210.68 158.88 204.41 154.97 205.8 153.15Z" fill="#246BFD"/>
<path d="M205.58 163.74C207.74 162.98 208.05 169.41 206.51 171.2C206.51 171.2 203.42 164.5 205.58 163.74Z" fill="#246BFD"/>
<path d="M207.18 144.95C208.99 143.58 211.26 149.6 210.35 151.77C210.33 151.77 205.33 146.36 207.18 144.95Z" fill="#246BFD"/>
<path d="M202.65 149.08C200.65 147.93 199.14 154.18 200.3 156.23C200.3 156.23 204.62 150.24 202.65 149.08Z" fill="#246BFD"/>
<path d="M203.61 158.18C201.49 157.34 200.92 163.75 202.38 165.6C202.38 165.6 205.74 159.02 203.61 158.18Z" fill="#246BFD"/>
<path d="M214.57 159.75C213.14 157.98 209.48 163.27 209.84 165.6C209.84 165.6 216.01 161.54 214.57 159.75Z" fill="#246BFD"/>
<path d="M213.95 148.36C212.18 146.92 209.7 152.86 210.54 155.07C210.54 155.02 215.73 149.76 213.95 148.36Z" fill="#246BFD"/>
<path d="M170.78 11.1301L256.96 5.57007V208.57H181.61L170.78 11.1301ZM253.24 9.54004L174.7 14.61L185.18 204.83H253.29L253.24 9.54004Z" fill="#EEEDFF"/>
<path d="M141.82 13.8401L174.49 10.8401L185.33 208.55H152.65L141.82 13.8401ZM170.99 14.9001L145.74 17.2201L156.18 204.83H181.41L170.99 14.9001Z" fill="#EEEDFF"/>
<path d="M235.35 7.56006H231.63V206.7H235.35V7.56006Z" fill="#EEEDFF"/>
<path d="M205.42 204.9C206.348 204.9 207.264 204.702 208.109 204.318C208.953 203.933 209.705 203.373 210.315 202.673C210.924 201.974 211.376 201.152 211.641 200.263C211.906 199.374 211.977 198.439 211.85 197.52L209.64 181.52C209.481 179.048 209.859 176.571 210.75 174.26C210.795 174.148 210.811 174.027 210.797 173.908C210.784 173.789 210.741 173.674 210.673 173.575C210.604 173.476 210.513 173.396 210.406 173.341C210.299 173.286 210.18 173.258 210.06 173.26H200.78C200.661 173.261 200.543 173.29 200.438 173.345C200.332 173.401 200.242 173.482 200.174 173.58C200.106 173.678 200.063 173.791 200.048 173.91C200.034 174.028 200.048 174.148 200.09 174.26C200.981 176.571 201.359 179.048 201.2 181.52L198.99 197.52C198.863 198.439 198.934 199.374 199.199 200.263C199.464 201.152 199.916 201.974 200.525 202.673C201.135 203.373 201.887 203.933 202.731 204.318C203.576 204.702 204.492 204.9 205.42 204.9Z" fill="#C7C7E3"/>
<path d="M219.6 97.9201V106.21H229.18V108.51H186.7C184.992 108.51 183.354 107.832 182.146 106.624C180.939 105.416 180.26 103.778 180.26 102.07C180.26 100.362 180.939 98.7241 182.146 97.5164C183.354 96.3086 184.992 95.6301 186.7 95.6301H229.18V97.9201H219.6Z" fill="#C7C7E3"/>
<path d="M190.9 102.07C190.9 103.168 191.336 104.221 192.113 104.998C192.889 105.774 193.942 106.21 195.04 106.21H224.62C223.975 105.144 223.588 103.942 223.49 102.7C223.49 102.56 223.49 102.42 223.49 102.28V101.85C223.48 101.697 223.48 101.543 223.49 101.39C223.589 100.162 223.972 98.9741 224.61 97.9202H195.04C194.495 97.9189 193.955 98.0254 193.452 98.2336C192.948 98.4418 192.491 98.7476 192.106 99.1333C191.721 99.5191 191.417 99.9772 191.21 100.481C191.003 100.985 190.897 101.525 190.9 102.07Z" fill="#EEEDFF"/>
<path d="M207.76 101.85V102.28H223.47V101.85H207.76Z" fill="#C7C7E3"/>
<path d="M211.78 104.24L212.97 103.52L214.17 104.24V101.86H211.78V104.24Z" fill="#C7C7E3"/>
<path d="M219.6 84.9001V93.2001H229.18V95.4901H186.7C184.992 95.4901 183.354 94.8116 182.146 93.6039C180.939 92.3961 180.26 90.7581 180.26 89.0501C180.26 87.3421 180.939 85.7041 182.146 84.4963C183.354 83.2886 184.992 82.6101 186.7 82.6101H229.18V84.9001H219.6Z" fill="#C7C7E3"/>
<path d="M190.9 89.0502C190.899 89.5947 191.005 90.1341 191.212 90.6376C191.42 91.141 191.724 91.5986 192.109 91.9841C192.494 92.3696 192.95 92.6754 193.453 92.8841C193.956 93.0928 194.495 93.2002 195.04 93.2002H224.62C223.976 92.1303 223.589 90.9252 223.49 89.6802C223.49 89.5402 223.49 89.4002 223.49 89.2602V88.8301C223.48 88.677 223.48 88.5234 223.49 88.3702C223.591 87.1427 223.975 85.9552 224.61 84.9001H195.04C193.941 84.9028 192.888 85.3412 192.112 86.1192C191.336 86.8972 190.9 87.9513 190.9 89.0502Z" fill="#EEEDFF"/>
<path d="M207.76 88.8301V89.2601H223.47V88.8301H207.76Z" fill="#C7C7E3"/>
<path d="M211.78 91.2301L212.97 90.5001L214.17 91.2301V88.8401H211.78V91.2301Z" fill="#C7C7E3"/>
<path d="M255.34 108.51H148.22V112.23H255.34V108.51Z" fill="#EEEDFF"/>
<path d="M104.25 214.99C104.695 214.935 105.1 214.707 105.377 214.355C105.654 214.003 105.781 213.555 105.73 213.11L98.99 157.42L93.19 158.13L102.38 213.59C102.454 214.018 102.689 214.402 103.036 214.662C103.384 214.923 103.818 215.04 104.25 214.99Z" fill="#FDAB71"/>
<path d="M81.7 214.99C82.144 214.935 82.548 214.706 82.8235 214.354C83.0991 214.002 83.2237 213.554 83.17 213.11L76.44 157.42L70.64 158.13L79.83 213.59C79.9038 214.018 80.1387 214.402 80.4865 214.662C80.8342 214.923 81.2685 215.04 81.7 214.99Z" fill="#E28F59"/>
<path d="M57.18 214.99C56.7372 214.933 56.3347 214.703 56.0597 214.351C55.7846 214 55.659 213.554 55.71 213.11L62.45 157.42L68.24 158.13L59.05 213.59C58.9762 214.018 58.7413 214.402 58.3936 214.662C58.0458 214.923 57.6116 215.04 57.18 214.99Z" fill="#FDAB71"/>
<path d="M29.05 214.99C28.6053 214.935 28.2004 214.707 27.9233 214.355C27.6461 214.003 27.5192 213.555 27.57 213.11L34.31 157.42L40.11 158.13L30.91 213.59C30.8385 214.017 30.6056 214.401 30.2595 214.661C29.9133 214.922 29.4804 215.04 29.05 214.99Z" fill="#E28F59"/>
<path d="M29.94 148.22C29.94 148.22 26.41 156.12 36.02 158.22C44.43 160.03 88.6499 159.61 99.5299 159.47C100.173 159.46 100.786 159.197 101.237 158.739C101.687 158.28 101.94 157.663 101.94 157.02V152.36L29.94 148.22Z" fill="#B0B0D6"/>
<path d="M66.79 139.1H91.64C94.3717 139.1 96.9915 140.185 98.9232 142.117C100.855 144.049 101.94 146.668 101.94 149.4V155.64H66.79V139.1Z" fill="#B0B0D6"/>
<path d="M26.41 125.07C26.3999 124.158 26.6315 123.259 27.0811 122.465C27.5307 121.671 28.1824 121.011 28.97 120.55C32.22 118.7 35.7 121.35 37.23 123.16C39.23 125.47 41.49 127.54 43.8 127.42C46.11 127.3 48.91 121.09 52.19 120.61C55.47 120.13 57.79 120 58.88 123.16C59.97 126.32 68.19 149.63 99.67 144.72C100.234 144.637 100.81 144.676 101.358 144.834C101.906 144.992 102.414 145.265 102.847 145.636C103.281 146.006 103.631 146.465 103.873 146.981C104.115 147.498 104.243 148.06 104.25 148.63V153.51C104.25 154.332 103.923 155.121 103.342 155.702C102.761 156.284 101.972 156.61 101.15 156.61H43.5C38.9675 156.61 34.6205 154.81 31.4155 151.605C28.2105 148.4 26.41 144.053 26.41 139.52V125.07Z" fill="#C7C7E3"/>
<path d="M134.45 114.53L130.04 119.03C114.67 109.69 99.74 98.1201 94.4 90.3101C93.8999 89.6405 93.5438 88.8747 93.354 88.0608C93.1641 87.247 93.1446 86.4026 93.2968 85.5808C93.4489 84.7591 93.7693 83.9777 94.238 83.2857C94.7066 82.5938 95.3134 82.0063 96.02 81.5601C97.209 80.8521 98.606 80.5769 99.9747 80.781C101.343 80.9851 102.599 81.656 103.53 82.6801C111.89 91.9701 123.8 104.36 134.45 114.53Z" fill="#E5E5E5"/>
<path d="M80.48 55.2201C84.15 53.8501 87.92 55.0801 91.76 58.8401L108.63 88.3601C109.273 89.4827 109.463 90.8082 109.162 92.0662C108.861 93.3242 108.091 94.42 107.01 95.1301C103.78 97.2401 100.18 96.7801 96.21 93.8401C94.29 92.384 92.6241 90.6202 91.28 88.6201C83.37 77.1801 77.86 67.3601 77.18 60.7501C77.0448 59.5937 77.2949 58.4249 77.8916 57.4251C78.4882 56.4253 79.398 55.6502 80.48 55.2201Z" fill="#E5E5E5"/>
<path d="M92.65 65.8501L99.54 95.8401L97.41 94.6601L92.65 65.8501Z" fill="#B0B0D6"/>
<path d="M134.32 114.42L140.79 116.1C140.79 116.1 144.72 117.04 137.13 117.89C137.13 117.89 143.87 121.32 143.21 122.49C142.55 123.66 137.21 127.08 130.03 119.02C130.03 119.02 130.62 114.61 134.32 114.42Z" fill="#FDBDA1"/>
<path d="M55.76 147.63L98.76 154.46C101.057 154.813 103.403 154.295 105.337 153.007C107.271 151.718 108.654 149.753 109.213 147.497C109.772 145.242 109.467 142.858 108.358 140.816C107.249 138.774 105.416 137.22 103.22 136.46L94.46 133.46L73.8399 126.46L46.01 123.27C46.01 123.27 41.4 143.2 55.76 147.63Z" fill="#5E2C81"/>
<path d="M104.5 208.5L94.35 209.5L90.82 146.84C90.6175 145.567 90.6782 144.267 90.9984 143.019C91.3186 141.77 91.8916 140.601 92.6817 139.583C93.4719 138.565 94.4625 137.72 95.5922 137.101C96.722 136.481 97.9669 136.1 99.25 135.98C100.54 135.859 101.841 136.005 103.072 136.409C104.302 136.813 105.437 137.467 106.403 138.33C107.37 139.192 108.148 140.245 108.69 141.422C109.231 142.599 109.524 143.875 109.55 145.17L104.5 208.5Z" fill="#5E2C81"/>
<path d="M112.91 214C112.859 214.123 112.775 214.228 112.667 214.306C112.559 214.384 112.432 214.43 112.3 214.44L94.97 216.07L94.35 209.42L104.5 208.47C108.85 208.82 110.7 210.53 112.77 213.19C112.77 213.19 112.77 213.19 112.83 213.26C112.913 213.363 112.964 213.487 112.978 213.618C112.993 213.75 112.969 213.882 112.91 214Z" fill="#246BFD"/>
<path d="M112.83 213.26C112.913 213.363 112.964 213.487 112.978 213.618C112.993 213.75 112.969 213.882 112.91 214C112.859 214.123 112.775 214.229 112.667 214.306C112.559 214.384 112.432 214.43 112.3 214.44L94.97 216.07L94.86 214.86L112.77 213.19C112.77 213.19 112.81 213.24 112.83 213.26Z" fill="#5E2C81"/>
<path d="M75.88 142.19L118.88 149.02C121.177 149.374 123.523 148.855 125.457 147.567C127.391 146.278 128.774 144.313 129.333 142.058C129.892 139.802 129.587 137.418 128.478 135.376C127.369 133.334 125.536 131.78 123.34 131.02L114.58 128.02L93.97 121.02L66.13 117.83C66.13 117.83 61.53 137.76 75.88 142.19Z" fill="#4D2272"/>
<path d="M132.38 202.58L122.38 204.76L111.22 143C110.864 141.765 110.765 140.469 110.929 139.194C111.092 137.918 111.514 136.69 112.17 135.584C112.826 134.478 113.701 133.517 114.741 132.762C115.781 132.006 116.965 131.471 118.22 131.19C119.486 130.913 120.796 130.9 122.067 131.152C123.338 131.403 124.544 131.914 125.609 132.653C126.674 133.391 127.576 134.341 128.257 135.444C128.939 136.546 129.386 137.777 129.57 139.06L132.38 202.58Z" fill="#4D2272"/>
<path d="M141.4 207.01C141.365 207.139 141.295 207.255 141.198 207.347C141.101 207.439 140.98 207.502 140.85 207.53L123.85 211.25L122.42 204.73L132.42 202.55C136.78 202.37 138.83 203.84 141.2 206.22L141.27 206.29C141.358 206.385 141.417 206.504 141.44 206.631C141.463 206.759 141.449 206.89 141.4 207.01Z" fill="#246BFD"/>
<path d="M141.23 206.29C141.325 206.381 141.391 206.497 141.421 206.625C141.452 206.753 141.444 206.887 141.4 207.01C141.365 207.139 141.295 207.255 141.198 207.347C141.101 207.439 140.98 207.502 140.85 207.53L123.85 211.25L123.59 210.07L141.18 206.22L141.23 206.29Z" fill="#5E2C81"/>
<path d="M66.29 125.48C66.29 125.48 77.71 127.97 88.21 124.23L78.33 53.0401L77.93 50.1901C74.1431 49.5241 70.2739 49.4701 66.47 50.0301V50.6901L66.29 125.48Z" fill="#246BFD"/>
<path d="M81.0299 107.8C82.0299 121.33 82.81 131.89 82.81 131.89C89.33 131.89 95.7 125.89 98.64 122.27C99.3005 107.635 97.8865 92.9793 94.44 78.7401C94.438 78.7168 94.438 78.6933 94.44 78.67L91.7199 59.1801C89.2199 55.3401 84.29 52.52 80.02 50.84C79.25 50.54 78.49 50.26 77.77 50.03C77.06 50.74 79.3099 83.9 81.0299 107.8Z" fill="#E5E5E5"/>
<path d="M45.4 123.67C46.06 123.81 63.06 133.44 72.57 133.48C72.57 133.48 72.08 122.2 71.34 107.93C70.09 83.6201 68.12 50.6201 66.67 49.8501L64.49 50.5501C61.996 51.272 59.5647 52.195 57.22 53.3101C53.7266 55.4467 50.8512 58.458 48.8782 62.0463C46.9051 65.6346 45.9027 69.6756 45.97 73.7701V74.9101L45.4 123.67Z" fill="#E5E5E5"/>
<path d="M66.47 50.0301V50.6901C68.04 51.9701 71.18 54.4301 74.31 54.2501C75.75 54.1601 77.45 52.8001 78.31 52.0701L77.91 50.1901C74.1296 49.5263 70.2674 49.4722 66.47 50.0301Z" fill="#FDBDA1"/>
<path d="M81.03 107.8L81.4 110.24L84.88 74.8901L81.18 70.2501L84.18 67.02L80.01 50.84C79.24 50.54 78.48 50.26 77.76 50.03C77.06 50.74 79.31 83.9 81.03 107.8Z" fill="#C7C7E3"/>
<path d="M66.58 69.4701L63.18 73.3601L71.32 107.94C70.07 83.6301 68.1 50.6301 66.65 49.8601L64.47 50.5601L63.55 67.1301L66.58 69.4701Z" fill="#C7C7E3"/>
<path d="M76.48 42.8H68.15V50.2001H76.48V42.8Z" fill="#FDBDA1"/>
<path d="M76.47 42.79V49.2501C74.8549 48.9993 73.312 48.4066 71.9444 47.5116C70.5768 46.6166 69.4161 45.4398 68.54 44.0601L72.08 42.79H76.47Z" fill="#EAA48C"/>
<path d="M73.36 47.1501L71.21 46.4402C70.1134 46.0712 69.1843 45.3229 68.59 44.3301C68.1394 43.5589 67.8614 42.6991 67.7751 41.81C67.6888 40.9209 67.7962 40.0237 68.09 39.1802L71.31 29.4202L84.47 33.7701L81.64 42.3602C81.0557 44.1993 79.7937 45.7473 78.11 46.6902C77.3918 47.0877 76.5997 47.3336 75.7827 47.4127C74.9657 47.4918 74.1411 47.4025 73.36 47.1501Z" fill="#FDBDA1"/>
<path d="M87.5 34.6902C88.69 33.8902 89.18 32.8801 88.37 31.4801C88.46 27.6501 86.22 26.9701 83.24 27.2901C79.97 27.3501 78.79 25.7001 76.09 25.5201C68.98 25.2001 66.14 29.1601 65.74 35.5201C65.74 37.7701 66.79 39.6101 67.74 42.0201C68.3 35.0201 71.98 32.3001 72.09 37.3601C71.94 38.5001 72.75 39.1201 72.93 38.1701C73.47 33.5201 74.85 30.9801 77.93 32.6701C79.2917 33.7279 80.801 34.5803 82.41 35.2002C83.2398 35.516 84.1317 35.6344 85.0152 35.5459C85.8987 35.4574 86.7494 35.1644 87.5 34.6902Z" fill="#5C2C82"/>
<path d="M69.58 35.0602C70.0193 34.7656 70.5573 34.6571 71.0765 34.7583C71.5956 34.8595 72.0535 35.1622 72.35 35.6001C73.01 36.5201 72.94 39.0602 72.07 39.6902C71.2 40.3202 69.86 38.7801 69.2 37.8601C68.8796 37.4383 68.7397 36.9065 68.8109 36.3816C68.8821 35.8566 69.1587 35.3814 69.58 35.0602Z" fill="#FDBDA1"/>
<path d="M47.4 66.79C47.4 66.79 45.7 99.0501 54.16 105.39C62.28 111.48 71.1 103.19 71.1 103.19L88.18 83.98L66.05 91.65L63.89 80.65L47.4 66.79Z" fill="#B0B0D6"/>
<path d="M53.48 58.7701C57.4 58.9801 60.35 61.6201 62.37 66.6001L66 100.4C66.1376 101.687 65.7785 102.979 64.9961 104.01C64.2136 105.042 63.0668 105.736 61.79 105.95C57.99 106.59 54.87 104.73 52.41 100.44C51.2439 98.3366 50.4298 96.0565 50 93.6901C47.33 80.0401 46.22 68.8301 48.23 62.5001C48.5711 61.3864 49.2709 60.4166 50.2204 59.742C51.17 59.0674 52.316 58.7256 53.48 58.7701Z" fill="#E5E5E5"/>
<path d="M99.81 79.2602L103.93 74.0002C103.93 74.0002 106.35 70.7602 104.11 78.0602C104.11 78.0602 109.94 73.2502 110.75 74.3202C111.56 75.3902 112.58 81.6301 102.32 85.0301C102.32 85.0301 98.51 82.7302 99.81 79.2602Z" fill="#FDBDA1"/>
<path d="M99.76 79.28L102.12 85.11C87.44 95.49 70.8799 104.57 61.5899 106.37C60.7747 106.559 59.9294 106.577 59.1067 106.424C58.2841 106.271 57.5019 105.949 56.8092 105.48C56.1164 105.011 55.528 104.403 55.0808 103.696C54.6335 102.989 54.3371 102.197 54.21 101.37C54.0337 100 54.3353 98.6115 55.064 97.4383C55.7927 96.2651 56.9039 95.3791 58.21 94.9301C70.08 90.9801 86.18 84.97 99.76 79.28Z" fill="#E5E5E5"/>
<path d="M265.61 207.8C265.786 205.057 266.29 202.344 267.11 199.72C267.32 199.06 267.55 198.4 267.81 197.72C268.07 197.04 268.36 196.42 268.68 195.79C269.329 194.497 270.124 193.282 271.05 192.17L271.74 191.39C271.953 191.157 272.153 190.917 272.34 190.67C272.71 190.199 273.045 189.701 273.34 189.18C273.634 188.689 273.878 188.17 274.07 187.63C274.251 187.11 274.385 186.574 274.47 186.03C274.601 184.837 274.601 183.633 274.47 182.44C274.37 181.12 274.27 179.69 274.29 178.2C274.306 176.685 274.467 175.175 274.77 173.69C275.074 172.212 275.544 170.773 276.17 169.4C276.32 169.05 276.49 168.73 276.66 168.4C276.83 168.07 277.01 167.76 277.19 167.4C277.947 166.098 278.842 164.881 279.86 163.77C280.36 163.23 280.86 162.77 281.28 162.3C281.665 161.923 282.023 161.519 282.35 161.09C282.67 160.672 282.948 160.223 283.18 159.75C283.31 159.5 283.43 159.23 283.55 158.97C283.67 158.71 283.77 158.42 283.88 158.12L284.04 157.69L284.19 157.24L284.49 156.32C284.87 155.08 285.22 153.79 285.58 152.49C285.94 151.19 286.29 149.88 286.73 148.55H287.27C287.549 149.907 287.749 151.28 287.87 152.66C288.006 154.052 288.056 155.452 288.02 156.85C288.02 157.21 288.02 157.57 288.02 157.93V158.47L287.96 159.02C287.871 159.776 287.727 160.525 287.53 161.26C287.321 162.058 287.03 162.832 286.66 163.57C286.281 164.287 285.847 164.972 285.36 165.62C284.46 166.8 283.78 167.69 283.14 168.69C282.83 169.18 282.53 169.69 282.23 170.21C281.93 170.73 281.64 171.28 281.37 171.82C280.804 172.863 280.3 173.938 279.86 175.04C279.424 176.144 279.118 177.295 278.95 178.47C278.796 179.741 278.713 181.02 278.7 182.3C278.703 183.798 278.532 185.292 278.19 186.75C277.785 188.274 277.074 189.7 276.1 190.94C275.649 191.533 275.154 192.091 274.62 192.61C274.36 192.87 274.1 193.12 273.83 193.35L273.44 193.7L273.1 194.01C271.271 195.794 269.801 197.913 268.77 200.25C268.211 201.444 267.72 202.67 267.3 203.92C266.868 205.18 266.504 206.461 266.21 207.76L265.61 207.8Z" fill="#246BFD"/>
<path d="M263.36 207.97C263.154 207.613 262.98 207.238 262.84 206.85C262.78 206.66 262.71 206.47 262.66 206.27L262.51 205.69C262.337 204.924 262.227 204.144 262.18 203.36C262.18 202.96 262.12 202.56 262.18 202.17V201.57C262.18 201.37 262.18 201.17 262.18 200.97L262.25 199.78C262.25 199.38 262.34 198.99 262.39 198.59C262.39 198.4 262.39 198.2 262.46 198L262.57 197.41L262.78 196.24L263.05 195.08C263.15 194.7 263.22 194.3 263.34 193.93L263.67 192.79C263.78 192.4 263.88 192.02 264.02 191.65L264.77 189.41C265.84 186.666 266.513 183.784 266.77 180.85C266.87 179.445 266.82 178.034 266.62 176.64C266.377 175.197 266.043 173.771 265.62 172.37L265.31 171.22L265.01 170.02L264.76 168.75C264.7 168.32 264.63 167.87 264.58 167.43C264.53 166.99 264.5 166.55 264.49 166.1V165.1V164.77C264.49 164.32 264.49 163.87 264.59 163.43C264.59 163.21 264.59 162.99 264.67 162.77L264.77 162.11C265.093 160.469 265.568 158.862 266.19 157.31C266.46 156.59 266.71 155.93 266.92 155.31C266.974 155.166 267.021 155.019 267.06 154.87L267.18 154.45L267.28 154.05V153.95V153.77L267.35 153.41C267.35 153.17 267.46 152.95 267.52 152.72L267.61 152.38L267.71 152.08L267.81 151.77L267.9 151.5L268.06 150.99C268.271 150.387 268.435 149.769 268.55 149.14C268.768 147.744 268.878 146.333 268.88 144.92C268.88 144.17 268.88 143.41 268.88 142.65V140.36C268.88 139.58 268.88 138.8 268.88 138.02C268.88 137.24 268.88 136.45 268.94 135.65L269.47 135.53C270.177 136.955 270.798 138.421 271.33 139.92C271.61 140.66 271.84 141.42 272.09 142.18C272.2 142.56 272.3 142.95 272.41 143.34C272.52 143.73 272.62 144.11 272.7 144.51L272.96 145.7L273.16 146.93C273.22 147.35 273.26 147.78 273.3 148.2C273.34 148.62 273.36 149.07 273.3 149.52C273.295 150.433 273.208 151.343 273.04 152.24L272.98 152.56L272.92 152.86L272.86 153.14V153.4V153.65C272.86 153.74 272.86 153.81 272.86 153.88C272.834 154.029 272.817 154.179 272.81 154.33V154.54V154.83C272.81 155.08 272.75 155.33 272.71 155.58C272.67 155.83 272.62 156.05 272.57 156.28C272.52 156.51 272.45 156.73 272.39 156.95C272.161 157.76 271.891 158.558 271.58 159.34C271.31 160.06 271.02 160.75 270.78 161.4C270.65 161.73 270.54 162.05 270.42 162.4C270.3 162.75 270.2 163.04 270.12 163.4C269.732 164.655 269.516 165.957 269.48 167.27C269.48 167.6 269.48 167.93 269.48 168.27C269.48 168.61 269.48 168.94 269.57 169.27C269.66 169.6 269.67 169.98 269.73 170.34L269.93 171.45C270.259 173.048 270.49 174.664 270.62 176.29C270.725 177.96 270.652 179.636 270.4 181.29C269.84 184.486 268.83 187.587 267.4 190.5L266.4 192.57C266.23 192.91 266.1 193.26 265.95 193.57L265.52 194.57C265.37 194.92 265.26 195.28 265.13 195.63L264.76 196.7L264.44 197.78L264.27 198.32C264.27 198.5 264.18 198.68 264.14 198.86L263.87 199.96L263.67 201.06C263.55 201.802 263.47 202.55 263.43 203.3C263.375 204.046 263.375 204.794 263.43 205.54L263.5 206.09C263.5 206.28 263.57 206.46 263.6 206.64C263.63 206.82 263.69 207 263.74 207.18C263.788 207.35 263.844 207.517 263.91 207.68L263.36 207.97Z" fill="#246BFD"/>
<path d="M263.9 207.77C264.068 206.219 264.092 204.656 263.97 203.1C263.866 201.56 263.618 200.034 263.23 198.54C263.03 197.8 262.81 197.07 262.54 196.36C261.776 194.255 260.63 192.309 259.16 190.62L258.79 190.2L258.41 189.81L257.58 188.98L256.71 188.1L255.88 187.16C254.689 185.854 253.71 184.369 252.98 182.76L252.72 182.1L252.66 181.94L252.61 181.76L252.52 181.42C252.46 181.19 252.39 180.96 252.34 180.72L252.23 180.02V179.67C252.23 179.55 252.23 179.44 252.23 179.33L252.18 178.64C252.18 178.4 252.18 178.19 252.18 177.97V177.36C252.24 175.64 252.41 174.1 252.47 172.58C252.54 171.096 252.503 169.609 252.36 168.13C252.186 166.726 251.874 165.343 251.43 164C251 162.66 250.43 161.32 249.87 159.88C249.214 158.33 248.679 156.732 248.27 155.1L248.12 154.45L248 153.77C248 153.54 247.93 153.32 247.9 153.09C247.87 152.86 247.9 152.63 247.83 152.4C247.76 152.17 247.83 151.94 247.78 151.71V150.32L247.83 149.67C247.962 147.985 248.226 146.313 248.62 144.67C249.005 143.071 249.489 141.498 250.07 139.96C250.36 139.19 250.66 138.43 251 137.69C251.34 136.95 251.71 136.21 252.12 135.5L252.64 135.65C252.58 138.89 252.44 142.04 252.47 145.12C252.47 146.66 252.53 148.12 252.67 149.63L252.72 150.18L252.8 150.67L252.87 151.16C252.87 151.32 252.94 151.48 252.98 151.64C253.02 151.8 253.05 151.97 253.09 152.13C253.13 152.29 253.18 152.45 253.22 152.61L253.36 153.1L253.54 153.58C253.98 154.88 254.54 156.24 255.18 157.74C255.82 159.317 256.322 160.947 256.68 162.61C257.036 164.337 257.214 166.097 257.21 167.86C257.21 169.63 257.03 171.27 256.84 172.92C256.65 174.57 256.35 176.15 256.18 177.6C255.99 178.906 256.089 180.237 256.47 181.5C256.94 182.83 257.615 184.079 258.47 185.2L259.13 186.11L259.86 187L260.62 187.93C260.76 188.1 260.9 188.26 261.02 188.43L261.4 188.95C263.331 191.708 264.566 194.892 265 198.23C265.223 199.847 265.296 201.48 265.22 203.11C265.15 204.729 264.919 206.337 264.53 207.91L263.9 207.77Z" fill="#246BFD"/>
<path d="M264.28 207.8C264.408 205.257 264.742 202.729 265.28 200.24C265.81 197.75 266.49 195.24 267.28 192.85C268.07 190.46 269.02 188.04 269.98 185.7C270.46 184.55 270.98 183.4 271.34 182.3C271.714 181.273 271.966 180.206 272.09 179.12V178.74C272.1 178.61 272.1 178.48 272.09 178.35V177.57C272.09 177.31 272.03 177.04 272 176.77C271.97 176.501 271.927 176.234 271.87 175.97C271.81 175.7 271.77 175.43 271.7 175.16L271.47 174.33C271.441 174.191 271.405 174.055 271.36 173.92L271.23 173.5L270.97 172.67L270.41 170.98L270.34 170.76L270.26 170.5L270.11 169.97C270.01 169.612 269.93 169.248 269.87 168.88C269.597 167.409 269.553 165.905 269.74 164.42C269.843 163.693 269.986 162.972 270.17 162.26C270.27 161.91 270.38 161.56 270.49 161.26C270.6 160.96 270.73 160.58 270.88 160.26C271.429 158.965 272.131 157.739 272.97 156.61C274.183 154.973 275.664 153.553 277.35 152.41C277.905 152.024 278.494 151.69 279.11 151.41L279.46 151.82C278.236 153.935 277.202 156.153 276.37 158.45C275.621 160.506 275.226 162.673 275.2 164.86C275.215 165.866 275.308 166.869 275.48 167.86C275.53 168.11 275.56 168.37 275.63 168.61C275.7 168.85 275.69 168.86 275.71 168.99V169.18L275.77 169.42C275.92 170.07 276.07 170.71 276.19 171.42C276.438 172.771 276.592 174.138 276.65 175.51C276.69 176.23 276.69 176.951 276.65 177.67L276.54 178.77C276.523 178.951 276.497 179.132 276.46 179.31L276.36 179.86C276.06 181.242 275.6 182.584 274.99 183.86C274.41 185.08 273.8 186.19 273.21 187.3C271.99 189.49 270.82 191.66 269.77 193.9C268.72 196.14 267.77 198.41 266.88 200.75C266.45 201.91 266.05 203.09 265.69 204.28C265.33 205.47 264.99 206.68 264.69 207.89L264.28 207.8Z" fill="#262BC6"/>
<path d="M266.6 207.8C266.6 206.44 266.52 205.06 266.39 203.7C266.26 202.34 266.09 200.97 265.85 199.63C265.411 196.951 264.776 194.307 263.95 191.72C263.76 191.07 263.53 190.43 263.3 189.8L262.97 188.8L262.59 187.87C262.33 187.25 262.09 186.62 261.8 186.02L260.95 184.18L260.06 182.18L259.26 180.18C259.02 179.49 258.8 178.78 258.57 178.08L258.28 177L258.14 176.46L258.08 176.19L258.02 175.91C257.89 175.17 257.72 174.43 257.64 173.67C257.64 173.29 257.53 172.92 257.51 172.54L257.42 171.4C257.34 169.921 257.34 168.439 257.42 166.96V166.42V165.89L257.51 164.89C257.58 164.21 257.66 163.52 257.74 162.89L257.98 160.89L258.11 159.89L258.23 158.89C258.55 156.27 258.83 153.63 258.89 151.04C258.935 149.763 258.868 148.485 258.69 147.22C258.642 146.914 258.579 146.61 258.5 146.31C258.5 146.17 258.43 146 258.38 145.87L258.23 145.43C258.17 145.3 258.1 145.17 258.04 145.02C257.98 144.87 257.88 144.77 257.81 144.63C257.722 144.507 257.625 144.39 257.52 144.28L257.44 144.2L257.36 144.13L257.28 144.06C257.253 144.045 257.229 144.025 257.21 144L257.27 143.46C258.117 143.506 258.918 143.862 259.52 144.46C259.66 144.59 259.81 144.73 259.95 144.88C260.088 145.026 260.218 145.18 260.34 145.34C260.591 145.656 260.819 145.99 261.02 146.34C261.781 147.665 262.356 149.088 262.73 150.57C262.925 151.288 263.082 152.016 263.2 152.75C263.26 153.11 263.32 153.48 263.37 153.84C263.42 154.2 263.45 154.57 263.49 154.93C263.53 155.29 263.56 155.66 263.6 156.02C263.64 156.38 263.6 156.75 263.6 157.11C263.6 157.83 263.66 158.56 263.65 159.28V160.37C263.65 160.73 263.65 161.09 263.58 161.45C263.58 162.17 263.46 162.88 263.37 163.59C263.28 164.3 263.17 164.98 263.06 165.67L262.7 167.67C262.437 168.931 262.247 170.207 262.13 171.49L262.07 172.43C262.07 172.74 262.07 173.05 262.07 173.36C262.075 173.989 262.115 174.616 262.19 175.24V175.48V175.71L262.27 176.18L262.43 177.13C262.58 177.76 262.71 178.39 262.88 179.02L263.43 180.92L264.09 182.81L264.78 184.81C265.02 185.48 265.2 186.18 265.4 186.81L265.69 187.81L265.94 188.81C266.1 189.5 266.27 190.19 266.39 190.89C266.936 193.667 267.271 196.482 267.39 199.31C267.515 202.117 267.375 204.93 266.97 207.71L266.6 207.8Z" fill="#262BC6"/>
<path d="M265.88 207.83C265.88 207.83 267.06 197.96 272.45 192.75C280.28 185.18 273.45 181.2 278.89 170.4C283.44 161.29 286.12 166.2 287.03 148.64" stroke="white" stroke-width="0.23" stroke-miterlimit="10"/>
<path d="M263.6 207.83C263.6 207.83 260.55 202.66 265.88 190.18C271.21 177.7 267.25 173.29 266.94 167.35C266.63 161.41 269.53 157.92 269.94 154.27C270.35 150.62 272.37 150.46 269.18 135.55" stroke="white" stroke-width="0.23" stroke-miterlimit="10"/>
<path d="M264.18 207.83C264.18 207.83 266.62 196.42 259.18 188.5C251.74 180.58 254.61 178.61 254.77 169.64C254.93 160.67 250.35 156.96 250.2 150.21C250.05 143.46 252.33 135.55 252.33 135.55" stroke="white" stroke-width="0.23" stroke-miterlimit="10"/>
<path d="M264.55 207.83C264.55 207.83 265.24 201.03 269.45 191.27C273.66 181.51 276.14 180.35 273.1 169.95C270.06 159.55 279.34 151.58 279.34 151.58" stroke="white" stroke-width="0.23" stroke-miterlimit="10"/>
<path d="M266.87 207.83C267.348 199.618 265.932 191.407 262.73 183.83C257.4 171.35 261.05 168.09 261.2 156.18C261.35 144.27 257.36 143.81 257.36 143.81" stroke="white" stroke-width="0.23" stroke-miterlimit="10"/>
<path d="M272.84 215.74H258.79L254.59 193.43H277.04L272.84 215.74Z" fill="#C7C7E3"/>
<path d="M277.05 192.49H254.59V194.89H277.05V192.49Z" fill="#B0B0D6"/>
<path d="M84.56 215.6C84.2139 215.517 83.8877 215.366 83.5999 215.157C83.3121 214.947 83.0684 214.683 82.8826 214.379C82.6969 214.076 82.5728 213.738 82.5175 213.387C82.4621 213.035 82.4766 212.676 82.56 212.33L102.18 128.36L113.08 130.92L87.78 213.75C87.5776 214.409 87.1326 214.967 86.5349 215.31C85.9371 215.654 85.2313 215.757 84.56 215.6Z" fill="#E28F59"/>
<path d="M133.05 215.6C132.354 215.427 131.754 214.987 131.38 214.375C131.005 213.763 130.887 213.029 131.05 212.33L150.73 128.33L161.63 130.89L136.28 213.75C136.078 214.411 135.631 214.971 135.031 215.314C134.431 215.658 133.723 215.76 133.05 215.6Z" fill="#FDAB71"/>
<path d="M288.32 215.6C288.666 215.517 288.992 215.366 289.28 215.157C289.568 214.947 289.812 214.683 289.997 214.379C290.183 214.076 290.307 213.738 290.362 213.387C290.418 213.035 290.403 212.676 290.32 212.33L270.64 128.33L259.74 130.89L285.07 213.71C285.264 214.383 285.71 214.955 286.316 215.307C286.921 215.659 287.639 215.764 288.32 215.6Z" fill="#FDAB71"/>
<path d="M239.83 215.6C240.526 215.427 241.126 214.987 241.5 214.375C241.875 213.763 241.993 213.029 241.83 212.33L222.18 128.36L211.28 130.92L236.6 213.74C236.8 214.403 237.246 214.965 237.846 215.31C238.447 215.656 239.156 215.76 239.83 215.6Z" fill="#E28F59"/>
<path d="M290.09 126.73H80.06V135.13H290.09V126.73Z" fill="#EEEDFF"/>
<path d="M265.87 121.94H232.4V126.73H265.87V121.94Z" fill="#246BFD"/>
<path d="M236.07 122.44H235.26V126.24H236.07V122.44Z" fill="#EEEDFF"/>
<path d="M238.01 122.44H237.2V126.24H238.01V122.44Z" fill="#EEEDFF"/>
<path d="M261.18 122.44H260.37V126.24H261.18V122.44Z" fill="#EEEDFF"/>
<path d="M263.13 122.44H262.32V126.24H263.13V122.44Z" fill="#EEEDFF"/>
<path d="M262.98 115.78H229.51V121.95H262.98V115.78Z" fill="#5E2C81"/>
<path d="M233.18 116.41H232.37V121.3H233.18V116.41Z" fill="#EEEDFF"/>
<path d="M235.12 116.41H234.31V121.3H235.12V116.41Z" fill="#EEEDFF"/>
<path d="M258.29 116.41H257.48V121.3H258.29V116.41Z" fill="#EEEDFF"/>
<path d="M260.23 116.41H259.42V121.3H260.23V116.41Z" fill="#EEEDFF"/>
<path d="M117.58 126.73H158.12V124.65H117.58V126.73Z" fill="#B0B0D6"/>
<path d="M133.21 126.73H170L173.62 102.75H136.84L133.21 126.73Z" fill="#B0B0D6"/>
<path d="M134.57 126.73H171.36L174.98 102.75H138.2L134.57 126.73Z" fill="#C7C7E3"/>
<path d="M154.78 117.25C156.166 117.25 157.29 116.126 157.29 114.74C157.29 113.354 156.166 112.23 154.78 112.23C153.394 112.23 152.27 113.354 152.27 114.74C152.27 116.126 153.394 117.25 154.78 117.25Z" fill="#EEEDFF"/>
<path d="M37.45 35.8301H44.97V36.8301C44.97 37.8273 44.5739 38.7837 43.8687 39.4888C43.1636 40.1939 42.2072 40.5901 41.21 40.5901C40.2127 40.5901 39.2564 40.1939 38.5513 39.4888C37.8461 38.7837 37.45 37.8273 37.45 36.8301V35.8301Z" fill="#B0B0D6"/>
<path d="M51.06 18.26C51.1668 20.6074 50.4249 22.9148 48.97 24.76C47.0382 27.2 45.9817 30.2179 45.97 33.33H36.38C36.364 30.1973 35.3089 27.1585 33.38 24.69C32.2217 23.1879 31.5213 21.3834 31.3627 19.4931C31.2042 17.6029 31.5943 15.7069 32.4862 14.0328C33.3782 12.3587 34.7341 10.9774 36.3914 10.0545C38.0487 9.13172 39.9371 8.70652 41.83 8.82999C44.258 8.99438 46.5405 10.0464 48.2427 11.7854C49.9449 13.5245 50.9477 15.8292 51.06 18.26Z" fill="#EEEDFF" stroke="#C7C7E3" stroke-width="0.42" stroke-miterlimit="10"/>
<path d="M45.74 36.7401H36.68L36.2 31.3301H46.23L45.74 36.7401Z" fill="#C7C7E3"/>
<path d="M45.84 32.1902H36.58C36.1934 32.1902 35.88 32.5014 35.88 32.8852C35.88 33.269 36.1934 33.5802 36.58 33.5802H45.84C46.2266 33.5802 46.54 33.269 46.54 32.8852C46.54 32.5014 46.2266 32.1902 45.84 32.1902Z" fill="#B0B0D6"/>
<path d="M45.84 34.5901H36.58C36.1934 34.5901 35.88 34.9012 35.88 35.2851C35.88 35.6689 36.1934 35.9801 36.58 35.9801H45.84C46.2266 35.9801 46.54 35.6689 46.54 35.2851C46.54 34.9012 46.2266 34.5901 45.84 34.5901Z" fill="#B0B0D6"/>
<path d="M39.23 31.77L37.45 18.56H38.6L39.02 17.65L39.92 20.05L41.21 17.02L42.67 20.19L43.54 18L44.23 18.7L45.12 18.56L43.34 31.77" stroke="#B0B0D6" stroke-width="0.42" stroke-miterlimit="10"/>
<path d="M41.28 4.30005V6.60004" stroke="#B0B0D6" stroke-width="1.25" stroke-miterlimit="10" stroke-linecap="round"/>
<path d="M53.13 9.27002L51.5 10.89" stroke="#B0B0D6" stroke-width="1.25" stroke-miterlimit="10" stroke-linecap="round"/>
<path d="M57.99 21.1602H55.69" stroke="#B0B0D6" stroke-width="1.25" stroke-miterlimit="10" stroke-linecap="round"/>
<path d="M53.03 33.0001L51.4 31.3801" stroke="#B0B0D6" stroke-width="1.25" stroke-miterlimit="10" stroke-linecap="round"/>
<path d="M28.43 9.27002L30.06 10.89" stroke="#B0B0D6" stroke-width="1.25" stroke-miterlimit="10" stroke-linecap="round"/>
<path d="M23.57 21.1602H25.87" stroke="#B0B0D6" stroke-width="1.25" stroke-miterlimit="10" stroke-linecap="round"/>
<path d="M28.54 33.0001L30.16 31.3801" stroke="#B0B0D6" stroke-width="1.25" stroke-miterlimit="10" stroke-linecap="round"/>
<path d="M20.38 55.3H4.01001C1.79535 55.3 0 57.0954 0 59.3101V75.6801C0 77.8947 1.79535 79.6901 4.01001 79.6901H20.38C22.5947 79.6901 24.39 77.8947 24.39 75.6801V59.3101C24.39 57.0954 22.5947 55.3 20.38 55.3Z" fill="#262BC6"/>
<path d="M14.53 59.2002H9.87V75.7902H14.53V59.2002Z" fill="white"/>
<path d="M20.4999 69.8301V65.1702H3.90997V69.8301H20.4999Z" fill="white"/>
</svg>
