<svg width="331" height="234" viewBox="0 0 331 234" fill="none" xmlns="http://www.w3.org/2000/svg">
<path d="M242.677 29.2771H241.505C240.513 29.2771 239.708 30.0812 239.708 31.073V57.1621C239.708 58.1539 240.513 58.958 241.505 58.958H242.677C243.669 58.958 244.474 58.1539 244.474 57.1621V31.073C244.474 30.0812 243.669 29.2771 242.677 29.2771Z" fill="#5E2C81"/>
<path d="M242.677 62.894H241.505C240.513 62.894 239.708 63.6981 239.708 64.6899V78.9174C239.708 79.9092 240.513 80.7133 241.505 80.7133H242.677C243.669 80.7133 244.474 79.9092 244.474 78.9174V64.6899C244.474 63.6981 243.669 62.894 242.677 62.894Z" fill="#5E2C81"/>
<path d="M237.234 7.95203H130.329C127.644 7.95203 125.467 10.1283 125.467 12.8128V227.719C125.467 230.404 127.644 232.58 130.329 232.58H237.234C239.92 232.58 242.096 230.404 242.096 227.719V12.8128C242.096 10.1283 239.92 7.95203 237.234 7.95203Z" fill="white" stroke="#262BC6" stroke-width="2.32285" stroke-miterlimit="10"/>
<path d="M148.886 8.26392H218.689V10.8341C218.689 12.9019 217.867 14.885 216.405 16.3471C214.942 17.8093 212.958 18.6307 210.89 18.6307H156.685C154.616 18.6307 152.632 17.8093 151.17 16.3471C149.707 14.885 148.886 12.9019 148.886 10.8341V8.26392Z" fill="url(#paint0_linear_13_1035)"/>
<path d="M183.782 14.4584C184.887 14.4584 185.783 13.5628 185.783 12.4581C185.783 11.3534 184.887 10.4579 183.782 10.4579C182.677 10.4579 181.781 11.3534 181.781 12.4581C181.781 13.5628 182.677 14.4584 183.782 14.4584Z" fill="white"/>
<path d="M260.556 136.343C266.717 136.343 271.711 131.35 271.711 125.191C271.711 119.032 266.717 114.04 260.556 114.04C254.395 114.04 249.401 119.032 249.401 125.191C249.401 131.35 254.395 136.343 260.556 136.343Z" fill="#262BC6"/>
<path d="M267.32 121.053L264.703 118.437L253.803 129.334L256.42 131.949L267.32 121.053Z" fill="white"/>
<path d="M256.416 118.429L253.799 121.045L264.699 131.942L267.316 129.326L256.416 118.429Z" fill="white"/>
<path d="M321.506 13.2001H199.606C194.906 13.2001 191.097 17.0085 191.097 21.7064V100.63C191.097 105.327 194.906 109.136 199.606 109.136H321.506C326.205 109.136 330.015 105.327 330.015 100.63V21.7064C330.015 17.0085 326.205 13.2001 321.506 13.2001Z" fill="white" stroke="#B0B0D6" stroke-width="0.688252" stroke-miterlimit="10"/>
<path d="M265.956 85.6599L259.728 86.8106C259.728 86.8106 255.941 87.4343 263.062 88.7463C263.062 88.7463 256.457 91.5423 256.995 92.693C257.533 93.8437 262.374 97.4355 269.699 90.2949C269.699 90.2733 269.441 86.0686 265.956 85.6599Z" fill="#FDBDA1"/>
<path d="M265.988 85.6599L269.861 90.1981C285.028 82.4015 299.927 72.4649 305.51 65.4641C306.026 64.863 306.413 64.1621 306.646 63.405C306.879 62.6479 306.953 61.851 306.864 61.0639C306.775 60.2769 306.525 59.5165 306.129 58.8304C305.734 58.1442 305.2 57.547 304.563 57.076C303.487 56.3197 302.181 55.9618 300.87 56.0638C299.559 56.1659 298.324 56.7215 297.378 57.6352C288.847 65.7759 276.756 76.6482 265.988 85.6599Z" fill="#5E2C81"/>
<path d="M267.29 81.1969L262.46 137.58C262.271 139.834 261.242 141.936 259.576 143.467C257.911 144.999 255.73 145.849 253.467 145.85C251.203 145.85 249.021 145 247.353 143.468C245.686 141.937 244.655 139.835 244.463 137.58L239.687 81.1969H267.29Z" fill="#246BFD"/>
<path d="M248.841 198.899H258.727L262.632 138.053C262.705 136.81 262.524 135.565 262.098 134.395C261.673 133.224 261.013 132.153 260.159 131.247C259.305 130.341 258.275 129.618 257.131 129.124C255.988 128.63 254.755 128.375 253.51 128.375C252.253 128.374 251.009 128.633 249.856 129.135C248.704 129.637 247.667 130.371 246.811 131.291C245.955 132.211 245.298 133.298 244.881 134.484C244.464 135.67 244.296 136.929 244.388 138.182L248.841 198.899Z" fill="#246BFD"/>
<path d="M290.246 81.1969L285.426 137.58C285.235 139.835 284.203 141.937 282.536 143.468C280.869 145 278.687 145.85 276.423 145.85C274.158 145.85 271.976 145 270.309 143.468C268.642 141.937 267.61 139.835 267.419 137.58L262.589 81.1969H290.246Z" fill="#246BFD"/>
<path d="M271.765 198.899H281.64L285.534 138.053C285.609 136.81 285.428 135.564 285.004 134.393C284.579 133.222 283.919 132.15 283.065 131.243C282.21 130.337 281.179 129.615 280.035 129.121C278.891 128.628 277.658 128.374 276.412 128.375C275.155 128.374 273.911 128.633 272.758 129.135C271.606 129.637 270.569 130.371 269.713 131.291C268.857 132.211 268.2 133.298 267.783 134.484C267.366 135.67 267.198 136.929 267.29 138.182L271.765 198.899Z" fill="#246BFD"/>
<path d="M264.138 205.028C264.201 205.14 264.294 205.234 264.405 205.298C264.517 205.362 264.644 205.395 264.773 205.394H281.64V198.942H271.743C267.57 199.673 265.934 201.49 264.213 204.233V204.319C264.136 204.418 264.088 204.537 264.075 204.663C264.061 204.788 264.083 204.915 264.138 205.028Z" fill="#5E2C81"/>
<path d="M241.215 205.028C241.277 205.141 241.369 205.235 241.481 205.299C241.593 205.364 241.72 205.396 241.849 205.394H258.727V198.942H248.841C244.668 199.673 243.032 201.49 241.311 204.233C241.29 204.259 241.271 204.288 241.258 204.319C241.185 204.421 241.143 204.542 241.135 204.667C241.128 204.793 241.155 204.918 241.215 205.028Z" fill="#5E2C81"/>
<path d="M264.16 204.254C264.092 204.362 264.056 204.487 264.056 204.614C264.056 204.742 264.092 204.867 264.16 204.975C264.223 205.087 264.315 205.18 264.427 205.244C264.539 205.308 264.665 205.342 264.794 205.34H281.64V204.168H264.203L264.16 204.254Z" fill="#5E2C81"/>
<path d="M241.214 205.029C241.277 205.141 241.369 205.235 241.481 205.299C241.593 205.364 241.72 205.397 241.849 205.394H258.727V204.168H241.29C241.268 204.194 241.25 204.223 241.236 204.254C241.154 204.366 241.107 204.5 241.104 204.638C241.1 204.776 241.138 204.913 241.214 205.029Z" fill="#5E2C81"/>
<path d="M214.612 29.1802C214.557 29.1376 214.495 29.1048 214.429 29.0834L208.373 27.0831C208.373 27.0831 204.672 25.7819 210.406 30.4599C210.406 30.4599 203.113 29.7179 203.037 31.0191C202.962 32.3203 205.49 37.9016 215.602 35.1163C215.602 35.1163 217.409 31.2987 214.612 29.1802Z" fill="#FDBDA1"/>
<path d="M277.509 20.3297C270.578 21.9289 263.407 22.2098 256.371 21.1578L256.092 19.8888L255.543 21.0287C254.459 20.9639 253.395 20.7053 252.402 20.2652C253.273 17.5122 253.413 18.2542 253.22 14.6301C251.445 5.76889 254.145 0.650012 262.471 0.0585461C270.797 -0.53292 274.519 3.38151 274.884 10.6942C275.014 15.6948 275.842 16.2002 277.509 20.3297Z" fill="#246BFD"/>
<path d="M256.619 28.5565C252.908 27.7392 249.455 29.4168 246.26 33.5463L234.007 64.152C233.542 65.3185 233.538 66.6185 233.998 67.7873C234.458 68.9562 235.346 69.9059 236.481 70.443C239.859 72.0346 243.258 71.1205 246.69 67.7546C248.329 66.096 249.688 64.1819 250.713 62.0872C256.78 50.0428 260.76 39.8588 260.545 33.428C260.518 32.2973 260.119 31.2071 259.409 30.3263C258.699 29.4456 257.718 28.8235 256.619 28.5565Z" fill="#5E2C81"/>
<path d="M214.257 29.8685L211.32 35.8907C219.313 51.6774 228.532 64.2811 235.718 69.9376C236.328 70.4292 237.033 70.7904 237.788 70.999C238.544 71.2075 239.334 71.259 240.111 71.1501C240.887 71.0413 241.633 70.7744 242.302 70.3661C242.971 69.9578 243.549 69.4167 244.001 68.7762C244.782 67.6853 245.158 66.3566 245.066 65.0183C244.974 63.68 244.418 62.4155 243.495 61.442C235.309 52.8389 224.229 40.6439 215.236 29.7394C215.172 29.6656 215.09 29.6087 214.999 29.5741C214.907 29.5394 214.809 29.5279 214.712 29.5407C214.615 29.5535 214.522 29.5901 214.443 29.6473C214.364 29.7045 214.3 29.7805 214.257 29.8685Z" fill="#5E2C81"/>
<path d="M239.59 81.509L239.709 81.6488C247.4 90.8003 268.871 86.1224 290.267 81.509L290.493 63.1197L290.687 47.4943C290.705 46.3759 290.637 45.2577 290.483 44.1498C290.047 40.7667 288.853 37.5255 286.99 34.6675C285.128 31.8095 282.645 29.4082 279.725 27.6425C277.929 26.5644 276.021 25.6846 274.035 25.0185C268.738 23.1482 262.981 23.0239 257.609 24.6637C252.927 26.1524 248.91 29.2248 246.249 33.3528L245.098 41.6334L241.01 70.9271L239.59 81.509Z" fill="#5E2C81"/>
<path d="M277.703 44.397C277.703 44.397 280.93 52.8711 290.504 63.1196L290.698 47.4941C290.716 46.3757 290.648 45.2575 290.493 44.1497L277.703 44.397Z" fill="#452168"/>
<path d="M275.186 30.2341C272.83 33.2237 272.862 37.0628 275.186 41.73L297.496 66.0124C298.345 66.9396 299.516 67.5074 300.77 67.5993C302.024 67.6913 303.266 67.3005 304.241 66.5071C307.135 64.152 307.78 60.6784 306.231 56.1403C305.447 53.9396 304.306 51.8832 302.853 50.0536C294.613 39.3749 287.158 31.3847 281.263 28.793C280.233 28.3329 279.079 28.2248 277.981 28.4852C276.882 28.7456 275.9 29.3602 275.186 30.2341Z" fill="#5E2C81"/>
<path d="M281.941 29.0942C280.911 28.6266 279.755 28.5133 278.653 28.7721C277.551 29.0308 276.567 29.6471 275.853 30.5245C273.497 33.5141 273.529 37.3533 275.853 42.0205" stroke="white" stroke-width="0.408649" stroke-miterlimit="10" stroke-linecap="round" stroke-dasharray="0.81 0.81"/>
<path d="M269.183 17.4691H261.105V24.642H269.183V17.4691Z" fill="#FDBDA1"/>
<path d="M269.183 21.1793H261.105V25.9756H269.183V21.1793Z" fill="#5E2C81"/>
<path d="M261.105 17.4585V23.728C262.673 23.4825 264.171 22.9056 265.499 22.036C266.827 21.1663 267.955 20.0238 268.807 18.6844L265.364 17.4585H261.105Z" fill="#EAA48C"/>
<path d="M261.105 21.1362V23.6849C263.148 23.342 265.064 22.4624 266.655 21.1362H261.105Z" fill="#452168"/>
<path d="M257.673 24.6635L260.9 29.8469L274.11 25.0184C268.81 23.1457 263.049 23.0213 257.673 24.6635Z" fill="#5E2C81"/>
<path d="M262.492 21.0503H264.644C265.767 21.044 266.851 20.6358 267.699 19.8997C268.349 19.3286 268.868 18.6233 269.219 17.8323C269.57 17.0414 269.745 16.1837 269.732 15.3185V5.34961H256.285V14.1033C256.264 15.9731 256.956 17.7807 258.222 19.1577C258.764 19.7515 259.423 20.2263 260.158 20.5521C260.893 20.8779 261.688 21.0475 262.492 21.0503Z" fill="#FDBDA1"/>
<path d="M255.317 9.23167C255.317 9.23167 257.028 9.04887 258.878 5.34951C262.976 9.1349 268.828 8.03799 272.034 16.3508L271.593 4.95161L254.672 3.99451L255.317 9.23167Z" fill="#246BFD"/>
<path d="M271.372 13.5378C272.262 12.8897 272.487 11.6818 271.873 10.84C271.26 9.99825 270.041 9.84126 269.151 10.4894C268.261 11.1375 268.037 12.3454 268.65 13.1872C269.263 14.029 270.482 14.186 271.372 13.5378Z" fill="#FDBDA1"/>
<path d="M290.471 64.0768L290.278 81.5197L289.385 81.7132L290.471 64.0768Z" fill="#452168"/>
<path d="M239.59 81.5089L239.709 81.6487C242.936 67.7438 244.582 41.6441 245.163 41.6333L241.075 70.927L239.59 81.5089Z" fill="#452168"/>
<path d="M216.71 31.5245L212.568 38.2995" stroke="white" stroke-width="0.408649" stroke-miterlimit="10" stroke-linecap="round" stroke-dasharray="0.81 0.81"/>
<path d="M282.339 83.208L278.241 140.075L278.026 198.716" stroke="white" stroke-width="0.408649" stroke-miterlimit="10" stroke-linecap="round" stroke-dasharray="0.81 0.81"/>
<path d="M165.021 189.145H144.948C141.419 189.145 138.559 192.005 138.559 195.533V198.781C138.559 202.308 141.419 205.168 144.948 205.168H165.021C168.55 205.168 171.411 202.308 171.411 198.781V195.533C171.411 192.005 168.55 189.145 165.021 189.145Z" fill="#262BC6"/>
<path d="M222.615 189.145H202.542C199.013 189.145 196.153 192.005 196.153 195.533V198.781C196.153 202.308 199.013 205.168 202.542 205.168H222.615C226.144 205.168 229.005 202.308 229.005 198.781V195.533C229.005 192.005 226.144 189.145 222.615 189.145Z" fill="#246BFD"/>
<path d="M211.503 143.71H156.061C154.718 143.71 153.63 144.798 153.63 146.14C153.63 147.482 154.718 148.57 156.061 148.57H211.503C212.846 148.57 213.934 147.482 213.934 146.14C213.934 144.798 212.846 143.71 211.503 143.71Z" fill="#C7C7E3"/>
<path d="M223.4 153.98H144.163C142.82 153.98 141.732 155.068 141.732 156.41C141.732 157.752 142.82 158.841 144.163 158.841H223.4C224.743 158.841 225.832 157.752 225.832 156.41C225.832 155.068 224.743 153.98 223.4 153.98Z" fill="#C7C7E3"/>
<path d="M204.468 164.26H163.085C161.742 164.26 160.654 165.349 160.654 166.691C160.654 168.033 161.742 169.121 163.085 169.121H204.468C205.81 169.121 206.899 168.033 206.899 166.691C206.899 165.349 205.81 164.26 204.468 164.26Z" fill="#C7C7E3"/>
<path d="M40.292 142.28C40.292 142.28 32.8803 152.023 32.8695 159.486H28.3085C28.3085 159.486 28.728 144.269 40.292 142.28Z" fill="#262BC6"/>
<path d="M17.2393 138.139C17.2393 138.139 31.7292 142.849 30.3738 159.045H25.7374C25.7374 159.045 19.3154 139.279 17.2393 138.139Z" fill="#246BFD"/>
<path d="M27.1358 159.507C27.1358 159.507 28.2116 145.968 15.2384 142.677C15.2384 142.677 21.7788 153.958 21.1979 159.045L27.1358 159.507Z" fill="#262BC6"/>
<path d="M34.3001 136.999C34.3001 136.999 29.9973 151.84 31.5893 161.464H26.4474C26.4474 161.464 24.8016 142.774 34.3001 136.999Z" fill="#246BFD"/>
<path d="M22.3919 168.315H31.8689L33.418 166.164C34.2783 165 34.8799 163.666 35.1823 162.251C35.4847 160.836 35.481 159.372 35.1714 157.959H19.1002C18.7862 159.371 18.7793 160.835 19.08 162.25C19.3806 163.666 19.9818 165.001 20.8428 166.164L22.3919 168.315Z" fill="#C7C7E3"/>
<path d="M2.85697 232.645H0.296753L6.14866 198.447H10.9033L2.85697 232.645Z" fill="#C7C7E3"/>
<path d="M52.0709 232.645H54.6311L48.7792 198.447H44.0245L52.0709 232.645Z" fill="#C7C7E3"/>
<path d="M55.3413 168.326H0.178467V212.202H55.3413V168.326Z" fill="#C7C7E3"/>
<path d="M53.1036 170.756H2.40503V189.091H53.1036V170.756Z" fill="#EEEDFF"/>
<path d="M53.1036 191.683H2.40503V210.018H53.1036V191.683Z" fill="#EEEDFF"/>
<path d="M27.7597 202.867C28.8766 202.867 29.782 201.962 29.782 200.845C29.782 199.729 28.8766 198.824 27.7597 198.824C26.6427 198.824 25.7373 199.729 25.7373 200.845C25.7373 201.962 26.6427 202.867 27.7597 202.867Z" fill="#B0B0D6"/>
<path d="M27.7597 181.951C28.8766 181.951 29.782 181.046 29.782 179.929C29.782 178.812 28.8766 177.907 27.7597 177.907C26.6427 177.907 25.7373 178.812 25.7373 179.929C25.7373 181.046 26.6427 181.951 27.7597 181.951Z" fill="#B0B0D6"/>
<path d="M119.583 232.989C119.796 232.963 120.003 232.896 120.19 232.791C120.377 232.686 120.542 232.545 120.675 232.377C120.808 232.208 120.906 232.014 120.964 231.808C121.022 231.601 121.039 231.385 121.014 231.171L114.473 177.068L108.847 177.757L117.776 231.526C117.796 231.742 117.859 231.951 117.961 232.142C118.063 232.333 118.203 232.502 118.371 232.638C118.54 232.774 118.733 232.876 118.942 232.936C119.15 232.996 119.368 233.014 119.583 232.989Z" fill="#FDAB71"/>
<path d="M97.6921 232.989C98.1217 232.935 98.5129 232.714 98.7807 232.374C99.0485 232.034 99.1714 231.602 99.1228 231.171L92.5932 177.068L86.9672 177.757L95.8849 231.526C95.9063 231.741 95.9702 231.95 96.0729 232.14C96.1756 232.331 96.315 232.499 96.4831 232.635C96.6512 232.771 96.8446 232.872 97.0521 232.933C97.2596 232.994 97.4771 233.013 97.6921 232.989Z" fill="#E28F59"/>
<path d="M73.9081 232.989C73.6948 232.963 73.4885 232.896 73.3011 232.791C73.1137 232.686 72.9489 232.545 72.816 232.377C72.6831 232.208 72.5848 232.014 72.5267 231.808C72.4686 231.601 72.4519 231.385 72.4774 231.171L79.007 177.068L84.633 177.757L75.7153 231.526C75.6953 231.742 75.6323 231.951 75.53 232.142C75.4278 232.333 75.2884 232.502 75.12 232.638C74.9516 232.774 74.7576 232.876 74.5495 232.936C74.3414 232.996 74.1233 233.014 73.9081 232.989Z" fill="#FDAB71"/>
<path d="M46.6063 232.989C46.1766 232.935 45.7855 232.714 45.5177 232.374C45.2498 232.034 45.1269 231.602 45.1756 231.171L51.716 177.068L57.3419 177.757L48.4243 231.526C48.4029 231.742 48.3386 231.952 48.2352 232.143C48.1319 232.334 47.9915 232.503 47.8222 232.639C47.6529 232.775 47.4583 232.876 47.2495 232.936C47.0407 232.996 46.8221 233.014 46.6063 232.989Z" fill="#E28F59"/>
<path d="M47.4776 168.186C47.4776 168.186 44.0461 175.853 53.3726 177.864C61.5372 179.628 104.448 179.208 115 179.079C115.626 179.074 116.224 178.82 116.664 178.375C117.103 177.93 117.348 177.328 117.345 176.703V172.208L47.4776 168.186Z" fill="#B0B0D6"/>
<path d="M83.2345 159.335H107.352C110.002 159.335 112.544 160.388 114.418 162.261C116.293 164.135 117.345 166.676 117.345 169.326V175.38H83.2345V159.335Z" fill="#B0B0D6"/>
<path d="M44.0462 145.731C44.0367 144.845 44.2627 143.971 44.7011 143.201C45.1396 142.43 45.7748 141.789 46.5419 141.344C49.6937 139.548 53.0714 142.118 54.5559 143.882C56.4384 146.119 58.6867 148.13 60.9242 148.011C63.1617 147.893 65.8833 141.871 69.0674 141.398C72.2515 140.924 74.4997 140.806 75.5217 143.882C76.5436 146.957 84.5469 169.551 115.097 164.787C115.646 164.7 116.207 164.733 116.742 164.884C117.277 165.035 117.772 165.3 118.195 165.661C118.617 166.022 118.956 166.47 119.188 166.974C119.421 167.479 119.541 168.028 119.54 168.584V173.315C119.541 173.71 119.465 174.102 119.315 174.467C119.164 174.832 118.944 175.164 118.665 175.444C118.386 175.724 118.055 175.946 117.69 176.097C117.325 176.248 116.934 176.326 116.539 176.326H60.6015C56.2022 176.326 51.9831 174.579 48.8723 171.469C45.7615 168.36 44.0139 164.142 44.0139 159.744L44.0462 145.731Z" fill="#C7C7E3"/>
<path d="M149.327 134.472L145.024 138.827C130.114 129.773 115.624 118.545 110.439 110.975C109.955 110.325 109.61 109.583 109.427 108.794C109.243 108.005 109.224 107.186 109.372 106.389C109.519 105.593 109.83 104.835 110.284 104.164C110.738 103.493 111.325 102.923 112.01 102.49C113.161 101.792 114.519 101.517 115.851 101.713C117.182 101.91 118.403 102.565 119.303 103.565C127.436 112.545 138.989 124.557 149.327 134.472Z" fill="#E5E5E5"/>
<path d="M96.9608 76.9385C100.521 75.6051 104.168 76.7987 107.901 80.4443L124.273 109.071C124.895 110.162 125.078 111.449 124.784 112.67C124.49 113.89 123.742 114.953 122.692 115.642C119.562 117.685 116.065 117.244 112.214 114.394C110.359 112.976 108.746 111.265 107.438 109.329C99.7576 98.2421 94.4113 88.7033 93.7336 82.294C93.6078 81.1708 93.8558 80.0375 94.4391 79.0694C95.0225 78.1013 95.9087 77.3524 96.9608 76.9385Z" fill="#E5E5E5"/>
<path d="M108.761 87.2408L115.452 116.341L113.387 115.19L108.761 87.2408Z" fill="#B0B0D6"/>
<path d="M149.197 134.354L155.469 135.988C155.469 135.988 159.288 136.902 151.93 137.731C151.93 137.731 158.47 141.053 157.825 142.183C157.179 143.312 152.026 146.635 145.034 138.817C145.024 138.817 145.604 134.547 149.197 134.354Z" fill="#FDBDA1"/>
<path d="M72.9507 166.573L114.646 173.208C116.878 173.553 119.159 173.049 121.039 171.797C122.918 170.544 124.26 168.633 124.8 166.44C125.34 164.247 125.039 161.931 123.956 159.949C122.873 157.967 121.086 156.463 118.948 155.733L110.439 152.84L90.4419 146.022L63.4306 142.925C63.4306 142.925 59.0417 162.282 72.9507 166.573Z" fill="#5E2C81"/>
<path d="M120.282 225.622L110.439 226.547L107.008 165.755C106.811 164.522 106.87 163.26 107.18 162.05C107.491 160.84 108.046 159.706 108.813 158.72C109.579 157.733 110.54 156.913 111.636 156.313C112.731 155.712 113.939 155.343 115.183 155.227C116.435 155.109 117.698 155.25 118.892 155.641C120.087 156.033 121.188 156.667 122.126 157.504C123.064 158.341 123.819 159.363 124.344 160.505C124.869 161.647 125.153 162.885 125.177 164.142L120.282 225.622Z" fill="#5E2C81"/>
<path d="M128.425 230.956C128.374 231.074 128.292 231.177 128.188 231.252C128.084 231.328 127.962 231.374 127.834 231.387L111.01 232.989L110.407 226.537L120.261 225.612C124.478 225.956 126.285 227.612 128.286 230.193L128.339 230.268C128.413 230.365 128.46 230.48 128.476 230.601C128.491 230.722 128.473 230.844 128.425 230.956Z" fill="#246BFD"/>
<path d="M128.339 230.247C128.417 230.346 128.467 230.464 128.482 230.589C128.497 230.715 128.477 230.842 128.425 230.956C128.374 231.074 128.292 231.176 128.188 231.252C128.084 231.328 127.962 231.374 127.834 231.387L111.01 232.989L110.902 231.817L128.286 230.193L128.339 230.247Z" fill="#5E2C81"/>
<path d="M92.4964 161.303L134.191 167.928C136.424 168.273 138.705 167.769 140.584 166.517C142.464 165.264 143.806 163.353 144.346 161.16C144.886 158.967 144.585 156.651 143.502 154.669C142.418 152.687 140.632 151.183 138.494 150.453L129.985 147.56L109.988 140.742L82.9763 137.655C82.9763 137.655 78.5659 157.002 92.4964 161.303Z" fill="#4D2272"/>
<path d="M147.315 219.88L137.634 222.031L126.801 162.11C126.458 160.909 126.364 159.65 126.525 158.411C126.687 157.173 127.1 155.98 127.74 154.907C128.38 153.834 129.233 152.904 130.246 152.173C131.259 151.442 132.412 150.926 133.632 150.657C134.861 150.388 136.132 150.376 137.365 150.62C138.599 150.865 139.769 151.36 140.803 152.077C141.836 152.793 142.711 153.715 143.373 154.784C144.034 155.854 144.468 157.048 144.647 158.292L147.315 219.88Z" fill="#4D2272"/>
<path d="M156.071 224.181C156.036 224.305 155.967 224.417 155.872 224.505C155.777 224.592 155.66 224.651 155.533 224.676L139.043 228.289L137.655 221.966L147.336 219.815C151.564 219.643 153.554 221.073 155.856 223.375L155.921 223.45C156.016 223.543 156.081 223.662 156.108 223.793C156.135 223.923 156.122 224.058 156.071 224.181Z" fill="#246BFD"/>
<path d="M155.899 223.482C155.992 223.57 156.057 223.683 156.088 223.807C156.118 223.931 156.113 224.061 156.071 224.181C156.036 224.305 155.967 224.417 155.872 224.505C155.777 224.592 155.66 224.651 155.533 224.676L139.043 228.289L138.785 227.149L155.835 223.407L155.899 223.482Z" fill="#5E2C81"/>
<path d="M83.1915 145.086C83.1915 145.086 94.2714 147.506 104.458 143.871L94.8631 74.82L94.4866 72.0562C90.8112 71.4083 87.0553 71.3574 83.3636 71.9057V72.5401L83.1915 145.086Z" fill="#262BC6"/>
<path d="M97.4879 127.934C98.4346 141.064 99.2198 151.302 99.2198 151.302C105.545 151.302 111.72 145.495 114.581 141.978C115.217 127.779 113.84 113.562 110.493 99.7477V99.6402L107.858 80.724C105.427 77.0139 100.64 74.2717 96.4983 72.6478C95.7453 72.3467 95.0138 72.0886 94.3469 71.8628C93.6369 72.5833 95.8206 104.759 97.4879 127.934Z" fill="#E5E5E5"/>
<path d="M62.9142 143.333C63.5489 143.473 80.0503 152.807 89.28 152.85C89.28 152.85 88.8067 141.903 88.086 128.063C86.8704 104.469 84.9664 72.4648 83.5464 71.712L81.395 72.4003C78.975 73.0987 76.6152 73.9906 74.3383 75.0673C70.9483 77.1401 68.1586 80.0621 66.2454 83.544C64.3323 87.0259 63.3619 90.947 63.4305 94.919V95.9944L62.9142 143.333Z" fill="#E5E5E5"/>
<path d="M83.3635 71.9055V72.54C84.891 73.7767 87.9246 76.1641 90.9689 75.9921C92.3673 75.906 94.0131 74.594 94.8629 73.8413L94.4864 72.0238C90.8093 71.3866 87.0534 71.3466 83.3635 71.9055Z" fill="#FDBDA1"/>
<path d="M97.4879 127.934L97.8537 130.31L101.221 96.016L97.617 91.5101L100.543 88.3807L96.4983 72.6907C95.7453 72.3896 95.0138 72.1315 94.3469 71.9056C93.6369 72.5831 95.8206 104.759 97.4879 127.934Z" fill="#C7C7E3"/>
<path d="M83.471 90.7572L80.2439 94.5211L88.1397 128.063C86.9241 104.469 85.0201 72.4648 83.6001 71.712L81.4487 72.4003L80.5559 88.4667L83.471 90.7572Z" fill="#C7C7E3"/>
<path d="M93.0665 64.8833H84.9879V72.0562H93.0665V64.8833Z" fill="#FDBDA1"/>
<path d="M93.0665 64.8833V71.1421C91.4994 70.8964 90.0023 70.3207 88.6745 69.4531C87.3466 68.5854 86.2184 67.4457 85.3644 66.1093L88.8067 64.8833H93.0665Z" fill="#EAA48C"/>
<path d="M91.7973 68.2601L89.6458 68.3461C88.5143 68.3708 87.4114 67.9893 86.537 67.2708C85.8677 66.7218 85.3243 66.0353 84.9437 65.2578C84.5632 64.4803 84.3545 63.6301 84.3318 62.7648L83.9553 52.8067L97.4018 52.2905L97.7353 61.0442C97.8253 62.9149 97.1982 64.7495 95.9818 66.1739C95.4666 66.792 94.8286 67.2965 94.1084 67.6556C93.3881 68.0147 92.6012 68.2206 91.7973 68.2601Z" fill="#FDBDA1"/>
<path d="M100.435 52.1399C100.647 51.9174 100.808 51.6523 100.909 51.3623C101.009 51.0722 101.046 50.7641 101.018 50.4584C100.989 50.1528 100.896 49.8569 100.743 49.5904C100.591 49.324 100.383 49.0933 100.134 48.9138C98.9184 45.408 96.6487 45.5478 94.0562 46.849C91.098 48.0104 89.4629 46.9135 86.9565 47.6556C80.3731 49.8063 79.1468 54.3445 80.9325 60.2914C81.6962 62.3347 83.2775 63.6467 84.9879 65.5071C83.1377 58.9902 85.5473 55.2371 87.3652 59.7968C87.6127 60.8722 88.5593 61.1732 88.441 60.2484C87.3652 55.8393 87.7418 53.0648 91.1195 53.5595C92.7147 54.06 94.3745 54.3245 96.0463 54.3445C96.8982 54.3391 97.7373 54.1374 98.4985 53.7551C99.2597 53.3727 99.9224 52.82 100.435 52.1399Z" fill="#5C2C82"/>
<path d="M84.2565 58.5493C84.5583 58.1326 85.0129 57.8523 85.5209 57.7697C86.0288 57.687 86.5489 57.8088 86.9673 58.1084C87.8816 58.7214 88.6777 61.055 88.0968 61.9153C87.5159 62.7756 85.784 61.84 84.8696 61.227C84.4362 60.9506 84.1289 60.5148 84.0142 60.0138C83.8995 59.5128 83.9865 58.9867 84.2565 58.5493Z" fill="#FDBDA1"/>
<path d="M64.8506 88.1549C64.8506 88.1549 63.2047 119.449 71.4124 125.6C79.2974 131.504 87.8494 123.449 87.8494 123.449L104.405 104.813L82.8903 112.254L80.7927 101.501L64.8506 88.1549Z" fill="#B0B0D6"/>
<path d="M70.7993 80.369C74.5965 80.584 77.4687 83.1435 79.405 87.972L82.9226 120.761C83.0525 122.007 82.7036 123.256 81.9465 124.254C81.1895 125.253 80.0809 125.926 78.8456 126.138C75.1559 126.751 72.1331 124.955 69.745 120.761C68.6083 118.722 67.816 116.509 67.4 114.212C64.8075 100.974 63.7318 90.0905 65.6788 83.95C66.022 82.8748 66.709 81.942 67.6341 81.295C68.5592 80.648 69.6712 80.3226 70.7993 80.369Z" fill="#E5E5E5"/>
<path d="M115.71 100.253L119.701 95.1556C119.701 95.1556 122.057 92.0154 119.884 99.0915C119.884 99.0915 125.542 94.4243 126.338 95.4567C127.135 96.4891 128.113 102.554 118.152 105.845C118.131 105.845 114.452 103.619 115.71 100.253Z" fill="#FDBDA1"/>
<path d="M115.657 100.275L117.959 105.931C103.705 115.997 87.6342 124.804 78.6197 126.547C77.8306 126.731 77.0119 126.75 76.215 126.603C75.4181 126.457 74.66 126.147 73.9884 125.694C73.3168 125.24 72.7462 124.653 72.3121 123.969C71.8781 123.285 71.5901 122.519 71.4661 121.718C71.2846 120.386 71.5744 119.033 72.2855 117.892C72.9966 116.751 74.0842 115.894 75.3602 115.47C86.8596 111.631 102.447 105.802 115.657 100.275Z" fill="#E5E5E5"/>
<path d="M259.157 163.594C249.013 162.518 249.121 191.844 261.115 221.665H264.751C264.751 221.665 276.681 165.519 259.157 163.594Z" fill="#262BC6"/>
<path d="M260.642 229.838H260.19C263.33 199.598 260.19 170.111 260.19 169.82H260.642C260.674 170.025 263.782 199.555 260.642 229.838Z" fill="white"/>
<path d="M234.416 193.511C229.274 198.092 252.004 218.697 261.115 221.654L265.579 217.353C265.579 217.353 243.086 185.79 234.416 193.511Z" fill="#262BC6"/>
<path d="M265.504 226.902C256.576 212.137 238.773 196.641 238.611 196.49L238.912 196.146C239.085 196.307 256.952 211.836 265.913 226.666L265.504 226.902Z" fill="white"/>
<path d="M244.915 175.617C236.492 178.133 259.975 223.611 259.975 223.611L262.341 221.654C262.341 221.654 264.934 169.637 244.915 175.617Z" fill="#246BFD"/>
<path d="M273.034 176.982C262.89 175.079 260.685 196.458 261.126 221.654H264.762C264.762 221.654 285.2 179.219 273.034 176.982Z" fill="#262BC6"/>
<path d="M284.383 190.36C278.456 184.005 266.451 204.835 261.115 221.654L263.697 223.654C263.697 223.654 289.88 196.253 284.383 190.36Z" fill="#246BFD"/>
<path d="M260.19 226.816C253.349 181.424 248.723 179.703 248.529 179.649L248.594 179.198C248.798 179.198 253.617 180.187 260.642 226.752L260.19 226.816Z" fill="white"/>
<path d="M258.62 229.075L258.168 229.01C260.836 210.728 272.701 181.51 272.819 181.22L273.239 181.392C273.12 181.682 261.277 210.836 258.62 229.075Z" fill="white"/>
<path d="M255.887 226.902L255.5 226.665C260.878 217.75 280.177 196.382 280.37 196.167L280.704 196.468C280.564 196.684 261.201 218.019 255.887 226.902Z" fill="white"/>
<path d="M277.229 222.031L273.195 231.623C273.068 231.925 272.853 232.182 272.579 232.362C272.306 232.542 271.985 232.636 271.657 232.634H251.014C250.689 232.637 250.371 232.543 250.099 232.365C249.827 232.187 249.614 231.933 249.486 231.634L245.431 222.235C244.77 220.697 244.59 218.995 244.915 217.353C245.089 216.427 245.424 215.539 245.904 214.729H276.777L276.842 214.825C277.277 215.613 277.578 216.467 277.735 217.353C278.02 218.928 277.844 220.552 277.229 222.031Z" fill="#C7C7E3"/>
<path d="M277.735 217.299H244.915C245.089 216.373 245.424 215.485 245.904 214.675H276.777L276.842 214.772C277.277 215.559 277.579 216.413 277.735 217.299Z" fill="#B0B0D6"/>
<path d="M25.7697 42.569L72.8646 42.569C76.4114 42.569 79.2866 39.6946 79.2866 36.1489V19.1899C79.2866 15.6442 76.4114 12.7698 72.8646 12.7698L25.7697 12.7698C22.2229 12.7698 19.3477 15.6442 19.3477 19.1899V36.1489C19.3477 39.6946 22.2229 42.569 25.7697 42.569Z" fill="#262BC6"/>
<path d="M73.6176 38.5042V48.6451L67.1956 38.5042H73.6176Z" fill="#262BC6"/>
<path d="M61.3653 30.5138C62.9337 30.5138 64.2052 29.2427 64.2052 27.6747C64.2052 26.1068 62.9337 24.8357 61.3653 24.8357C59.7969 24.8357 58.5254 26.1068 58.5254 27.6747C58.5254 29.2427 59.7969 30.5138 61.3653 30.5138Z" fill="white"/>
<path d="M49.3278 30.5138C50.8962 30.5138 52.1677 29.2427 52.1677 27.6747C52.1677 26.1068 50.8962 24.8357 49.3278 24.8357C47.7594 24.8357 46.4879 26.1068 46.4879 27.6747C46.4879 29.2427 47.7594 30.5138 49.3278 30.5138Z" fill="white"/>
<path d="M37.2907 30.5138C38.8591 30.5138 40.1306 29.2427 40.1306 27.6747C40.1306 26.1068 38.8591 24.8357 37.2907 24.8357C35.7223 24.8357 34.4508 26.1068 34.4508 27.6747C34.4508 29.2427 35.7223 30.5138 37.2907 30.5138Z" fill="white"/>
<defs>
<linearGradient id="paint0_linear_13_1035" x1="183.787" y1="8.26392" x2="183.787" y2="18.6307" gradientUnits="userSpaceOnUse">
<stop stop-color="#262BC6"/>
<stop offset="1" stop-color="#246BFD"/>
</linearGradient>
</defs>
</svg>
