<svg width="264" height="240" viewBox="0 0 264 240" fill="none" xmlns="http://www.w3.org/2000/svg">
<path d="M239.427 71.1659L233.975 99.6665L233.262 103.396L222.675 158.744L221.988 162.336L221.582 164.449C218.814 178.919 204.709 188.491 190.239 185.723L42.3053 157.418L32.9812 155.632L29.653 154.998C15.1785 152.23 5.60552 138.125 8.37392 123.656L11.0999 109.397L11.7711 105.895L21.1693 56.7863L21.8138 53.4264L26.2248 30.3723C27.2313 25.0914 29.8153 20.2398 33.6357 16.4576C36.7309 13.3852 40.5257 11.1104 44.6942 9.82854C48.8627 8.54669 53.28 8.29618 57.5667 9.09853L148.066 26.4154L155.821 27.9L202.743 36.8755L206.879 37.6678L218.152 39.8226C232.623 42.5914 242.195 56.6964 239.427 71.1659Z" fill="#C7D6F5"/>
<path d="M206.88 37.6678C179.515 59.285 152.446 70.2097 126.212 70.2097C125.293 70.2097 124.384 70.1991 123.47 70.1675C108.921 69.7448 98.4452 66.2318 87.3568 62.5075C76.2365 58.7777 64.7411 54.9213 48.5442 54.3983C39.3569 54.1146 30.1683 54.9162 21.1689 56.7863L21.8134 53.4263C30.6462 51.6883 39.6467 50.9511 48.6445 51.2286C65.3065 51.7675 77.0289 55.6972 88.3658 59.5015C99.2271 63.1467 109.486 66.591 123.56 67.0031C149.202 67.7426 175.77 57.6261 202.743 36.8754L206.88 37.6678Z" fill="white"/>
<path d="M155.822 27.9C147.158 30.1875 138.568 31.3338 130.052 31.339C129.138 31.339 128.224 31.3233 127.31 31.2968C112.767 30.8741 102.291 27.3558 91.1975 23.6375C80.0825 19.9079 68.582 16.0462 52.3851 15.523C46.1205 15.3245 39.8501 15.6376 33.6364 16.4591C35.0453 15.0607 36.6044 13.8223 38.2854 12.7665C43.0079 12.3437 47.7517 12.2081 52.4907 12.3602C69.1525 12.8936 80.8697 16.8288 92.2067 20.6329C103.068 24.2781 113.327 27.7224 127.4 28.1292C134.331 28.319 141.261 27.745 148.066 26.4175L155.822 27.9Z" fill="white"/>
<path d="M233.975 99.6665L233.262 103.396C211.222 112.519 189.446 117.11 168.12 117.11C166.973 117.11 165.831 117.098 164.691 117.073C146.508 116.651 133.376 113.148 119.476 109.44C105.445 105.694 90.9332 101.822 70.4569 101.299C50.7944 100.792 30.9461 103.507 11.0996 109.397L11.7708 105.895C31.4113 100.232 51.0588 97.6274 70.5417 98.1292C91.3928 98.6627 106.084 102.583 120.295 106.376C134.004 110.037 146.957 113.492 164.765 113.904C187.365 114.422 210.509 109.651 233.975 99.6665Z" fill="white"/>
<path d="M222.675 158.744L221.988 162.336C203.8 168.617 185.807 171.776 168.12 171.776C166.973 171.776 165.831 171.762 164.691 171.734C146.508 171.311 133.376 167.809 119.476 164.1C105.445 160.355 90.9332 156.488 70.4569 155.96C61.0494 155.722 51.6376 156.21 42.305 157.418L32.9808 155.632C45.3748 153.434 57.9578 152.484 70.5413 152.795C91.3925 153.329 106.084 157.249 120.294 161.036C134.003 164.697 146.957 168.152 164.765 168.564C183.731 169.008 203.076 165.717 222.675 158.744Z" fill="white"/>
<path d="M213.902 74.3863H161.981C160.171 74.3863 158.704 75.8535 158.704 77.6634C158.704 79.4733 160.171 80.9405 161.981 80.9405H213.902C215.712 80.9405 217.179 79.4733 217.179 77.6634C217.179 75.8535 215.712 74.3863 213.902 74.3863Z" fill="#246BFD"/>
<path d="M234.156 112.492H161.763C159.953 112.492 158.486 113.959 158.486 115.769C158.486 117.579 159.953 119.046 161.763 119.046H234.156C235.966 119.046 237.434 117.579 237.434 115.769C237.434 113.959 235.966 112.492 234.156 112.492Z" fill="#246BFD"/>
<path d="M251.785 66.7118H159.623C156.122 66.7118 153.283 69.5501 153.283 73.0512V81.4207C153.283 84.9219 156.122 87.7601 159.623 87.7601H251.785C255.286 87.7601 258.124 84.9219 258.124 81.4207V73.0512C258.124 69.5501 255.286 66.7118 251.785 66.7118Z" stroke="#251138" stroke-width="0.529872" stroke-miterlimit="10"/>
<path d="M251.501 105H159.339C155.838 105 153 107.838 153 111.339V119.709C153 123.21 155.838 126.048 159.339 126.048H251.501C255.002 126.048 257.841 123.21 257.841 119.709V111.339C257.841 107.838 255.002 105 251.501 105Z" stroke="#251138" stroke-width="0.529872" stroke-miterlimit="10"/>
<path d="M0 239.23C0.85327 235.397 5.63589 215.657 23.1476 206.404C41.3805 196.771 66.9037 201.945 84.7277 220.574C87.2534 223.214 91.5265 223.091 93.8049 220.235C106.358 204.499 125.735 195.687 145.662 197.126C168.035 198.742 182.429 212.656 189.094 220.927C189.595 221.554 190.228 222.062 190.949 222.414C191.67 222.767 192.46 222.955 193.263 222.965C194.065 222.975 194.86 222.808 195.59 222.474C196.32 222.14 196.966 221.649 197.483 221.035C201.625 216.107 208.659 209.811 218.62 208.091C236.117 205.07 255.782 217.352 263.536 238.878L0 239.23Z" fill="#C7D6F5"/>
<path d="M34.2597 239.202C31.5961 233.669 12.7747 193.938 23.7049 185.342C24.6514 184.623 25.7472 184.126 26.9116 183.887C28.0759 183.648 29.279 183.674 30.4321 183.962C43.9753 187.559 44.0089 232.343 43.7469 238.806C41.1043 239.028 36.9033 238.98 34.2597 239.202Z" fill="#262BC6"/>
<path d="M28.6551 193.5L28.31 193.577L38.3587 238.881L38.7038 238.805L28.6551 193.5Z" fill="#30354F"/>
<path d="M53.2187 238.806C56.2015 230.996 77.2055 174.949 61.3975 164.534C58.7232 162.772 55.0759 162.37 52.1134 163.429C34.1508 169.853 41.295 230.068 42.3874 238.806H53.2187Z" fill="#246BFD"/>
<path d="M55.6679 176.174L47.2172 238.783L47.5673 238.83L56.0179 176.221L55.6679 176.174Z" fill="#30354F"/>
<path d="M218.617 239.202C217.024 235.894 205.768 212.132 212.304 206.991C212.87 206.562 213.526 206.264 214.222 206.121C214.918 205.978 215.638 205.994 216.328 206.166C224.427 208.317 224.447 235.1 224.29 238.965C222.71 239.098 220.197 239.069 218.617 239.202Z" fill="#246BFD"/>
<path d="M215.334 211.854L214.989 211.931L220.999 239.025L221.344 238.948L215.334 211.854Z" fill="#30354F"/>
<path d="M229.955 238.965C231.739 234.295 244.3 200.776 234.846 194.547C234.029 194.029 233.106 193.7 232.145 193.585C231.184 193.471 230.21 193.574 229.294 193.886C218.551 197.728 222.824 233.739 223.477 238.965H229.955Z" fill="#262BC6"/>
<path d="M231.349 201.498L226.295 238.942L226.645 238.989L231.699 201.546L231.349 201.498Z" fill="#30354F"/>
<path d="M158.703 16.9814C158.703 16.9814 158.269 56.6865 147.245 56.5529C134.813 56.4032 149.052 15.2823 149.052 15.2823C149.052 15.2823 154.767 13.0364 158.703 16.9814Z" fill="#80C2C1"/>
<path d="M112.655 54.8097C112.655 54.8097 148.883 37.0786 152.813 47.3593C158.151 61.3241 116.315 66.709 116.315 66.709C109.725 66.8927 107.993 58.3392 112.655 54.8097Z" fill="#80C2C1"/>
<path d="M138.247 104.809C138.247 104.809 137.695 61.0562 125.63 54.8279C118.714 51.2572 104.399 52.2269 97.0992 57.1593C89.7315 62.1387 94.9352 104.809 94.9352 104.809H138.247Z" fill="#80C2C1"/>
<path d="M150.015 16.7536C150.015 16.7536 148.71 14.6728 148.768 12.6676C148.827 10.6624 149.116 9.31965 148.004 7.24909C146.892 5.17853 149.361 4.31943 150.244 6.15915C151.127 7.99886 152.104 11.1157 153.976 9.31683C155.848 7.51791 155.326 0.894345 159.063 2.67259C159.063 2.67259 159.569 -0.338667 160.872 0.0315371C162.176 0.401741 161.735 3.13376 161.735 3.13376C161.735 3.13376 165.088 1.67043 162.72 8.40828C162.72 8.40828 164.445 8.58896 164.158 9.95356C163.699 12.1365 160.776 16.1859 157.627 18.6131C152.508 22.5578 150.015 16.7536 150.015 16.7536Z" fill="#FB8A60"/>
<path d="M156.584 10.4246L156.006 10.1325C158.83 4.55611 158.742 2.7164 158.741 2.69838L159.385 2.64239C159.392 2.71975 159.529 4.60698 156.584 10.4246Z" fill="#E56542"/>
<path d="M158.894 11.1528L158.345 10.8118C160.116 7.9586 161.41 3.10002 161.422 3.05145L162.048 3.21625C161.994 3.41936 160.717 8.21823 158.894 11.1528Z" fill="#E56542"/>
<path d="M160.574 12.6024L160.028 12.2562C161.123 10.5283 162.427 8.26928 162.439 8.24685L163 8.56989C162.987 8.59232 161.676 10.8634 160.574 12.6024Z" fill="#E56542"/>
<path d="M70.3512 220.205L82.5169 232.496C82.8991 232.882 83.1357 233.389 83.1865 233.93C83.2372 234.471 83.0989 235.013 82.7951 235.463C82.4465 235.98 81.907 236.337 81.2952 236.456C80.6833 236.575 80.0493 236.446 79.5325 236.098L59.5426 222.614L64.3934 216.29L70.3512 220.205Z" fill="#1C5276"/>
<path d="M66.0932 221.77L65.0105 221.04C64.3704 220.608 63.9279 219.94 63.7806 219.182C63.6333 218.424 63.7931 217.638 64.2249 216.998L67.811 211.681L73.7211 215.668L70.135 220.985C69.7032 221.625 69.0348 222.067 68.2768 222.214C67.5188 222.362 66.7334 222.202 66.0932 221.77Z" fill="#FB855F"/>
<path d="M126.955 231.161L143.914 234.548C144.446 234.654 144.926 234.942 145.27 235.362C145.615 235.782 145.803 236.309 145.803 236.852C145.803 237.161 145.743 237.466 145.624 237.752C145.506 238.037 145.333 238.296 145.115 238.514C144.897 238.732 144.638 238.905 144.353 239.023C144.067 239.141 143.762 239.202 143.453 239.202H119.341L119.826 231.247L126.955 231.161Z" fill="#1C5276"/>
<path d="M124.3 234.839H122.994C122.611 234.839 122.233 234.764 121.88 234.618C121.526 234.471 121.205 234.257 120.935 233.987C120.665 233.716 120.45 233.395 120.304 233.042C120.158 232.689 120.082 232.31 120.082 231.928V225.515H127.211V231.928C127.211 232.7 126.905 233.441 126.359 233.987C125.813 234.533 125.072 234.839 124.3 234.839Z" fill="#FB855F"/>
<path d="M151.792 81.8229C151.792 81.8229 120.316 106.028 113.605 97.2808C106.037 87.4169 147.161 73.1872 147.161 73.1872C147.161 73.1872 152.458 76.2891 151.792 81.8229Z" fill="#80C2C1"/>
<path d="M107.493 59.8544C107.493 59.8544 130.912 92.6945 121.413 98.2524C108.509 105.803 96.3531 65.411 96.3531 65.411C95.094 58.9413 103.249 55.8332 107.493 59.8544Z" fill="#80C2C1"/>
<path d="M127.171 175.413C129.687 175.415 132.109 174.452 133.938 172.724C135.767 170.996 136.865 168.632 137.007 166.12C138.228 144.032 138.764 121.405 138.247 104.809H116.689C117.37 123.713 117.537 145.711 117.32 165.452C117.305 166.755 117.549 168.048 118.038 169.256C118.526 170.464 119.25 171.563 120.166 172.489C121.082 173.416 122.173 174.151 123.375 174.653C124.578 175.155 125.868 175.413 127.171 175.413Z" fill="#262BC6"/>
<path d="M127.179 156.422C128.517 156.422 129.841 156.695 131.07 157.225C132.298 157.756 133.405 158.532 134.323 159.505C135.24 160.479 135.949 161.631 136.406 162.888C136.862 164.146 137.056 165.484 136.977 166.82C135.838 185.857 134.215 213.68 133.371 225.886H116.689C117.351 211.979 117.151 183.468 117.365 166.113C117.397 163.531 118.445 161.066 120.282 159.252C122.119 157.438 124.597 156.421 127.179 156.422Z" fill="#262BC6"/>
<path d="M105.417 175.413C107.933 175.415 110.355 174.452 112.184 172.724C114.013 170.996 115.111 168.632 115.253 166.12C116.474 144.032 117.01 121.405 116.493 104.809H94.9352C95.6164 123.713 95.7839 145.711 95.5659 165.452C95.5513 166.755 95.7953 168.048 96.2838 169.256C96.7722 170.464 97.4955 171.563 98.4117 172.489C99.3279 173.416 100.419 174.151 101.621 174.653C102.824 175.155 104.114 175.413 105.417 175.413Z" fill="#262BC6"/>
<path d="M110.938 157.43C112.048 158.178 112.993 159.145 113.714 160.272C114.436 161.398 114.92 162.661 115.137 163.981C115.353 165.302 115.297 166.652 114.972 167.95C114.647 169.248 114.06 170.466 113.247 171.529C101.658 186.675 84.7537 208.833 77.2279 218.48L63.3983 209.152C71.7238 197.993 87.5004 174.244 97.383 159.976C98.8531 157.854 101.101 156.396 103.638 155.92C106.175 155.443 108.798 155.986 110.938 157.43Z" fill="#262BC6"/>
<path d="M112.783 60.324C117.347 60.324 119.427 54.9932 118.201 53.7669C117.834 53.3794 117.542 52.9272 117.34 52.4334H117.337C117.027 51.6928 116.819 50.9141 116.717 50.1182L116.713 50.1148L108.277 42.5892C108.733 47.3805 106.682 50.7445 105.938 53.1402C105.198 55.5358 107.593 60.324 112.783 60.324Z" fill="#FB855F"/>
<path d="M109.758 48.2553C112.177 52.8829 117.196 52.4237 117.337 52.4334C117.027 51.6928 116.819 50.9141 116.717 50.1182L116.713 50.1148C116.485 49.9841 107.49 43.9182 109.758 48.2553Z" fill="#E56542"/>
<path d="M99.932 33.9804C99.932 33.9804 100.295 38.3538 106.654 42.8591C113.32 47.5828 105.732 33.065 105.732 33.065L99.932 33.9804Z" fill="#8E3332"/>
<path d="M117.29 31.3531C117.29 31.3531 118.191 35.1219 119.357 39.3517C121.026 45.3981 121.168 50.2874 115.009 50.2874C104.664 50.2874 105.352 33.1211 105.352 33.1211L117.29 31.3531Z" fill="#FB855F"/>
<path d="M104.371 37.7125C102.741 38.3791 103.872 42.5241 107.422 42.9308C110.159 43.2445 106.88 36.6859 104.371 37.7125Z" fill="#FB855F"/>
<path d="M119.432 100.153C118.045 100.178 116.671 99.8844 115.415 99.2943C108.163 95.7463 100.996 79.6905 100.695 79.0091L101.877 78.4858C101.949 78.6488 109.153 94.7915 115.983 98.1325C122.668 101.403 134.324 92.6218 134.441 92.5335L135.225 93.5624C134.806 93.8808 126.478 100.153 119.432 100.153Z" fill="#50A5A0"/>
<path d="M118.517 87.7601L117.602 86.8455C120.425 84.0224 130.078 79.551 130.488 79.3609L131.03 80.5356C130.932 80.581 121.177 85.0996 118.517 87.7601Z" fill="#50A5A0"/>
<path d="M121.026 85.0064C120.986 84.9193 117.033 76.2483 114.928 72.7133L116.04 72.0513C118.181 75.6478 122.04 84.1118 122.204 84.4701L121.026 85.0064Z" fill="#50A5A0"/>
<path d="M144.225 47.8436C143.618 46.3019 141.895 44.9841 141.878 44.971L142.658 43.9386C142.74 44.001 144.686 45.4845 145.429 47.3699L144.225 47.8436Z" fill="#50A5A0"/>
<path d="M133.548 70.3619C133.528 70.2706 131.595 61.1867 127.741 57.3333L128.656 56.4187C132.783 60.5455 134.732 69.7095 134.813 70.0975L133.548 70.3619Z" fill="#50A5A0"/>
<path d="M125.099 126.044L108.593 122.87L113.671 104.777L120.655 104.459L125.099 126.044Z" fill="#262BC6"/>
<path d="M114.909 122.726L114.41 121.533L120.004 119.191L117.689 105.164L118.965 104.954L121.446 119.989L114.909 122.726Z" fill="#30354F"/>
<path d="M68.3384 212.056L67.2836 211.307L99.6915 165.729L99.2695 104.993L100.563 104.984L100.988 166.137L100.867 166.308L68.3384 212.056Z" fill="#30354F"/>
<path d="M135.869 105.067L130.812 225.37L132.104 225.425L137.161 105.121L135.869 105.067Z" fill="#30354F"/>
<path d="M81.5061 213.405L77.2281 218.48L63.3984 209.152L67.6807 203.248L81.5061 213.405Z" fill="#494E6D"/>
<path d="M134.127 218.202L117.198 218.484L116.689 225.886H133.371L134.127 218.202Z" fill="#494E6D"/>
<path d="M99.932 33.9804C99.932 33.9804 105.313 35.6848 112.19 34.0977C119.067 32.5106 121.078 26.1622 121.078 26.1622C121.078 26.1622 114.517 28.7015 108.804 28.5957C103.091 28.4899 99.3128 31.0064 99.932 33.9804Z" fill="#8E3332"/>
<path d="M111.978 39.7585C112.378 39.7585 112.701 39.4347 112.701 39.0354C112.701 38.636 112.378 38.3123 111.978 38.3123C111.579 38.3123 111.255 38.636 111.255 39.0354C111.255 39.4347 111.579 39.7585 111.978 39.7585Z" fill="#8E3332"/>
<path d="M117.085 38.5163C117.485 38.5163 117.809 38.1925 117.809 37.7932C117.809 37.3938 117.485 37.0701 117.085 37.0701C116.686 37.0701 116.362 37.3938 116.362 37.7932C116.362 38.1925 116.686 38.5163 117.085 38.5163Z" fill="#8E3332"/>
<path d="M116.092 44.0663C115.88 44.0659 115.67 44.0203 115.477 43.9326L115.86 43.0848C115.563 42.9008 115.326 42.6351 115.176 42.3195C115.026 42.004 114.971 41.652 115.016 41.3057L116.296 41.4926L115.656 41.3992L116.297 41.48C116.285 41.5885 116.307 41.6981 116.36 41.7936C116.412 41.8892 116.493 41.966 116.592 42.0135C117.298 42.3769 117.398 43.0038 117.192 43.4326C117.087 43.6312 116.928 43.796 116.733 43.9081C116.539 44.0202 116.316 44.0751 116.092 44.0663Z" fill="#8E3332"/>
<path d="M117.903 45.2427L114.411 45.7725C114.411 45.7725 114.993 48.0475 116.58 47.7829C118.168 47.5183 117.903 45.2427 117.903 45.2427Z" fill="white"/>
<path d="M110.117 37.943L108.937 37.4119C109.16 36.9011 109.516 36.4592 109.967 36.132C110.419 35.8047 110.949 35.604 111.504 35.5504L111.57 36.8421L111.537 36.1963L111.577 36.8417C111.259 36.8819 110.956 37.0047 110.7 37.1979C110.444 37.3911 110.243 37.648 110.117 37.943Z" fill="#8E3332"/>
<path d="M115.685 36.0188L114.936 34.9642C116.254 34.0293 117.963 34.4222 118.036 34.4393L117.739 35.6981C117.727 35.6946 116.518 35.4266 115.685 36.0188Z" fill="#8E3332"/>
<path d="M111.523 42.4303C110.897 42.4303 110.285 42.2448 109.765 41.8972C109.245 41.5496 108.839 41.0555 108.6 40.4774C108.36 39.8993 108.297 39.2632 108.42 38.6495C108.542 38.0358 108.843 37.4721 109.285 37.0296C109.728 36.5871 110.291 36.2858 110.905 36.1637C111.519 36.0416 112.155 36.1043 112.733 36.3437C113.311 36.5832 113.805 36.9887 114.153 37.5089C114.501 38.0292 114.686 38.6409 114.686 39.2666C114.685 40.1053 114.352 40.9095 113.759 41.5026C113.165 42.0957 112.361 42.4293 111.523 42.4303ZM111.523 36.7497C111.025 36.7497 110.538 36.8973 110.124 37.1739C109.71 37.4504 109.388 37.8435 109.197 38.3034C109.007 38.7633 108.957 39.2694 109.054 39.7576C109.151 40.2459 109.391 40.6943 109.743 41.0463C110.095 41.3983 110.543 41.638 111.032 41.7351C111.52 41.8322 112.026 41.7824 112.486 41.5919C112.946 41.4014 113.339 41.0788 113.615 40.6649C113.892 40.251 114.04 39.7644 114.04 39.2666C114.039 38.5994 113.773 37.9598 113.301 37.4881C112.829 37.0164 112.19 36.751 111.523 36.7502V36.7497Z" fill="#8E3332"/>
<path d="M118.038 40.9973C117.412 40.9973 116.801 40.8118 116.28 40.4642C115.76 40.1165 115.355 39.6224 115.115 39.0443C114.876 38.4663 114.813 37.8301 114.935 37.2164C115.057 36.6027 115.359 36.039 115.801 35.5966C116.243 35.1541 116.807 34.8528 117.421 34.7307C118.035 34.6087 118.671 34.6713 119.249 34.9108C119.827 35.1502 120.321 35.5557 120.669 36.076C121.016 36.5963 121.202 37.2079 121.202 37.8336C121.201 38.6724 120.867 39.4766 120.274 40.0697C119.681 40.6628 118.877 40.9964 118.038 40.9973ZM118.038 35.3167C117.54 35.3167 117.054 35.4644 116.64 35.7409C116.226 36.0175 115.903 36.4106 115.713 36.8705C115.522 37.3304 115.472 37.8364 115.57 38.3247C115.667 38.8129 115.906 39.2614 116.258 39.6134C116.61 39.9653 117.059 40.2051 117.547 40.3022C118.035 40.3993 118.541 40.3494 119.001 40.1589C119.461 39.9684 119.854 39.6458 120.131 39.2319C120.407 38.818 120.555 38.3314 120.555 37.8336C120.554 37.1664 120.289 36.5266 119.817 36.0548C119.345 35.583 118.705 35.3175 118.038 35.3167Z" fill="#8E3332"/>
<path d="M115.275 38.1249L114.288 38.4076L114.466 39.0298L115.453 38.747L115.275 38.1249Z" fill="#8E3332"/>
<path d="M147.466 73.5742C147.466 73.5742 148.182 71.2251 149.735 69.9547C151.288 68.6842 152.491 68.0226 153.326 65.8255C154.161 63.6285 156.428 64.9302 155.618 66.803C154.807 68.6757 153.093 71.4561 155.679 71.6907C158.265 71.9252 162.925 67.1894 164.032 71.1785C164.032 71.1785 166.637 69.586 167.211 70.813C167.785 72.04 165.434 73.4977 165.434 73.4977C165.434 73.4977 168.737 75.0697 162.096 77.6985C162.096 77.6985 163.09 79.12 161.872 79.7981C159.923 80.8826 154.948 81.3294 151.051 80.5417C144.717 79.2613 147.466 73.5742 147.466 73.5742Z" fill="#FD8B66"/>
<path d="M156.552 74.3863L156.394 73.7593C162.456 72.2357 163.788 70.9637 163.8 70.951L164.265 71.4007C164.212 71.457 162.876 72.7972 156.552 74.3863Z" fill="#E56542"/>
<path d="M157.516 76.6086L157.414 75.9701C160.729 75.437 165.247 73.2296 165.292 73.2075L165.578 73.7879C165.39 73.8805 160.927 76.0604 157.516 76.6086Z" fill="#E56542"/>
<path d="M157.523 78.8275L157.426 78.1883C159.448 77.8822 162.009 77.3861 162.034 77.3811L162.158 78.0159C162.132 78.0209 159.559 78.5198 157.523 78.8275Z" fill="#E56542"/>
<path d="M104.95 44.3924C106.833 44.3924 108.359 42.8659 108.359 40.9828C108.359 39.0998 106.833 37.5733 104.95 37.5733C103.067 37.5733 101.54 39.0998 101.54 40.9828C101.54 42.8659 103.067 44.3924 104.95 44.3924Z" fill="#FB855F"/>
<path d="M224.031 21.8995H184.601C181.099 21.8995 178.261 24.7378 178.261 28.2389V51.7182C178.261 55.2194 181.099 58.0576 184.601 58.0576H224.031C227.532 58.0576 230.37 55.2194 230.37 51.7182V28.2389C230.37 24.7378 227.532 21.8995 224.031 21.8995Z" fill="#246BFD"/>
<path d="M209.826 35.8348H198.425C197.373 35.8348 196.52 36.6879 196.52 37.7402V47.5755C196.52 48.6279 197.373 49.481 198.425 49.481H209.826C210.878 49.481 211.731 48.6279 211.731 47.5755V37.7402C211.731 36.6879 210.878 35.8348 209.826 35.8348Z" stroke="#251138" stroke-width="0.529872" stroke-miterlimit="10"/>
<path d="M202.634 31.1794H206.308C206.811 31.1794 207.293 31.3792 207.649 31.7349C208.005 32.0905 208.205 32.5729 208.205 33.0759V35.3684H200.737V33.0766C200.737 32.5736 200.937 32.0912 201.293 31.7356C201.648 31.3799 202.131 31.1801 202.634 31.1801L202.634 31.1794Z" stroke="#251138" stroke-width="0.529872" stroke-miterlimit="10"/>
<path d="M230.604 136.451H182.48C178.979 136.451 176.141 139.289 176.141 142.79V148.476C176.141 151.977 178.979 154.816 182.48 154.816H230.604C234.105 154.816 236.943 151.977 236.943 148.476V142.79C236.943 139.289 234.105 136.451 230.604 136.451Z" fill="#262BC6"/>
</svg>
