<svg width="283" height="288" viewBox="0 0 283 288" fill="none" xmlns="http://www.w3.org/2000/svg">
<path d="M251.974 230.313C257.293 230.313 261.604 225.987 261.604 220.651C261.604 215.315 257.293 210.989 251.974 210.989C246.656 210.989 242.344 215.315 242.344 220.651C242.344 225.987 246.656 230.313 251.974 230.313Z" fill="#C7C7E3"/>
<path d="M224.289 273.273C224.581 268.784 225.405 264.345 226.745 260.052C227.086 258.968 227.461 257.884 227.882 256.824C228.303 255.763 228.78 254.713 229.303 253.675C230.361 251.556 231.659 249.566 233.169 247.743L234.306 246.477C234.647 246.089 234.965 245.69 235.284 245.336C235.895 244.557 236.453 243.738 236.955 242.884C237.412 242.077 237.792 241.229 238.092 240.351C238.391 239.499 238.608 238.621 238.74 237.728C238.957 235.775 238.957 233.805 238.74 231.853C238.581 229.697 238.41 227.29 238.456 224.906C238.478 222.423 238.737 219.947 239.229 217.514C239.725 215.094 240.488 212.737 241.503 210.487C241.753 209.928 242.026 209.403 242.299 208.867C242.572 208.331 242.879 207.806 243.163 207.27C243.8 206.22 244.448 205.182 245.187 204.178C245.916 203.183 246.701 202.231 247.54 201.327C248.347 200.437 249.166 199.627 249.814 198.92C250.443 198.3 251.028 197.637 251.565 196.935C252.137 196.235 252.636 195.478 253.054 194.676C253.27 194.277 253.452 193.832 253.657 193.387C253.862 192.942 254.021 192.486 254.191 192.007L254.453 191.288L254.703 190.558L255.181 189.052C255.806 187.033 256.318 184.923 256.966 182.79C257.614 180.656 258.103 178.5 258.842 176.333H259.728C260.189 178.558 260.516 180.81 260.706 183.075C260.928 185.349 261.008 187.635 260.945 189.919C260.945 190.501 260.945 191.06 260.865 191.676L260.797 192.566L260.695 193.467C260.556 194.706 260.328 195.934 260.013 197.14C259.657 198.446 259.178 199.714 258.58 200.927C257.957 202.095 257.25 203.216 256.465 204.281C254.987 206.22 253.873 207.703 252.838 209.3C252.327 210.11 251.838 210.943 251.349 211.799C250.86 212.654 250.394 213.555 249.939 214.422C249.019 216.137 248.199 217.905 247.483 219.715C246.771 221.522 246.271 223.405 245.994 225.328C245.744 227.41 245.611 229.505 245.596 231.602C245.596 234.052 245.317 236.493 244.766 238.88C244.098 241.368 242.938 243.695 241.355 245.724C240.608 246.685 239.799 247.596 238.933 248.451C238.513 248.873 238.081 249.272 237.649 249.671L237 250.241L236.443 250.732C233.461 253.673 231.065 257.157 229.383 260.999C228.469 262.959 227.668 264.97 226.984 267.022C226.275 269.083 225.679 271.181 225.199 273.307L224.289 273.273Z" fill="#246BFD"/>
<path d="M220.628 273.524C220.281 272.949 219.999 272.337 219.787 271.699C219.684 271.379 219.571 271.071 219.48 270.752L219.23 269.805C218.943 268.524 218.753 267.224 218.661 265.915C218.661 265.265 218.57 264.615 218.582 263.964V263.006C218.582 262.675 218.582 262.356 218.582 262.025L218.707 260.074C218.763 259.424 218.854 258.785 218.923 258.135C218.923 257.804 219.002 257.485 219.048 257.166L219.218 256.207L219.559 254.28L220.003 252.386C220.162 251.758 220.276 251.108 220.469 250.492L221.015 248.621C221.197 247.994 221.356 247.367 221.583 246.762L222.822 243.1C224.536 238.597 225.608 233.873 226.006 229.069C226.174 226.786 226.094 224.491 225.767 222.225C225.383 219.863 224.852 217.527 224.175 215.232L223.675 213.35L223.198 211.388L222.777 209.312C222.675 208.593 222.561 207.863 222.481 207.144C222.402 206.426 222.356 205.695 222.345 204.965V203.825V203.277V202.729C222.345 201.999 222.413 201.269 222.515 200.539C222.515 200.186 222.584 199.821 222.641 199.399L222.822 198.326C223.33 195.636 224.091 193.001 225.096 190.455C225.54 189.314 225.949 188.174 226.29 187.204C226.358 186.964 226.461 186.713 226.518 186.474C226.574 186.234 226.643 186.018 226.722 185.79L226.87 185.139V184.98L226.927 184.683L227.041 184.09C227.12 183.702 227.223 183.326 227.313 182.949C227.37 182.767 227.416 182.573 227.473 182.402L227.62 181.9L227.78 181.398L227.927 180.953L228.2 180.12C228.542 179.135 228.805 178.124 228.985 177.097C229.349 174.807 229.532 172.492 229.531 170.173C229.531 168.952 229.531 167.709 229.531 166.465V162.735C229.531 161.458 229.531 160.191 229.531 158.902C229.531 157.613 229.531 156.324 229.633 155.024L230.508 154.83C231.658 157.162 232.675 159.558 233.555 162.005C233.999 163.226 234.385 164.469 234.772 165.713C234.965 166.34 235.124 166.979 235.306 167.606C235.488 168.234 235.659 168.872 235.784 169.534L236.205 171.485L236.534 173.504C236.625 174.188 236.705 174.884 236.762 175.58C236.819 176.276 236.853 177.006 236.841 177.747C236.839 179.24 236.699 180.73 236.421 182.196L236.318 182.721L236.227 183.2L236.125 183.668L236.045 184.09L235.977 184.512C235.977 184.649 235.977 184.763 235.977 184.888C235.934 185.126 235.908 185.366 235.898 185.607V185.961L235.841 186.44C235.784 186.85 235.738 187.261 235.682 187.66L235.443 188.801C235.352 189.189 235.25 189.531 235.159 189.942C234.761 191.368 234.294 192.668 233.84 193.855C233.385 195.041 232.919 196.136 232.521 197.277C232.305 197.824 232.134 198.338 231.941 198.862C231.748 199.387 231.577 199.912 231.441 200.437C230.813 202.495 230.462 204.628 230.395 206.779C230.395 207.315 230.395 207.851 230.395 208.388C230.395 208.924 230.486 209.528 230.542 210.064C230.599 210.601 230.702 211.205 230.804 211.821L231.134 213.646C231.676 216.259 232.056 218.903 232.271 221.563C232.446 224.314 232.324 227.075 231.907 229.799C230.967 235.041 229.29 240.122 226.927 244.891L225.358 248.313C225.085 248.872 224.869 249.454 224.63 250.013L223.925 251.724C223.675 252.295 223.505 252.865 223.289 253.458L222.675 255.203L222.152 256.972L221.89 257.861C221.811 258.158 221.742 258.455 221.663 258.751L221.242 260.554L220.912 262.367C220.712 263.576 220.579 264.794 220.514 266.018C220.442 267.242 220.461 268.47 220.571 269.691L220.685 270.603C220.685 270.9 220.799 271.197 220.844 271.493C220.89 271.79 220.992 272.086 221.06 272.383C221.128 272.68 221.253 272.965 221.344 273.204L220.628 273.524Z" fill="#246BFD"/>
<path d="M221.515 273.204C222.014 268.138 221.63 263.023 220.378 258.09C220.06 256.88 219.696 255.683 219.241 254.519C218.815 253.351 218.321 252.208 217.763 251.097C216.676 248.921 215.311 246.897 213.704 245.074L213.113 244.401L212.487 243.762L211.134 242.393L209.713 240.956L208.349 239.427C206.408 237.281 204.813 234.845 203.619 232.206L203.198 231.134L203.096 230.86L203.028 230.575L202.869 230.016C202.766 229.64 202.664 229.252 202.584 228.875L202.403 227.735L202.312 227.164C202.312 226.97 202.312 226.788 202.312 226.594L202.243 225.453C202.243 225.065 202.243 224.723 202.243 224.312V223.229C202.346 220.411 202.619 217.89 202.721 215.392C202.837 212.965 202.78 210.533 202.55 208.114C202.256 205.816 201.746 203.551 201.027 201.349C200.322 199.148 199.424 196.957 198.469 194.596C197.41 192.054 196.536 189.439 195.854 186.771L195.615 185.698L195.433 184.558C195.365 184.181 195.308 183.816 195.251 183.417C195.194 183.018 195.171 182.664 195.149 182.276C195.126 181.888 195.08 181.523 195.069 181.135V178.854L195.149 177.804C195.359 175.056 195.788 172.328 196.433 169.648C197.063 167.031 197.853 164.456 198.798 161.937C199.276 160.682 199.765 159.45 200.322 158.229C200.879 157.009 201.459 155.811 202.141 154.636L203.005 154.876C202.903 160.18 202.664 165.348 202.71 170.39C202.71 172.911 202.823 175.386 203.039 177.782L203.13 178.671L203.255 179.481L203.369 180.28C203.369 180.554 203.494 180.816 203.551 181.078C203.608 181.341 203.665 181.614 203.721 181.877C203.778 182.139 203.881 182.402 203.949 182.664L204.176 183.451L204.46 184.25C205.188 186.383 206.177 188.607 207.132 191.094C208.179 193.68 209.001 196.351 209.588 199.079C210.17 201.905 210.46 204.783 210.452 207.669C210.452 210.566 210.157 213.259 209.85 215.951C209.543 218.643 209.054 221.244 208.781 223.616C208.463 225.754 208.622 227.936 209.247 230.005C210.006 232.184 211.099 234.232 212.487 236.073L213.624 237.556L214.761 239.016L216.012 240.545C216.228 240.819 216.455 241.081 216.66 241.355L217.285 242.199C220.432 246.721 222.448 251.937 223.164 257.405C223.529 260.05 223.647 262.723 223.516 265.39C223.399 268.042 223.018 270.675 222.379 273.25L221.515 273.204Z" fill="#246BFD"/>
<path d="M222.129 273.273C222.357 269.104 222.923 264.961 223.823 260.885C224.704 256.802 225.789 252.766 227.075 248.793C228.394 244.812 229.917 240.899 231.475 237.077C232.271 235.184 233.055 233.313 233.749 231.511C234.363 229.827 234.779 228.078 234.988 226.297V225.67C234.999 225.457 234.999 225.244 234.988 225.031V223.754C234.988 223.32 234.886 222.887 234.84 222.453C234.794 222.008 234.722 221.566 234.624 221.13C234.533 220.685 234.465 220.263 234.34 219.807L233.976 218.461C233.976 218.232 233.862 218.004 233.794 217.776L233.578 217.092L233.146 215.734L232.237 212.962L232.123 212.609L231.998 212.186C231.918 211.89 231.827 211.593 231.759 211.308C231.588 210.72 231.451 210.122 231.35 209.517C230.911 207.112 230.845 204.653 231.156 202.228C231.316 201.032 231.548 199.848 231.85 198.68C232.021 198.11 232.202 197.539 232.384 196.969C232.566 196.399 232.771 195.828 233.01 195.326C233.908 193.202 235.053 191.192 236.421 189.337C237.76 187.553 239.284 185.916 240.968 184.455C241.799 183.742 242.668 183.076 243.572 182.459C244.484 181.846 245.442 181.304 246.437 180.839L247.017 181.523C245.017 184.982 243.327 188.612 241.969 192.372C240.748 195.741 240.106 199.293 240.07 202.878C240.078 204.546 240.23 206.21 240.525 207.852C240.605 208.262 240.65 208.684 240.764 209.084L240.9 209.7L240.968 210.019L241.059 210.418C241.298 211.468 241.548 212.517 241.742 213.59C242.149 215.805 242.404 218.046 242.503 220.297C242.583 221.438 242.503 222.658 242.503 223.833L242.321 225.636C242.298 225.935 242.253 226.233 242.185 226.526L242.026 227.427C241.527 229.702 240.764 231.912 239.752 234.009C238.808 236.005 237.819 237.83 236.841 239.644C234.852 243.237 232.953 246.785 231.236 250.447C229.519 254.109 227.916 257.85 226.518 261.66C225.824 263.577 225.153 265.505 224.573 267.455C223.994 269.406 223.436 271.379 223.016 273.353L222.129 273.273Z" fill="#262BC6"/>
<path d="M225.915 273.273C225.911 271.029 225.793 268.786 225.563 266.554C225.347 264.272 225.085 262.094 224.699 259.892C223.974 255.503 222.932 251.172 221.583 246.933C221.276 245.872 220.901 244.834 220.526 243.796L219.98 242.245L219.366 240.716C218.945 239.69 218.559 238.663 218.081 237.682L216.672 234.659L215.228 231.442L213.92 228.134C213.522 226.993 213.17 225.852 212.783 224.712L212.317 222.943L212.09 222.054L211.976 221.609L211.885 221.152C211.669 219.932 211.396 218.723 211.271 217.491C211.203 216.863 211.089 216.247 211.044 215.631L210.918 213.761C210.776 211.337 210.776 208.906 210.918 206.483L210.975 205.604L211.044 204.749L211.203 203.026C211.305 201.885 211.441 200.745 211.567 199.707L211.964 196.455L212.181 194.847L212.362 193.239C212.885 188.927 213.34 184.615 213.499 180.36C213.562 178.274 213.452 176.187 213.17 174.12C213.067 173.629 212.999 173.093 212.863 172.625C212.794 172.386 212.738 172.123 212.658 171.895C212.578 171.667 212.487 171.428 212.408 171.188C212.328 170.949 212.192 170.755 212.09 170.515C211.987 170.275 211.851 170.104 211.726 169.876C211.583 169.676 211.427 169.486 211.26 169.306L211.135 169.169L210.998 169.055C210.958 169.01 210.912 168.972 210.862 168.941C210.819 168.912 210.781 168.878 210.748 168.838L210.839 167.948C212.219 168.023 213.524 168.599 214.511 169.568C214.75 169.796 214.989 170.025 215.216 170.264C215.444 170.504 215.637 170.755 215.853 171.017C216.269 171.518 216.649 172.048 216.99 172.603C218.234 174.775 219.175 177.109 219.787 179.538C220.071 180.679 220.378 181.922 220.549 183.109C220.64 183.702 220.742 184.25 220.833 184.9C220.924 185.55 220.958 186.041 221.026 186.679C221.094 187.318 221.14 187.82 221.197 188.47C221.254 189.12 221.197 189.611 221.288 190.25C221.288 191.391 221.379 192.623 221.356 193.809V195.589C221.356 196.17 221.288 196.729 221.254 197.357C221.185 198.497 221.06 199.638 220.912 200.859C220.765 202.079 220.583 203.14 220.401 204.281L219.81 207.566C219.39 209.636 219.078 211.726 218.877 213.829L218.786 215.357C218.786 215.871 218.786 216.384 218.786 216.898C218.798 217.923 218.867 218.948 218.991 219.966V220.354L219.059 220.742L219.184 221.506L219.434 223.057C219.684 224.084 219.901 225.122 220.162 226.16L221.083 229.263L222.152 232.366L223.289 235.674C223.687 236.815 223.982 237.956 224.301 239.028L224.778 240.716L225.187 242.427C225.449 243.568 225.733 244.709 225.926 245.85C226.799 250.38 227.319 254.972 227.484 259.584C227.684 264.181 227.455 268.787 226.802 273.341L225.915 273.273Z" fill="#262BC6"/>
<path d="M224.733 273.273C224.733 273.273 226.654 257.097 235.466 248.565C248.245 236.176 237.16 229.651 245.971 211.958C253.407 197.049 257.773 205.114 259.262 176.322" stroke="white" stroke-width="0.376145" stroke-miterlimit="10"/>
<path d="M221.015 273.273C221.015 273.273 216.046 264.797 224.733 244.355C233.419 223.913 227.007 216.692 226.472 206.973C225.938 197.254 230.702 191.528 231.441 185.55C232.18 179.573 235.42 179.322 230.201 154.898" stroke="white" stroke-width="0.376145" stroke-miterlimit="10"/>
<path d="M221.947 273.273C221.947 273.273 225.938 254.576 213.761 241.617C201.584 228.659 206.302 225.419 206.552 210.715C206.803 196.011 199.344 189.953 199.094 178.9C198.844 167.846 202.573 154.944 202.573 154.944" stroke="white" stroke-width="0.376145" stroke-miterlimit="10"/>
<path d="M222.572 273.273C222.572 273.273 223.709 262.128 230.531 246.158C237.353 230.187 241.457 228.259 236.489 211.228C231.52 194.197 246.722 181.135 246.722 181.135" stroke="white" stroke-width="0.376145" stroke-miterlimit="10"/>
<path d="M226.358 273.273C227.131 259.795 224.796 246.32 219.537 233.895C210.839 213.453 216.797 208.126 217.047 188.607C217.297 169.089 210.771 168.348 210.771 168.348" stroke="white" stroke-width="0.376145" stroke-miterlimit="10"/>
<path d="M236.102 286.255H213.17L206.302 249.717H242.958L236.102 286.255Z" fill="#C7C7E3"/>
<path d="M242.958 248.188H206.302V252.112H242.958V248.188Z" fill="#B0B0D6"/>
<path d="M215.853 47.0985H214.477C213.316 47.0985 212.374 48.0433 212.374 49.2089V79.8948C212.374 81.0603 213.316 82.0051 214.477 82.0051H215.853C217.015 82.0051 217.956 81.0603 217.956 79.8948V49.2089C217.956 48.0433 217.015 47.0985 215.853 47.0985Z" fill="#5E2C81"/>
<path d="M215.853 86.6251H214.477C213.316 86.6251 212.374 87.57 212.374 88.7355V105.47C212.374 106.636 213.316 107.58 214.477 107.58H215.853C217.015 107.58 217.956 106.636 217.956 105.47V88.7355C217.956 87.57 217.015 86.6251 215.853 86.6251Z" fill="#5E2C81"/>
<path d="M209.452 22.0251H84.2148C81.0626 22.0251 78.5072 24.589 78.5072 27.7516V280.46C78.5072 283.622 81.0626 286.186 84.2148 286.186H209.452C212.604 286.186 215.159 283.622 215.159 280.46V27.7516C215.159 24.589 212.604 22.0251 209.452 22.0251Z" fill="white" stroke="url(#paint0_linear_13_792)" stroke-width="2.7356" stroke-miterlimit="10"/>
<path d="M105.942 22.4244H187.724V25.4474C187.724 27.8677 186.766 30.189 185.06 31.9004C183.355 33.6118 181.041 34.5733 178.629 34.5733H115.083C112.671 34.5733 110.358 33.6118 108.652 31.9004C106.946 30.189 105.988 27.8677 105.988 25.4474V22.4244H105.942Z" fill="url(#paint1_linear_13_792)"/>
<path d="M146.839 29.6796C148.139 29.6796 149.192 28.6223 149.192 27.3182C149.192 26.0141 148.139 24.9569 146.839 24.9569C145.539 24.9569 144.485 26.0141 144.485 27.3182C144.485 28.6223 145.539 29.6796 146.839 29.6796Z" fill="white"/>
<path d="M198.685 61.6772H94.9933C90.2901 61.6772 86.4774 65.5026 86.4774 70.2214V201.817C86.4774 206.536 90.2901 210.361 94.9933 210.361H198.685C203.388 210.361 207.201 206.536 207.201 201.817V70.2214C207.201 65.5026 203.388 61.6772 198.685 61.6772Z" fill="white" stroke="#B0B0D6" stroke-width="1.42479" stroke-miterlimit="10"/>
<path d="M146.839 249.226C154.054 249.226 159.903 243.358 159.903 236.119C159.903 228.88 154.054 223.012 146.839 223.012C139.624 223.012 133.775 228.88 133.775 236.119C133.775 243.358 139.624 249.226 146.839 249.226Z" fill="#246BFD"/>
<path d="M154.75 231.249L151.687 228.176L138.912 240.993L141.975 244.066L154.75 231.249Z" fill="white"/>
<path d="M141.985 228.171L138.922 231.244L151.697 244.061L154.76 240.988L141.985 228.171Z" fill="white"/>
<path d="M272.735 10.1729H205.916C200.993 10.1729 197.002 14.177 197.002 19.1163V93.116C197.002 98.0553 200.993 102.059 205.916 102.059H272.735C277.658 102.059 281.649 98.0553 281.649 93.116V19.1163C281.649 14.177 277.658 10.1729 272.735 10.1729Z" fill="white" stroke="#C7C7E3" stroke-width="0.843476" stroke-miterlimit="10"/>
<path d="M215.239 39.0793C220.363 39.0793 224.517 34.9117 224.517 29.7708C224.517 24.6299 220.363 20.4624 215.239 20.4624C210.115 20.4624 205.961 24.6299 205.961 29.7708C205.961 34.9117 210.115 39.0793 215.239 39.0793Z" fill="white"/>
<path d="M215.239 39.0793C220.363 39.0793 224.517 34.9117 224.517 29.7708C224.517 24.6299 220.363 20.4624 215.239 20.4624C210.115 20.4624 205.961 24.6299 205.961 29.7708C205.961 34.9117 210.115 39.0793 215.239 39.0793Z" stroke="#246BFD" stroke-width="1.03725" stroke-miterlimit="10"/>
<path d="M210.066 29.2118L214.591 34.6075L220.207 25.7896" fill="white"/>
<path d="M210.066 29.2118L214.591 34.6075L220.207 25.7896" stroke="#246BFD" stroke-width="2.86098" stroke-miterlimit="10" stroke-linecap="round"/>
<path d="M215.239 65.1222C220.363 65.1222 224.517 60.9547 224.517 55.8138C224.517 50.6729 220.363 46.5054 215.239 46.5054C210.115 46.5054 205.961 50.6729 205.961 55.8138C205.961 60.9547 210.115 65.1222 215.239 65.1222Z" fill="white"/>
<path d="M215.239 65.1222C220.363 65.1222 224.517 60.9547 224.517 55.8138C224.517 50.6729 220.363 46.5054 215.239 46.5054C210.115 46.5054 205.961 50.6729 205.961 55.8138C205.961 60.9547 210.115 65.1222 215.239 65.1222Z" stroke="#246BFD" stroke-width="1.03725" stroke-miterlimit="10"/>
<path d="M210.066 55.2551L214.591 60.6508L220.207 51.8329" fill="white"/>
<path d="M210.066 55.2551L214.591 60.6508L220.207 51.8329" stroke="#246BFD" stroke-width="2.86098" stroke-miterlimit="10" stroke-linecap="round"/>
<path d="M215.239 91.1655C220.363 91.1655 224.517 86.9979 224.517 81.857C224.517 76.7161 220.363 72.5486 215.239 72.5486C210.115 72.5486 205.961 76.7161 205.961 81.857C205.961 86.9979 210.115 91.1655 215.239 91.1655Z" fill="white"/>
<path d="M215.239 91.1655C220.363 91.1655 224.517 86.9979 224.517 81.857C224.517 76.7161 220.363 72.5486 215.239 72.5486C210.115 72.5486 205.961 76.7161 205.961 81.857C205.961 86.9979 210.115 91.1655 215.239 91.1655Z" stroke="#246BFD" stroke-width="1.03725" stroke-miterlimit="10"/>
<path d="M210.066 81.2978L214.591 86.705L220.207 77.8756" fill="white"/>
<path d="M210.066 81.2978L214.591 86.705L220.207 77.8756" stroke="#246BFD" stroke-width="2.86098" stroke-miterlimit="10" stroke-linecap="round"/>
<path d="M271.235 28.071H232.714C231.54 28.071 230.588 29.0261 230.588 30.2043C230.588 31.3824 231.54 32.3374 232.714 32.3374H271.235C272.409 32.3374 273.361 31.3824 273.361 30.2043C273.361 29.0261 272.409 28.071 271.235 28.071Z" fill="#EEEDFF"/>
<path d="M271.235 53.6807H232.714C231.54 53.6807 230.588 54.6357 230.588 55.8138C230.588 56.992 231.54 57.947 232.714 57.947H271.235C272.409 57.947 273.361 56.992 273.361 55.8138C273.361 54.6357 272.409 53.6807 271.235 53.6807Z" fill="#EEEDFF"/>
<path d="M271.235 79.3016H232.714C231.54 79.3016 230.588 80.2567 230.588 81.4348C230.588 82.6129 231.54 83.568 232.714 83.568H271.235C272.409 83.568 273.361 82.6129 273.361 81.4348C273.361 80.2567 272.409 79.3016 271.235 79.3016Z" fill="#EEEDFF"/>
<path d="M88.501 38.1326H7.23058C3.78953 38.1326 1 40.9314 1 44.3838V170.778C1 174.23 3.78953 177.029 7.23058 177.029H88.501C91.9421 177.029 94.7316 174.23 94.7316 170.778V44.3838C94.7316 40.9314 91.9421 38.1326 88.501 38.1326Z" fill="white" stroke="#B0B0D6" stroke-width="0.980256" stroke-miterlimit="10"/>
<path d="M64.6675 65.1966C67.3108 63.6043 68.1671 60.1636 66.5801 57.5115C64.9931 54.8594 61.5637 54.0003 58.9204 55.5925L40.3899 66.7549C37.7466 68.3472 36.8903 71.7879 38.4773 74.44C40.0643 77.0921 43.4937 77.9512 46.137 76.3589L64.6675 65.1966Z" fill="white" stroke="#B0B0D6" stroke-width="0.957459" stroke-miterlimit="10"/>
<path d="M49.6613 61.165L55.4083 70.7691L46.148 76.3473C44.8786 77.112 43.3585 77.3393 41.922 76.9795C40.4856 76.6196 39.2504 75.7019 38.4883 74.4284C37.7262 73.1548 37.4996 71.6296 37.8582 70.1884C38.2169 68.7471 39.1315 67.5079 40.4009 66.7433L49.6613 61.165Z" fill="#246BFD"/>
<path d="M53.1713 59.8416C55.3514 57.6542 55.3514 54.1078 53.1713 51.9205C50.9912 49.7332 47.4565 49.7332 45.2764 51.9205L29.9932 67.2545C27.8131 69.4418 27.8131 72.9882 29.9932 75.1755C32.1733 77.3628 35.7079 77.3629 37.888 75.1755L53.1713 59.8416Z" fill="white" stroke="#B0B0D6" stroke-width="0.957459" stroke-miterlimit="10"/>
<path d="M37.6661 59.5696L45.561 67.4906L37.9234 75.1536C36.8765 76.204 35.4565 76.7941 33.9759 76.7941C32.4954 76.7941 31.0755 76.2039 30.0286 75.1536C28.9872 74.1088 28.3994 72.6934 28.3934 71.2158C28.3873 69.7382 28.9635 68.3181 29.9964 67.2648L37.6661 59.5696Z" fill="#262BC6"/>
<path d="M65.8641 92.9106H29.8564C28.6759 92.9106 27.7189 93.8708 27.7189 95.0552C27.7189 96.2397 28.6759 97.1998 29.8564 97.1998H65.8641C67.0447 97.1998 68.0016 96.2397 68.0016 95.0552C68.0016 93.8708 67.0447 92.9106 65.8641 92.9106Z" fill="#262BC6"/>
<path d="M72.3106 103.075H23.3982C22.2177 103.075 21.2607 104.035 21.2607 105.219C21.2607 106.404 22.2177 107.364 23.3982 107.364H72.3106C73.4911 107.364 74.4481 106.404 74.4481 105.219C74.4481 104.035 73.4911 103.075 72.3106 103.075Z" fill="#262BC6"/>
<path d="M83.2824 129.791H38.0879C36.9074 129.791 35.9504 130.751 35.9504 131.935C35.9504 133.12 36.9074 134.08 38.0879 134.08H83.2824C84.4629 134.08 85.4199 133.12 85.4199 131.935C85.4199 130.751 84.4629 129.791 83.2824 129.791Z" fill="#EEEDFF"/>
<path d="M83.2824 155.195H38.0879C36.9074 155.195 35.9504 156.155 35.9504 157.34C35.9504 158.524 36.9074 159.484 38.0879 159.484H83.2824C84.4629 159.484 85.4199 158.524 85.4199 157.34C85.4199 156.155 84.4629 155.195 83.2824 155.195Z" fill="#EEEDFF"/>
<path d="M19.7714 140.639C24.5625 140.639 28.4464 136.742 28.4464 131.935C28.4464 127.128 24.5625 123.232 19.7714 123.232C14.9803 123.232 11.0963 127.128 11.0963 131.935C11.0963 136.742 14.9803 140.639 19.7714 140.639Z" fill="#262BC6"/>
<path d="M14.2911 130.977L18.9413 136.396L24.9104 128.274" stroke="white" stroke-width="2.38225" stroke-miterlimit="10" stroke-linecap="round"/>
<path d="M19.7714 166.043C24.5625 166.043 28.4464 162.147 28.4464 157.34C28.4464 152.533 24.5625 148.636 19.7714 148.636C14.9803 148.636 11.0963 152.533 11.0963 157.34C11.0963 162.147 14.9803 166.043 19.7714 166.043Z" fill="#246BFD"/>
<path d="M14.2911 156.381L18.9413 161.8L24.9104 153.678" stroke="white" stroke-width="2.38225" stroke-miterlimit="10" stroke-linecap="round"/>
<path d="M66.2279 118.532L59.3378 115.315C59.3378 115.315 55.2106 113.284 61.2479 119.547C61.2479 119.547 52.8571 117.665 52.5843 119.17C52.3114 120.676 54.5057 127.555 66.6485 125.695C66.6485 125.695 69.3204 121.395 66.2279 118.532Z" fill="#FDBDA1"/>
<path d="M66.0345 118.543L66.6371 125.695C86.8752 128.65 108.341 129.323 118.676 126.346C119.598 126.115 120.463 125.697 121.216 125.117C121.97 124.537 122.597 123.807 123.057 122.974C123.518 122.14 123.803 121.221 123.894 120.272C123.986 119.323 123.881 118.366 123.588 117.459C123.059 115.973 122.034 114.717 120.687 113.902C119.34 113.087 117.754 112.764 116.198 112.988C102.145 115.087 82.7593 117.288 66.0345 118.543Z" fill="#E5E5E5"/>
<path d="M141.45 81.5374C137.357 79.7692 133.013 80.967 128.443 85.0395L107.648 117.722C106.86 118.967 106.574 120.467 106.849 121.916C107.124 123.365 107.938 124.655 109.126 125.524C112.673 128.102 116.789 127.806 121.462 124.657C123.723 123.096 125.709 121.169 127.34 118.954C136.959 106.405 143.758 95.4658 144.917 87.9826C145.122 86.6756 144.893 85.3374 144.267 84.1732C143.641 83.009 142.651 82.083 141.45 81.5374Z" fill="#E5E5E5"/>
<path d="M153.206 142.008L147.521 208.308C147.293 210.959 146.084 213.427 144.13 215.227C142.177 217.026 139.622 218.025 136.97 218.027C134.317 218.028 131.761 217.03 129.807 215.23C127.853 213.43 126.644 210.96 126.419 208.308L120.734 142.008H153.206Z" fill="#5E2C81"/>
<path d="M131.592 280.425H143.178L147.726 208.878C147.814 207.414 147.603 205.946 147.105 204.567C146.608 203.187 145.834 201.924 144.832 200.856C143.83 199.788 142.62 198.936 141.278 198.354C139.936 197.772 138.489 197.471 137.027 197.471C135.554 197.47 134.097 197.774 132.747 198.364C131.397 198.954 130.183 199.817 129.181 200.9C128.179 201.983 127.41 203.261 126.923 204.656C126.436 206.05 126.241 207.53 126.351 209.004L131.592 280.425Z" fill="#5E2C81"/>
<path d="M180.061 142.008L174.376 208.308C174.147 210.955 172.936 213.42 170.984 215.216C169.032 217.012 166.479 218.008 163.831 218.008C161.182 218.008 158.63 217.012 156.678 215.216C154.725 213.42 153.515 210.955 153.286 208.308L152.387 197.779L150.273 173.036L147.623 142.008H180.061Z" fill="#5E2C81"/>
<path d="M165.769 280.425H177.355L174.717 208.878C174.806 207.414 174.595 205.946 174.097 204.567C173.599 203.187 172.826 201.924 171.824 200.856C170.821 199.788 169.612 198.936 168.27 198.354C166.928 197.772 165.481 197.471 164.018 197.471C162.546 197.471 161.09 197.777 159.741 198.367C158.392 198.958 157.178 199.821 156.176 200.904C155.174 201.986 154.406 203.264 153.918 204.657C153.431 206.051 153.235 207.531 153.342 209.004L165.769 280.425Z" fill="#5E2C81"/>
<path d="M164.064 170.492L158.231 175.386C158.231 175.386 154.638 178.283 162.859 175.454C162.859 175.454 157.595 182.299 158.845 183.166C160.096 184.033 167.225 184.98 170.704 173.15C170.704 173.15 167.952 168.895 164.064 170.492Z" fill="#FDBDA1"/>
<path d="M169.817 160.499L167.043 210.475L173.205 277.71" stroke="white" stroke-width="0.47873" stroke-miterlimit="10" stroke-linecap="round" stroke-dasharray="0.96 0.96"/>
<path d="M156.833 287.566C156.906 287.698 157.013 287.808 157.143 287.884C157.273 287.961 157.421 288 157.572 288H177.355V280.391H165.769C160.88 281.247 158.948 283.391 156.912 286.62L156.844 286.722C156.764 286.848 156.72 286.993 156.718 287.143C156.716 287.292 156.756 287.439 156.833 287.566Z" fill="#246BFD"/>
<path d="M122.656 287.566C122.727 287.7 122.834 287.811 122.964 287.888C123.095 287.964 123.244 288.003 123.395 288H143.178V280.391H131.592C126.692 281.247 124.77 283.391 122.735 286.62L122.667 286.722C122.587 286.848 122.543 286.993 122.541 287.143C122.539 287.292 122.579 287.439 122.656 287.566Z" fill="#246BFD"/>
<path d="M156.844 286.722C156.766 286.849 156.724 286.995 156.724 287.144C156.724 287.294 156.766 287.44 156.844 287.566C156.918 287.698 157.025 287.808 157.155 287.885C157.285 287.961 157.433 288.001 157.583 288H177.367V286.62H156.901L156.844 286.722Z" fill="#5E2C81"/>
<path d="M122.656 287.566C122.727 287.7 122.834 287.811 122.964 287.888C123.095 287.964 123.244 288.003 123.395 288H143.178V286.62H122.713L122.644 286.722C122.567 286.85 122.528 286.997 122.53 287.146C122.532 287.295 122.575 287.441 122.656 287.566Z" fill="#5E2C81"/>
<path d="M152.421 197.779L150.307 173.036L150.932 162.347C150.932 162.347 155.855 183.291 152.421 197.779Z" fill="#4D2272"/>
<path d="M157.447 161.013C157.447 161.013 144.463 163.853 132.524 159.587L143.758 78.3776L144.212 75.1264C148.518 74.3667 152.917 74.3051 157.242 74.9439V75.6968L157.447 161.013Z" fill="#246BFD"/>
<path d="M140.688 140.833C139.551 156.279 138.664 168.325 138.664 168.325C131.251 168.325 124.02 161.48 120.666 157.351C119.922 140.656 121.529 123.939 125.441 107.694C125.443 107.668 125.443 107.641 125.441 107.615L128.534 85.3816C131.376 81.0011 136.993 77.7843 141.836 75.8678C142.723 75.5256 143.587 75.2062 144.394 74.9438C145.202 75.7538 142.644 113.569 140.688 140.833Z" fill="#E5E5E5"/>
<path d="M181.198 158.948C180.459 159.108 161.119 170.093 150.307 170.139C150.307 170.139 150.864 157.271 151.705 140.993C153.126 113.261 155.366 75.6171 157.026 74.7273L159.493 75.5372C162.336 76.3521 165.108 77.3975 167.782 78.6629C171.755 81.0984 175.026 84.5331 177.269 88.6269C179.513 92.7206 180.651 97.3313 180.573 102.002V103.303L181.198 158.948Z" fill="#E5E5E5"/>
<path d="M180.527 103.303L180.05 142.008L177.776 142.487C173.311 132.031 170.573 120.916 169.669 109.577L180.527 103.303Z" fill="#B0B0D6"/>
<path d="M167.373 83.8303C163.734 86.4084 162.472 90.7432 163.53 96.7891L180.402 131.673C181.046 133 182.17 134.031 183.545 134.557C184.92 135.082 186.443 135.063 187.804 134.502C191.84 132.825 193.727 129.14 193.489 123.494C193.349 120.754 192.762 118.057 191.749 115.509C186.064 100.679 180.379 89.1804 174.695 84.2752C173.695 83.3994 172.434 82.8807 171.109 82.8002C169.784 82.7197 168.47 83.0819 167.373 83.8303Z" fill="#E5E5E5"/>
<path d="M164.075 170.447L170.784 172.922C182.04 155.811 191.738 136.567 193.443 125.912C193.629 124.977 193.62 124.014 193.417 123.083C193.214 122.152 192.822 121.273 192.265 120.5C191.708 119.728 190.998 119.08 190.179 118.596C189.361 118.112 188.451 117.803 187.508 117.688C185.943 117.537 184.373 117.934 183.066 118.811C181.759 119.689 180.794 120.992 180.334 122.501C176.275 136.168 170.056 154.705 164.075 170.447Z" fill="#E5E5E5"/>
<path d="M157.242 74.9441V75.6969C155.457 77.1457 151.898 79.9633 148.328 79.7579C146.691 79.6553 144.758 78.1039 143.78 77.2711L144.235 75.1265C148.533 74.3693 152.925 74.3077 157.242 74.9441Z" fill="#FDBDA1"/>
<path d="M140.688 140.833L140.267 143.628L136.311 103.303L140.54 98.0098L137.129 94.3252L141.848 75.9251C142.734 75.5829 143.599 75.2635 144.406 75.0011C145.202 75.754 142.643 113.57 140.688 140.833Z" fill="#C7C7E3"/>
<path d="M157.117 97.12L160.96 101.546L151.705 140.947C153.126 113.216 155.366 75.5714 157.026 74.6816L159.493 75.4916L160.551 94.3937L157.117 97.12Z" fill="#C7C7E3"/>
<path d="M155.344 66.6964H145.873V75.1379H155.344V66.6964Z" fill="#FDBDA1"/>
<path d="M145.873 66.6851V74.0542C147.709 73.7682 149.463 73.0921 151.018 72.0711C152.573 71.05 153.893 69.7077 154.889 68.1338L150.864 66.6851H145.873Z" fill="#EAA48C"/>
<path d="M147.498 70.9057H150.068C151.383 70.898 152.653 70.4209 153.649 69.5596C154.409 68.8849 155.015 68.0535 155.425 67.1223C155.835 66.1911 156.04 65.1819 156.026 64.164V52.4371H140.267V62.7038C140.245 64.9062 141.058 67.0349 142.541 68.6585C143.17 69.3542 143.934 69.9127 144.787 70.2993C145.64 70.6859 146.563 70.8923 147.498 70.9057Z" fill="#FDBDA1"/>
<path d="M136.674 52.3573C135.674 51.0683 135.538 49.7906 136.879 48.5586C138.153 44.3835 140.813 44.452 143.906 45.8665C147.419 47.0871 149.283 45.741 152.262 46.4939C160.051 48.6955 161.699 54.0113 159.869 61.0725C159.061 63.5137 157.265 65.1222 155.321 67.3808C157.208 59.6352 154.184 55.346 152.296 60.7873C152.046 62.065 150.955 62.4528 151.091 61.3577C152.171 56.1331 151.592 52.882 147.68 53.6121C145.85 54.2664 143.935 54.6507 141.995 54.7529C140.984 54.7985 139.975 54.6056 139.051 54.1896C138.127 53.7736 137.313 53.146 136.674 52.3573Z" fill="#5C2C82"/>
<path d="M155.889 59.1674C155.521 58.6904 154.979 58.3793 154.382 58.3023C153.785 58.2254 153.183 58.3888 152.706 58.7568C151.66 59.5211 150.83 62.3045 151.569 63.3197C152.308 64.335 154.286 63.1258 155.321 62.3615C155.568 62.1903 155.78 61.9716 155.943 61.7179C156.106 61.4642 156.217 61.1806 156.27 60.8835C156.322 60.5865 156.316 60.2818 156.251 59.9873C156.185 59.6927 156.063 59.414 155.889 59.1674Z" fill="#FDBDA1"/>
<path d="M122.315 124.03L126.567 99.6067L119.586 126.015L122.315 124.03Z" fill="#B0B0D6"/>
<path d="M174.41 133.339L169.715 154.978L175.729 137.228L174.41 133.339Z" fill="#B0B0D6"/>
<path d="M243.458 140.639C245.744 140.639 247.597 138.78 247.597 136.487C247.597 134.194 245.744 132.335 243.458 132.335C241.173 132.335 239.32 134.194 239.32 136.487C239.32 138.78 241.173 140.639 243.458 140.639Z" fill="#262BC6"/>
<path d="M54.2443 222.522C58.4451 222.522 61.8506 219.105 61.8506 214.89C61.8506 210.675 58.4451 207.258 54.2443 207.258C50.0434 207.258 46.6379 210.675 46.6379 214.89C46.6379 219.105 50.0434 222.522 54.2443 222.522Z" fill="#C7C7E3"/>
<path d="M61.896 28.071C63.987 28.071 65.6821 26.3703 65.6821 24.2723C65.6821 22.1744 63.987 20.4736 61.896 20.4736C59.805 20.4736 58.1099 22.1744 58.1099 24.2723C58.1099 26.3703 59.805 28.071 61.896 28.071Z" fill="#262BC6"/>
<path d="M149.26 10.1728C151.898 10.1728 154.036 8.02775 154.036 5.3817C154.036 2.73564 151.898 0.590576 149.26 0.590576C146.623 0.590576 144.485 2.73564 144.485 5.3817C144.485 8.02775 146.623 10.1728 149.26 10.1728Z" fill="#C7C7E3"/>
<path d="M199.355 151.99H194.648V172.717H199.355V151.99Z" fill="#262BC6"/>
<path d="M207.326 159.997H186.667V164.72H207.326V159.997Z" fill="#262BC6"/>
<path d="M183.586 64.6205H181.767V72.6285H183.586V64.6205Z" fill="#262BC6"/>
<path d="M186.667 67.7118H178.685V69.537H186.667V67.7118Z" fill="#262BC6"/>
<path d="M119.279 76.4156H116.618V88.1653H119.279V76.4156Z" fill="#262BC6"/>
<path d="M123.804 80.9557H112.093V83.625H123.804V80.9557Z" fill="#262BC6"/>
<defs>
<linearGradient id="paint0_linear_13_792" x1="146.833" y1="22.0251" x2="146.833" y2="286.186" gradientUnits="userSpaceOnUse">
<stop stop-color="#246BFD"/>
<stop offset="0.302083" stop-color="#2558EC"/>
<stop offset="1" stop-color="#262BC6"/>
</linearGradient>
<linearGradient id="paint1_linear_13_792" x1="146.833" y1="22.4244" x2="146.833" y2="34.5733" gradientUnits="userSpaceOnUse">
<stop stop-color="#246BFD"/>
<stop offset="1" stop-color="#262BC6"/>
</linearGradient>
</defs>
</svg>
