<svg width="236" height="271" viewBox="0 0 236 271" fill="none" xmlns="http://www.w3.org/2000/svg">
<path d="M198.658 201.964L198.51 202.111C193.833 206.774 188.69 210.945 183.162 214.56C182.723 214.847 182.281 215.13 181.838 215.408C175.996 219.092 169.771 222.13 163.273 224.469C162.738 224.663 162.202 224.851 161.663 225.032C157.889 226.319 154.039 227.369 150.134 228.175C149.529 228.299 148.923 228.418 148.317 228.531C136.365 230.763 124.099 230.724 112.161 228.416C111.559 228.299 110.958 228.176 110.358 228.047C106.794 227.289 103.277 226.327 99.8231 225.167C99.2837 224.987 98.7458 224.801 98.2094 224.608C90.7568 221.961 83.6617 218.399 77.0869 214.003C76.6549 213.714 76.224 213.42 75.7942 213.123C71.2253 209.957 66.9372 206.403 62.9775 202.502C62.7953 202.322 62.6134 202.142 62.4318 201.961C62.2502 201.78 62.07 201.598 61.8912 201.415C53.5855 192.999 46.9059 183.12 42.1886 172.277C41.6589 171.06 41.1556 169.832 40.6787 168.595C34.237 151.874 32.5701 133.691 35.864 116.077C35.9761 115.47 36.0944 114.864 36.2188 114.26C37.6081 107.535 39.7151 100.978 42.5036 94.7029C42.7257 94.2033 42.9522 93.7057 43.1832 93.21C45.9543 87.2517 49.3323 81.5951 53.2637 76.3297C53.5716 75.9156 53.8838 75.5036 54.2003 75.0937C56.7417 71.8024 59.4912 68.6771 62.432 65.7371C63.5485 64.6206 64.6851 63.5371 65.8418 62.4866C66.2232 62.1415 66.6054 61.7993 66.9885 61.4603C75.5463 53.9218 85.3822 47.973 96.0325 43.8945C96.5564 43.6918 97.083 43.4943 97.6125 43.3019C109.621 38.9503 122.374 37.0226 135.132 37.6302C135.902 37.6664 136.672 37.7122 137.442 37.7679C150.947 38.7238 164.099 42.521 176.035 48.9108C176.504 49.163 176.972 49.4193 177.439 49.6798C184.232 53.4717 190.54 58.0738 196.225 63.3853C196.599 63.7341 196.97 64.0865 197.341 64.4426C197.783 64.8675 198.222 65.2984 198.658 65.7353C215.066 82.0944 225 103.838 226.625 126.951C226.681 127.721 226.727 128.491 226.763 129.262C227.371 142.02 225.444 154.773 221.092 166.782C220.899 167.311 220.702 167.838 220.5 168.362C218.817 172.76 216.811 177.027 214.497 181.129C214.238 181.591 213.974 182.051 213.704 182.508C209.765 189.226 205.026 195.44 199.59 201.016C199.282 201.334 198.971 201.649 198.658 201.964Z" fill="#EBEDFC"/>
<path d="M226.625 126.951L137.442 37.7685C136.672 37.713 135.902 37.6671 135.132 37.6309L226.763 129.262C226.727 128.492 226.681 127.721 226.625 126.951ZM221.092 166.782L97.6124 43.3026C97.0837 43.4957 96.5571 43.6933 96.0325 43.8952L220.499 168.363C220.702 167.839 220.9 167.311 221.092 166.782Z" fill="white"/>
<path d="M1.08625 129.002L0 130.088L1.08625 131.175L2.1725 130.088L1.08625 129.002ZM66.9884 61.4608C66.6058 61.7999 66.2236 62.142 65.8418 62.4871L108.042 104.687L42.4061 170.323L40.679 168.596C41.1557 169.833 41.659 171.06 42.1889 172.278L42.4061 172.495L110.215 104.687L66.9884 61.4608Z" fill="white"/>
<path d="M141.519 121.788L61.8914 201.416C62.0708 201.598 62.251 201.78 62.432 201.961C62.6129 202.143 62.7947 202.323 62.9774 202.502L141.519 123.961L153.237 135.68L75.7947 213.123C76.2244 213.419 76.6553 213.713 77.0874 214.002L155.411 135.679L141.519 121.788Z" fill="white"/>
<path d="M199.589 201.016L160.296 161.722L176.607 145.411L213.704 182.508C213.973 182.051 214.238 181.591 214.497 181.129L176.607 143.239L158.123 161.722L198.51 202.11L198.658 201.963C198.972 201.649 199.282 201.334 199.589 201.016Z" fill="white"/>
<path d="M147.12 175.697L98.21 224.607C98.7459 224.8 99.2838 224.987 99.8237 225.166L147.12 177.87L153.827 184.577L110.358 228.046C110.958 228.175 111.559 228.298 112.161 228.415L155.999 184.577L147.12 175.697Z" fill="white"/>
<path d="M181.838 215.407C182.281 215.128 182.722 214.845 183.162 214.559L163.114 194.51L147.128 210.496L161.663 225.031C162.201 224.849 162.738 224.662 163.273 224.468L149.301 210.496L163.114 196.682L181.838 215.407Z" fill="white"/>
<path d="M1.08625 129.002L0 130.088L1.08625 131.175L2.1725 130.088L1.08625 129.002ZM36.2196 114.26C36.0952 114.864 35.9769 115.47 35.8647 116.077L148.317 228.529C148.924 228.417 149.53 228.298 150.134 228.173L36.2196 114.26Z" fill="white"/>
<path d="M54.2003 75.0937C53.8842 75.504 53.5719 75.916 53.2636 76.3297L109.997 133.063L96.5177 146.543L43.184 93.2097C42.9535 93.7057 42.7269 94.2033 42.5044 94.7026L96.5177 148.716L112.17 133.063L54.2003 75.0937Z" fill="white"/>
<path d="M196.225 63.3859L148.492 111.12L132.245 94.8735L177.438 49.6804C176.973 49.4196 176.505 49.1633 176.035 48.9115L130.073 94.8729L148.492 113.292L197.341 64.4432C196.97 64.0872 196.598 63.7348 196.225 63.3859Z" fill="white"/>
<path d="M108.015 90.5055L107.692 89.7625C108.392 89.4581 108.758 89.2634 108.761 89.2614L109.144 89.9757C109.128 89.9841 108.749 90.1861 108.015 90.5055Z" fill="#B0B0D6"/>
<path d="M84.1555 94.7911L84.1535 93.9811C84.9574 93.9793 85.7688 93.9643 86.5636 93.9387L86.5903 94.7484C85.7868 94.7748 84.9684 94.7893 84.1555 94.7911ZM81.7214 94.7613C80.9185 94.7398 80.1004 94.7061 79.2895 94.6614L79.334 93.8526C80.1375 93.897 80.9479 93.9301 81.7433 93.9517L81.7214 94.7613ZM89.0228 94.6306L88.9708 93.8221C89.7732 93.7705 90.5812 93.7054 91.3725 93.6283L91.451 94.4347C90.6508 94.5125 89.8339 94.5784 89.0233 94.6306H89.0228ZM76.8614 94.4936C76.061 94.4275 75.2461 94.3489 74.4385 94.2606L74.5269 93.4552C75.3267 93.5428 76.1345 93.6207 76.9277 93.6863L76.8614 94.4936ZM93.8719 94.1571L93.766 93.354C94.5651 93.2487 95.3663 93.1286 96.1477 92.997L96.2823 93.7957C95.4913 93.9295 94.6805 94.0511 93.8717 94.1576L93.8719 94.1571ZM72.0246 93.9633C71.2292 93.8553 70.4196 93.7348 69.6185 93.6056L69.7477 92.8057C70.5424 92.9341 71.3452 93.0535 72.1338 93.1606L72.0246 93.9633ZM98.6782 93.3456L98.5135 92.5525C99.3056 92.3879 100.095 92.2074 100.859 92.0159L101.056 92.8017C100.281 92.9963 99.4808 93.1794 98.6781 93.3461L98.6782 93.3456ZM67.2221 93.1888C66.4304 93.0413 65.6279 92.8817 64.8364 92.7148L65.0047 91.9222C65.7897 92.0879 66.5863 92.2462 67.3712 92.3933L67.2221 93.1888ZM62.463 92.186C61.6793 92.0019 60.885 91.8061 60.1022 91.6039L60.305 90.8195C61.082 91.0204 61.8698 91.2145 62.6483 91.3972L62.463 92.186ZM103.41 92.1566L103.179 91.3802C103.965 91.1455 104.733 90.895 105.462 90.6356L105.734 91.3988C104.992 91.6634 104.21 91.9183 103.41 92.1571L103.41 92.1566ZM57.7551 90.9704C56.9799 90.7516 56.195 90.5225 55.4219 90.2874L55.6575 89.5125C56.425 89.7458 57.2054 89.974 57.9742 90.1905L57.7551 90.9704ZM53.1037 89.557C52.3429 89.3087 51.5682 89.0476 50.8008 88.7805L51.0671 88.0153C51.8293 88.2807 52.5993 88.5403 53.3554 88.7868L53.1037 89.557ZM185.4 89.3686C184.602 89.3153 183.78 89.2185 182.958 89.0812L183.091 88.2822C183.888 88.4151 184.683 88.5087 185.454 88.5603L185.4 89.3686ZM180.557 88.5709C179.786 88.3724 178.995 88.136 178.208 87.8681L178.469 87.1012C179.237 87.3623 180.007 87.5928 180.759 87.7863L180.557 88.5709ZM48.5134 87.9598C47.7589 87.681 46.9947 87.3906 46.242 87.0963L46.5369 86.3419C47.285 86.6341 48.0445 86.9229 48.7942 87.2L48.5134 87.9598ZM175.918 87.0008C175.182 86.6942 174.432 86.3548 173.689 85.9912L174.044 85.2632C174.773 85.6191 175.508 85.9519 176.229 86.2522L175.918 87.0008ZM43.9867 86.1925C43.2413 85.8857 42.4882 85.5681 41.7489 85.2482L42.0703 84.5045C42.806 84.8225 43.5549 85.1384 44.2959 85.4434L43.9867 86.1925ZM171.521 84.8609C170.824 84.4739 170.116 84.057 169.415 83.6225L169.842 82.9342C170.532 83.3619 171.229 83.772 171.915 84.1529L171.521 84.8609ZM39.5258 84.266C38.7949 83.9355 38.053 83.5929 37.3204 83.247L37.6664 82.5144C38.3947 82.8583 39.1325 83.1992 39.8594 83.5278L39.5258 84.266ZM167.369 82.2895C166.707 81.8377 166.04 81.3609 165.382 80.8724L165.865 80.2223C166.514 80.7045 167.173 81.1748 167.826 81.6205L167.369 82.2895ZM35.1325 82.1926C34.4105 81.8375 33.6801 81.4713 32.962 81.1038L33.3311 80.383C34.0462 80.7486 34.7729 81.1129 35.491 81.466L35.1325 82.1926ZM30.8073 79.9822C30.0981 79.6061 29.379 79.2183 28.6705 78.829L29.0603 78.1189C29.7658 78.5059 30.4814 78.8929 31.1871 79.2664L30.8073 79.9822ZM163.453 79.3798C162.829 78.879 162.199 78.3535 161.579 77.8185L162.109 77.2053C162.721 77.7343 163.344 78.2534 163.959 78.7484L163.453 79.3798ZM26.5505 77.6451C26.2738 77.4881 25.9964 77.3297 25.7183 77.1698C25.2859 76.9212 24.8585 76.6651 24.4478 76.409L24.8765 75.7218C25.279 75.9727 25.6981 76.2236 26.1216 76.4674C26.3984 76.6264 26.6747 76.7842 26.9503 76.9407L26.5505 77.6451ZM159.762 76.1941C159.171 75.6485 158.578 75.0823 157.998 74.5116L158.567 73.9345C159.14 74.4991 159.727 75.0591 160.311 75.599L159.762 76.1941ZM22.4136 75.0454C21.7354 74.5558 21.0844 74.0474 20.4809 73.5339L21.0055 72.9167C21.5934 73.4162 22.2267 73.9114 22.8876 74.3886L22.4136 75.0454ZM156.289 72.774C155.734 72.1915 155.176 71.5898 154.634 70.9856L155.236 70.4442C155.773 71.0425 156.325 71.6388 156.875 72.2146L156.289 72.774ZM18.6814 71.8575C18.1065 71.2696 17.5641 70.6508 17.0566 70.0039L17.6946 69.505C18.184 70.1286 18.707 70.7251 19.2614 71.2917L18.6814 71.8575ZM153.029 69.1444C152.508 68.528 151.987 67.8936 151.481 67.259L152.115 66.7542C152.615 67.3826 153.131 68.0107 153.647 68.6218L153.029 69.1444ZM15.6574 67.9667C15.2336 67.2568 14.8605 66.5179 14.5408 65.7555L15.2884 65.4434C15.5932 66.1704 15.949 66.875 16.3533 67.5519L15.6574 67.9667ZM149.993 65.3306C149.507 64.6817 149.026 64.0192 148.564 63.362L149.226 62.8958C149.684 63.547 150.16 64.2028 150.641 64.8454L149.993 65.3306ZM13.7601 63.4014C13.5607 62.5973 13.4234 61.779 13.3493 60.9538L14.1569 60.8815C14.2272 61.6652 14.3575 62.4423 14.5469 63.2061L13.7601 63.4014ZM147.196 61.3534C146.748 60.6737 146.307 59.982 145.887 59.2975L146.577 58.8733C146.993 59.5506 147.429 60.2352 147.872 60.9077L147.196 61.3534ZM14.1215 58.5224L13.3127 58.4753C13.3619 57.6519 13.4664 56.8328 13.6254 56.0235L14.4204 56.1789C14.2684 56.9525 14.1686 57.7354 14.1215 58.5224ZM144.644 57.2006C144.24 56.4929 143.845 55.7736 143.471 55.0627L144.188 54.6853C144.558 55.3881 144.948 56.0987 145.347 56.7989L144.644 57.2006ZM15.0165 53.8846L14.2455 53.6354C14.4993 52.8542 14.7934 52.0866 15.1267 51.3359L15.867 51.664C15.5452 52.389 15.2613 53.1302 15.0165 53.8846ZM63.3033 53.8062C62.9819 53.8062 62.6496 53.7978 62.3156 53.7811L62.356 52.972C63.1445 53.0139 63.9349 53.002 64.7218 52.9365L64.792 53.7441C64.3133 53.785 63.8126 53.8062 63.3033 53.8062ZM59.8633 53.5225C59.0776 53.3989 58.2669 53.2335 57.4536 53.0311L57.6494 52.245C58.4402 52.4417 59.227 52.6023 59.9892 52.7223L59.8633 53.5225ZM67.2487 53.3078L67.0289 52.5281C67.7736 52.324 68.4878 52.0214 69.1525 51.6283L69.5704 52.3224C68.8438 52.7526 68.063 53.0841 67.2487 53.3078ZM142.374 52.8843C142.019 52.1462 141.677 51.3997 141.359 50.6657L142.102 50.343C142.416 51.0675 142.754 51.8043 143.104 52.5332L142.374 52.8843ZM55.097 52.3459C54.3318 52.0919 53.5585 51.804 52.7983 51.4905L53.1072 50.7416C53.8497 51.0478 54.6047 51.329 55.3522 51.5772L55.097 52.3459ZM71.5018 50.6573L70.8712 50.1489C71.3462 49.5546 71.7114 48.8805 71.9499 48.1581L72.7179 48.4158C72.4485 49.2292 72.0362 49.9881 71.5005 50.6568L71.5018 50.6573ZM50.5659 50.4793C49.8347 50.1182 49.108 49.7284 48.4059 49.3204L48.8129 48.6199C49.4992 49.0187 50.2094 49.4 50.9246 49.7531L50.5659 50.4793ZM16.9348 49.531L16.2269 49.1371C16.6139 48.4406 17.0448 47.7359 17.5056 47.0424L18.18 47.4911C17.7298 48.1663 17.3105 48.8521 16.9334 49.5305L16.9348 49.531ZM170.821 49.1178C169.999 49.1052 169.178 49.0483 168.362 48.9475L168.461 48.1434C169.248 48.2407 170.04 48.2955 170.833 48.3077L170.821 49.1178ZM173.289 49L173.199 48.1949C173.982 48.1081 174.758 47.9655 175.521 47.7682L175.725 48.5521C174.924 48.7592 174.11 48.9088 173.288 48.9999L173.289 49ZM165.938 48.533C165.162 48.3647 164.363 48.1561 163.563 47.9143L163.798 47.1388C164.577 47.3744 165.355 47.5771 166.111 47.7415L165.938 48.533ZM140.433 48.4073C140.137 47.6385 139.858 46.8654 139.606 46.1092L140.374 45.8527C140.623 46.5972 140.897 47.3585 141.189 48.116L140.433 48.4073ZM46.3296 48.0156C45.6462 47.5519 44.9804 47.0636 44.3508 46.564L44.8542 45.9294C45.4682 46.4165 46.1175 46.8928 46.7842 47.3451L46.3296 48.0156ZM178.072 47.7398L177.746 46.9981C178.464 46.6829 179.155 46.3075 179.81 45.8759L180.256 46.5519C179.562 47.0088 178.831 47.4061 178.07 47.7396L178.072 47.7398ZM161.245 47.1242C160.503 46.8437 159.743 46.5295 158.984 46.1902L159.315 45.4507C160.059 45.7835 160.805 46.0917 161.531 46.3665L161.245 47.1242ZM73.1714 45.9343L72.3624 45.8912C72.3725 45.7007 72.3777 45.5042 72.3777 45.308C72.3755 44.7199 72.3348 44.1326 72.2561 43.5498L73.0593 43.4434C73.1426 44.0614 73.1856 44.6842 73.1879 45.3078C73.1865 45.5187 73.181 45.7293 73.17 45.9341L73.1714 45.9343ZM19.5782 45.5463L18.937 45.0511C19.4249 44.4188 19.9495 43.7831 20.4952 43.1616L21.1039 43.6963C20.5682 44.3047 20.0547 44.9271 19.5769 45.5461L19.5782 45.5463ZM156.779 45.1337C156.073 44.773 155.351 44.3828 154.632 43.9738L155.032 43.2696C155.741 43.6734 156.452 44.057 157.148 44.4122L156.779 45.1337ZM182.205 45.0065L181.65 44.4176C182.221 43.8785 182.745 43.2923 183.217 42.6651L183.864 43.153C183.364 43.8165 182.81 44.4366 182.206 45.0068L182.205 45.0065ZM42.487 44.9606C41.8773 44.3893 41.2993 43.7968 40.7695 43.1991L41.3752 42.6617C41.8884 43.2407 42.4487 43.8153 43.0409 44.3693L42.487 44.9606ZM138.887 43.772C138.665 42.9757 138.465 42.1773 138.295 41.3996L139.086 41.226C139.253 41.9899 139.449 42.7739 139.667 43.5551L138.887 43.772ZM152.537 42.7246C151.874 42.3121 151.185 41.8694 150.489 41.4087L150.936 40.7332C151.626 41.1898 152.308 41.6283 152.965 42.0367L152.537 42.7246ZM22.7377 41.9389L22.1609 41.3704C22.7239 40.7983 23.3168 40.2286 23.9234 39.675L24.4695 40.2733C23.8741 40.8176 23.2916 41.3781 22.7383 41.9392L22.7377 41.9389ZM39.2325 41.2716C38.7536 40.6002 38.3171 39.8996 37.9257 39.1738L38.6401 38.7905C39.0155 39.4864 39.4341 40.1582 39.8934 40.8018L39.2325 41.2716ZM71.7867 41.2258C71.595 40.4996 71.3536 39.7346 71.0686 38.9514L71.8299 38.6746C72.123 39.4805 72.3722 40.2695 72.5702 41.0192L71.7867 41.2258ZM185.192 41.0532L184.475 40.6755C184.841 39.9788 185.155 39.2556 185.412 38.5121L186.178 38.7779C185.907 39.56 185.577 40.3207 185.192 41.0535L185.192 41.0532ZM148.476 40.0418C147.833 39.5946 147.166 39.121 146.494 38.6339L146.969 37.9777C147.637 38.4619 148.3 38.9327 148.939 39.3771L148.476 40.0418ZM137.844 38.9923C137.718 38.1707 137.621 37.3516 137.556 36.5578L138.364 36.4923C138.427 37.2663 138.521 38.0664 138.645 38.8689L137.844 38.9923ZM26.285 38.6975L25.7693 38.0726C26.3901 37.5599 27.0364 37.0519 27.6899 36.5623L28.1757 37.2106C27.5329 37.693 26.8969 38.1931 26.2857 38.6978L26.285 38.6975ZM144.536 37.1929C143.917 36.7299 143.266 36.2364 142.6 35.7263L143.093 35.0834C143.756 35.5915 144.406 36.0831 145.022 36.5442L144.536 37.1929ZM36.9124 36.9111C36.6301 36.1308 36.4136 35.3282 36.2652 34.5118L37.0623 34.3681C37.2029 35.1399 37.4076 35.8986 37.6745 36.6364L36.9124 36.9111ZM70.1554 36.7538C69.8124 36.043 69.4221 35.356 68.9869 34.6976L69.6621 34.2498C70.1176 34.9388 70.5263 35.6576 70.8855 36.4013L70.1554 36.7538ZM186.822 36.3867L186.027 36.2312C186.178 35.4565 186.277 34.6726 186.323 33.8847L187.132 33.9325C187.083 34.7566 186.98 35.5766 186.822 36.387L186.822 36.3867ZM30.1313 35.8146L29.6758 35.1446C30.3445 34.6903 31.034 34.2433 31.725 33.8173L32.1503 34.5071C31.4701 34.9269 30.7905 35.3669 30.1319 35.8149L30.1313 35.8146ZM140.681 34.2392C140.048 33.7446 139.413 33.2439 138.774 32.7372L139.278 32.1026C139.915 32.6073 140.549 33.1068 141.18 33.6011L140.681 34.2392ZM138.266 34.1065L137.456 34.1055C137.457 33.2699 137.497 32.4431 137.573 31.649L138.379 31.7265C138.306 32.4956 138.268 33.2965 138.267 34.1068L138.266 34.1065ZM34.2274 33.2896L33.8337 32.5818C34.5453 32.1859 35.2735 31.8022 35.9978 31.4412L36.0574 31.5606C36.0841 30.8858 36.1608 30.214 36.2869 29.5505L37.0827 29.7019C36.9364 30.4713 36.8609 31.2525 36.8572 32.0356L36.2929 32.0334L36.359 32.1665C35.6463 32.522 34.9296 32.9001 34.2281 33.29L34.2274 33.2896ZM67.5418 32.8336C67.0142 32.2506 66.4417 31.71 65.8294 31.2166L66.3374 30.5854C66.983 31.1056 67.5867 31.6757 68.1429 32.2905L67.5418 32.8336ZM186.308 31.5174C186.252 30.7293 186.147 29.9456 185.992 29.1709L186.786 29.0121C186.948 29.8204 187.058 30.6382 187.116 31.4605L186.308 31.5174ZM136.877 31.2245C136.249 30.7216 135.619 30.215 134.987 29.7048L135.495 29.0742C136.127 29.5834 136.757 30.0895 137.384 30.5923L136.877 31.2245ZM38.5361 31.1432L38.2088 30.4029C38.9572 30.0724 39.7172 29.7585 40.4676 29.4697L40.7585 30.2259C40.0213 30.5094 39.2734 30.8183 38.5369 31.1435L38.5361 31.1432ZM63.8841 29.8884C63.2004 29.4968 62.489 29.1555 61.7557 28.8674L62.0525 28.1136C62.8226 28.4163 63.5697 28.7746 64.2877 29.1859L63.8841 29.8884ZM43.0227 29.4194L42.7704 28.6495C43.5522 28.3941 44.3412 28.1597 45.1157 27.9534L45.3243 28.7362C44.5658 28.9391 43.7912 29.1689 43.0236 29.4198L43.0227 29.4194ZM138.731 29.375L137.938 29.211C138.103 28.4039 138.318 27.6076 138.581 26.8266L139.348 27.0857C139.097 27.8357 138.891 28.6003 138.732 29.3753L138.731 29.375ZM47.6613 28.188L47.5005 27.3942C48.3128 27.2296 49.1258 27.0926 49.9168 26.987L50.024 27.7899C49.2507 27.8932 48.4558 28.0271 47.6613 28.188ZM133.101 28.1828L131.215 26.6607L131.723 26.0299L133.607 27.5511L133.101 28.1828ZM59.5002 28.1491C58.7311 27.9589 57.9518 27.8129 57.166 27.7116L57.2704 26.9082C58.0868 27.0133 58.8966 27.165 59.6957 27.3625L59.5002 28.1491ZM52.4051 27.5611L52.359 26.7524C52.9142 26.7206 53.4695 26.7046 54.0079 26.7046H54.0124C54.2816 26.7046 54.5493 26.7086 54.8154 26.7164L54.7911 27.5262C54.5331 27.5185 54.2736 27.5146 54.0124 27.5146C53.4861 27.521 52.9474 27.5306 52.4049 27.5614L52.4051 27.5611ZM37.7206 27.4391L36.9619 27.1552C37.2537 26.3805 37.6024 25.6284 38.0051 24.905L38.7136 25.298C38.3302 25.9864 37.9983 26.7021 37.7204 27.4394L37.7206 27.4391ZM185.382 26.8813C185.13 26.1319 184.831 25.3993 184.486 24.6878L185.215 24.3344C185.575 25.0767 185.887 25.841 186.15 26.6227L185.382 26.8813ZM129.326 25.1421C128.698 24.638 128.067 24.1341 127.433 23.6305L127.938 22.9962C128.572 23.5009 129.204 24.0057 129.834 24.5104L129.326 25.1421ZM140.252 24.8993L139.526 24.5401C139.893 23.7993 140.311 23.0853 140.777 22.4032L141.445 22.8609C141 23.5117 140.602 24.1929 140.252 24.8996L140.252 24.8993ZM39.994 23.3032L39.3398 22.8255C39.7857 22.2148 40.2836 21.6003 40.8196 20.9995L40.8933 20.9169L41.4979 21.4561L41.424 21.5387C40.9053 22.1201 40.4241 22.7137 39.994 23.3032ZM183.319 22.6272C182.886 21.966 182.411 21.3332 181.897 20.7328L182.513 20.206C183.049 20.8328 183.545 21.4933 183.997 22.1835L183.319 22.6272ZM125.528 22.1254C124.893 21.6266 124.256 21.1297 123.616 20.6347L124.111 19.9938C124.753 20.4898 125.392 20.988 126.029 21.4883L125.528 22.1254ZM142.915 21.0124L142.318 20.4651C142.877 19.8572 143.476 19.2877 144.111 18.7604L144.629 19.3829C144.022 19.887 143.449 20.4314 142.915 21.0124H142.915ZM43.1264 19.6768L42.5355 19.1226C43.0941 18.5268 43.6613 17.9371 44.2214 17.3694L44.7982 17.9383C44.2428 18.5012 43.6803 19.0861 43.1264 19.6768ZM121.692 19.1615C121.049 18.6742 120.404 18.1903 119.756 17.7096L120.239 17.059C120.889 17.5413 121.536 18.027 122.182 18.516L121.692 19.1615ZM180.245 19.0354C179.658 18.5054 179.039 18.0121 178.392 17.5585L178.856 16.8951C179.531 17.3679 180.177 17.882 180.788 18.4344L180.245 19.0354ZM146.542 17.9862L146.105 17.3041C146.798 16.8618 147.514 16.4574 148.25 16.0927L148.611 16.8182C147.901 17.1699 147.21 17.5599 146.543 17.9864L146.542 17.9862ZM176.371 16.3168C175.672 15.9432 174.953 15.6087 174.217 15.3148L174.518 14.5627C175.282 14.8678 176.028 15.215 176.753 15.6029L176.371 16.3168ZM117.806 16.2831C117.139 15.8023 116.477 15.3313 115.838 14.8841L116.303 14.2203C116.945 14.6701 117.61 15.1431 118.28 15.6264L117.806 16.2831ZM46.5144 16.246L45.9534 15.6614C46.5438 15.0949 47.143 14.5367 47.7342 14.002L48.2775 14.6028C47.6923 15.1314 47.099 15.6842 46.5145 16.2453L46.5144 16.246ZM150.794 15.8635L150.503 15.1064C151.244 14.822 152.027 14.5585 152.829 14.3233L153.057 15.1008C152.276 15.33 151.514 15.5862 150.794 15.8628L150.794 15.8635ZM171.966 14.5495C171.218 14.3364 170.437 14.1541 169.646 14.0073L169.794 13.2108C170.61 13.3623 171.415 13.5504 172.188 13.7703L171.966 14.5495ZM155.376 14.5111L155.203 13.7203C155.457 13.6642 155.714 13.6106 155.974 13.5596C156.519 13.4518 157.067 13.3528 157.604 13.2655L157.734 14.0652C157.207 14.1509 156.668 14.2481 156.131 14.3543C155.876 14.404 155.625 14.456 155.376 14.5104V14.5111ZM160.113 13.7428L160.027 12.9372C160.851 12.8494 161.671 12.7858 162.467 12.7501L162.504 13.5594C161.725 13.5943 160.92 13.656 160.113 13.7422V13.7428ZM167.284 13.6735C166.509 13.5968 165.706 13.5487 164.898 13.5303L164.917 12.7205C165.745 12.7392 166.568 12.7878 167.364 12.8674L167.284 13.6735ZM113.852 13.517C113.173 13.0586 112.496 12.6097 111.838 12.1826L112.279 11.503C112.941 11.9328 113.623 12.3845 114.305 12.8459L113.852 13.517ZM50.0893 13.014L49.5653 12.3961C50.1895 11.8668 50.8235 11.3472 51.4498 10.8524L51.9522 11.4877C51.3343 11.9774 50.7069 12.4909 50.0893 13.014ZM109.798 10.8874C109.107 10.4592 108.412 10.0391 107.732 9.63878L108.143 8.94053C108.828 9.34434 109.529 9.76733 110.225 10.1989L109.798 10.8874ZM53.8667 10.0293L53.3882 9.3758C54.0476 8.89308 54.7188 8.42163 55.3832 7.97458L55.8355 8.64659C55.1803 9.08842 54.518 9.55365 53.8672 10.03L53.8667 10.0293ZM105.637 8.44098C104.924 8.04609 104.209 7.66264 103.512 7.30123L103.884 6.58194C104.589 6.94672 105.31 7.33387 106.03 7.73246L105.637 8.44098ZM57.8587 7.34733L57.4359 6.65631C58.1348 6.22861 58.8449 5.81605 59.546 5.43024L59.9365 6.1401C59.2467 6.52053 58.5477 6.92669 57.8592 7.348L57.8587 7.34733ZM101.354 6.22574C100.625 5.87628 99.8883 5.53843 99.1648 5.22194L99.4896 4.47977C100.222 4.79945 100.967 5.14168 101.704 5.49519L101.354 6.22574ZM62.069 5.0345L61.7139 4.30647C62.4507 3.94708 63.1986 3.60619 63.9368 3.29307L64.2531 4.03894C63.5279 4.34634 62.7924 4.68151 62.069 5.0345ZM96.9425 4.29839C96.1891 4.00193 95.4301 3.72077 94.6867 3.46284L94.9524 2.69745C95.706 2.95909 96.4754 3.24411 97.2392 3.54461L96.9425 4.29839ZM66.4863 3.16268L66.2116 2.40065C66.98 2.1237 67.7615 1.86712 68.5346 1.63812L68.765 2.41478C68.0067 2.6394 67.2399 2.89111 66.4863 3.16268ZM92.3992 2.72521C91.627 2.49487 90.8473 2.28237 90.0818 2.09359L90.2758 1.307C91.0538 1.49898 91.8461 1.71501 92.6313 1.94889L92.3992 2.72521ZM71.0827 1.80352L70.8996 1.0144C71.6931 0.830502 72.5004 0.669147 73.2989 0.535217L73.4335 1.33392C72.6508 1.46465 71.86 1.62315 71.0827 1.80284V1.80352ZM87.7377 1.57755C86.9502 1.42612 86.1561 1.29421 85.3754 1.1872L85.4854 0.384629C86.2801 0.493657 87.0894 0.627421 87.8914 0.782215L87.7377 1.57755ZM75.8074 1.01104L75.7233 0.20527C76.5309 0.121143 77.3517 0.0610755 78.163 0.0270882L78.1966 0.836391C77.4025 0.869032 76.5982 0.927752 75.8074 1.01037V1.01104ZM82.9931 0.928764C82.1955 0.865501 81.3894 0.825455 80.5973 0.809975L80.6131 0C81.4207 0.0158159 82.2438 0.0567005 83.0573 0.12131L82.9931 0.928764Z" fill="#B0B0D6"/>
<path d="M187.968 89.395L187.928 88.586C188.325 88.5664 188.724 88.5356 189.114 88.492L189.203 89.2971C188.797 89.3417 188.381 89.3747 187.968 89.395Z" fill="#B0B0D6"/>
<path d="M37.3961 42.7119H14.6821L26.0391 50.2831L37.3961 42.7119Z" fill="#246BFD"/>
<path d="M33.4693 37.7492H17.9864C17.0456 37.7492 16.283 38.5118 16.283 39.4526V51.5738C16.283 52.5146 17.0456 53.2772 17.9864 53.2772H33.4693C34.4101 53.2772 35.1727 52.5146 35.1727 51.5738V39.4526C35.1727 38.5118 34.4101 37.7492 33.4693 37.7492Z" fill="#262BC6"/>
<path d="M31.811 45.113H18.0439V45.4332H31.811V45.113Z" fill="white"/>
<path d="M24.9276 44.3126H18.0439V44.6328H24.9276V44.3126Z" fill="white"/>
<path d="M32.4514 43.5123H18.0439V43.8324H32.4514V43.5123Z" fill="white"/>
<path d="M28.6093 42.7119H18.0439V43.0321H28.6093V42.7119Z" fill="white"/>
<path d="M32.2912 41.9113H18.0439V42.2315H32.2912V41.9113Z" fill="white"/>
<path d="M24.9276 39.8303H18.0439V40.1505H24.9276V39.8303Z" fill="white"/>
<path d="M37.3961 42.7724V57.6446H14.6821V42.7724L26.0391 50.3437L37.3961 42.7724Z" fill="#246BFD"/>
<path d="M37.3959 58.1174C37.3572 58.1175 37.3192 58.1063 37.2866 58.0853L26.0373 50.8544L14.789 57.8369C14.7433 57.8652 14.6883 57.8743 14.636 57.862C14.5838 57.8498 14.5385 57.8173 14.5102 57.7716C14.4819 57.726 14.4728 57.671 14.4851 57.6187C14.4973 57.5664 14.5298 57.5212 14.5755 57.4928L25.9326 50.443C25.9652 50.4229 26.0028 50.4124 26.041 50.4127C26.0793 50.413 26.1167 50.4241 26.149 50.4447L37.5062 57.7456C37.5434 57.769 37.572 57.8039 37.5875 57.845C37.6031 57.8861 37.6048 57.9312 37.5924 57.9734C37.5801 58.0156 37.5542 58.0526 37.5189 58.0788C37.4835 58.105 37.4406 58.1189 37.3966 58.1184L37.3959 58.1174Z" fill="white"/>
<path d="M160.997 9.46732H138.283L149.64 17.0386L160.997 9.46732Z" fill="#246BFD"/>
<path d="M157.07 4.50483H141.587C140.646 4.50483 139.884 5.26747 139.884 6.20823V18.3294C139.884 19.2702 140.646 20.0328 141.587 20.0328H157.07C158.011 20.0328 158.774 19.2702 158.774 18.3294V6.20823C158.774 5.26747 158.011 4.50483 157.07 4.50483Z" fill="#262BC6"/>
<path d="M155.412 11.8686H141.645V12.1888H155.412V11.8686Z" fill="white"/>
<path d="M148.528 11.0682H141.645V11.3884H148.528V11.0682Z" fill="white"/>
<path d="M156.052 10.2677H141.645V10.5879H156.052V10.2677Z" fill="white"/>
<path d="M152.21 9.46731H141.645V9.7875H152.21V9.46731Z" fill="white"/>
<path d="M155.892 8.66693H141.645V8.98712H155.892V8.66693Z" fill="white"/>
<path d="M148.528 6.58579H141.645V6.90598H148.528V6.58579Z" fill="white"/>
<path d="M160.997 9.52789V24.4001H138.283V9.52789L149.64 17.0992L160.997 9.52789Z" fill="#246BFD"/>
<path d="M160.997 24.873C160.958 24.873 160.92 24.8618 160.888 24.8409L149.638 17.6091L138.39 24.5917C138.367 24.6057 138.342 24.6152 138.316 24.6195C138.29 24.6238 138.263 24.6229 138.237 24.6169C138.211 24.6108 138.187 24.5997 138.165 24.5842C138.143 24.5687 138.125 24.5491 138.111 24.5265C138.097 24.5039 138.088 24.4788 138.083 24.4525C138.079 24.4263 138.08 24.3995 138.086 24.3736C138.092 24.3477 138.103 24.3232 138.119 24.3016C138.134 24.28 138.154 24.2617 138.176 24.2476L149.533 17.1978C149.566 17.1777 149.604 17.1671 149.642 17.1674C149.68 17.1677 149.717 17.1788 149.75 17.1994L161.107 24.5003C161.144 24.5237 161.173 24.5587 161.188 24.5998C161.204 24.641 161.205 24.6861 161.193 24.7283C161.181 24.7705 161.155 24.8075 161.119 24.8336C161.084 24.8598 161.041 24.8737 160.997 24.8732L160.997 24.873Z" fill="white"/>
<path d="M64.3698 77.1759V90.9096H43.3945V77.1759L53.8822 84.1677L64.3698 77.1759Z" fill="#246BFD"/>
<path d="M64.3698 76.6765H43.3945L53.8822 83.6681L64.3698 76.6765Z" fill="#246BFD"/>
<path d="M64.3696 91.3619C64.3308 91.3619 64.2929 91.3508 64.2603 91.3298L53.8803 84.6566L43.5014 91.0994C43.4557 91.1277 43.4007 91.1368 43.3485 91.1245C43.2962 91.1123 43.2509 91.0798 43.2226 91.0342C43.1943 90.9885 43.1852 90.9335 43.1975 90.8812C43.2097 90.8289 43.2422 90.7837 43.2879 90.7553L53.7753 84.2451C53.8079 84.225 53.8455 84.2145 53.8837 84.2148C53.922 84.2151 53.9594 84.2262 53.9917 84.2468L64.4793 90.9889C64.5166 91.0123 64.5451 91.0472 64.5607 91.0884C64.5763 91.1295 64.578 91.1746 64.5656 91.2168C64.5532 91.259 64.5273 91.296 64.4919 91.3222C64.4566 91.3484 64.4136 91.3622 64.3696 91.3617V91.3619Z" fill="white"/>
<path d="M88.2377 21.7686V35.5023H67.2625V21.7686L77.7501 28.7602L88.2377 21.7686Z" fill="#246BFD"/>
<path d="M88.2377 21.269H67.2625L77.7501 28.2608L88.2377 21.269Z" fill="#246BFD"/>
<path d="M88.2373 35.9544C88.1985 35.9545 88.1606 35.9433 88.1281 35.9223L77.748 29.2495L67.3689 35.6923C67.3232 35.7206 67.2682 35.7296 67.2159 35.7174C67.1636 35.7051 67.1183 35.6726 67.09 35.6269C67.0617 35.5813 67.0527 35.5263 67.0649 35.474C67.0772 35.4217 67.1097 35.3764 67.1554 35.3481L77.643 28.8378C77.6755 28.8177 77.7131 28.8072 77.7513 28.8075C77.7896 28.8078 77.827 28.8189 77.8592 28.8395L88.3468 35.5816C88.3841 35.605 88.4127 35.6399 88.4282 35.6811C88.4438 35.7222 88.4455 35.7673 88.4331 35.8095C88.4207 35.8517 88.3948 35.8887 88.3594 35.9149C88.3241 35.9411 88.2811 35.9549 88.2371 35.9544H88.2373Z" fill="white"/>
<path d="M117.272 158.218H124.683C126.713 158.218 128.72 158.646 130.574 159.473C132.428 160.3 134.087 161.509 135.443 163.02C136.799 164.531 137.821 166.31 138.444 168.243C139.066 170.175 139.275 172.217 139.056 174.235L133.385 226.483H99.521L96.2199 180.849C96.0105 177.956 96.3995 175.052 97.3627 172.316C98.3258 169.58 99.8423 167.073 101.818 164.949C103.793 162.826 106.185 161.132 108.844 159.974C111.503 158.816 114.372 158.218 117.272 158.218Z" fill="#B0B0D6"/>
<path d="M62.5482 158.218H80.2442C80.9693 158.218 81.6647 158.506 82.1774 159.019C82.6901 159.532 82.9781 160.227 82.9781 160.952V226.482H41.1133V179.653C41.1135 173.968 43.3719 168.516 47.3917 164.497C51.4115 160.477 56.8634 158.218 62.5482 158.218Z" fill="#B0B0D6"/>
<path d="M141.376 204.616H177.908L167.775 258.481H141.376V204.616Z" fill="#B0B0D6"/>
<path d="M45.6893 255.014L41.8739 267.271C41.7863 267.553 41.7662 267.851 41.8152 268.142C41.8641 268.433 41.9808 268.709 42.1559 268.947C42.3309 269.185 42.5593 269.378 42.8228 269.511C43.0862 269.644 43.3773 269.714 43.6726 269.714C45.176 269.714 46.6471 269.278 47.9074 268.458C49.1677 267.639 50.1631 266.471 50.7729 265.097L55.2461 255.014H45.6893Z" fill="#E28F59"/>
<path d="M73.0957 255.014L69.2804 267.271C69.1928 267.553 69.1727 267.851 69.2217 268.142C69.2706 268.433 69.3873 268.709 69.5624 268.947C69.7374 269.185 69.9658 269.378 70.2293 269.511C70.4927 269.644 70.7838 269.714 71.0791 269.714C72.5825 269.714 74.0536 269.278 75.3139 268.458C76.5743 267.639 77.5697 266.471 78.1794 265.097L82.6528 255.014H73.0957Z" fill="#FDAB71"/>
<path d="M166.648 255.014L170.464 267.271C170.551 267.553 170.571 267.851 170.522 268.142C170.473 268.433 170.357 268.709 170.182 268.947C170.007 269.185 169.778 269.378 169.515 269.511C169.251 269.644 168.96 269.714 168.665 269.714C167.162 269.714 165.691 269.278 164.43 268.458C163.17 267.639 162.174 266.471 161.565 265.097L157.091 255.014H166.648Z" fill="#FDAB71"/>
<path d="M139.242 255.014L143.057 267.271C143.145 267.553 143.165 267.851 143.116 268.142C143.067 268.433 142.95 268.709 142.775 268.947C142.6 269.185 142.372 269.378 142.108 269.511C141.845 269.644 141.554 269.714 141.259 269.714C139.755 269.714 138.284 269.278 137.024 268.458C135.763 267.639 134.768 266.471 134.158 265.097L129.685 255.014H139.242Z" fill="#E28F59"/>
<path d="M80.3614 158.218C85.712 158.218 90.8741 160.195 94.8565 163.768C98.8388 167.342 101.361 172.261 101.938 177.58L107.244 226.482H55.4931L55.3371 183.333C55.3251 180.04 55.9636 176.776 57.2158 173.729C58.4681 170.683 60.3095 167.913 62.6344 165.58C64.9593 163.246 67.722 161.395 70.764 160.132C73.806 158.869 77.0675 158.218 80.3614 158.218Z" fill="#EEEDFF"/>
<path d="M127.395 158.218C139.953 158.218 149.734 169.117 148.379 181.602L143.509 226.482H109.644L106.343 180.848C106.134 177.956 106.523 175.051 107.486 172.316C108.449 169.58 109.966 167.072 111.941 164.949C113.916 162.826 116.308 161.132 118.967 159.974C121.626 158.816 124.495 158.218 127.395 158.218Z" fill="#EEEDFF"/>
<path d="M130.888 178.217C131.968 178.217 132.843 177.342 132.843 176.262C132.843 175.182 131.968 174.307 130.888 174.307C129.808 174.307 128.932 175.182 128.932 176.262C128.932 177.342 129.808 178.217 130.888 178.217Z" fill="#C7C7E3"/>
<path d="M81.7535 178.217C82.8335 178.217 83.709 177.342 83.709 176.262C83.709 175.182 82.8335 174.307 81.7535 174.307C80.6736 174.307 79.7981 175.182 79.7981 176.262C79.7981 177.342 80.6736 178.217 81.7535 178.217Z" fill="#C7C7E3"/>
<path d="M26.9806 224.882H172.308V246.593C172.308 248.827 171.421 250.969 169.842 252.548C168.262 254.127 166.121 255.014 163.887 255.014H50.1652C44.016 255.014 38.1187 252.572 33.7706 248.223C29.4225 243.875 26.9797 237.978 26.9797 231.829V224.881L26.9806 224.882Z" fill="#C7C7E3"/>
<path d="M60.5792 199.55V255.014H41.0649C36.2727 255.014 31.8748 252.235 29.9398 247.85C24.2974 235.067 25.2959 215.14 25.5857 210.895L25.598 210.729C25.6005 210.675 25.6054 210.626 25.6079 210.579L25.6176 210.45C25.6227 210.391 25.6276 210.337 25.6301 210.29L25.6375 210.208C25.6424 210.124 25.6474 210.082 25.6474 210.082C25.6472 207.964 26.0644 205.866 26.8751 203.909C27.6857 201.951 28.8741 200.173 30.3721 198.675C31.8702 197.176 33.6487 195.988 35.6061 195.177C37.5635 194.367 39.6614 193.95 41.78 193.95H54.9795C55.7149 193.95 56.4431 194.095 57.1225 194.376C57.802 194.657 58.4193 195.07 58.9393 195.59C59.4592 196.11 59.8717 196.727 60.1531 197.407C60.4345 198.086 60.5793 198.815 60.5792 199.55Z" fill="#B0B0D6"/>
<path d="M187.696 217.679L183.237 244.014C182.716 247.09 181.123 249.883 178.74 251.896C176.357 253.909 173.338 255.014 170.218 255.014H164.596C164.062 255.014 163.533 254.906 163.042 254.696C162.551 254.487 162.107 254.181 161.737 253.796C161.367 253.411 161.078 252.955 160.889 252.456C160.699 251.956 160.612 251.424 160.633 250.891C160.957 242.521 162.445 232.017 163.956 223.136C164.546 219.67 165.139 216.448 165.665 213.697C166.221 210.802 167.896 208.243 170.327 206.575C172.759 204.908 175.749 204.267 178.65 204.791C181.552 205.316 184.129 206.963 185.822 209.376C187.516 211.789 188.189 214.773 187.696 217.68L187.696 217.679Z" fill="#C7C7E3"/>
<path d="M69.1944 254.903C68.7655 254.977 68.331 255.014 67.8956 255.014H60.5799C45.3805 244.081 44.8472 195.354 58.6861 195.354C61.3546 195.354 63.933 196.32 65.9453 198.072C67.9575 199.825 69.2677 202.247 69.6339 204.89L72.1621 223.136L75.3867 246.414C75.6556 248.356 75.1603 250.326 74.0051 251.909C72.85 253.493 71.1253 254.566 69.1944 254.903Z" fill="#C7C7E3"/>
<path d="M172.309 257.547V257.814C172.309 258.216 172.23 258.615 172.076 258.987C171.922 259.359 171.696 259.697 171.411 259.982C171.126 260.267 170.788 260.493 170.416 260.647C170.044 260.801 169.645 260.88 169.242 260.88H38.3142C37.9115 260.88 37.5128 260.801 37.1407 260.647C36.7686 260.493 36.4306 260.267 36.1458 259.982C35.8611 259.697 35.6352 259.359 35.4811 258.987C35.327 258.615 35.2478 258.216 35.2478 257.814V257.547C35.2481 256.168 35.7959 254.846 36.7709 253.871C37.7458 252.896 39.0681 252.348 40.4469 252.348H167.109C168.488 252.348 169.81 252.896 170.786 253.871C171.761 254.845 172.309 256.168 172.309 257.547Z" fill="#C7C7E3"/>
<path d="M57.2272 252.347V260.88H38.3142C37.9115 260.88 37.5128 260.801 37.1407 260.647C36.7686 260.493 36.4306 260.267 36.1458 259.982C35.8611 259.697 35.6352 259.359 35.4811 258.987C35.327 258.615 35.2478 258.216 35.2478 257.814V257.547C35.2481 256.168 35.7959 254.846 36.7709 253.871C37.7458 252.896 39.0681 252.348 40.4469 252.348L57.2272 252.347Z" fill="#B0B0D6"/>
<path d="M112.814 110.147C112.596 104.877 113.63 100.831 114.537 98.3638C115.524 95.683 116.549 94.2704 116.592 94.2115L116.919 94.4511C116.877 94.5074 112.805 100.19 113.219 110.13L112.814 110.147Z" fill="#251138"/>
<path d="M225.992 103.395L189.478 86.304L202.038 107.021L225.992 103.395Z" fill="#246BFD"/>
<path d="M224.475 92.6955L196.985 80.3815C196.126 79.9969 195.119 80.3811 194.734 81.2397L184.859 103.284C184.475 104.142 184.859 105.15 185.718 105.535L213.207 117.849C214.066 118.233 215.074 117.849 215.458 116.991L225.333 94.9464C225.717 94.0878 225.333 93.0801 224.475 92.6955Z" fill="#262BC6"/>
<path d="M215.316 102.981L193.006 92.987L192.773 93.5059L215.084 103.5L215.316 102.981Z" fill="white"/>
<path d="M204.67 96.5896L193.52 91.5948L193.288 92.1135L204.438 97.1083L204.67 96.5896Z" fill="white"/>
<path d="M217.439 100.753L194.101 90.2983L193.868 90.817L217.207 101.271L217.439 100.753Z" fill="white"/>
<path d="M211.797 96.6681L194.682 89.0016L194.45 89.5203L211.564 97.1868L211.797 96.6681Z" fill="white"/>
<path d="M218.341 98.0432L195.263 87.705L195.03 88.2237L218.109 98.5619L218.341 98.0432Z" fill="white"/>
<path d="M207.923 89.3288L196.773 84.334L196.54 84.8527L207.691 89.8475L207.923 89.3288Z" fill="white"/>
<path d="M225.986 103.142L215.195 127.233L178.401 110.752L189.193 86.6604L202.096 107.166L225.986 103.142Z" fill="#246BFD"/>
<path d="M214.171 127.874C214.137 127.874 214.104 127.866 214.074 127.85C214.044 127.833 214.019 127.81 214.001 127.782L200.972 107.822L177.587 110.983C177.533 110.991 177.479 110.976 177.437 110.944C177.394 110.911 177.366 110.863 177.359 110.81C177.352 110.757 177.366 110.703 177.398 110.66C177.431 110.617 177.479 110.589 177.532 110.582L201.045 107.403C201.083 107.398 201.121 107.404 201.156 107.42C201.191 107.436 201.22 107.461 201.241 107.493L214.341 127.56C214.355 127.583 214.365 127.608 214.37 127.634C214.375 127.66 214.375 127.687 214.369 127.713C214.364 127.739 214.353 127.764 214.338 127.786C214.323 127.808 214.304 127.826 214.281 127.841C214.249 127.862 214.21 127.874 214.171 127.874Z" fill="white"/>
<path d="M70.7829 207.003C74.2496 207.003 77.06 204.192 77.06 200.726C77.06 197.259 74.2496 194.449 70.7829 194.449C67.3162 194.449 64.5059 197.259 64.5059 200.726C64.5059 204.192 67.3162 207.003 70.7829 207.003Z" fill="#494E6D"/>
<path d="M94.135 208.074C97.7491 208.074 100.679 205.144 100.679 201.53C100.679 197.916 97.7491 194.986 94.135 194.986C90.521 194.986 87.5913 197.916 87.5913 201.53C87.5913 205.144 90.521 208.074 94.135 208.074Z" fill="#494E6D"/>
<path d="M91.7959 92.2585C92.1127 91.6249 93.063 84.9731 88.417 78.0035C83.771 71.0339 87.5722 66.7051 84.6156 63.8533C81.6591 61.0016 79.5471 62.3751 79.5471 62.3751C79.5471 62.3751 78.808 59.7352 76.0626 58.5737C73.3172 57.4122 68.9878 58.1514 66.4536 62.2694C63.9193 66.3874 64.2361 67.8659 65.6089 75.9966C66.9817 84.1273 61.4907 85.2888 61.5964 90.4628C61.7021 95.6367 55.0496 101.656 52.7265 115.066C50.4035 128.476 53.6768 135.023 63.9193 133.65C74.1618 132.278 91.7959 92.2585 91.7959 92.2585Z" fill="#251138"/>
<path d="M44.0835 254.621L58.3792 264.291C58.8284 264.594 59.1584 265.045 59.3131 265.564C59.4678 266.084 59.4376 266.641 59.2277 267.141C58.9868 267.715 58.528 268.169 57.9521 268.404C57.3763 268.64 56.7306 268.637 56.157 268.396L33.9707 259.079L37.4909 251.945L44.0835 254.621Z" fill="#1C5276"/>
<path d="M41.1953 257.39L38.0416 256.066C37.59 255.876 37.2322 255.515 37.047 255.061C36.8617 254.608 36.8642 254.099 37.0539 253.648L39.9419 246.771L46.502 249.526L43.614 256.402C43.5201 256.626 43.383 256.829 43.2106 257C43.0382 257.171 42.8339 257.306 42.6092 257.397C42.3846 257.489 42.1441 257.536 41.9015 257.534C41.6589 257.533 41.4189 257.484 41.1953 257.39Z" fill="#FB855F"/>
<path d="M96.1845 262.327L113.22 265.096C113.755 265.183 114.244 265.453 114.602 265.859C114.961 266.266 115.168 266.785 115.187 267.326C115.198 267.634 115.149 267.941 115.041 268.23C114.934 268.518 114.77 268.783 114.561 269.008C114.351 269.234 114.099 269.416 113.819 269.544C113.538 269.672 113.236 269.744 112.928 269.755L88.8801 270.621L89.0778 262.669L96.1845 262.327Z" fill="#1C5276"/>
<path d="M94.7257 266.054L91.3067 266.177C90.8172 266.195 90.3407 266.018 89.9821 265.684C89.6235 265.35 89.4121 264.888 89.3945 264.398L89.126 256.944L96.2358 256.688L96.5043 264.142C96.5219 264.631 96.3445 265.108 96.0109 265.466C95.6774 265.825 95.2151 266.036 94.7257 266.054Z" fill="#FB855F"/>
<path d="M148.857 97.8993C148.857 97.8993 135.164 100.84 124.484 105.342C121.302 106.681 118.386 108.16 116.178 109.739C112.755 112.198 111.044 114.896 112.701 117.706C112.952 118.134 113.274 118.516 113.654 118.836C113.658 118.836 113.661 118.836 113.661 118.84C113.989 119.115 114.351 119.346 114.739 119.528C114.748 119.533 114.757 119.538 114.767 119.541C115.59 119.904 116.47 120.122 117.367 120.186C119.588 120.394 122.34 119.982 125.314 119.191C137.1 116.061 152.401 107.014 152.401 107.014C153.731 101.615 148.857 97.8993 148.857 97.8993Z" fill="#80C2C1"/>
<path d="M85.3156 103.174C85.3156 103.174 99.3649 114.735 110.899 118.832C114.752 120.202 118.321 120.739 120.996 119.738C120.998 119.735 121 119.733 121.003 119.735C121.403 119.585 121.787 119.396 122.151 119.172C122.16 119.167 122.169 119.162 122.177 119.155C122.941 118.673 123.59 118.03 124.08 117.271C124.237 117.038 124.378 116.795 124.505 116.545C125.626 114.35 124.614 111.888 122.371 109.394C120.581 107.404 118.008 105.391 115.107 103.469C105.447 97.0819 92.1636 91.7351 92.1636 91.7351C86.4357 90.6332 80.778 98.4108 85.3156 103.174Z" fill="#80C2C1"/>
<path d="M35.6257 94.3597C35.6322 94.3622 35.638 94.3662 35.6425 94.3715C35.9222 94.5503 36.1978 94.7151 36.4715 94.8562C37.5394 95.4137 38.5994 95.6755 39.63 95.5733C40.0038 95.5342 40.3713 95.4481 40.7236 95.3172C43.1305 94.424 43.8764 92.2654 43.5399 89.4031C43.2419 86.8197 42.0626 83.6656 40.4363 80.351C35.1573 69.5886 25.1638 57.1417 25.1638 57.1417C25.1638 57.1417 19.0419 56.9482 16.6653 61.9792C16.6653 61.9792 23.1905 79.6304 30.6252 89.3488C32.2673 91.5009 33.9563 93.2602 35.6257 94.3597Z" fill="#80C2C1"/>
<path d="M30.9564 89.2239C30.9591 89.2302 30.9603 89.2371 30.9597 89.2439C31.0162 89.5595 31.0967 89.8702 31.2003 90.1735C31.5725 91.2 32.1584 92.1358 32.9192 92.9189C34.4305 94.5372 36.6775 95.9149 39.3225 97.0886C50.4673 102.031 68.6808 103.321 68.6808 103.321C75.2581 103.131 76.6591 93.8319 71.8141 90.5816C71.8141 90.5816 56.1986 84.3287 44.2813 82.7577C40.2521 82.226 36.644 82.2294 34.2065 83.1923C32.7118 83.7812 31.6585 84.7271 31.2138 86.1282C30.8786 87.124 30.7902 88.1864 30.9564 89.2239Z" fill="#80C2C1"/>
<path d="M92.7764 211.219C95.2879 211.221 97.7047 210.26 99.5303 208.536C101.356 206.811 102.452 204.452 102.592 201.945C103.811 179.901 104.347 157.32 103.83 140.758H82.3162C82.9959 159.624 83.163 181.577 82.9456 201.278C82.931 202.578 83.1745 203.869 83.662 205.074C84.1495 206.28 84.8713 207.376 85.7856 208.301C86.7 209.226 87.7886 209.96 88.9886 210.461C90.1886 210.962 91.476 211.219 92.7764 211.219Z" fill="#262BC6"/>
<path d="M92.1976 189.42C93.5322 189.371 94.8626 189.596 96.107 190.081C97.3514 190.566 98.4836 191.3 99.4339 192.238C100.384 193.176 101.132 194.299 101.633 195.537C102.133 196.775 102.375 198.103 102.343 199.438C101.892 218.465 101.273 246.272 100.869 258.476L84.2318 259.075C84.3926 245.181 83.1682 216.754 82.7583 199.437C82.6975 196.862 83.6542 194.366 85.4211 192.491C87.1881 190.615 89.6228 189.512 92.1976 189.42Z" fill="#262BC6"/>
<path d="M70.5922 205.518C73.1037 205.541 75.5288 204.602 77.3693 202.893C79.2097 201.183 80.3259 198.834 80.4884 196.328C81.8982 174.296 82.6297 151.721 82.2571 135.155L60.7439 134.968C61.2599 153.839 61.2365 175.793 60.848 195.491C60.8221 196.791 61.0543 198.084 61.5313 199.294C62.0083 200.503 62.7206 201.606 63.6269 202.539C64.5331 203.471 65.6154 204.215 66.811 204.726C68.0066 205.238 69.2918 205.507 70.5922 205.518Z" fill="#262BC6"/>
<path d="M74.8308 187.469C76.047 188.021 77.1376 188.815 78.0356 189.803C78.9335 190.792 79.6199 191.953 80.0525 193.217C80.485 194.48 80.6547 195.819 80.551 197.15C80.4472 198.481 80.0723 199.777 79.4493 200.958C70.5672 217.791 57.6227 242.409 51.8233 253.154L36.6621 246.278C42.9967 233.911 54.5672 207.916 61.9171 192.231C63.0103 189.898 64.979 188.09 67.3962 187.199C69.8135 186.308 72.4847 186.405 74.8308 187.469Z" fill="#262BC6"/>
<path d="M103.83 140.758C103.83 140.758 103.28 97.0935 91.2391 90.8778C84.3365 87.3146 70.0507 88.282 62.7656 93.2053C55.4129 98.1739 60.6059 140.758 60.6059 140.758H103.83Z" fill="#80C2C1"/>
<path d="M25.4521 59.313C25.4521 59.313 26.0947 56.9477 25.4573 55.0498C24.82 53.1519 24.1545 51.9539 24.6161 49.654C25.0776 47.3542 22.4705 47.2502 22.1607 49.263C21.851 51.2759 21.8227 54.5353 19.5134 53.3604C17.2041 52.1854 15.7815 45.7093 12.7281 48.4912C12.7281 48.4912 11.3724 45.7623 10.235 46.4939C9.09763 47.2255 10.3106 49.7065 10.3106 49.7065C10.3106 49.7065 6.6847 49.2815 10.8995 55.0288C10.8995 55.0288 9.30425 55.7018 9.97407 56.9216C11.045 58.8734 15.0109 61.8922 18.7233 63.2963C24.755 65.5785 25.4521 59.313 25.4521 59.313Z" fill="#FD8B66"/>
<path d="M17.504 55.0215C13.048 50.3659 12.6436 48.5851 12.6287 48.5116L12.827 48.471L12.7278 48.4912L12.8269 48.4707C12.8306 48.4875 13.2539 50.2879 17.6504 54.8812L17.504 55.0215Z" fill="#E56542"/>
<path d="M15.4949 56.3741C12.9292 54.1215 10.2506 49.8034 10.2239 49.7602L10.3962 49.6537C10.4228 49.6969 13.0859 53.9896 15.6289 56.2218L15.4949 56.3741Z" fill="#E56542"/>
<path d="M14.3098 58.2438C12.7561 56.9055 10.8498 55.1205 10.8308 55.1025L10.9693 54.9547C10.9883 54.9726 12.8916 56.755 14.4419 58.0903L14.3098 58.2438Z" fill="#E56542"/>
<path d="M148.293 98.738C148.293 98.738 149.831 96.947 151.736 96.3362C153.64 95.7254 154.996 95.5286 156.587 93.9039C158.177 92.2792 159.777 94.089 158.331 95.4433C156.884 96.7975 154.266 98.6512 156.558 99.6451C158.851 100.639 164.913 98.0152 164.439 101.768C164.439 101.768 167.433 101.204 167.504 102.431C167.574 103.657 164.863 104.184 164.863 104.184C164.863 104.184 167.315 106.543 160.218 106.755C160.218 106.755 160.602 108.277 159.226 108.483C157.026 108.814 152.28 107.67 148.986 105.801C143.634 102.762 148.293 98.738 148.293 98.738Z" fill="#FD8B66"/>
<path d="M160.76 102.251C159.637 102.251 158.204 102.192 156.388 102.028L156.407 101.826C162.706 102.396 164.382 101.683 164.398 101.675L164.481 101.86C164.432 101.882 163.565 102.251 160.76 102.251Z" fill="#E56542"/>
<path d="M160.384 104.499C159.072 104.516 157.761 104.425 156.464 104.228L156.499 104.029C159.783 104.595 164.802 104.089 164.852 104.083L164.873 104.285C164.841 104.288 162.752 104.499 160.384 104.499Z" fill="#E56542"/>
<path d="M160.204 106.855C160.178 106.852 157.627 106.49 155.642 106.13L155.678 105.93C157.659 106.29 160.207 106.651 160.232 106.655L160.204 106.855Z" fill="#E56542"/>
<path d="M78.4178 96.3628C82.9721 96.3628 85.0485 91.0429 83.8248 89.819C83.4587 89.4323 83.1673 88.9811 82.9654 88.4883H82.962C82.6536 87.7492 82.4456 86.972 82.3435 86.1777L82.3401 86.1743L73.9205 78.6643C74.3748 83.4459 72.3288 86.8029 71.5865 89.1938C70.8475 91.5845 73.2384 96.3628 78.4178 96.3628Z" fill="#FB855F"/>
<path d="M75.3984 84.3185C77.8127 88.9365 82.8216 88.4782 82.962 88.4883C82.6536 87.7492 82.4455 86.972 82.3435 86.1777L82.3401 86.1743C82.1126 86.0439 73.1354 79.9901 75.3984 84.3185Z" fill="#E56542"/>
<path d="M66.3665 68.3225C66.3665 68.3225 65.9349 72.6803 71.3657 78.2482C77.0592 84.0853 72.2238 68.4682 72.2238 68.4682L66.3665 68.3225Z" fill="#251138"/>
<path d="M83.8775 68.869C83.8775 68.869 84.0826 72.7304 84.4663 77.0926C85.0154 83.3283 84.2747 88.1531 78.2288 87.0442C68.0748 85.1814 71.8419 68.4548 71.8419 68.4548L83.8775 68.869Z" fill="#FB855F"/>
<path d="M99.6122 106.44C99.5843 106.334 96.8045 95.8047 93.998 93.4533L94.2582 93.1429C97.1632 95.5765 99.8893 105.899 100.004 106.337L99.6122 106.44Z" fill="#251138"/>
<path d="M120.258 107.134L119.659 113.233L120.062 113.273L120.661 107.173L120.258 107.134Z" fill="#251138"/>
<path d="M41.3635 82.1952L38.5786 86.8534L38.9264 87.0613L41.7113 82.4031L41.3635 82.1952Z" fill="#251138"/>
<path d="M92.9574 162.689L74.373 161.844L80.2862 143.26L89.156 141.993L92.9574 162.689Z" fill="#262BC6"/>
<path d="M81.5703 153.599L81.5366 153.195L86.3951 152.79L84.9426 140.962L85.3445 140.912L86.8486 153.159L81.5703 153.599Z" fill="#251138"/>
<path d="M71.3624 82.2365C73.2723 82.2365 74.8206 80.6882 74.8206 78.7783C74.8206 76.8685 73.2723 75.3202 71.3624 75.3202C69.4526 75.3202 67.9043 76.8685 67.9043 78.7783C67.9043 80.6882 69.4526 82.2365 71.3624 82.2365Z" fill="#FB855F"/>
<path d="M103.805 159.743L101.348 157.575L100.499 140.595L100.903 140.575L101.744 157.384L104.073 159.44L103.805 159.743Z" fill="#251138"/>
<path d="M61.2617 161.615L61.0608 161.263L64.171 159.486L64.6991 141.783L65.1039 141.795L64.5691 159.725L61.2617 161.615Z" fill="#251138"/>
<path d="M100.868 258.476L101.216 253.114L84.7313 253.074L84.2312 259.075L100.868 258.476Z" fill="#251138"/>
<path d="M54.8435 247.45L51.8233 253.154L36.6621 246.278L39.7439 240.572L54.8435 247.45Z" fill="#251138"/>
<path d="M78.3562 99.1905C72.1228 99.1905 70.2063 94.9229 68.4082 89.3997L68.7932 89.2744C70.6736 95.0495 72.6809 99.4129 79.8441 98.7092C86.7481 98.0325 86.1452 88.6022 86.1383 88.507L86.5421 88.4777C86.5492 88.5768 87.176 98.3976 79.8835 99.1124C79.3475 99.1651 78.8385 99.1911 78.3562 99.1905Z" fill="#251138"/>
<path d="M71.4979 71.0647C71.4979 71.0647 72.8622 68.3091 75.6433 69.5348C78.4244 70.7605 79.5551 72.3995 81.2055 71.9864C82.8559 71.5734 83.8779 68.869 83.8779 68.869C83.8779 68.869 82.7738 59.5348 73.5923 60.4272C64.4108 61.3196 66.5265 69.2942 66.5265 69.2942L69.3195 71.2379L71.4979 71.0647Z" fill="#251138"/>
<path d="M77.2771 76.3843C77.6756 76.3843 77.9986 76.0613 77.9986 75.6628C77.9986 75.2643 77.6756 74.9413 77.2771 74.9413C76.8787 74.9413 76.5557 75.2643 76.5557 75.6628C76.5557 76.0613 76.8787 76.3843 77.2771 76.3843Z" fill="#8E3332"/>
<path d="M81.9309 75.8756C82.3294 75.8756 82.6524 75.5526 82.6524 75.1542C82.6524 74.7557 82.3294 74.4327 81.9309 74.4327C81.5325 74.4327 81.2095 74.7557 81.2095 75.1542C81.2095 75.5526 81.5325 75.8756 81.9309 75.8756Z" fill="#8E3332"/>
<path d="M80.7053 80.2401C80.4094 80.2384 80.1173 80.1737 79.8484 80.0502L80.0149 79.68C80.82 80.0436 81.4971 79.7214 81.6765 79.3494C81.8392 79.0129 81.6124 78.6441 81.0699 78.3653C79.2777 77.4448 79.5341 75.5289 79.5369 75.5095L79.9377 75.5674C79.8823 76.0596 79.9788 76.5569 80.2142 76.9927C80.4497 77.4285 80.8129 77.7817 81.255 78.0051C82.1528 78.4662 82.2499 79.0928 82.0412 79.5254C81.8405 79.9425 81.3219 80.2401 80.7053 80.2401Z" fill="#8E3332"/>
<path d="M83.031 81.6992L80.2905 82.1145C80.2905 82.1145 80.7472 83.9 81.9929 83.6924C83.2387 83.4848 83.031 81.6992 83.031 81.6992Z" fill="white"/>
<path d="M75.0154 74.3908L74.6453 74.2247C74.833 73.7879 75.1342 73.4093 75.5176 73.1282C75.9011 72.8471 76.3528 72.6738 76.8258 72.6263L76.8467 73.0301L76.8363 72.8282L76.8472 73.0301C76.4486 73.0739 76.0688 73.223 75.7468 73.4621C75.4249 73.7012 75.1725 74.0218 75.0154 74.3908Z" fill="#8E3332"/>
<path d="M80.0867 72.9944L79.8523 72.6642C81.005 71.8461 82.5216 72.1947 82.5857 72.2099L82.4922 72.6039C82.4784 72.6009 81.0876 72.2842 80.0867 72.9944Z" fill="#8E3332"/>
<path d="M70.6664 80.4629L70.2656 80.4008C70.4519 79.1894 71.6679 78.7789 72.2847 78.7309L72.3165 79.1347C72.2573 79.1401 70.8502 79.2681 70.6664 80.4629Z" fill="#8E3332"/>
<path d="M204.567 113.708H128.781C122.577 113.708 117.548 118.738 117.548 124.942V259.528C117.548 265.732 122.577 270.762 128.781 270.762H204.567C210.772 270.762 215.801 265.732 215.801 259.528V124.942C215.801 118.738 210.772 113.708 204.567 113.708Z" fill="white" stroke="#251138" stroke-width="0.248795" stroke-miterlimit="10"/>
<path d="M208.27 134.183V246.967C208.27 253.433 203.218 258.727 197.037 258.727H136.309C130.131 258.727 125.076 253.435 125.076 246.967V134.183C125.076 127.714 130.131 122.422 136.309 122.422H152.029C152.917 122.422 153.636 123.175 153.636 124.105C153.636 126.485 155.496 128.433 157.77 128.433H175.168C177.442 128.433 179.302 126.485 179.302 124.105C179.302 123.175 180.022 122.422 180.909 122.422H197.038C203.216 122.422 208.27 127.714 208.27 134.183Z" fill="white" stroke="#251138" stroke-width="0.248795" stroke-miterlimit="10"/>
<path d="M197.2 140.777H136.132C133.666 140.777 131.667 142.776 131.667 145.242V206.31C131.667 208.776 133.666 210.775 136.132 210.775H197.2C199.666 210.775 201.665 208.776 201.665 206.31V145.242C201.665 142.776 199.666 140.777 197.2 140.777Z" fill="#246BFD"/>
<path d="M191.137 176.778H142.194C139.728 176.778 137.729 178.777 137.729 181.242V182.969C137.729 185.434 139.728 187.433 142.194 187.433H191.137C193.603 187.433 195.602 185.434 195.602 182.969V181.242C195.602 178.777 193.603 176.778 191.137 176.778Z" fill="#30354F"/>
<path d="M191.137 191.407H142.194C139.728 191.407 137.729 193.406 137.729 195.872V197.598C137.729 200.064 139.728 202.063 142.194 202.063H191.137C193.603 202.063 195.602 200.064 195.602 197.598V195.872C195.602 193.406 193.603 191.407 191.137 191.407Z" fill="#30354F"/>
<path d="M179.106 158.93C179.107 161.391 178.377 163.796 177.011 165.842C175.644 167.888 173.701 169.483 171.428 170.425C169.155 171.367 166.653 171.614 164.24 171.134C161.827 170.654 159.61 169.47 157.87 167.73C156.129 165.99 154.944 163.774 154.464 161.361C153.984 158.947 154.23 156.446 155.171 154.172C156.112 151.899 157.707 149.956 159.752 148.589C161.798 147.221 164.203 146.491 166.664 146.491C168.299 146.486 169.919 146.805 171.43 147.428C172.942 148.051 174.315 148.967 175.472 150.123C176.628 151.279 177.544 152.653 178.168 154.164C178.792 155.675 179.111 157.295 179.106 158.93Z" fill="#30354F"/>
<path d="M166.665 161.494C169.321 161.494 171.474 159.34 171.474 156.684C171.474 154.028 169.321 151.875 166.665 151.875C164.009 151.875 161.856 154.028 161.856 156.684C161.856 159.34 164.009 161.494 166.665 161.494Z" fill="white"/>
<path d="M175.545 167.644C174.387 168.823 173.005 169.76 171.481 170.4C169.956 171.04 168.319 171.369 166.666 171.369C165.012 171.369 163.376 171.04 161.851 170.4C160.326 169.76 158.945 168.823 157.786 167.644C158.396 165.942 159.481 164.452 160.913 163.35C162.346 162.248 164.064 161.581 165.865 161.427C166.397 161.378 166.931 161.378 167.463 161.427C169.264 161.58 170.984 162.247 172.417 163.349C173.85 164.451 174.936 165.942 175.545 167.644Z" fill="white"/>
<path d="M173.064 221.76H160.265C157.799 221.76 155.8 223.759 155.8 226.224V233.003C155.8 235.469 157.799 237.468 160.265 237.468H173.064C175.53 237.468 177.529 235.469 177.529 233.003V226.224C177.529 223.759 175.53 221.76 173.064 221.76Z" fill="#30354F"/>
<path d="M173.34 227.704H161.675C161.221 227.704 160.853 228.072 160.853 228.526C160.853 228.98 161.221 229.349 161.675 229.349H173.34C173.794 229.349 174.162 228.98 174.162 228.526C174.162 228.072 173.794 227.704 173.34 227.704Z" fill="white"/>
<path d="M169.463 228.851C169.463 228.508 169.185 228.231 168.843 228.231C168.5 228.231 168.223 228.508 168.223 228.851V232.415C168.223 232.758 168.5 233.035 168.843 233.035C169.185 233.035 169.463 232.758 169.463 232.415V228.851Z" fill="white"/>
<path d="M160.913 226.588H160.913C159.951 226.588 159.17 227.368 159.17 228.331V229.119C159.17 230.082 159.951 230.862 160.913 230.862H160.913C161.876 230.862 162.657 230.082 162.657 229.119V228.331C162.657 227.368 161.876 226.588 160.913 226.588Z" fill="white"/>
<path d="M172.574 228.693C172.574 228.351 172.297 228.073 171.954 228.073C171.611 228.073 171.334 228.351 171.334 228.693V232.258C171.334 232.6 171.611 232.878 171.954 232.878C172.297 232.878 172.574 232.6 172.574 232.258V228.693Z" fill="white"/>
<path d="M199.166 164.144C192.632 164.222 191.428 180.106 196.763 184.943C202.098 189.781 208.207 192.711 207.32 196.675C206.432 200.64 204.328 206.934 209.287 211.514C214.246 216.094 215.897 228.087 215.897 228.087L221.679 229.383C221.679 229.383 227.506 214.208 225.093 207.943C222.679 201.678 220.873 195.028 221.743 190.366C222.614 185.704 216.938 187.034 215.018 182.441C213.098 177.848 208.732 164.032 199.166 164.144Z" fill="#262BC6"/>
<path d="M220.828 233.446C220.815 233.446 220.802 233.446 220.789 233.444C220.719 233.433 220.657 233.396 220.615 233.339C220.573 233.283 220.555 233.212 220.565 233.142C221.995 223.379 220.719 209.542 217.235 197.03C213.483 183.554 207.911 173.977 201.948 170.754C201.917 170.738 201.889 170.716 201.866 170.689C201.843 170.662 201.825 170.631 201.815 170.597C201.804 170.563 201.8 170.527 201.804 170.492C201.807 170.456 201.818 170.422 201.834 170.391C201.851 170.36 201.874 170.332 201.902 170.31C201.93 170.288 201.961 170.271 201.996 170.261C202.03 170.252 202.065 170.249 202.101 170.253C202.136 170.258 202.17 170.269 202.201 170.287C208.289 173.578 213.955 183.273 217.746 196.888C221.249 209.466 222.531 223.388 221.09 233.22C221.081 233.283 221.049 233.34 221.001 233.382C220.953 233.423 220.892 233.446 220.828 233.446Z" fill="white"/>
<path d="M228.391 168.853C215.273 167.902 216.522 186.657 217.771 191.654C219.021 196.652 215.741 198.37 216.21 200.869C216.678 203.367 219.801 204.929 218.786 206.881C217.771 208.833 216.717 224.335 223.335 231.03C223.335 231.03 233.701 218.36 231.671 213.519C229.641 208.677 224.486 206.178 228.391 203.367C232.296 200.556 234.794 198.057 234.169 195.246C233.545 192.435 230.109 190.873 231.671 186.969C233.232 183.064 239.167 169.634 228.391 168.853Z" fill="#246BFD"/>
<path d="M223.549 233.462C223.484 233.462 223.421 233.438 223.372 233.394C223.323 233.35 223.292 233.29 223.285 233.224C221.346 214.797 222.769 202.074 224.304 194.646C225.973 186.575 228.073 182.926 228.162 182.774C228.197 182.713 228.255 182.669 228.324 182.651C228.392 182.633 228.464 182.643 228.525 182.679C228.586 182.715 228.63 182.773 228.648 182.841C228.666 182.909 228.656 182.982 228.62 183.042C228.535 183.189 220.121 198.083 223.814 233.169C223.818 233.206 223.814 233.243 223.802 233.279C223.791 233.314 223.772 233.347 223.747 233.374C223.722 233.402 223.692 233.424 223.658 233.439C223.623 233.454 223.587 233.462 223.549 233.462Z" fill="#30354F"/>
<path d="M235.158 261.596V262.771C235.158 264.831 234.339 266.807 232.882 268.263C231.426 269.72 229.45 270.539 227.39 270.539H211.8C209.74 270.539 207.764 269.72 206.307 268.263C204.851 266.807 204.032 264.831 204.032 262.771V261.596C204.032 259.951 204.555 258.348 205.524 257.018C206.494 255.688 207.86 254.701 209.427 254.197C209.87 254.058 210.256 253.777 210.524 253.397C210.793 253.017 210.929 252.56 210.912 252.095C210.91 252.042 210.907 251.986 210.899 251.93L210.468 248.356L210.461 248.303L210.011 244.569L207.601 224.615L207.516 223.911C207.495 223.743 207.51 223.573 207.56 223.412C207.61 223.251 207.694 223.102 207.806 222.976C207.918 222.85 208.055 222.748 208.209 222.679C208.363 222.61 208.53 222.574 208.698 222.574H230.494C230.662 222.574 230.829 222.61 230.983 222.679C231.137 222.748 231.275 222.849 231.386 222.976C231.498 223.102 231.582 223.251 231.632 223.412C231.682 223.573 231.697 223.743 231.676 223.911L231.591 224.615L231.466 225.646L230.908 230.271L230.9 230.334L230.342 234.959L228.293 251.93C228.236 252.42 228.352 252.915 228.621 253.329C228.89 253.743 229.295 254.05 229.766 254.197C231.332 254.701 232.698 255.689 233.667 257.018C234.636 258.348 235.158 259.951 235.158 261.596Z" fill="#C7C7E3"/>
<path d="M231.676 223.911L231.591 224.615H207.601L207.516 223.911C207.495 223.743 207.51 223.573 207.56 223.412C207.61 223.251 207.694 223.102 207.806 222.976C207.918 222.85 208.055 222.748 208.209 222.679C208.363 222.61 208.53 222.574 208.698 222.574H230.493C230.662 222.574 230.829 222.61 230.983 222.679C231.137 222.748 231.274 222.849 231.386 222.976C231.498 223.102 231.582 223.251 231.632 223.412C231.682 223.573 231.697 223.743 231.676 223.911Z" fill="#B0B0D6"/>
<path d="M231.466 225.646L230.908 230.271L230.9 230.334L210.468 248.356L210.46 248.303L210.011 244.569L231.466 225.646Z" fill="#B0B0D6"/>
<path d="M230.908 230.271L230.9 230.334L230.342 234.959L210.912 252.095C210.91 252.042 210.907 251.986 210.899 251.93L210.469 248.356L210.461 248.303L230.908 230.271Z" fill="#B0B0D6"/>
</svg>
