<svg width="48" height="48" viewBox="0 0 48 48" fill="none" xmlns="http://www.w3.org/2000/svg">
<path d="M32.7201 23.3272C34.0026 22.0448 34.2686 20.1504 33.4851 18.717C33.2202 18.2324 33.2038 17.6027 33.5943 17.2122L38.6376 12.169C38.8363 11.9703 38.8323 11.6469 38.6287 11.4532L35.7729 8.73545C35.5764 8.5484 35.2666 8.55224 35.0747 8.74409L30.1005 13.7183C29.7099 14.1089 29.0803 14.0925 28.5957 13.8276C27.1623 13.044 25.2679 13.3101 23.9854 14.5925C22.4459 16.132 22.3711 18.5533 23.8183 20.0005C24.4306 20.6127 25.2171 20.9525 26.0374 21.0243C26.1702 21.036 26.2767 21.1424 26.2883 21.2752C26.3601 22.0956 26.7 22.8821 27.3122 23.4943C28.7594 24.9415 31.1806 24.8667 32.7201 23.3272Z" fill="#246BFD"/>
<path d="M14.5761 24.0017C13.2956 25.2822 13.0313 27.1749 13.8153 28.6078C14.0804 29.0923 14.0967 29.722 13.7062 30.1125L8.75819 35.0605C8.56696 35.2517 8.56244 35.5604 8.748 35.7571L11.4531 38.6255C11.6465 38.8306 11.9711 38.8353 12.1705 38.636L17.2001 33.6064C17.5906 33.2158 18.2202 33.2322 18.7047 33.4973C20.1377 34.2813 22.0303 34.0169 23.3108 32.7364C24.848 31.1993 24.9209 28.78 23.4737 27.3328C22.8614 26.7205 22.0751 26.3803 21.2553 26.308C21.1226 26.2963 21.0163 26.1899 21.0046 26.0573C20.9322 25.2375 20.5921 24.4512 19.9798 23.8389C18.5326 22.3917 16.1133 22.4646 14.5761 24.0017Z" fill="#246BFD"/>
<path opacity="0.5" fill-rule="evenodd" clip-rule="evenodd" d="M15.2929 15.2929C15.6834 14.9024 16.3166 14.9024 16.7071 15.2929L17.7071 16.2929C18.0976 16.6834 18.0976 17.3166 17.7071 17.7071C17.3166 18.0976 16.6834 18.0976 16.2929 17.7071L15.2929 16.7071C14.9024 16.3166 14.9024 15.6834 15.2929 15.2929Z" fill="#246BFD"/>
<path opacity="0.5" fill-rule="evenodd" clip-rule="evenodd" d="M20 14.0002C20.5523 14.0002 21 14.4479 21 15.0002L21 16.0002C21 16.5524 20.5523 17.0002 20 17.0002C19.4477 17.0002 19 16.5524 19 16.0002L19 15.0002C19 14.4479 19.4477 14.0002 20 14.0002Z" fill="#246BFD"/>
<path opacity="0.5" fill-rule="evenodd" clip-rule="evenodd" d="M14 20.0001C14 19.4478 14.4478 19.0001 15 19.0001L16 19.0001C16.5523 19.0001 17 19.4478 17 20.0001C17 20.5524 16.5523 21.0001 16 21.0001L15 21.0001C14.4478 21.0001 14 20.5524 14 20.0001Z" fill="#246BFD"/>
<path opacity="0.5" fill-rule="evenodd" clip-rule="evenodd" d="M32.7074 32.7071C32.3168 33.0976 31.6837 33.0976 31.2931 32.7071L30.2931 31.7071C29.9026 31.3166 29.9026 30.6834 30.2931 30.2929C30.6837 29.9024 31.3168 29.9024 31.7074 30.2929L32.7074 31.2929C33.0979 31.6834 33.0979 32.3166 32.7074 32.7071Z" fill="#246BFD"/>
<path opacity="0.5" fill-rule="evenodd" clip-rule="evenodd" d="M28.0002 33.9998C27.448 33.9998 27.0002 33.5521 27.0002 32.9998L27.0002 31.9998C27.0002 31.4476 27.448 30.9998 28.0002 30.9998C28.5525 30.9998 29.0002 31.4476 29.0002 31.9998L29.0002 32.9998C29.0002 33.5521 28.5525 33.9998 28.0002 33.9998Z" fill="#246BFD"/>
<path opacity="0.5" fill-rule="evenodd" clip-rule="evenodd" d="M34.0002 27.9999C34.0002 28.5522 33.5525 28.9999 33.0002 28.9999L32.0002 28.9999C31.4479 28.9999 31.0002 28.5522 31.0002 27.9999C31.0002 27.4476 31.4479 26.9999 32.0002 26.9999L33.0002 26.9999C33.5525 26.9999 34.0002 27.4476 34.0002 27.9999Z" fill="#246BFD"/>
</svg>
