<svg width="275" height="275" viewBox="0 0 275 275" fill="none" xmlns="http://www.w3.org/2000/svg">
<path d="M273.856 235.293C280.488 222.168 261.532 156.538 130.096 156.538C35.2251 156.538 -8.31795 210.257 1.30855 237.481" fill="url(#paint0_radial_156_1084)"/>
<mask id="mask0_156_1084" style="mask-type:luminance" maskUnits="userSpaceOnUse" x="0" y="156" width="275" height="82">
<path d="M273.856 235.293C280.488 222.168 261.532 156.538 130.096 156.538C35.2251 156.538 -8.31795 210.257 1.30855 237.481" fill="white"/>
</mask>
<g mask="url(#mask0_156_1084)">
<ellipse opacity="0.671968" cx="109.823" cy="214.495" rx="7.22839" ry="4.01501" fill="url(#paint1_linear_156_1084)"/>
<ellipse opacity="0.256348" cx="183.602" cy="187.214" rx="11.4048" ry="6.26342" fill="url(#paint2_linear_156_1084)"/>
<ellipse opacity="0.729957" cx="53.8114" cy="170.51" rx="11.4048" ry="6.26342" fill="url(#paint3_linear_156_1084)"/>
</g>
<path opacity="0.5" d="M107.144 171.093C107.144 171.093 135.113 184.244 146.208 189.291C154.997 193.289 200.251 206.078 205.643 202.443C211.034 198.808 222.937 188.83 219.007 181.995C215.078 175.159 194.411 162.886 184.527 161.092C174.643 159.299 146.381 167.451 146.381 167.451L122.274 171.591L107.144 171.093Z" fill="url(#paint4_linear_156_1084)"/>
<path d="M127.875 112.292L96.7083 135.208L105.018 115.712L136.231 95.8963L127.875 112.292Z" fill="#E2E7EC"/>
<path d="M104.5 116.114L136.231 96.25V150.424L107.144 170.817L104.5 116.114Z" fill="#D8DFE6"/>
<path d="M136.231 96.25L184.885 107.633V161.827L136.231 150.444V96.25Z" fill="#E9EFF1"/>
<path d="M104.5 116.111L154.212 127.729V181.923L107.144 171.115L104.5 116.111Z" fill="#E8EAEB"/>
<path d="M153.153 127.749L184.884 107.885V162.059L153.153 181.923V127.749Z" fill="#D8DFE6"/>
<mask id="mask1_156_1084" style="mask-type:luminance" maskUnits="userSpaceOnUse" x="153" y="107" width="32" height="75">
<path d="M153.153 127.749L184.884 107.885V162.059L153.153 181.923V127.749Z" fill="white"/>
</mask>
<g mask="url(#mask1_156_1084)">
<rect x="164.939" y="103.37" width="9.97253" height="83.0676" fill="#C7D0D9"/>
</g>
<path d="M167.422 143.846L198.634 124.031L184.365 107.885L153.153 127.7L167.422 143.846Z" fill="#E2E7EC"/>
<path opacity="0.5" d="M80.1594 172.459L129.25 197.542L133.833 184.25L85.6678 168.229L80.1594 172.459Z" fill="url(#paint5_linear_156_1084)"/>
<path d="M78.8192 131.225L95.7466 132.559L91.9877 169.379C91.9877 169.379 91.6584 169.748 90.8598 169.605C90.0612 169.462 89.2233 169.017 89.2233 169.017L86.7058 139.746C86.7058 139.746 85.2498 150.097 85.3514 153.009C85.4281 155.202 86.1782 157.879 86.5797 160.168C86.9252 162.138 87.6522 166.847 87.6522 166.847C87.6522 166.847 86.7932 167.239 86.3363 167.328C85.8795 167.416 85.2938 166.929 85.2938 166.929C85.2938 166.929 79.3588 155.408 79.2824 153.22C79.206 151.033 78.8192 131.225 78.8192 131.225Z" fill="url(#paint6_linear_156_1084)"/>
<path d="M85.0309 166.875C85.0309 166.875 84.277 168.233 83.3404 169.061C82.4038 169.888 80.5556 170.877 80.1343 171.326C79.7129 171.775 80.1731 172.436 80.1731 172.436L84.7027 172.278L88.3222 169.216L87.8165 166.298L85.0309 166.875Z" fill="#677285"/>
<path d="M92.4137 168.447L93.4713 171.38C93.4713 171.38 91.7347 172.725 89.3353 173.1C86.9359 173.474 85.2826 172.899 85.2826 172.899C85.2826 172.899 84.8494 172.026 85.6659 171.653C86.0409 171.482 86.8814 170.769 87.6193 169.857C87.9525 169.445 89.2073 168.559 89.2073 168.559L92.4137 168.447Z" fill="#677285"/>
<path d="M99.997 112.028C99.997 112.028 101.384 114.139 102.235 113.574C103.086 113.009 108.397 107.566 108.397 107.566C108.397 107.566 109.977 106.35 110.269 106.639C110.561 106.928 109.742 107.566 109.742 107.566C109.742 107.566 111.466 107.735 112.005 107.735C112.543 107.735 113.676 108.595 112.935 108.885C112.195 109.174 109.321 109.245 109.321 109.245C109.321 109.245 104.957 117.497 102.684 118.082C100.41 118.667 97.2776 115.358 97.2776 115.358L99.997 112.028Z" fill="#FDE7E6"/>
<path d="M77.829 112.18C77.829 112.18 76.9193 114.042 76.0949 113.595C75.2706 113.149 70.6453 108.271 70.6453 108.271C70.6453 108.271 69.1049 107.327 68.7283 107.497C68.3516 107.667 69.2802 108.271 69.2802 108.271C69.2802 108.271 67.014 108.455 66.5877 108.626C66.1614 108.797 65.6648 109.323 66.3094 109.562C66.954 109.8 69.4213 109.97 69.4213 109.97C69.4213 109.97 72.8514 116.748 75.4501 117.541C78.0488 118.333 80.2628 115.211 80.2628 115.211L77.829 112.18Z" fill="#FDE7E6"/>
<path d="M86.2424 106.475V103.145C86.2424 103.145 84.5158 103.232 83.814 102.076C83.1121 100.92 82.9225 97.6391 82.9225 97.6391L83.4514 96.118L88.652 95.8982L91.3841 98.2264L90.112 100.473L89.8695 100.905L91.082 106.011L86.2424 106.475Z" fill="#FDE7E6"/>
<mask id="mask2_156_1084" style="mask-type:luminance" maskUnits="userSpaceOnUse" x="82" y="95" width="10" height="12">
<path d="M86.2424 106.475V103.145C86.2424 103.145 84.5158 103.232 83.814 102.076C83.1121 100.92 82.9225 97.6391 82.9225 97.6391L83.4514 96.118L88.652 95.8982L91.3841 98.2264L90.112 100.473L89.8695 100.905L91.082 106.011L86.2424 106.475Z" fill="white"/>
</mask>
<g mask="url(#mask2_156_1084)">
<path d="M89.6257 99.9806C88.0887 101.892 85.4305 103.228 85.0844 103.228C84.7383 103.228 87.0172 105.625 87.0172 105.625L88.8714 106.475L91.5031 105.917L92.4426 103.228L90.7841 100.177C90.7841 100.177 91.1626 98.0692 89.6257 99.9806Z" fill="url(#paint7_linear_156_1084)"/>
</g>
<path d="M76.7243 113.517L79.2799 116.96L80.9098 115.239C80.9098 115.239 79.6702 122.035 79.2799 125.295C78.8896 128.555 78.8171 131.802 78.8171 131.802C78.8171 131.802 82.9092 133.321 85.9598 133.577C89.0104 133.832 96.112 133.174 96.112 133.174L95.1953 114.042L97.855 116.511L100.978 112.905C100.978 112.905 95.602 104.643 94.5853 104.162C93.5686 103.68 90.7425 104.162 90.7425 104.162C90.7425 104.162 88.737 106.535 87.9238 106.568C87.1105 106.601 85.3066 104.162 85.3066 104.162C85.3066 104.162 82.4246 103.701 81.5866 104.643C80.7486 105.585 76.7243 113.517 76.7243 113.517Z" fill="url(#paint8_linear_156_1084)"/>
<path d="M82.9234 97.6762C82.9234 97.6762 83.5362 96.1296 84.3362 96.3991C85.0933 96.6541 85.7491 97.2609 86.6911 97.5457C87.633 97.8306 87.7371 96.551 88.3771 96.7671C89.0172 96.9831 88.5948 98.8655 89.0459 99.2161C89.497 99.5666 89.497 96.7671 90.4588 97.5207C91.4205 98.2744 89.4554 100.396 89.4554 100.396C89.4554 100.396 89.7073 101.7 89.7881 101.788C89.8689 101.877 89.8597 100.84 89.8597 100.84C89.8597 100.84 90.7781 100.487 91.1696 98.8969C91.561 97.3066 91.7303 96.6734 91.1696 95.5179C90.6089 94.3625 90.4491 93.4575 89.0459 92.9125C87.6427 92.3674 86.578 92.5806 85.5973 92.9125C84.6166 93.2443 83.9058 93.9038 83.4522 94.56C82.3945 96.1176 82.9234 97.6762 82.9234 97.6762Z" fill="#4D364F"/>
<path fill-rule="evenodd" clip-rule="evenodd" d="M177.481 56.8884C176.367 57.2291 153.293 71.0343 153.293 71.0343L160.027 71.5364L164.812 76.8245C164.812 76.8245 178.596 56.5477 177.481 56.8884Z" fill="#E8EAEB"/>
<mask id="mask3_156_1084" style="mask-type:luminance" maskUnits="userSpaceOnUse" x="153" y="56" width="25" height="21">
<path fill-rule="evenodd" clip-rule="evenodd" d="M177.481 56.8884C176.367 57.2291 153.293 71.0343 153.293 71.0343L160.027 71.5364L164.812 76.8245C164.812 76.8245 178.596 56.5477 177.481 56.8884Z" fill="white"/>
</mask>
<g mask="url(#mask3_156_1084)">
<path fill-rule="evenodd" clip-rule="evenodd" d="M160.027 71.5364L177.481 56.8884L164.812 76.8245L160.027 71.5364Z" fill="#D8DFE6"/>
</g>
<path fill-rule="evenodd" clip-rule="evenodd" d="M174.016 72.8854L165.925 72.0397L177.49 57.0309L174.016 72.8854Z" fill="#E8EAEB"/>
<path fill-rule="evenodd" clip-rule="evenodd" d="M159.119 82.8849C159.624 81.8151 160.133 80.7078 160.646 79.5629L161.482 79.9374C160.967 81.0879 160.456 82.201 159.947 83.2766L159.119 82.8849ZM155.826 89.4116C156.385 88.3809 156.948 87.3013 157.516 86.1729L158.335 86.5849C157.763 87.7215 157.195 88.8093 156.632 89.8484L155.826 89.4116ZM154.029 92.5868C153.378 93.6848 152.733 94.7139 152.095 95.6739L152.858 96.1814C153.505 95.208 154.159 94.1657 154.818 93.0545L154.029 92.5868ZM147.623 101.385C148.396 100.583 149.18 99.6676 149.976 98.6392L150.701 99.2003C149.886 100.254 149.08 101.194 148.283 102.021L147.623 101.385ZM144.93 103.753C143.859 104.521 142.815 105.052 141.8 105.349L142.058 106.229C143.177 105.901 144.313 105.324 145.464 104.498L144.93 103.753ZM135.336 103.85C136.344 104.663 137.369 105.195 138.412 105.452L138.193 106.342C137.013 106.052 135.869 105.457 134.761 104.564L135.336 103.85ZM132.866 101.246C132.809 101.172 132.752 101.097 132.695 101.02C131.957 100.027 131.421 99.0846 131.08 98.1942L130.224 98.5227C130.597 99.4954 131.174 100.51 131.96 101.567C132.019 101.647 132.078 101.725 132.137 101.803L132.866 101.246ZM132.646 92.0253C131.656 92.8431 131.019 93.7819 130.759 94.8292L129.869 94.6085C130.179 93.3589 130.928 92.2552 132.062 91.3185L132.646 92.0253ZM135.708 90.3028C136.74 89.9 137.899 89.5715 139.157 89.3236L138.98 88.4242C137.671 88.6822 136.459 89.0255 135.375 89.4489L135.708 90.3028ZM146.334 88.7992C145.114 88.7558 143.899 88.7759 142.715 88.8593L142.651 87.9449C143.867 87.8592 145.115 87.8386 146.366 87.8831L146.334 88.7992ZM149.982 89.1205C151.211 89.2954 152.4 89.5351 153.523 89.8355L153.759 88.9499C152.6 88.6399 151.376 88.393 150.112 88.213L149.982 89.1205ZM159.971 92.8563C159.132 92.1741 158.11 91.5618 156.929 91.0297L157.306 90.194C158.555 90.7572 159.646 91.4101 160.549 92.1453L159.971 92.8563ZM162.155 95.6097C162.376 96.1235 162.518 96.6588 162.577 97.2156C162.64 97.8045 162.662 98.3965 162.643 98.9916L163.559 99.0215C163.58 98.3839 163.556 97.7493 163.489 97.1179C163.419 96.4694 163.254 95.8449 162.997 95.2474L162.155 95.6097ZM160.687 105.822C161.277 104.709 161.734 103.608 162.057 102.518L162.936 102.779C162.594 103.928 162.115 105.086 161.497 106.251L160.687 105.822ZM158.746 108.886C158.068 109.81 157.301 110.741 156.446 111.679L157.123 112.296C158 111.335 158.787 110.379 159.485 109.429L158.746 108.886ZM151.182 116.639C152.155 115.833 153.066 115.033 153.915 114.237L154.542 114.906C153.679 115.715 152.754 116.528 151.766 117.345L151.182 116.639ZM148.293 118.909C147.351 119.614 146.362 120.322 145.327 121.034L145.847 121.79C146.892 121.071 147.89 120.355 148.842 119.643L148.293 118.909ZM140.345 124.27C140.996 123.869 141.633 123.469 142.256 123.071L142.75 123.843C142.123 124.244 141.481 124.647 140.825 125.051L140.345 124.27Z" fill="#C7D0D9"/>
<defs>
<radialGradient id="paint0_radial_156_1084" cx="0" cy="0" r="1" gradientUnits="userSpaceOnUse" gradientTransform="translate(119.268 184.609) rotate(-90) scale(47.0619 491.515)">
<stop stop-color="#EBEDF0" stop-opacity="0.24"/>
<stop offset="0.536775" stop-color="#EBEDF0" stop-opacity="0.845525"/>
<stop offset="1" stop-color="#E0E4E7" stop-opacity="0.01"/>
</radialGradient>
<linearGradient id="paint1_linear_156_1084" x1="104.005" y1="213.431" x2="106.207" y2="218.141" gradientUnits="userSpaceOnUse">
<stop stop-color="#E1E7EA"/>
<stop offset="1" stop-color="#D0D6DC"/>
</linearGradient>
<linearGradient id="paint2_linear_156_1084" x1="174.026" y1="186.628" x2="178.055" y2="195.033" gradientUnits="userSpaceOnUse">
<stop stop-color="#E1E7EA"/>
<stop offset="1" stop-color="#D0D6DC"/>
</linearGradient>
<linearGradient id="paint3_linear_156_1084" x1="46.5395" y1="170.612" x2="48.8195" y2="179.695" gradientUnits="userSpaceOnUse">
<stop stop-color="#FBFBFB"/>
<stop offset="1" stop-color="#D9DFE3"/>
</linearGradient>
<linearGradient id="paint4_linear_156_1084" x1="103.034" y1="175.653" x2="111.17" y2="212.138" gradientUnits="userSpaceOnUse">
<stop stop-color="#C4CDD1"/>
<stop offset="1" stop-color="#C6CFD3" stop-opacity="0.01"/>
</linearGradient>
<linearGradient id="paint5_linear_156_1084" x1="78.456" y1="179.326" x2="87.8938" y2="203.957" gradientUnits="userSpaceOnUse">
<stop stop-color="#C4CDD1"/>
<stop offset="1" stop-color="#C6CFD3" stop-opacity="0.01"/>
</linearGradient>
<linearGradient id="paint6_linear_156_1084" x1="96.9703" y1="169.447" x2="95.6253" y2="130.929" gradientUnits="userSpaceOnUse">
<stop stop-color="#A1A7B8"/>
<stop offset="1" stop-color="#7B8195"/>
</linearGradient>
<linearGradient id="paint7_linear_156_1084" x1="90.354" y1="104.239" x2="90.354" y2="101.013" gradientUnits="userSpaceOnUse">
<stop stop-color="#FBD8D6"/>
<stop offset="1" stop-color="#EAC0BE" stop-opacity="0.7"/>
</linearGradient>
<linearGradient id="paint8_linear_156_1084" x1="64.4547" y1="117.494" x2="89.9544" y2="144.394" gradientUnits="userSpaceOnUse">
<stop stop-color="#E5E9F0"/>
<stop offset="1" stop-color="#D2DAE8"/>
</linearGradient>
</defs>
</svg>
