<svg width="831" height="681" viewBox="0 0 831 681" fill="none" xmlns="http://www.w3.org/2000/svg">
<g id="No Results">
<g id="circle">
<path id="Stroke 1" d="M28.5436 313.86V320.91" stroke="#D2D8DF" stroke-width="2.28691" stroke-linecap="round"/>
<g id="Group 8">
<path id="Stroke 2" d="M12.7291 317.679L18.4825 323.61" stroke="#D2D8DF" stroke-width="2.28691" stroke-linecap="round"/>
<path id="Stroke 4" d="M6 333.466H14.1352" stroke="#D2D8DF" stroke-width="2.28691" stroke-linecap="round"/>
<path id="Stroke 6" d="M12.0688 349.534L17.8222 343.603" stroke="#D2D8DF" stroke-width="2.28691" stroke-linecap="round"/>
</g>
<path id="Stroke 9" d="M28.5436 351.461V344.411" stroke="#D2D8DF" stroke-width="2.28691" stroke-linecap="round"/>
<path id="Stroke 10" d="M40.2783 346.761L35.5844 342.061" stroke="#D2D8DF" stroke-width="2.28691" stroke-linecap="round"/>
<path id="Stroke 11" d="M49.666 335.011H42.6251" stroke="#D2D8DF" stroke-width="2.28691" stroke-linecap="round"/>
<path id="Stroke 12" d="M44.972 318.56L40.2781 323.26" stroke="#D2D8DF" stroke-width="2.28691" stroke-linecap="round"/>
<path id="Stroke 13" d="M406.403 6V10.7002" stroke="#D2D8DF" stroke-width="2.28691" stroke-linecap="round"/>
<path id="Stroke 15" d="M392.322 20.1002H397.016" stroke="#D2D8DF" stroke-width="2.28691" stroke-linecap="round"/>
<path id="Stroke 16" d="M406.403 34.201V29.5009" stroke="#D2D8DF" stroke-width="2.28691" stroke-linecap="round"/>
<path id="Stroke 17" d="M418.138 20.1002H413.444" stroke="#D2D8DF" stroke-width="2.28691" stroke-linecap="round"/>
<path id="Stroke 18" d="M134.157 203.406V210.457" stroke="#D2D8DF" stroke-width="2.28691" stroke-linecap="round"/>
<path id="Stroke 19" d="M113.034 224.557H120.075" stroke="#D2D8DF" stroke-width="2.28691" stroke-linecap="round"/>
<path id="Stroke 20" d="M134.157 243.358V236.308" stroke="#D2D8DF" stroke-width="2.28691" stroke-linecap="round"/>
<path id="Stroke 21" d="M152.932 224.557H145.891" stroke="#D2D8DF" stroke-width="2.28691" stroke-linecap="round"/>
<g id="Group 42">
<path id="Stroke 22" d="M639.348 459.657C644.957 459.657 649.506 464.213 649.506 469.831C649.506 475.451 644.957 480.005 639.348 480.005C633.739 480.005 629.19 475.451 629.19 469.831" stroke="#D2D8DF" stroke-width="2.28691" stroke-linecap="round"/>
<path id="Fill 26" fill-rule="evenodd" clip-rule="evenodd" d="M685.834 367.357C691.865 365.473 701.11 358.087 703.25 350.14C705.19 357.165 713.326 365.473 720.666 366.101C712.403 369.031 704.503 377.734 703.25 384.571C702.397 377.602 691.47 368.372 685.834 367.357Z" fill="#EBECEE"/>
<path id="Fill 28" fill-rule="evenodd" clip-rule="evenodd" d="M66.7321 456.523C69.7487 455.581 74.3692 451.889 75.4391 447.916C76.4095 451.426 80.4761 455.581 84.1462 455.896C80.0158 457.359 76.0668 461.712 75.4391 465.13C75.0128 461.646 69.5494 457.03 66.7321 456.523Z" fill="#EBECEE"/>
<path id="Fill 30" fill-rule="evenodd" clip-rule="evenodd" d="M122.713 129.607C122.713 133.966 119.186 137.496 114.837 137.496C110.485 137.496 106.96 133.966 106.96 129.607C106.96 125.251 110.485 121.719 114.837 121.719C119.186 121.719 122.713 125.251 122.713 129.607Z" fill="#D1D8DF"/>
<path id="Fill 32" fill-rule="evenodd" clip-rule="evenodd" d="M648.654 150.79C648.654 158.072 642.758 163.975 635.49 163.975C628.217 163.975 622.323 158.072 622.323 150.79C622.323 143.508 628.217 137.605 635.49 137.605C642.758 137.605 648.654 143.508 648.654 150.79Z" fill="#EBECEE"/>
<path id="Fill 34" fill-rule="evenodd" clip-rule="evenodd" d="M831 115.066C831 120.844 826.326 125.525 820.559 125.525C814.791 125.525 810.117 120.844 810.117 115.066C810.117 109.289 814.791 104.607 820.559 104.607C826.326 104.607 831 109.289 831 115.066Z" fill="#EBECEE"/>
<path id="Stroke 36" fill-rule="evenodd" clip-rule="evenodd" d="M269.913 603.549C269.913 607.191 266.966 610.143 263.329 610.143C259.695 610.143 256.748 607.191 256.748 603.549C256.748 599.907 259.695 596.956 263.329 596.956C266.966 596.956 269.913 599.907 269.913 603.549Z" stroke="#D2D8DF" stroke-width="2.28691" stroke-linecap="round"/>
<path id="Stroke 38" fill-rule="evenodd" clip-rule="evenodd" d="M265.996 78.9267C265.996 83.2852 262.47 86.8155 258.12 86.8155C253.771 86.8155 250.244 83.2852 250.244 78.9267C250.244 74.5702 253.771 71.038 258.12 71.038C262.47 71.038 265.996 74.5702 265.996 78.9267Z" stroke="#D2D8DF" stroke-width="2.28691" stroke-linecap="round"/>
<path id="Stroke 40" fill-rule="evenodd" clip-rule="evenodd" d="M466.902 676.562C461.869 678.48 456.237 675.948 454.322 670.909C452.407 665.868 454.934 660.224 459.969 658.308C465 656.39 470.632 658.921 472.547 663.962C474.464 669.003 471.935 674.645 466.902 676.562Z" stroke="#D2D8DF" stroke-width="2.28691" stroke-linecap="round"/>
</g>
</g>
<g id="search">
<g id="documents">
<path id="Fill 1" fill-rule="evenodd" clip-rule="evenodd" d="M450.804 490.116H258.343C244.796 490.116 233.708 478.98 233.708 465.37V190.546C233.708 176.936 244.796 165.805 258.343 165.805H450.804C464.356 165.805 475.444 176.936 475.444 190.546V465.37C475.444 478.98 464.356 490.116 450.804 490.116" fill="#E0E2EE"/>
<path id="Fill 3" fill-rule="evenodd" clip-rule="evenodd" d="M434.375 501.867H241.914C228.368 501.867 217.279 490.731 217.279 477.121V202.296C217.279 188.686 228.368 177.556 241.914 177.556H434.375C447.927 177.556 459.016 188.686 459.016 202.296V477.121C459.016 490.731 447.927 501.867 434.375 501.867" fill="#E8EBF2"/>
<path id="Fill 5" fill-rule="evenodd" clip-rule="evenodd" d="M418.395 511.143H225.536C211.962 511.143 200.85 500.053 200.85 486.5V212.813C200.85 199.26 211.962 188.175 225.536 188.175H418.395C431.975 188.175 443.086 199.26 443.086 212.813V486.5C443.086 500.053 431.975 511.143 418.395 511.143" fill="#D8DBEA"/>
<path id="Fill 8" fill-rule="evenodd" clip-rule="evenodd" d="M418.395 511.143H225.536C211.962 511.143 200.85 500.053 200.85 486.5V212.813C200.85 199.26 211.962 188.175 225.536 188.175H418.395C431.975 188.175 443.086 199.26 443.086 212.813V486.5C443.086 500.053 431.975 511.143 418.395 511.143" fill="#F1F2F7"/>
<path id="Fill 11" fill-rule="evenodd" clip-rule="evenodd" d="M390.597 271.559H248.147C244.079 271.559 240.749 268.387 240.749 264.511C240.749 260.631 244.079 257.458 248.147 257.458H390.597C394.665 257.458 397.995 260.631 397.995 264.511C397.995 268.387 394.665 271.559 390.597 271.559" fill="#E0E2EE"/>
<path id="Fill 13" fill-rule="evenodd" clip-rule="evenodd" d="M390.597 313.86H248.147C244.079 313.86 240.749 310.688 240.749 306.813C240.749 302.932 244.079 299.76 248.147 299.76H390.597C394.665 299.76 397.995 302.932 397.995 306.813C397.995 310.688 394.665 313.86 390.597 313.86" fill="#E0E2EE"/>
<path id="Fill 15" fill-rule="evenodd" clip-rule="evenodd" d="M390.597 356.162H248.147C244.079 356.162 240.749 352.989 240.749 349.114C240.749 345.239 244.079 342.061 248.147 342.061H390.597C394.665 342.061 397.995 345.239 397.995 349.114C397.995 352.989 394.665 356.162 390.597 356.162" fill="#E0E2EE"/>
<path id="Fill 17" fill-rule="evenodd" clip-rule="evenodd" d="M390.597 398.463H248.147C244.079 398.463 240.749 395.291 240.749 391.415C240.749 387.535 244.079 384.363 248.147 384.363H390.597C394.665 384.363 397.995 387.535 397.995 391.415C397.995 395.291 394.665 398.463 390.597 398.463" fill="#E0E2EE"/>
<path id="Fill 19" fill-rule="evenodd" clip-rule="evenodd" d="M322.504 440.765H248.179C244.093 440.765 240.749 437.593 240.749 433.717C240.749 429.837 244.093 426.664 248.179 426.664H322.504C326.589 426.664 329.933 429.837 329.933 433.717C329.933 437.593 326.589 440.765 322.504 440.765" fill="#E0E2EE"/>
</g>
<g id="search_2">
<path id="Fill 21" fill-rule="evenodd" clip-rule="evenodd" d="M472.522 386.094C444.038 414.611 399.941 417.828 367.927 395.811C363.835 392.947 359.941 389.73 356.309 386.094C354.44 384.228 352.678 382.303 351.018 380.276C347.697 376.227 344.788 371.91 342.405 367.449C338.206 359.915 335.351 351.92 333.792 343.656C328.763 317.74 336.283 289.844 356.309 269.8C376.384 249.696 404.247 242.216 430.133 247.203C438.382 248.811 446.373 251.67 453.899 255.825C458.361 258.265 462.613 261.177 466.663 264.502C468.682 266.158 470.605 267.928 472.469 269.8C476.106 273.436 479.367 277.329 482.174 281.431C504.172 313.476 500.953 357.63 472.522 386.094" fill="white" fill-opacity="0.1"/>
<path id="Fill 23" fill-rule="evenodd" clip-rule="evenodd" d="M464.552 380.478C434.918 410.157 386.894 410.151 357.254 380.478C327.653 350.837 327.653 302.743 357.293 273.07C386.894 243.43 434.918 243.43 464.519 273.07C494.153 302.743 494.153 350.837 464.552 380.478ZM479.76 257.824C441.722 219.736 380.083 219.736 342.045 257.824C304.013 295.907 303.98 357.667 342.012 395.756C376.631 430.41 430.892 433.535 469.057 405.082C472.785 402.299 476.375 399.179 479.799 395.756C483.218 392.327 486.333 388.732 489.107 385C517.523 346.779 514.374 292.484 479.76 257.824Z" fill="#E0E2EE"/>
<path id="Fill 25" fill-rule="evenodd" clip-rule="evenodd" d="M629.457 539.331L627.86 540.93C617.295 551.514 599.994 551.514 589.424 540.93L491.873 443.249L531.906 403.163L629.457 500.844C640.027 511.428 640.027 528.746 629.457 539.331Z" fill="#246BFD"/>
<path id="Fill 27" fill-rule="evenodd" clip-rule="evenodd" d="M491.21 382.013L520.036 410.878L499.571 431.365L470.75 402.5C474.554 399.66 478.212 396.476 481.711 392.983C485.2 389.49 488.379 385.822 491.21 382.013" fill="#E0E2EE"/>
<path id="Fill 29" fill-rule="evenodd" clip-rule="evenodd" d="M627.997 499.643L588.219 539.468L581.057 532.292L620.83 492.467L627.997 499.643Z" fill="#262BC6"/>
<path id="Fill 31" fill-rule="evenodd" clip-rule="evenodd" d="M534.118 404.542L493.251 445.465L487.179 439.385L528.046 398.463L534.118 404.542Z" fill="#262BC6"/>
<path id="Fill 33" fill-rule="evenodd" clip-rule="evenodd" d="M444.934 262.86L344.711 363.212C340.936 356.438 338.37 349.251 336.974 341.821L423.571 255.108C430.985 256.56 438.169 259.124 444.934 262.86" fill="white" fill-opacity="0.5"/>
<path id="Fill 35" fill-rule="evenodd" clip-rule="evenodd" d="M477.791 286.713L369.439 389.063C365.559 386.505 361.865 383.626 358.421 380.373C356.648 378.698 354.971 376.98 353.402 375.166L463.074 271.559C464.995 273.047 466.819 274.63 468.586 276.305C472.03 279.559 475.129 283.042 477.791 286.713" fill="white" fill-opacity="0.5"/>
</g>
</g>
</g>
</svg>
