<svg width="335" height="222" viewBox="0 0 335 222" fill="none" xmlns="http://www.w3.org/2000/svg">
<path d="M42.8186 190.136C42.8186 190.136 8.22871 153.219 36.9684 113.251C62.4697 77.7886 92.1998 80.2129 114.018 94.6029C123.308 100.732 150.093 95.3577 172.892 59.2738C203.977 10.0653 311.748 39.911 292.098 115.621C282.588 152.259 321.037 153.591 301.446 190.213L42.8186 190.136Z" fill="#EBF3FA"/>
<path d="M109.246 118.77C109.246 118.77 92.1339 94.5543 85.4462 97.6934C78.7584 100.832 109.246 118.77 109.246 118.77Z" fill="#A8D29F"/>
<path d="M108.158 112.261C108.158 112.261 105.544 94.0568 101.424 94.7694C97.303 95.482 108.158 112.261 108.158 112.261Z" fill="#A8D29F"/>
<path d="M93.6883 169.004C93.6883 169.004 95.3332 160.901 88.9447 159.886C88.9447 159.886 84.6132 159.735 82.0616 161.359C82.0616 161.359 89.3065 165.517 88.4445 166.809C87.5824 168.101 80.7082 161.592 80.7082 161.592C80.7082 161.592 72.9418 164.973 71.2087 167.422C71.2087 167.422 80.3855 169.047 79.2309 170.086C78.0762 171.125 68.4517 169.886 68.4517 169.886C68.4517 169.886 62.2464 174.854 64.9487 178.809C67.651 182.764 70.7353 182.735 71.7123 182.048C72.6894 181.361 77.4676 175.682 78.0773 176.455C78.687 177.227 76.5821 182.021 74.0942 183.573C74.0942 183.573 81.9109 186.188 84.2559 182.874C86.6009 179.559 85.5199 176.984 87.0118 174.962C88.5037 172.939 90.2144 171.993 89.9095 173.38C89.6047 174.766 86.4858 177.681 86.4724 180.331C86.459 182.98 86.1944 184.909 89.2384 182.566C92.2825 180.223 96.3281 174.804 95.0093 171.91L93.6883 169.004Z" fill="#82B378"/>
<path d="M68.3792 177.045C68.3792 177.045 86.602 165.99 93.6906 169C93.6906 169 96.1216 171.202 100.307 172.108L101.407 173.048C101.407 173.048 96.2791 171.457 95.0094 171.895C95.0094 171.905 93.13 164.342 68.3792 177.045Z" fill="#82B378"/>
<path d="M100.307 172.118C100.307 172.118 105.956 172.837 109.184 177.933L108.495 178.4C108.495 178.4 104.167 173.681 100.666 172.839C97.1656 171.998 100.307 172.118 100.307 172.118Z" fill="#82B378"/>
<path d="M99.2715 145.367C99.2715 145.367 112.504 138.001 106.329 128.004C106.329 128.004 101.389 121.866 96.0957 120.287C96.0957 120.287 98.9187 135.195 96.0957 135.545C93.2728 135.896 94.155 118.709 94.155 118.709C94.155 118.709 80.2167 112.049 74.7473 112.57C74.7473 112.57 83.3925 127.127 80.5696 126.778C77.7467 126.43 68.0428 111.696 68.0428 111.696C68.0428 111.696 53.7495 109.065 51.4581 117.483C49.1667 125.902 52.8696 130.111 54.9868 130.637C57.104 131.163 70.6893 130.988 70.3365 132.746C69.9836 134.504 60.8091 137.306 55.6925 135.727C55.6925 135.727 61.3384 149.582 68.7486 148.881C76.1588 148.179 78.4524 143.619 83.0419 143.269C87.6314 142.918 90.9814 144.146 88.6878 145.378C86.3941 146.61 78.6311 145.779 74.926 148.911C71.2209 152.042 68.226 153.971 75.1024 155.374C81.9788 156.777 94.3336 155.9 96.8037 150.639L99.2715 145.367Z" fill="#A8D29F"/>
<path d="M57.9829 120.112C57.9829 120.112 95.0339 132.038 99.2717 145.367C99.2717 145.367 99.0952 151.329 102.8 158.169V160.8C102.8 160.8 98.9188 151.856 96.8016 150.628C96.7983 150.627 105.091 139.053 57.9829 120.112Z" fill="#82B378"/>
<path d="M102.797 158.175C102.797 158.175 108.511 166.8 105.254 177.299L103.783 176.906C103.783 176.906 105.21 165.342 102.22 159.526C99.2293 153.709 102.797 158.175 102.797 158.175Z" fill="#82B378"/>
<path d="M112.717 83.7383L92.919 185.481C92.8236 185.967 92.8375 186.467 92.9598 186.947C93.0821 187.427 93.3097 187.874 93.6263 188.256C93.9429 188.638 94.3406 188.945 94.791 189.157C95.2413 189.368 95.7331 189.477 96.231 189.477H106.673L112.717 83.7383Z" fill="#ED7D2B"/>
<path d="M244.327 112.864C244.327 112.864 235.421 107.216 240.117 100.51C240.117 100.51 243.802 96.4381 247.543 95.5501C247.543 95.5501 244.981 105.804 246.93 106.159C248.878 106.515 248.955 94.53 248.955 94.53C248.955 94.53 258.916 90.4485 262.698 91.0313C262.698 91.0313 256.102 100.81 258.078 100.678C260.055 100.546 267.395 90.6883 267.395 90.6883C267.395 90.6883 277.438 89.4262 278.695 95.3714C279.953 101.317 277.207 104.096 275.713 104.378C274.219 104.66 264.779 103.998 264.955 105.231C265.13 106.465 271.397 108.783 275.018 107.887C275.018 107.887 270.536 117.296 265.415 116.515C260.294 115.733 258.878 112.471 255.7 112.045C252.522 111.618 250.143 112.34 251.69 113.285C253.237 114.229 258.667 113.964 261.117 116.288C263.567 118.613 265.576 120.072 260.735 120.775C255.894 121.477 247.341 120.377 245.835 116.621L244.327 112.864Z" fill="#C7DCFB"/>
<path d="M274.046 96.9399C274.046 96.9399 247.804 103.763 244.322 112.864C244.322 112.864 244.21 117.017 241.355 121.626L241.249 123.456C241.249 123.456 244.308 117.389 245.827 116.62C245.83 116.62 240.53 108.242 274.046 96.9399Z" fill="#C7DCFB"/>
<path d="M241.355 121.626C241.355 121.626 237.035 127.398 238.878 134.826L239.917 134.612C239.917 134.612 239.389 126.509 241.704 122.589C244.018 118.668 241.355 121.626 241.355 121.626Z" fill="#C7DCFB"/>
<path d="M220.345 88.3562C220.345 88.3562 206.662 85.3691 209.427 74.8874C209.427 74.8874 212.138 68.1453 216.391 65.3414C216.391 65.3414 217.914 79.2719 220.505 78.8301C223.096 78.3884 217.682 63.43 217.682 63.43C217.682 63.43 228.207 53.8252 233.184 52.8339C233.184 52.8339 229.465 68.0043 231.866 66.942C234.267 65.8798 238.873 50.2732 238.873 50.2732C238.873 50.2732 250.797 44.1404 255.094 50.9714C259.391 57.8023 257.25 62.5154 255.52 63.5388C253.791 64.5622 241.734 68.0254 242.519 69.4862C243.304 70.9469 252.17 70.9802 256.267 68.2219C256.267 68.2219 255.012 81.9725 248.272 83.3267C241.532 84.6809 238.276 81.2599 234.126 82.1723C229.977 83.0848 227.345 85.0583 229.703 85.5368C232.061 86.0152 238.701 83.2135 242.82 84.994C246.94 86.7744 250.111 87.6813 244.407 90.7549C238.703 93.8284 227.546 96.3426 223.947 92.3488L220.345 88.3562Z" fill="#DFEBFD"/>
<path d="M250.033 55.0303C250.033 55.0303 220.495 75.441 220.345 88.3558C220.345 88.3558 222.108 93.5806 220.68 100.614L221.389 102.945C221.389 102.945 222.41 94.0035 223.95 92.3541C223.946 92.3441 213.496 84.321 250.033 55.0303Z" fill="#DFEBFD"/>
<path d="M220.677 100.609C220.677 100.609 217.951 109.756 223.661 118.169L224.854 117.43C224.854 117.43 220.476 107.588 221.55 101.651C222.624 95.7133 220.677 100.609 220.677 100.609Z" fill="#DFEBFD"/>
<path d="M112.955 83.3267L99.8299 183.223C99.727 184.004 99.7929 184.798 100.023 185.552C100.254 186.305 100.643 187.002 101.166 187.594C101.689 188.185 102.332 188.66 103.054 188.985C103.776 189.309 104.559 189.477 105.352 189.477H124.603L113.749 82.9692L112.955 83.3267Z" fill="#78ACEA"/>
<path d="M112.955 83.3267L107.081 182.586C107.029 183.471 107.16 184.356 107.465 185.189C107.77 186.021 108.242 186.783 108.854 187.427C109.466 188.071 110.203 188.585 111.022 188.936C111.84 189.287 112.722 189.468 113.613 189.468H142.325L112.955 83.3267Z" fill="#699DEE"/>
<path d="M112.734 84.1382L115.591 182.587C115.539 183.472 115.67 184.357 115.975 185.19C116.28 186.022 116.753 186.784 117.364 187.428C117.976 188.073 118.714 188.586 119.532 188.937C120.35 189.288 121.232 189.469 122.123 189.469H150.835L112.734 84.1382Z" fill="#5288D8"/>
<path d="M250.199 189.477H136.992C135.622 189.477 134.295 188.999 133.243 188.127C132.191 187.255 131.48 186.044 131.234 184.704L114.012 91.0601C113.828 90.062 113.868 89.036 114.127 88.0548C114.386 87.0735 114.86 86.1609 115.513 85.3816C116.167 84.6022 116.985 83.9753 117.909 83.545C118.834 83.1147 119.842 82.8916 120.863 82.8916H232.734C234.104 82.8918 235.43 83.3695 236.482 84.2417C237.534 85.1138 238.245 86.3251 238.491 87.6646L255.957 182.61C256.112 183.449 256.079 184.311 255.861 185.136C255.644 185.961 255.246 186.729 254.697 187.384C254.147 188.039 253.46 188.567 252.682 188.928C251.905 189.29 251.058 189.477 250.199 189.477Z" fill="#D7E9FF"/>
<path d="M116.245 103.221H241.423L238.213 85.5412C238.078 84.7978 237.685 84.125 237.102 83.6407C236.519 83.1563 235.783 82.8912 235.024 82.8916H113.778C113.623 82.8917 113.469 82.9257 113.328 82.9914C113.187 83.057 113.063 83.1526 112.963 83.2714C112.863 83.3902 112.791 83.5293 112.752 83.6789C112.712 83.8285 112.706 83.9849 112.734 84.137L116.245 103.221Z" fill="#F99746"/>
<path d="M119.176 77.5713C117.738 77.5725 116.358 78.141 115.34 79.1522C114.323 80.1633 113.75 81.5345 113.748 82.9648H114.793C114.793 81.8087 115.255 80.7 116.078 79.8825C116.9 79.0651 118.016 78.6058 119.179 78.6058C120.342 78.6058 121.457 79.0651 122.279 79.8825C123.102 80.7 123.564 81.8087 123.564 82.9648C123.566 83.4337 123.49 83.8998 123.34 84.3445C123.127 84.9779 122.77 85.5542 122.298 86.0291C121.825 86.504 121.249 86.8649 120.615 87.084C120.233 87.2167 119.834 87.2952 119.43 87.3171V88.3561C119.901 88.3356 120.367 88.2535 120.817 88.1118C122.052 87.7236 123.108 86.9086 123.791 85.8143C124.475 84.72 124.742 83.4185 124.545 82.1454C124.347 80.8723 123.698 79.7115 122.714 78.8729C121.73 78.0344 120.477 77.5735 119.181 77.5735L119.176 77.5713Z" fill="#78ACEA"/>
<path d="M120.854 87.801C120.854 87.9064 120.84 88.0112 120.812 88.1129C120.733 88.3991 120.547 88.6447 120.292 88.7998C120.037 88.955 119.733 89.0082 119.44 88.9487C119.148 88.8892 118.889 88.7214 118.716 88.4793C118.543 88.2371 118.469 87.9387 118.509 87.6445C118.549 87.3502 118.7 87.0821 118.931 86.8943C119.163 86.7065 119.457 86.6131 119.755 86.633C120.053 86.6529 120.333 86.7846 120.537 87.0014C120.741 87.2183 120.854 87.5041 120.854 87.801Z" fill="#78ACEA"/>
<path d="M138.634 77.5713C137.196 77.5725 135.816 78.141 134.798 79.1522C133.781 80.1634 133.209 81.5346 133.207 82.9648H134.249C134.249 82.1644 134.471 81.3794 134.89 80.696C135.309 80.0125 135.909 79.457 136.625 79.0902C137.341 78.7234 138.144 78.5596 138.947 78.6167C139.75 78.6739 140.522 78.9497 141.178 79.414C141.834 79.8783 142.349 80.5131 142.665 81.2489C142.982 81.9847 143.089 82.793 142.975 83.5853C142.86 84.3775 142.528 85.1231 142.016 85.7402C141.503 86.3574 140.829 86.8223 140.068 87.084C139.686 87.2168 139.287 87.2953 138.883 87.3171V88.3561C139.354 88.3355 139.821 88.2534 140.27 88.1118C141.506 87.7236 142.561 86.9086 143.245 85.8143C143.928 84.72 144.196 83.4185 143.998 82.1454C143.8 80.8723 143.151 79.7115 142.167 78.8729C141.183 78.0344 139.93 77.5735 138.634 77.5735V77.5713Z" fill="#78ACEA"/>
<path d="M140.311 87.8012C140.311 87.9065 140.298 88.0114 140.27 88.1131C140.191 88.4026 140.005 88.6515 139.748 88.8093C139.492 88.9672 139.184 89.0222 138.889 88.9634C138.593 88.9045 138.331 88.736 138.155 88.4922C137.979 88.2483 137.904 87.9472 137.943 87.6499C137.982 87.3526 138.134 87.0813 138.367 86.8909C138.6 86.7005 138.897 86.6053 139.198 86.6245C139.499 86.6437 139.782 86.776 139.989 86.9945C140.195 87.213 140.311 87.5013 140.311 87.8012Z" fill="#78ACEA"/>
<path d="M158.093 77.5713C156.654 77.5725 155.275 78.141 154.257 79.1522C153.24 80.1634 152.668 81.5346 152.666 82.9648H153.707C153.725 81.8206 154.195 80.7295 155.016 79.9268C155.836 79.1241 156.942 78.6743 158.093 78.6743C159.244 78.6743 160.349 79.1241 161.169 79.9268C161.99 80.7295 162.46 81.8206 162.478 82.9648C162.48 83.4337 162.405 83.8998 162.255 84.3445C162.042 84.9777 161.685 85.5539 161.213 86.0288C160.74 86.5037 160.165 86.8647 159.53 87.084C159.148 87.2167 158.749 87.2952 158.345 87.3171V88.3561C158.816 88.3355 159.282 88.2534 159.731 88.1118C160.967 87.7236 162.022 86.9087 162.706 85.8145C163.39 84.7203 163.657 83.419 163.459 82.146C163.262 80.8729 162.613 79.7121 161.629 78.8735C160.645 78.0348 159.392 77.5737 158.097 77.5735L158.093 77.5713Z" fill="#78ACEA"/>
<path d="M159.77 87.8011C159.77 87.9064 159.756 88.0113 159.728 88.113C159.648 88.3998 159.462 88.6459 159.207 88.8014C158.952 88.9569 158.647 89.0103 158.354 88.9507C158.06 88.8911 157.801 88.723 157.628 88.4804C157.454 88.2378 157.38 87.9388 157.42 87.644C157.46 87.3491 157.612 87.0805 157.844 86.8923C158.075 86.7042 158.371 86.6106 158.669 86.6306C158.968 86.6505 159.248 86.7825 159.452 86.9998C159.657 87.2171 159.77 87.5035 159.77 87.8011Z" fill="#78ACEA"/>
<path d="M177.55 77.5713C176.112 77.5728 174.732 78.1415 173.715 79.1526C172.698 80.1638 172.126 81.5348 172.124 82.9648H173.166C173.166 82.1644 173.388 81.3794 173.807 80.696C174.226 80.0125 174.826 79.457 175.542 79.0902C176.258 78.7234 177.061 78.5596 177.864 78.6168C178.667 78.6739 179.439 78.9497 180.095 79.414C180.751 79.8783 181.266 80.5131 181.582 81.2489C181.899 81.9847 182.006 82.793 181.892 83.5853C181.777 84.3775 181.445 85.1231 180.932 85.7402C180.42 86.3574 179.746 86.8223 178.985 87.084C178.603 87.2167 178.204 87.2952 177.8 87.3171V88.3561C178.271 88.3354 178.738 88.2533 179.187 88.1119C180.425 87.7249 181.482 86.9101 182.167 85.815C182.852 84.72 183.12 83.4173 182.922 82.1428C182.724 80.8684 182.073 79.7066 181.088 78.8679C180.103 78.0293 178.847 77.5693 177.55 77.5713Z" fill="#78ACEA"/>
<path d="M179.225 87.801C179.224 87.9064 179.21 88.0112 179.182 88.1129C179.103 88.3991 178.917 88.6447 178.662 88.7998C178.408 88.955 178.103 89.0082 177.811 88.9487C177.518 88.8892 177.259 88.7214 177.086 88.4793C176.913 88.2371 176.839 87.9387 176.879 87.6445C176.919 87.3502 177.07 87.0821 177.302 86.8943C177.533 86.7065 177.828 86.6131 178.126 86.633C178.424 86.6529 178.703 86.7846 178.907 87.0014C179.111 87.2183 179.225 87.5041 179.225 87.801Z" fill="#78ACEA"/>
<path d="M197.009 77.5713C195.57 77.5725 194.191 78.141 193.173 79.1522C192.156 80.1634 191.584 81.5346 191.582 82.9648H192.625C192.625 82.164 192.846 81.3787 193.265 80.6948C193.685 80.011 194.285 79.4551 195.001 79.088C195.717 78.721 196.521 78.557 197.324 78.6141C198.128 78.6711 198.9 78.947 199.556 79.4115C200.212 79.876 200.727 80.5111 201.044 81.2473C201.361 81.9834 201.468 82.7921 201.353 83.5846C201.238 84.3772 200.906 85.123 200.393 85.7403C199.88 86.3575 199.206 86.8224 198.444 87.084C198.063 87.2168 197.664 87.2953 197.261 87.3171V88.3561C197.731 88.3355 198.197 88.2534 198.646 88.1118C199.882 87.7236 200.937 86.9087 201.621 85.8145C202.304 84.7203 202.572 83.419 202.374 82.146C202.177 80.8729 201.527 79.7121 200.544 78.8735C199.56 78.0348 198.307 77.5737 197.012 77.5735L197.009 77.5713Z" fill="#78ACEA"/>
<path d="M198.686 87.801C198.686 87.9064 198.672 88.0112 198.644 88.1129C198.564 88.3991 198.378 88.6447 198.124 88.7998C197.869 88.955 197.565 89.0082 197.272 88.9487C196.979 88.8892 196.72 88.7214 196.547 88.4793C196.375 88.2371 196.301 87.9387 196.341 87.6445C196.381 87.3502 196.532 87.0821 196.763 86.8943C196.995 86.7065 197.289 86.6131 197.587 86.633C197.885 86.6529 198.164 86.7846 198.368 87.0014C198.573 87.2183 198.686 87.5041 198.686 87.801Z" fill="#78ACEA"/>
<path d="M216.468 77.5713C215.029 77.5725 213.65 78.141 212.632 79.1522C211.614 80.1633 211.042 81.5345 211.04 82.9648H212.082C212.082 82.1644 212.304 81.3794 212.723 80.696C213.142 80.0125 213.742 79.457 214.458 79.0902C215.173 78.7234 215.977 78.5596 216.78 78.6167C217.583 78.6739 218.355 78.9497 219.011 79.414C219.667 79.8783 220.181 80.5131 220.498 81.2489C220.815 81.9847 220.922 82.793 220.808 83.5853C220.693 84.3775 220.361 85.1231 219.848 85.7402C219.336 86.3574 218.662 86.8223 217.901 87.084C217.519 87.2168 217.12 87.2953 216.716 87.3171V88.3561C217.187 88.3356 217.653 88.2535 218.103 88.1118C219.339 87.7236 220.394 86.9087 221.077 85.8145C221.761 84.7203 222.028 83.419 221.831 82.146C221.633 80.8729 220.984 79.7121 220.001 78.8735C219.017 78.0348 217.764 77.5737 216.468 77.5735V77.5713Z" fill="#78ACEA"/>
<path d="M218.145 87.801C218.145 87.9064 218.131 88.0112 218.103 88.1129C218.023 88.3991 217.837 88.6447 217.583 88.7998C217.328 88.955 217.024 89.0082 216.731 88.9487C216.438 88.8892 216.179 88.7214 216.006 88.4793C215.834 88.2371 215.76 87.9387 215.8 87.6445C215.84 87.3502 215.991 87.0821 216.222 86.8943C216.453 86.7065 216.748 86.6131 217.046 86.633C217.344 86.6529 217.623 86.7846 217.827 87.0014C218.032 87.2183 218.145 87.5041 218.145 87.801Z" fill="#78ACEA"/>
<path d="M235.925 77.5713C234.486 77.5728 233.107 78.1415 232.09 79.1526C231.073 80.1638 230.501 81.5348 230.499 82.9648H231.54C231.539 82.164 231.761 81.3787 232.18 80.6948C232.599 80.011 233.199 79.4551 233.915 79.088C234.631 78.721 235.435 78.557 236.239 78.6141C237.042 78.6711 237.814 78.947 238.47 79.4115C239.127 79.876 239.641 80.5111 239.958 81.2473C240.275 81.9834 240.382 82.7921 240.267 83.5846C240.153 84.3772 239.82 85.123 239.307 85.7403C238.794 86.3575 238.12 86.8224 237.359 87.084C236.977 87.2168 236.579 87.2953 236.175 87.3171V88.3561C236.646 88.3355 237.112 88.2534 237.562 88.1118C238.798 87.7236 239.853 86.9085 240.537 85.814C241.22 84.7196 241.487 83.4181 241.29 82.1449C241.092 80.8717 240.442 79.7108 239.458 78.8724C238.474 78.0339 237.221 77.5732 235.925 77.5735V77.5713Z" fill="#78ACEA"/>
<path d="M237.603 87.8009C237.603 87.9062 237.589 88.0111 237.562 88.1128C237.483 88.4014 237.297 88.6494 237.041 88.8067C236.785 88.9641 236.479 89.0189 236.184 88.9601C235.889 88.9014 235.628 88.7334 235.453 88.4902C235.278 88.2471 235.202 87.9469 235.241 87.6504C235.281 87.354 235.432 87.0835 235.664 86.8936C235.897 86.7038 236.193 86.6088 236.493 86.6279C236.793 86.647 237.075 86.7788 237.281 86.9966C237.487 87.2144 237.602 87.5019 237.603 87.8009Z" fill="#78ACEA"/>
<path d="M188.641 136.434H182.313C181.581 136.434 180.868 135.841 180.726 135.112L179.505 128.822C179.365 128.095 179.847 127.5 180.58 127.5H186.908C187.639 127.5 188.353 128.095 188.493 128.822L189.715 135.112C189.856 135.841 189.372 136.434 188.641 136.434Z" fill="#AFCDFB"/>
<path d="M204.609 136.434H198.281C197.55 136.434 196.836 135.841 196.695 135.112L195.474 128.822C195.333 128.095 195.817 127.5 196.548 127.5H202.876C203.608 127.5 204.321 128.095 204.463 128.822L205.683 135.112C205.824 135.841 205.342 136.434 204.609 136.434Z" fill="#AFCDFB"/>
<path d="M220.579 136.434H214.25C213.518 136.434 212.799 135.841 212.664 135.112L211.443 128.822C211.301 128.095 211.785 127.5 212.516 127.5H218.844C219.576 127.5 220.289 128.095 220.431 128.822L221.652 135.112C221.792 135.841 221.31 136.434 220.579 136.434Z" fill="#78ACEA"/>
<path d="M140.736 136.434H134.407C133.676 136.434 132.956 135.841 132.821 135.112L131.6 128.822C131.458 128.095 131.942 127.5 132.673 127.5H139.001C139.733 127.5 140.453 128.095 140.588 128.822L141.809 135.112C141.951 135.841 141.467 136.434 140.736 136.434Z" fill="#AFCDFB"/>
<path d="M133.8 117.549H131.08C130.919 117.543 130.765 117.483 130.642 117.38C130.519 117.278 130.433 117.137 130.399 116.981L129.874 114.278C129.857 114.209 129.856 114.138 129.871 114.069C129.886 113.999 129.917 113.935 129.962 113.88C130.007 113.825 130.064 113.781 130.128 113.751C130.193 113.722 130.264 113.707 130.335 113.71H133.054C133.215 113.716 133.369 113.775 133.493 113.878C133.616 113.981 133.702 114.122 133.736 114.278L134.261 116.981C134.279 117.05 134.28 117.121 134.264 117.19C134.249 117.26 134.218 117.324 134.173 117.379C134.128 117.434 134.071 117.478 134.007 117.508C133.942 117.537 133.871 117.552 133.8 117.549Z" fill="#F99746"/>
<path d="M156.704 136.434H150.376C149.644 136.434 148.924 135.841 148.789 135.112L147.569 128.822C147.428 128.095 147.91 127.5 148.642 127.5H154.97C155.701 127.5 156.422 128.095 156.557 128.822L157.777 135.112C157.919 135.841 157.435 136.434 156.704 136.434Z" fill="#AFCDFB"/>
<path d="M172.673 136.434H166.344C165.613 136.434 164.899 135.841 164.758 135.112L163.537 128.822C163.396 128.095 163.879 127.5 164.61 127.5H170.938C171.671 127.5 172.39 128.095 172.525 128.822L173.746 135.112C173.887 135.841 173.404 136.434 172.673 136.434Z" fill="#AFCDFB"/>
<path d="M236.547 136.434H230.218C229.487 136.434 228.772 135.841 228.632 135.112L227.411 128.822C227.269 128.095 227.753 127.5 228.484 127.5H234.812C235.544 127.5 236.259 128.095 236.399 128.822L237.62 135.112C237.762 135.841 237.278 136.434 236.547 136.434Z" fill="#78ACEA"/>
<path d="M185.99 122.773H179.662C178.93 122.773 178.21 122.178 178.075 121.451L176.854 115.16C176.714 114.433 177.196 113.838 177.928 113.838H184.256C184.987 113.838 185.707 114.433 185.843 115.16L187.063 121.451C187.205 122.178 186.721 122.773 185.99 122.773Z" fill="#AFCDFB"/>
<path d="M201.958 122.773H195.63C194.899 122.773 194.185 122.178 194.043 121.451L192.823 115.16C192.682 114.433 193.164 113.838 193.896 113.838H200.224C200.957 113.838 201.676 114.433 201.811 115.16L203.032 121.451C203.173 122.178 202.69 122.773 201.958 122.773Z" fill="#AFCDFB"/>
<path d="M217.926 122.773H211.598C210.867 122.773 210.153 122.178 210.012 121.451L208.791 115.16C208.65 114.433 209.134 113.838 209.865 113.838H216.193C216.925 113.838 217.638 114.433 217.78 115.16L219 121.451C219.141 122.178 218.658 122.773 217.926 122.773Z" fill="#78ACEA"/>
<path d="M233.896 122.773H227.568C226.835 122.773 226.116 122.178 225.981 121.451L224.759 115.16C224.619 114.433 225.102 113.838 225.833 113.838H232.162C232.893 113.838 233.607 114.433 233.748 115.16L234.969 121.451C235.11 122.178 234.627 122.773 233.896 122.773Z" fill="#78ACEA"/>
<path d="M191.451 150.916H185.123C184.392 150.916 183.671 150.321 183.536 149.594L182.316 143.301C182.174 142.574 182.657 141.979 183.389 141.979H189.721C190.453 141.979 191.173 142.574 191.308 143.301L192.529 149.591C192.665 150.321 192.178 150.916 191.451 150.916Z" fill="#AFCDFB"/>
<path d="M207.42 150.916H201.092C200.36 150.916 199.64 150.321 199.505 149.594L198.284 143.301C198.142 142.574 198.626 141.979 199.357 141.979H205.69C206.421 141.979 207.142 142.574 207.277 143.301L208.497 149.591C208.635 150.321 208.147 150.916 207.42 150.916Z" fill="#AFCDFB"/>
<path d="M223.388 150.916H217.06C216.328 150.916 215.615 150.321 215.473 149.594L214.252 143.301C214.112 142.574 214.594 141.979 215.326 141.979H221.658C222.39 141.979 223.11 142.574 223.245 143.301L224.465 149.591C224.603 150.321 224.115 150.916 223.388 150.916Z" fill="#78ACEA"/>
<path d="M143.545 150.916H137.217C136.486 150.916 135.772 150.321 135.63 149.594L134.41 143.301C134.269 142.574 134.752 141.979 135.484 141.979H141.817C142.548 141.979 143.262 142.574 143.402 143.301L144.624 149.591C144.76 150.321 144.273 150.916 143.545 150.916Z" fill="#AFCDFB"/>
<path d="M159.514 150.916H153.186C152.454 150.916 151.741 150.321 151.599 149.594L150.378 143.301C150.238 142.574 150.721 141.979 151.453 141.979H157.785C158.517 141.979 159.23 142.574 159.372 143.301L160.592 149.591C160.729 150.321 160.242 150.916 159.514 150.916Z" fill="#AFCDFB"/>
<path d="M175.483 150.916H169.155C168.422 150.916 167.703 150.321 167.568 149.594L166.346 143.301C166.206 142.574 166.689 141.979 167.421 141.979H173.753C174.485 141.979 175.198 142.574 175.34 143.301L176.561 149.591C176.697 150.321 176.21 150.916 175.483 150.916Z" fill="#AFCDFB"/>
<path d="M239.356 150.916H233.028C232.297 150.916 231.583 150.321 231.441 149.594L230.221 143.301C230.08 142.574 230.563 141.979 231.294 141.979H237.627C238.358 141.979 239.072 142.574 239.212 143.301L240.434 149.591C240.571 150.321 240.083 150.916 239.356 150.916Z" fill="#78ACEA"/>
<path d="M194.261 165.395H187.935C187.204 165.395 186.49 164.8 186.348 164.073L185.128 157.783C184.987 157.056 185.47 156.461 186.201 156.461H192.53C193.262 156.461 193.975 157.056 194.116 157.783L195.338 164.073C195.476 164.8 194.993 165.395 194.261 165.395Z" fill="#AFCDFB"/>
<path d="M210.229 165.395H203.903C203.172 165.395 202.458 164.8 202.316 164.073L201.096 157.783C200.955 157.056 201.438 156.461 202.17 156.461H208.498C209.23 156.461 209.943 157.056 210.084 157.783L211.306 164.073C211.444 164.8 210.961 165.395 210.229 165.395Z" fill="#AFCDFB"/>
<path d="M226.197 165.395H219.871C219.14 165.395 218.426 164.8 218.286 164.073L217.064 157.783C216.923 157.056 217.407 156.461 218.138 156.461H224.467C225.198 156.461 225.911 157.056 226.053 157.783L227.274 164.073C227.412 164.8 226.93 165.395 226.197 165.395Z" fill="#78ACEA"/>
<path d="M146.356 165.395H140.03C139.297 165.395 138.578 164.8 138.443 164.073L137.223 157.783C137.081 157.056 137.564 156.461 138.296 156.461H144.624C145.355 156.461 146.069 157.056 146.211 157.783L147.431 164.073C147.57 164.8 147.087 165.395 146.356 165.395Z" fill="#AFCDFB"/>
<path d="M162.324 165.395H155.999C155.267 165.395 154.547 164.8 154.412 164.073L153.191 157.783C153.049 157.056 153.533 156.461 154.264 156.461H160.592C161.324 156.461 162.044 157.056 162.179 157.783L163.4 164.073C163.539 164.8 163.056 165.395 162.324 165.395Z" fill="#F99746"/>
<path d="M178.293 165.395H171.967C171.235 165.395 170.515 164.8 170.38 164.073L169.159 157.783C169.019 157.056 169.501 156.461 170.233 156.461H176.561C177.292 156.461 178.012 157.056 178.147 157.783L179.368 164.073C179.508 164.8 179.024 165.395 178.293 165.395Z" fill="#AFCDFB"/>
<path d="M242.167 165.395H235.84C235.109 165.395 234.394 164.8 234.253 164.073L233.033 157.783C232.891 157.056 233.374 156.461 234.106 156.461H240.434C241.165 156.461 241.88 157.056 242.021 157.783L243.241 164.073C243.381 164.8 242.898 165.395 242.167 165.395Z" fill="#78ACEA"/>
<path d="M196.912 179.059H190.584C189.852 179.059 189.139 178.464 188.997 177.737L187.777 171.446C187.636 170.718 188.119 170.123 188.851 170.123H195.179C195.91 170.123 196.624 170.718 196.766 171.446L197.986 177.737C198.127 178.464 197.65 179.059 196.912 179.059Z" fill="#AFCDFB"/>
<path d="M212.881 179.059H206.553C205.821 179.059 205.102 178.464 204.966 177.737L203.745 171.446C203.604 170.718 204.088 170.123 204.819 170.123H211.147C211.879 170.123 212.592 170.718 212.734 171.446L213.955 177.737C214.095 178.464 213.618 179.059 212.881 179.059Z" fill="#AFCDFB"/>
<path d="M228.85 179.059H222.522C221.79 179.059 221.07 178.464 220.935 177.737L219.714 171.446C219.573 170.718 220.056 170.123 220.788 170.123H227.116C227.847 170.123 228.567 170.718 228.702 171.446L229.923 177.737C230.064 178.464 229.587 179.059 228.85 179.059Z" fill="#78ACEA"/>
<path d="M149.007 179.059H142.679C141.947 179.059 141.227 178.464 141.092 177.737L139.871 171.446C139.73 170.718 140.213 170.123 140.944 170.123H147.273C148.004 170.123 148.724 170.718 148.859 171.446L150.08 177.737C150.222 178.464 149.738 179.059 149.007 179.059Z" fill="#AFCDFB"/>
<path d="M164.975 179.059H158.647C157.915 179.059 157.195 178.464 157.06 177.737L155.84 171.446C155.699 170.718 156.181 170.123 156.913 170.123H163.241C163.972 170.123 164.693 170.718 164.828 171.446L166.048 177.737C166.19 178.464 165.706 179.059 164.975 179.059Z" fill="#AFCDFB"/>
<path d="M180.944 179.059H174.615C173.884 179.059 173.17 178.464 173.029 177.737L171.808 171.446C171.667 170.718 172.15 170.123 172.882 170.123H179.21C179.942 170.123 180.655 170.718 180.796 171.446L182.018 177.737C182.158 178.464 181.675 179.059 180.944 179.059Z" fill="#AFCDFB"/>
<path d="M152.983 115.067H136.215C136.097 115.067 135.983 115.02 135.9 114.937C135.816 114.854 135.769 114.741 135.769 114.623C135.769 114.505 135.816 114.393 135.9 114.309C135.983 114.226 136.097 114.179 136.215 114.179H152.983C153.102 114.179 153.215 114.226 153.299 114.309C153.383 114.393 153.43 114.505 153.43 114.623C153.43 114.741 153.383 114.854 153.299 114.937C153.215 115.02 153.102 115.067 152.983 115.067Z" fill="#AFCDFB"/>
<path d="M153.49 117.086H136.725C136.606 117.086 136.493 117.039 136.409 116.956C136.325 116.873 136.278 116.76 136.278 116.642C136.278 116.524 136.325 116.412 136.409 116.328C136.493 116.245 136.606 116.198 136.725 116.198H153.49C153.609 116.198 153.722 116.245 153.806 116.328C153.89 116.412 153.937 116.524 153.937 116.642C153.937 116.76 153.89 116.873 153.806 116.956C153.722 117.039 153.609 117.086 153.49 117.086Z" fill="#AFCDFB"/>
<path d="M135.005 100.039H129.252C129.025 100.038 128.808 99.9483 128.647 99.7888C128.487 99.6293 128.396 99.4131 128.396 99.1874C128.396 98.9616 128.486 98.7451 128.647 98.5854C128.807 98.4256 129.025 98.3355 129.252 98.335H135.005C135.232 98.3355 135.45 98.4256 135.61 98.5854C135.771 98.7451 135.861 98.9616 135.862 99.1874C135.861 99.4131 135.771 99.6293 135.61 99.7888C135.45 99.9483 135.232 100.038 135.005 100.039Z" fill="white"/>
<path d="M150.785 100.039H145.032C144.805 100.038 144.588 99.9484 144.427 99.7889C144.266 99.6294 144.176 99.4132 144.175 99.1874C144.175 98.9615 144.266 98.745 144.427 98.5853C144.587 98.4255 144.805 98.3355 145.032 98.335H150.785C151.013 98.3355 151.23 98.4256 151.391 98.5854C151.551 98.7451 151.642 98.9616 151.642 99.1874C151.641 99.4131 151.551 99.6293 151.39 99.7888C151.23 99.9483 151.012 100.038 150.785 100.039Z" fill="white"/>
<path d="M166.572 100.039H160.818C160.591 100.038 160.374 99.9479 160.213 99.7885C160.053 99.629 159.962 99.413 159.961 99.1874C159.962 98.9617 160.052 98.7454 160.213 98.5857C160.373 98.426 160.591 98.3358 160.818 98.335H166.572C166.799 98.3355 167.017 98.4256 167.177 98.5854C167.338 98.7451 167.428 98.9616 167.429 99.1874C167.428 99.4131 167.338 99.6293 167.177 99.7888C167.017 99.9483 166.799 100.038 166.572 100.039Z" fill="white"/>
<path d="M182.357 100.039H176.604C176.377 100.038 176.16 99.9483 175.999 99.7888C175.839 99.6293 175.748 99.4131 175.748 99.1874C175.748 98.9616 175.838 98.7451 175.999 98.5854C176.159 98.4256 176.377 98.3355 176.604 98.335H182.357C182.584 98.3355 182.802 98.4255 182.963 98.5853C183.124 98.745 183.214 98.9615 183.215 99.1874C183.214 99.4132 183.123 99.6294 182.962 99.7889C182.802 99.9484 182.584 100.038 182.357 100.039Z" fill="white"/>
<path d="M198.144 100.039H192.391C192.164 100.038 191.946 99.9483 191.786 99.7888C191.625 99.6293 191.535 99.4131 191.534 99.1874C191.534 98.9616 191.625 98.7451 191.785 98.5854C191.946 98.4256 192.164 98.3355 192.391 98.335H198.144C198.371 98.3355 198.589 98.4256 198.749 98.5854C198.91 98.7451 199 98.9616 199 99.1874C199 99.4131 198.909 99.6293 198.749 99.7888C198.588 99.9483 198.371 100.038 198.144 100.039Z" fill="white"/>
<path d="M213.93 100.039H208.177C207.95 100.038 207.732 99.9484 207.572 99.7889C207.411 99.6294 207.32 99.4132 207.319 99.1874C207.32 98.9615 207.41 98.745 207.571 98.5853C207.732 98.4255 207.95 98.3355 208.177 98.335H213.93C214.157 98.3355 214.375 98.4256 214.535 98.5854C214.696 98.7451 214.786 98.9616 214.786 99.1874C214.786 99.4131 214.695 99.6293 214.535 99.7888C214.374 99.9483 214.157 100.038 213.93 100.039Z" fill="white"/>
<path d="M229.716 100.039H223.963C223.736 100.038 223.518 99.9484 223.358 99.7889C223.197 99.6294 223.106 99.4132 223.105 99.1874C223.106 98.9615 223.197 98.745 223.357 98.5853C223.518 98.4255 223.736 98.3355 223.963 98.335H229.716C229.943 98.3355 230.161 98.4256 230.322 98.5854C230.482 98.7451 230.572 98.9616 230.573 99.1874C230.572 99.4131 230.482 99.6293 230.321 99.7888C230.161 99.9483 229.943 100.038 229.716 100.039Z" fill="white"/>
<path d="M193.329 122.897C192.06 122.897 191.134 122.496 190.63 121.718C189.663 120.226 190.407 118.135 192.848 115.502C194.042 114.242 195.34 113.085 196.73 112.041C196.749 112.027 196.771 112.016 196.795 112.01C196.818 112.004 196.843 112.003 196.867 112.006C196.891 112.009 196.914 112.017 196.935 112.03C196.956 112.042 196.975 112.058 196.989 112.077C197.004 112.097 197.015 112.119 197.021 112.142C197.027 112.165 197.028 112.19 197.025 112.214C197.022 112.238 197.014 112.261 197.001 112.282C196.989 112.303 196.972 112.321 196.953 112.335C196.872 112.395 188.855 118.295 190.944 121.52C191.606 122.541 193.024 122.608 194.097 122.485C196.083 122.257 198.675 121.193 201.02 119.64C203.454 118.033 205.17 116.223 205.725 114.671C206.09 113.654 205.977 112.934 205.39 112.53C204.631 112.008 203.044 112.007 201.146 112.53C199.33 113.028 197.504 113.926 196.378 114.873C196.34 114.9 196.294 114.913 196.247 114.907C196.201 114.902 196.159 114.879 196.128 114.844C196.098 114.808 196.083 114.763 196.085 114.717C196.087 114.67 196.107 114.627 196.14 114.594C197.304 113.615 199.184 112.69 201.053 112.178C203.082 111.623 204.738 111.639 205.598 112.23C206.108 112.581 206.603 113.31 206.071 114.795C205.489 116.419 203.726 118.296 201.223 119.946C198.826 121.528 196.176 122.61 194.135 122.848C193.867 122.88 193.599 122.896 193.329 122.897Z" fill="#C65447"/>
<path d="M226.548 112.528L225.895 111.307C225.895 111.307 226.219 109.123 223.468 107.743C223.468 107.743 222.463 107.336 221.895 108.151C221.373 108.902 222.891 108.767 222.81 110.051C222.728 111.335 223.341 112.089 224.195 112.508L224.901 113.32L226.548 112.528Z" fill="#FFB27D"/>
<path d="M252.547 109.599C252.547 109.599 250.185 121.125 237.184 124.891C233.126 126.067 223.905 112.786 223.905 112.786C223.905 112.786 224.229 111.565 226.26 111.842C226.26 111.842 235.237 117.75 236.367 118.391C237.372 118.961 243.961 111.071 246.976 109.798C249.991 108.525 252.547 109.599 252.547 109.599Z" fill="#233862"/>
<path d="M214.544 109.396L215.065 112.192L229.216 109.588L228.695 106.792L214.544 109.396Z" fill="#C65447"/>
<path d="M211.502 111.396L215.053 112.189L214.532 109.393L211.502 111.396Z" fill="#FFB27D"/>
<path d="M230.501 107.412L230.665 108.3C230.69 108.43 230.688 108.563 230.661 108.691C230.633 108.82 230.581 108.942 230.506 109.05C230.431 109.159 230.335 109.251 230.224 109.323C230.113 109.394 229.988 109.443 229.858 109.467L229.204 109.588L228.683 106.791L229.395 106.66C229.642 106.614 229.897 106.668 230.104 106.809C230.312 106.95 230.454 107.167 230.501 107.412Z" fill="#FFB27D"/>
<path d="M268.068 182.057C268.068 182.057 269.68 183.52 269.365 184.56C269.051 185.6 267.596 186.293 267.399 187.564C267.203 188.835 266.415 189.527 265.707 189.527H262.332C262.332 189.527 261.81 188.633 263.07 188.363C264.329 188.093 264.803 186.6 264.725 185.215C264.646 183.83 264.836 181.98 264.836 181.98L267.516 181.364L268.068 182.057Z" fill="#233862"/>
<path d="M248.282 185.842C248.282 185.842 248.571 189.172 247.863 189.517L238.802 189.499C238.802 189.499 238.802 188.459 240.253 188.228C241.705 187.997 244.265 187.15 244.699 185.263C245.132 183.376 248.282 185.842 248.282 185.842Z" fill="#233862"/>
<path d="M240.631 138.807C240.631 138.807 241.109 144.643 241.67 151.658C242.434 161.19 243.352 172.896 243.444 175.114C243.6 178.964 244.225 185.125 244.225 185.125C244.225 185.125 245.719 186.588 248.709 185.972C248.709 185.972 251.374 177.178 252.135 167.879C252.147 167.725 252.159 167.572 252.17 167.418C252.878 157.946 253.979 138.003 253.979 138.003L240.631 138.807Z" fill="#F99746"/>
<path d="M240.631 138.807C240.631 138.807 241.109 144.643 241.67 151.658L252.143 167.874C252.156 167.721 252.168 167.568 252.179 167.414C252.887 157.942 253.988 137.999 253.988 137.999L240.631 138.807Z" fill="#ED7D2B"/>
<path d="M242.813 139.499C242.813 139.499 251.429 160.637 257.092 170.57C262.756 180.504 264.527 183.277 264.527 183.277C264.527 183.277 267.773 182.006 268.068 181.14C268.068 181.14 265.902 161.962 262.108 157.287C259.964 154.646 257.447 146.719 257.329 143.946C257.211 141.173 256.562 135.688 256.562 135.688L242.813 139.499Z" fill="#F99746"/>
<path d="M254.153 106.924C254.153 106.924 248.324 109.72 244.964 108.682C245.601 107.946 246.369 107.333 247.23 106.874C247.118 106.203 247.023 105.621 246.972 105.128C246.891 104.537 246.843 103.941 246.829 103.344L249.078 101.586L251.211 99.9033C251.047 104.634 254.153 106.924 254.153 106.924Z" fill="#FFB27D"/>
<path d="M240.263 139.288C240.358 139.376 240.483 139.425 240.613 139.427C241.879 139.401 245.563 140.093 248.676 139.78C251.313 139.527 253.64 138.769 256.134 137.682C256.469 137.53 257.233 137.127 257.22 136.771C257.206 136.366 257.168 135.797 257.117 135.062C257.012 133.619 256.866 131.565 256.819 129.132C256.784 127.328 256.803 125.316 256.931 123.183C256.938 123.04 256.946 122.896 256.952 122.751C256.99 121.974 257.008 121.183 257.008 120.414C257.033 118.084 256.856 115.756 256.48 113.456C255.845 109.793 254.656 106.916 252.899 105.639C252.666 105.461 251.218 106.156 249.874 106.802C248.646 107.397 247.418 107.46 246.256 107.232L245.093 108.244C243.683 109.521 242.131 111.28 241.447 113.937C240.88 116.189 240.544 120.264 240.362 124.482C240.272 126.404 240.207 128.327 240.182 130.161V130.224C240.167 130.414 240.167 130.605 240.167 130.794C240.108 135.493 240.172 139.225 240.263 139.288Z" fill="#2B478B"/>
<path d="M251.25 101.712C251.25 101.712 249.776 104.376 246.972 105.128C246.891 104.536 246.843 103.941 246.829 103.344L249.078 101.586L251.25 101.712Z" fill="#ED985F"/>
<path d="M245.808 103.267C245.808 103.267 251.369 104.172 251.89 100.774C252.411 97.3761 253.481 95.2038 249.954 94.4823C246.426 93.7608 245.534 94.9563 245.078 96.0497C244.623 97.143 244.375 102.945 245.808 103.267Z" fill="#FFB27D"/>
<path d="M253.911 94.0758C253.961 94.0181 254.078 93.9715 254.337 93.957C254.189 93.8736 254.023 93.8272 253.853 93.8216C253.799 93.4642 253.607 92.8304 252.987 92.6761C253.088 92.7349 253.174 92.8152 253.239 92.9113C253.304 93.0073 253.347 93.1165 253.364 93.2311C252.646 92.4974 251.107 91.9635 246.845 92.2987C241.229 92.7427 243.079 96.3136 243.807 96.7387C244.535 97.1638 246.365 95.9961 247.716 96.1038C249.067 96.2114 249.328 98.1562 249.787 98.4226C250.246 98.689 250.066 98.2183 250.688 97.9386C251.31 97.6589 251.369 98.6834 251.19 99.3494C251.01 100.015 251.86 100.893 251.86 100.893L252.723 99.9688C253.586 99.0453 254.398 95.1303 254.008 94.2956C253.981 94.2256 253.947 94.1502 253.911 94.0758Z" fill="#2C3A64"/>
<path d="M225.883 111.244C225.883 111.244 226.075 110.494 225.548 110.155C225.021 109.817 224.543 108.9 224.319 109.024C223.862 109.282 224.57 110.083 224.44 111.082C224.399 111.433 225.218 112.35 225.883 111.244Z" fill="#FFB27D"/>
<path d="M256.819 129.132C256.784 127.328 256.803 125.316 256.931 123.183C256.938 123.04 256.946 122.896 256.952 122.752C256.424 120.149 255.624 117.839 254.447 117.763C254.452 117.763 250.945 123.241 256.819 129.132Z" fill="#233862"/>
<path d="M261.456 138.577C261.456 138.577 261.164 141.402 260.843 141.935C260.523 142.469 259.157 144.177 258.577 144.512C257.996 144.847 258.932 142.262 258.812 141.759C258.693 141.256 258.334 142.677 258.077 142.71C257.821 142.744 257.888 141.465 257.879 141C257.87 140.535 259.125 139.386 259.568 138.396C260.011 137.406 261.456 138.577 261.456 138.577Z" fill="#FFB27D"/>
<path d="M252.9 105.61C252.9 105.61 256.419 107.266 258.106 109.812C260.723 113.762 263.756 128.154 263.811 129.487C263.867 130.82 261.598 140.229 261.598 140.229C261.598 140.229 259.296 140.079 258.702 138.923C258.702 138.923 259.162 129.255 258.87 128.633C258.579 128.012 249.273 115.665 250.32 113.03C251.366 110.395 252.9 105.61 252.9 105.61Z" fill="#2B478B"/>
<path d="M213.321 110.193L213.507 111.843L211.502 111.396L213.321 110.193Z" fill="#C65447"/>
<path d="M289.453 189.477H279.314C278.771 189.019 279.69 187.978 280.654 187.909C281.072 187.876 281.599 187.964 282.202 188.091C282.341 186.248 283.137 177.967 286.141 178.299C289.517 178.672 286.141 181.947 285.187 183.885C284.48 185.321 283.735 187.38 283.392 188.351C283.667 188.411 283.95 188.469 284.241 188.521C284.687 187.156 286.353 182.562 288.471 182.829C290.956 183.142 289.958 184.985 288.195 186.078C286.903 186.882 285.315 188.025 284.56 188.577C285.215 188.691 285.879 188.744 286.543 188.735C288.276 188.691 289.125 189.199 289.453 189.477Z" fill="#82B378"/>
<path d="M58.002 188.994C57.4649 188.155 55.8479 185.977 53.6939 186.266C51.3489 186.58 56.2857 188.118 57.7976 189.001C57.5153 189.016 57.2325 188.983 56.9613 188.903C55.9507 188.546 54.2187 189.236 53.666 189.474H63.2883C63.1792 189.106 62.9332 188.793 62.6004 188.599C62.443 188.502 62.1247 188.488 61.7149 188.52C62.2866 187.854 62.6842 185.707 61.0918 186.259C59.9282 186.662 59.9316 187.971 60.0455 188.744C59.7976 188.783 59.5463 188.822 59.2984 188.855C58.8194 186.428 57.1254 179.309 53.6905 179.125C50.2088 178.933 56.643 186.502 58.7859 188.923C58.5134 188.959 58.2465 188.983 58.002 188.994Z" fill="#82B378"/>
<path d="M321.37 189.373H20.1503C19.9616 189.373 19.8086 189.525 19.8086 189.712V189.829C19.8086 190.016 19.9616 190.168 20.1503 190.168H321.37C321.559 190.168 321.712 190.016 321.712 189.829V189.712C321.712 189.525 321.559 189.373 321.37 189.373Z" fill="#2E3552"/>
</svg>
