<svg width="48" height="48" viewBox="0 0 48 48" fill="none" xmlns="http://www.w3.org/2000/svg">
<g opacity="0.5">
<path d="M18.0178 13.3841C16.6303 11.3249 16.0405 10.073 16.1188 8.27971C10.3988 14.7082 15.973 21.2613 20.0555 26.4184C21.3971 24.8675 22.7119 23.295 24 21.6609C21.8945 18.9897 19.9182 16.2046 18.0178 13.3841Z" fill="#246BFD"/>
<path d="M31.8811 8.27971C31.9595 10.073 31.3696 11.3249 29.9822 13.3841C28.0817 16.2046 26.1054 18.9897 24 21.6609C22.7119 23.295 21.3971 24.8675 20.0555 26.4184C18.2352 28.5225 13.1751 34.2295 12.4156 35.0858C12.3566 35.1523 12.3511 35.2438 12.3984 35.319C12.853 36.0417 15.152 39.694 16 41.0001C16.0576 41.0925 19.9501 36.3783 24 31.3533C25.3421 29.6879 26.7016 27.9884 27.9445 26.4184C32.0269 21.2613 37.6012 14.7082 31.8811 8.27971Z" fill="#246BFD"/>
<path d="M24 31.3533C28.0498 36.3783 31.9423 41.0925 32 41.0001C32.6918 39.9345 35.1299 36.0674 35.6011 35.3197C35.6485 35.2445 35.6433 35.1524 35.5844 35.0859C34.7992 34.1993 29.4197 28.1236 27.9445 26.4184C26.7016 27.9884 25.3421 29.6879 24 31.3533Z" fill="#246BFD"/>
</g>
<path fill-rule="evenodd" clip-rule="evenodd" d="M15.505 10.8768C15.0837 11.6789 14.8423 12.4661 14.7374 13.2358C14.548 14.6246 14.7926 16.0343 15.3442 17.4664C16.3316 20.0298 18.2283 22.5017 20.0862 24.8478C20.9796 23.8 21.8597 22.7404 22.7267 21.6562C20.7831 19.1513 18.9506 16.5584 17.1883 13.9429C16.4213 12.8045 15.8517 11.8497 15.505 10.8768ZM23.9998 20.0326C25.5898 17.9633 27.1096 15.829 28.5847 13.6638C26.9389 12.6593 25.4439 12.1984 23.9998 12.1984C22.5557 12.1984 21.0607 12.6593 19.415 13.6638C20.89 15.829 22.4099 17.9633 23.9998 20.0326ZM18.3072 11.9971C20.2054 10.8266 22.0766 10.1984 23.9998 10.1984C25.9231 10.1984 27.7943 10.8266 29.6925 11.9971C30.541 10.6383 30.8742 9.74635 30.8875 8.65982C29.2391 6.84732 26.6597 5.89038 23.9998 5.89038C21.3399 5.89038 18.7605 6.84731 17.1121 8.65982C17.1254 9.74635 17.4587 10.6383 18.3072 11.9971ZM15.3594 7.62874C13.8215 9.36172 13.003 11.1517 12.7557 12.9656C12.5091 14.7747 12.8407 16.531 13.4779 18.1853C14.6284 21.1721 16.8502 23.9913 18.7555 26.3893C16.6353 28.8194 12.3627 33.6382 11.6674 34.4222C11.3002 34.8361 11.2786 35.4172 11.5518 35.8515C12.004 36.5704 14.3058 40.2272 15.1598 41.5426C15.3313 41.8083 15.5983 41.9521 15.8539 41.9903C16.0691 42.0226 16.2382 41.9764 16.3111 41.953C16.457 41.9061 16.5587 41.8356 16.585 41.8174L16.5861 41.8166C16.6588 41.7662 16.7158 41.7131 16.7393 41.6911C16.7991 41.6349 16.8656 41.5649 16.9289 41.4964C17.0611 41.3531 17.243 41.1461 17.4629 40.8903C17.9053 40.3758 18.5285 39.6325 19.2729 38.7335C20.5716 37.1653 22.2487 35.1119 23.9998 32.9455C25.751 35.1119 27.4281 37.1653 28.7267 38.7335C29.4712 39.6325 30.0943 40.3758 30.5367 40.8903C30.7566 41.1461 30.9385 41.3531 31.0708 41.4964C31.134 41.5649 31.2006 41.6349 31.2604 41.6911C31.2838 41.7131 31.3408 41.7662 31.4136 41.8166L31.4146 41.8174C31.4409 41.8356 31.5426 41.9061 31.6886 41.953C31.7615 41.9764 31.9305 42.0226 32.1458 41.9903C32.4014 41.9521 32.6684 41.8083 32.8399 41.5426C33.5382 40.4669 35.9787 36.596 36.447 35.8529C36.7186 35.4218 36.702 34.8397 36.3328 34.4229C35.623 33.6214 31.191 28.6158 29.2445 26.3889C31.1497 23.9909 33.3713 21.1719 34.5217 18.1853C35.159 16.531 35.4906 14.7747 35.2439 12.9656C34.9966 11.1517 34.1782 9.36173 32.6403 7.62876C30.5432 5.09805 27.2276 3.89038 23.9998 3.89038C20.772 3.89038 17.4565 5.09804 15.3594 7.62874ZM32.4946 10.8768C32.1479 11.8496 31.5783 12.8045 30.8113 13.9429C28.9023 16.7761 26.911 19.5829 24.7852 22.2799C23.4855 23.9289 22.1605 25.5134 20.8116 27.0726C19.1891 28.9481 15.0069 33.6701 13.5655 35.2961C14.1619 36.2432 15.3027 38.0526 16.1377 39.3629C16.5509 38.8779 17.0943 38.2286 17.7326 37.4579C19.2155 35.6671 21.1982 33.2359 23.2212 30.7258C24.5619 29.0622 25.9195 27.365 27.1603 25.7977C27.2881 25.6362 27.4168 25.474 27.546 25.3112C29.5167 22.8279 31.6028 20.1991 32.6554 17.4664C33.2071 16.0343 33.4516 14.6246 33.2623 13.2358C33.1573 12.4661 32.9159 11.6789 32.4946 10.8768ZM27.9806 27.9816C27.1092 29.0778 26.1965 30.2185 25.2842 31.3527C27.1291 33.6375 28.908 35.8167 30.2671 37.4579C30.9049 38.2282 31.4481 38.8772 31.8613 39.362C32.6693 38.0921 33.8294 36.2542 34.4341 35.2954C33.1663 33.8634 29.7831 30.0396 27.9806 27.9816Z" fill="#246BFD"/>
</svg>
