<svg width="48" height="48" viewBox="0 0 48 48" fill="none" xmlns="http://www.w3.org/2000/svg">
<path fill-rule="evenodd" clip-rule="evenodd" d="M24.0001 5C22.3437 5 21.0001 6.34355 21.0001 8.00181C21.0001 9.66007 22.3437 11.0036 24.0001 11.0036C25.6566 11.0036 27.0002 9.66007 27.0002 8.00181C27.0002 6.34355 25.6566 5 24.0001 5ZM19.0001 8.00181C19.0001 5.23979 21.2383 3 24.0001 3C26.762 3 29.0002 5.23979 29.0002 8.00181C29.0002 10.6996 26.8649 12.8992 24.192 13H29.2986C30.1525 13 30.9809 13.2914 31.6467 13.8261L38.9695 19.7069C40.1537 20.6579 40.3427 22.3888 39.3917 23.573C38.4407 24.7572 36.7098 24.9462 35.5256 23.9952L33.6907 22.5216C33.9761 23.9692 34.1111 25.6423 33.9984 27.5587C33.8801 29.5701 33.3024 31.0044 32.7221 31.955C32.4336 32.4276 32.1478 32.7752 31.9247 33.0117C31.8791 33.06 31.8361 33.1038 31.7962 33.143C31.7924 33.1584 31.7884 33.1744 31.7844 33.1909C31.73 33.4108 31.6523 33.7273 31.5589 34.1129C31.3722 34.8842 31.1235 35.9302 30.8749 37.0306C30.6261 38.1325 30.3791 39.2818 30.1948 40.2618C30.0042 41.2755 29.8995 42.0151 29.8995 42.3515C29.8995 43.828 28.6778 44.9993 27.2198 44.9993C25.772 44.9993 24.5572 43.8443 24.5403 42.3824L24.0539 33.6052H23.9458L23.457 42.3825C23.44 43.8444 22.2252 44.9993 20.7775 44.9993C19.357 44.9993 18.1608 43.8875 18.1002 42.4647L16.1975 33.1927C16.1638 33.1663 16.1286 33.1379 16.0918 33.1074C15.8191 32.8815 15.465 32.543 15.1054 32.0727C14.3801 31.1242 13.652 29.664 13.5026 27.5712C13.5009 27.5475 13.5001 27.5238 13.5001 27.5C13.5001 25.6893 13.7541 24.0567 14.1461 22.6154L12.4971 23.9713C11.3239 24.9359 9.59093 24.7668 8.62637 23.5936C7.6618 22.4204 7.8309 20.6875 9.00406 19.7229L16.1429 13.8534C16.814 13.3016 17.6558 13 18.5245 13H23.8083C21.1354 12.8992 19.0001 10.6996 19.0001 8.00181ZM30.8995 32.6052C29.9296 32.3617 29.9296 32.3618 29.9296 32.3618L29.9067 32.4533C29.8919 32.5126 29.8703 32.5997 29.8428 32.711C29.7878 32.9336 29.7093 33.2533 29.6151 33.6423C29.4268 34.42 29.1756 35.4765 28.9241 36.59C28.6729 37.702 28.42 38.8779 28.2292 39.8923C28.0448 40.873 27.8995 41.7971 27.8995 42.3515C27.8995 42.6875 27.6095 42.9993 27.2198 42.9993C26.8301 42.9993 26.5401 42.6875 26.5401 42.3515C26.5401 42.333 26.5396 42.3146 26.5386 42.2961L25.9985 32.5499C25.9691 32.0199 25.5308 31.6052 25 31.6052H23C22.4693 31.6052 22.031 32.0198 22.0015 32.5496L21.4587 42.2959C21.4577 42.3144 21.4572 42.3329 21.4572 42.3515C21.4572 42.6875 21.1672 42.9993 20.7775 42.9993C20.3878 42.9993 20.0978 42.6875 20.0978 42.3515C20.0978 42.2839 20.0909 42.2166 20.0774 42.1504L18.0774 32.4042C18.0199 32.1241 17.8453 31.8821 17.5977 31.7392L17.5995 31.7402L17.6023 31.7418L17.6053 31.7436C17.6063 31.7442 17.6053 31.7437 17.6023 31.7418C17.5962 31.738 17.5825 31.7292 17.562 31.7152C17.5211 31.6872 17.4536 31.6384 17.3676 31.5672C17.1953 31.4244 16.9503 31.193 16.6942 30.8579C16.1913 30.2002 15.625 29.1184 15.5001 27.4639C15.5068 24.2777 16.3912 21.7202 17.358 19.8721C17.5784 19.4507 17.4716 18.9324 17.1025 18.6325C16.7334 18.3326 16.2042 18.3341 15.8368 18.6361L11.2269 22.4264C10.9069 22.6895 10.4343 22.6434 10.1712 22.3234C9.90817 22.0035 9.95429 21.5308 10.2742 21.2678L17.4131 15.3982C17.7262 15.1408 18.1191 15 18.5245 15H29.2986C29.6971 15 30.0837 15.136 30.3944 15.3855L37.7172 21.2663C38.0401 21.5256 38.0917 21.9977 37.8323 22.3207C37.573 22.6436 37.1009 22.6952 36.778 22.4358L32.4034 18.9227C32.0443 18.6344 31.5348 18.6285 31.1692 18.9084C30.8036 19.1884 30.6765 19.6818 30.8612 20.1036C31.6061 21.8042 32.1923 24.2032 32.0018 27.4413C31.9035 29.1133 31.4309 30.2316 31.015 30.9129C30.8055 31.2561 30.6067 31.4942 30.4698 31.6394C30.4013 31.712 30.3483 31.7613 30.3173 31.7889C30.3018 31.8026 30.2918 31.8109 30.2882 31.8139C30.288 31.814 30.2883 31.8138 30.2882 31.8139C30.1109 31.951 29.9842 32.1442 29.9296 32.3618L30.8995 32.6052Z" fill="#246BFD"/>
</svg>
