<svg width="31" height="30" viewBox="0 0 31 30" fill="none" xmlns="http://www.w3.org/2000/svg">
<path d="M1.29865 25V20C1.29865 19.3958 1.51283 18.8802 1.94119 18.4531C2.36955 18.026 2.88672 17.8125 3.49269 17.8125H7.91214C8.26736 17.8125 8.60692 17.901 8.9308 18.0781C9.25469 18.2552 9.53155 18.5 9.76141 18.8125C10.3674 19.6875 11.1405 20.3646 12.0808 20.8437C13.0211 21.3229 14.0241 21.5625 15.0898 21.5625C16.1555 21.5625 17.1585 21.3229 18.0988 20.8437C19.0391 20.3646 19.8227 19.6875 20.4496 18.8125C20.6794 18.5 20.9511 18.2552 21.2645 18.0781C21.5779 17.901 21.9123 17.8125 22.2675 17.8125H26.6869C27.2929 17.8125 27.8101 18.026 28.2384 18.4531C28.6668 18.8802 28.881 19.3958 28.881 20V25H20.7317V21.2812C19.9794 21.9688 19.1175 22.5 18.1458 22.875C17.1742 23.25 16.1555 23.4375 15.0898 23.4375C14.0241 23.4375 13.0107 23.25 12.0495 22.875C11.0883 22.5 10.2211 21.9688 9.44797 21.2812V25H1.29865ZM15.0898 19.6875C14.3585 19.6875 13.6532 19.5156 12.9741 19.1719C12.295 18.8281 11.7465 18.3542 11.3286 17.75C10.9943 17.2708 10.592 16.8854 10.1219 16.5938C9.65171 16.3021 9.14498 16.1042 8.6017 16C9.20767 15.375 10.1584 14.8958 11.454 14.5625C12.7495 14.2292 13.9614 14.0625 15.0898 14.0625C16.2182 14.0625 17.4354 14.2292 18.7413 14.5625C20.0473 14.8958 21.0033 15.375 21.6093 16C21.066 16.1042 20.5593 16.3021 20.0891 16.5938C19.619 16.8854 19.2167 17.2708 18.8824 17.75C18.4645 18.3542 17.916 18.8281 17.2368 19.1719C16.5577 19.5156 15.8421 19.6875 15.0898 19.6875ZM5.05987 15.625C4.11957 15.625 3.30986 15.2865 2.63075 14.6094C1.95164 13.9323 1.61208 13.125 1.61208 12.1875C1.61208 11.2292 1.95164 10.4167 2.63075 9.75C3.30986 9.08333 4.11957 8.75 5.05987 8.75C6.02108 8.75 6.83601 9.08333 7.50467 9.75C8.17333 10.4167 8.50766 11.2292 8.50766 12.1875C8.50766 13.125 8.17333 13.9323 7.50467 14.6094C6.83601 15.2865 6.02108 15.625 5.05987 15.625ZM25.1198 15.625C24.1794 15.625 23.3697 15.2865 22.6906 14.6094C22.0115 13.9323 21.672 13.125 21.672 12.1875C21.672 11.2292 22.0115 10.4167 22.6906 9.75C23.3697 9.08333 24.1794 8.75 25.1198 8.75C26.081 8.75 26.8959 9.08333 27.5646 9.75C28.2332 10.4167 28.5675 11.2292 28.5675 12.1875C28.5675 13.125 28.2332 13.9323 27.5646 14.6094C26.8959 15.2865 26.081 15.625 25.1198 15.625ZM15.0898 11.875C14.1495 11.875 13.3398 11.5365 12.6607 10.8594C11.9816 10.1823 11.642 9.375 11.642 8.4375C11.642 7.47917 11.9816 6.66667 12.6607 6C13.3398 5.33333 14.1495 5 15.0898 5C16.051 5 16.8659 5.33333 17.5346 6C18.2033 6.66667 18.5376 7.47917 18.5376 8.4375C18.5376 9.375 18.2033 10.1823 17.5346 10.8594C16.8659 11.5365 16.051 11.875 15.0898 11.875Z" fill="#246BFD"/>
</svg>
