<svg width="48" height="48" viewBox="0 0 48 48" fill="none" xmlns="http://www.w3.org/2000/svg">
<path d="M15.2138 46.3729L16.0457 41.0889L14.1926 41.046H5.34399L11.4933 2.05519C11.5124 1.93749 11.5744 1.82773 11.6651 1.74979C11.7558 1.67185 11.8719 1.62891 11.9928 1.62891H26.9127C31.8659 1.62891 35.2842 2.65963 37.0688 4.69402C37.9055 5.64839 38.4383 6.64571 38.696 7.74323C38.9664 8.89484 38.9712 10.2707 38.7072 11.9488L38.6881 12.0713V13.1466L39.5247 13.6206C40.2294 13.9944 40.7893 14.4222 41.2187 14.9121C41.9345 15.7281 42.3974 16.7652 42.593 17.9948C42.795 19.2593 42.7282 20.764 42.3974 22.4676C42.0156 24.4272 41.3985 26.1339 40.565 27.5305C39.7983 28.8173 38.8217 29.8846 37.6621 30.7117C36.5551 31.4975 35.2396 32.094 33.7524 32.4757C32.3113 32.8511 30.6682 33.0404 28.866 33.0404H27.7049C26.8746 33.0404 26.0681 33.3394 25.4351 33.8755C24.8004 34.4226 24.3805 35.1702 24.2516 35.9878L24.1642 36.4634L22.6944 45.7764L22.6276 46.1184C22.6101 46.2266 22.5799 46.2807 22.5354 46.3173C22.4956 46.3507 22.4383 46.3729 22.3827 46.3729H15.2138Z" fill="#253B80"/>
<path d="M40.317 12.1953C40.2725 12.48 40.2216 12.7711 40.1643 13.0702C38.1967 23.1722 31.4652 26.662 22.868 26.662H18.4906C17.4392 26.662 16.5532 27.4255 16.3894 28.4625L14.1482 42.6763L13.5135 46.7053C13.407 47.3861 13.9319 48.0001 14.619 48.0001H22.3828C23.3022 48.0001 24.0832 47.332 24.2279 46.4254L24.3043 46.0309L25.7661 36.7544L25.8599 36.2454C26.0031 35.3356 26.7856 34.6675 27.705 34.6675H28.8662C36.3882 34.6675 42.2766 31.6136 43.9977 22.7761C44.7167 19.0843 44.3444 16.0017 42.4421 13.8336C41.8663 13.1799 41.1521 12.6375 40.317 12.1953Z" fill="#179BD7"/>
<path d="M38.2583 11.3742C37.9577 11.2867 37.6475 11.2072 37.3294 11.1356C37.0097 11.0656 36.682 11.0036 36.3448 10.9495C35.1645 10.7586 33.8714 10.668 32.4859 10.668H20.7917C20.5038 10.668 20.2303 10.7332 19.9853 10.8509C19.4461 11.1102 19.0452 11.6207 18.9482 12.2459L16.4605 28.0025L16.3889 28.4622C16.5527 27.4251 17.4387 26.6616 18.4901 26.6616H22.8675C31.4648 26.6616 38.1963 23.1702 40.1638 13.0698C40.2227 12.7708 40.272 12.4797 40.3165 12.195C39.8187 11.9309 39.2795 11.7051 38.6989 11.5126C38.5557 11.4649 38.4078 11.4187 38.2583 11.3742Z" fill="#222D65"/>
<path d="M18.9484 12.2462C19.0454 11.621 19.4463 11.1105 19.9855 10.8528C20.232 10.7351 20.504 10.6699 20.7919 10.6699H32.4861C33.8716 10.6699 35.1647 10.7605 36.345 10.9514C36.6822 11.0055 37.0099 11.0675 37.3296 11.1375C37.6477 11.2091 37.9579 11.2886 38.2585 11.3761C38.408 11.4206 38.5559 11.4667 38.7007 11.5129C39.2813 11.7053 39.8205 11.9328 40.3183 12.1953C40.9037 8.46208 40.3136 5.92027 38.2951 3.61865C36.0698 1.0848 32.0535 0 26.9142 0H11.9942C10.9444 0 10.0489 0.763496 9.88667 1.80217L3.67214 41.1938C3.54966 41.9732 4.15091 42.6762 4.93668 42.6762H14.1479L16.4607 28.0028L18.9484 12.2462Z" fill="#253B80"/>
</svg>
