<svg width="48" height="48" viewBox="0 0 48 48" fill="none" xmlns="http://www.w3.org/2000/svg">
<g clip-path="url(#clip0_64_658)">
<path d="M33.2918 20.652H15.0083V33.7177H33.2918V20.652ZM28.9186 26.505H24.9886V27.6517H28.4708C28.5667 27.6517 28.6586 27.6898 28.7264 27.7576C28.7942 27.8254 28.8323 27.9174 28.8323 28.0132C28.8323 28.1091 28.7942 28.2011 28.7264 28.2688C28.6586 28.3366 28.5667 28.3747 28.4708 28.3747H24.9886V29.5215H28.3366C28.4761 29.5215 28.6808 29.6467 28.6808 29.8635C28.6808 31.8165 28.4363 32.7367 27.4073 32.7367C26.3401 32.7367 26.1211 30.426 24.9886 30.2737V32.4847H23.1991V30.2692C22.0111 30.3592 21.8191 32.736 20.7098 32.736C19.6816 32.736 19.4926 31.8157 19.4926 29.8627C19.4926 29.646 19.6981 29.5207 19.8368 29.5207H23.1991V28.374H19.7183C19.6224 28.374 19.5305 28.3359 19.4627 28.2681C19.3949 28.2003 19.3568 28.1084 19.3568 28.0125C19.3568 27.9166 19.3949 27.8247 19.4627 27.7569C19.5305 27.6891 19.6224 27.651 19.7183 27.651H23.1991V26.5042H19.2811C19.185 26.5042 19.0928 26.4661 19.0249 26.3981C18.957 26.3302 18.9188 26.2381 18.9188 26.142C18.9188 26.0459 18.957 25.9538 19.0249 25.8858C19.0928 25.8179 19.185 25.7797 19.2811 25.7797H23.1991V24.6337H19.5211C19.4735 24.6338 19.4263 24.6245 19.3823 24.6064C19.3383 24.5882 19.2983 24.5615 19.2647 24.5278C19.231 24.4942 19.2043 24.4542 19.1862 24.4102C19.168 24.3662 19.1587 24.3191 19.1588 24.2715C19.1588 24.0735 19.3216 23.9077 19.5211 23.9077H23.1991V22.7632H20.3183C20.2219 22.7632 20.1295 22.7249 20.0614 22.6568C19.9932 22.5887 19.9549 22.4962 19.9549 22.3999C19.9549 22.3035 19.9932 22.2111 20.0614 22.1429C20.1295 22.0748 20.2219 22.0365 20.3183 22.0365H23.1991V21.4027H24.9886V22.0365H27.8693C27.9657 22.0365 28.0581 22.0748 28.1262 22.1429C28.1944 22.2111 28.2327 22.3035 28.2327 22.3999C28.2327 22.4962 28.1944 22.5887 28.1262 22.6568C28.0581 22.7249 27.9657 22.7632 27.8693 22.7632H24.9886V23.9077H28.6771C28.8781 23.9077 29.0408 24.0727 29.0408 24.2715C29.0409 24.3192 29.0316 24.3665 29.0133 24.4106C28.995 24.4547 28.9682 24.4947 28.9344 24.5284C28.9006 24.5621 28.8604 24.5887 28.8163 24.6068C28.7721 24.6249 28.7248 24.634 28.6771 24.6337H24.9886V25.7797H28.9186C29.0106 25.7857 29.0969 25.8264 29.16 25.8937C29.2231 25.961 29.2582 26.0497 29.2582 26.142C29.2582 26.2342 29.2231 26.323 29.16 26.3903C29.0969 26.4576 29.0106 26.4983 28.9186 26.5042V26.505Z" fill="#246BFD"/>
<path d="M41.6431 0.25647H6.55435C3.1156 0.25647 0.318848 3.05397 0.318848 6.49347V41.5785C0.318848 45.018 3.11635 47.8162 6.55435 47.8162H41.6431C45.0811 47.8162 47.8801 45.018 47.8801 41.5785V6.49347C47.8801 3.05397 45.0818 0.25647 41.6431 0.25647ZM24.1006 4.38147C24.7178 4.38157 25.329 4.50325 25.8991 4.73956C26.4693 4.97587 26.9874 5.32218 27.4237 5.75872C27.86 6.19526 28.2061 6.71347 28.4421 7.28376C28.6782 7.85406 28.7995 8.46526 28.7993 9.08247C28.7992 10.0123 28.5233 10.9212 28.0066 11.6942C27.4898 12.4673 26.7554 13.0697 25.8963 13.4253C25.0372 13.7809 24.0919 13.8738 23.1799 13.6921C22.268 13.5105 21.4305 13.0625 20.7732 12.4048C20.1159 11.7471 19.6684 10.9092 19.4873 9.99718C19.3063 9.08515 19.3997 8.1399 19.7559 7.28099C20.1121 6.42208 20.715 5.68808 21.4883 5.17184C22.2617 4.65559 23.1708 4.38028 24.1006 4.38072V4.38147ZM18.7786 14.9325H29.5778C30.5061 14.9335 31.4185 15.1729 32.2277 15.6276C33.0369 16.0824 33.7158 16.7373 34.1993 17.5297H14.0011C15.0173 15.975 16.8256 14.9325 18.7793 14.9325H18.7786ZM16.8743 38.406C16.8743 38.6449 16.8273 38.8814 16.7359 39.1021C16.6445 39.3228 16.5105 39.5234 16.3415 39.6923C16.1726 39.8612 15.9721 39.9952 15.7514 40.0866C15.5307 40.178 15.2941 40.2251 15.0552 40.2251C14.8163 40.2251 14.5798 40.178 14.3591 40.0866C14.1384 39.9952 13.9378 39.8612 13.7689 39.6923C13.6 39.5234 13.466 39.3228 13.3746 39.1021C13.2832 38.8814 13.2361 38.6449 13.2361 38.406V36.819H16.8743V38.406ZM30.1621 42.7282H24.9886L24.9961 40.1745H23.2628L23.2598 42.7282H18.0758V36.819H30.1621V42.7282ZM33.1433 40.2247C32.9044 40.2248 32.6677 40.1778 32.4469 40.0864C32.2261 39.995 32.0255 39.861 31.8565 39.692C31.6876 39.523 31.5536 39.3224 31.4621 39.1016C31.3707 38.8808 31.3237 38.6442 31.3238 38.4052V36.8182H34.9621V38.4052C34.9622 38.6441 34.9152 38.8807 34.8239 39.1015C34.7325 39.3222 34.5986 39.5228 34.4297 39.6918C34.2608 39.8607 34.0602 39.9948 33.8395 40.0862C33.6188 40.1777 33.3823 40.2247 33.1433 40.2247ZM37.4686 34.9867H10.7311V19.362H37.4686V34.9867Z" fill="#246BFD"/>
</g>
<defs>
<clipPath id="clip0_64_658">
<rect width="48" height="48" fill="white"/>
</clipPath>
</defs>
</svg>
