<svg width="31" height="30" viewBox="0 0 31 30" fill="none" xmlns="http://www.w3.org/2000/svg">
<path d="M21.9282 23.75L18.4177 28.125L14.9072 23.75H8.38773C8.05522 23.75 7.73632 23.6183 7.5012 23.3839C7.26608 23.1495 7.13399 22.8315 7.13399 22.5V8.87875C7.13399 8.54723 7.26608 8.22929 7.5012 7.99487C7.73632 7.76045 8.05522 7.62875 8.38773 7.62875H28.4476C28.7801 7.62875 29.099 7.76045 29.3341 7.99487C29.5693 8.22929 29.7014 8.54723 29.7014 8.87875V22.5C29.7014 22.8315 29.5693 23.1495 29.3341 23.3839C29.099 23.6183 28.7801 23.75 28.4476 23.75H21.9282ZM3.37276 2.5H24.6864V5H4.6265V18.75H2.11902V3.75C2.11902 3.41848 2.25111 3.10054 2.48623 2.86612C2.72135 2.6317 3.04025 2.5 3.37276 2.5Z" fill="#246BFD"/>
</svg>
