<svg width="40" height="40" viewBox="0 0 40 40" fill="none" xmlns="http://www.w3.org/2000/svg">
<path d="M25.3332 37.3558C30.1196 37.3558 33.9998 33.4756 33.9998 28.6891C33.9998 23.9027 30.1196 20.0225 25.3332 20.0225C20.5467 20.0225 16.6665 23.9027 16.6665 28.6891C16.6665 33.4756 20.5467 37.3558 25.3332 37.3558Z" fill="#89ADF8" stroke="#246BFD" stroke-width="2" stroke-linecap="round" stroke-linejoin="round"/>
<path d="M25.3333 22.689C22.0195 22.689 19.3333 25.3753 19.3333 28.689" stroke="#246BFD" stroke-width="2" stroke-linecap="round" stroke-linejoin="round"/>
<path d="M9.99992 19.3558C14.7864 19.3558 18.6666 15.4756 18.6666 10.6891C18.6666 5.90266 14.7864 2.02246 9.99992 2.02246C5.21345 2.02246 1.33325 5.90266 1.33325 10.6891C1.33325 15.4756 5.21345 19.3558 9.99992 19.3558Z" fill="#89ADF8" stroke="#246BFD" stroke-width="2" stroke-linecap="round" stroke-linejoin="round"/>
<path d="M16 10.689C16 7.37526 13.3137 4.68896 10 4.68896" stroke="#246BFD" stroke-width="2" stroke-linecap="round" stroke-linejoin="round"/>
<path d="M32.3333 22.3558L38.6666 16.0225" stroke="#246BFD" stroke-width="2" stroke-linecap="round" stroke-linejoin="round"/>
<path d="M32 16.0225H38.6667V22.6891" stroke="#246BFD" stroke-width="2" stroke-linecap="round" stroke-linejoin="round"/>
<path d="M10 19.689V28.0223" stroke="#246BFD" stroke-width="2" stroke-linecap="round"/>
<path d="M7 25.356H13.0369" stroke="#246BFD" stroke-width="2" stroke-linecap="round"/>
</svg>
