<svg width="40" height="40" viewBox="0 0 40 40" fill="none" xmlns="http://www.w3.org/2000/svg">
<path d="M19.9959 17.4902C19.1879 17.4902 18.5349 18.1432 18.5349 18.9512V20.8855H16.6333C15.8253 20.8855 15.1724 21.5384 15.1724 22.3464C15.1724 23.1544 15.8253 23.8073 16.6333 23.8073H18.5349V25.709C18.5349 26.517 19.1879 27.1699 19.9959 27.1699C20.8039 27.1699 21.4568 26.517 21.4568 25.709V23.8073H23.3584C24.1664 23.8073 24.8194 23.1544 24.8194 22.3464C24.8194 21.5384 24.1664 20.8855 23.3584 20.8855H21.4568V18.9512C21.4568 18.1432 20.8039 17.4902 19.9959 17.4902Z" fill="#246BFD"/>
<path d="M25.6193 0H14.3807V3.71353H25.6193V0Z" fill="#246BFD"/>
<path d="M30.149 10.3491L25.6111 5.33789H14.3807L9.84289 10.3491C9.62253 10.6348 9.49194 10.9531 9.49194 11.3367V38.4413C9.49194 39.2983 10.1938 40.0002 11.0508 40.0002H28.9492C29.8062 40.0002 30.5081 39.2983 30.5081 38.4413V11.3285C30.4999 10.9857 30.3775 10.6348 30.149 10.3491ZM19.9959 31.455C16.315 31.455 13.2952 27.3905 13.2952 22.3467C13.2952 17.3354 16.2824 13.2383 19.9959 13.2383C23.6768 13.2383 26.6966 17.3028 26.6966 22.3467C26.6966 27.3579 23.6768 31.455 19.9959 31.455Z" fill="#246BFD"/>
</svg>
