<svg width="40" height="40" viewBox="0 0 40 40" fill="none" xmlns="http://www.w3.org/2000/svg">
<path d="M19.0212 6.22656C10.5723 6.22656 6.33115 11.7121 5.34004 15.7688C4.61448 18.7388 5.71448 22.2066 6.05004 25.9999C6.34671 29.3666 8.30893 32.1932 10.32 32.7654C13.2123 36.4143 16.2867 36.2577 21.45 36.2577C31.5312 36.2577 35.3078 28.7221 35.3078 20.0588C35.3067 13.4366 30.6378 6.22656 19.0212 6.22656Z" fill="#246BFD"/>
<path d="M31.3989 20.7668C30.4233 19.4157 29.1744 18.329 26.4366 17.9435C27.4633 18.4135 28.4466 20.039 28.5755 20.9379C28.7044 21.8368 28.8322 22.5635 28.02 21.6657C24.7633 18.0668 21.2177 19.4835 17.7044 17.2857C15.25 15.7502 14.5022 14.0513 14.5022 14.0513C14.5022 14.0513 14.2033 16.3179 10.4811 18.629C9.40219 19.299 8.11552 20.7902 7.40108 22.9924C6.88663 24.5746 6.94441 25.5557 7.07108 26.6702C8.38441 33.7702 13.2077 37.7779 20 37.7779C26.7855 37.7779 31.6022 34.5702 32.92 27.1413C32.9444 26.8213 32.97 26.5013 32.97 26.1757C32.97 23.3968 32.5111 22.3068 31.3989 20.7668Z" fill="#89ADF8"/>
<path d="M25.23 29.2146C24.8 28.7846 24.1967 29.0012 23.67 29.2034C23.1433 29.4068 21.9444 30.0001 20 30.0001C18.0555 30.0001 16.8567 29.4068 16.33 29.2034C15.8033 29.0001 15.2 28.7846 14.77 29.2146C14.6667 29.3176 14.5848 29.4401 14.5289 29.5749C14.473 29.7097 14.4442 29.8542 14.4442 30.0001C14.4442 30.146 14.473 30.2905 14.5289 30.4253C14.5848 30.5601 14.6667 30.6826 14.77 30.7857C14.9167 30.9334 16.9211 32.2223 20 32.2223C23.0789 32.2223 25.0833 30.9334 25.23 30.7857C25.3333 30.6826 25.4152 30.5601 25.4711 30.4253C25.527 30.2905 25.5558 30.146 25.5558 30.0001C25.5558 29.8542 25.527 29.7097 25.4711 29.5749C25.4152 29.4401 25.3333 29.3176 25.23 29.2146ZM21.1111 27.7779H18.8889C18.5942 27.7779 18.3116 27.6608 18.1032 27.4525C17.8948 27.2441 17.7778 26.9615 17.7778 26.6668C17.7778 26.3721 17.8948 26.0895 18.1032 25.8811C18.3116 25.6727 18.5942 25.5557 18.8889 25.5557H21.1111C21.4058 25.5557 21.6884 25.6727 21.8968 25.8811C22.1052 26.0895 22.2222 26.3721 22.2222 26.6668C22.2222 26.9615 22.1052 27.2441 21.8968 27.4525C21.6884 27.6608 21.4058 27.7779 21.1111 27.7779Z" fill="#246BFD"/>
<path d="M15.5556 25.5555C15.2609 25.5555 14.9783 25.4384 14.7699 25.2301C14.5615 25.0217 14.4445 24.7391 14.4445 24.4444V23.3333C14.4445 23.0386 14.5615 22.756 14.7699 22.5476C14.9783 22.3392 15.2609 22.2222 15.5556 22.2222C15.8503 22.2222 16.1329 22.3392 16.3412 22.5476C16.5496 22.756 16.6667 23.0386 16.6667 23.3333V24.4444C16.6667 24.7391 16.5496 25.0217 16.3412 25.2301C16.1329 25.4384 15.8503 25.5555 15.5556 25.5555ZM24.4445 25.5555C24.1498 25.5555 23.8672 25.4384 23.6588 25.2301C23.4504 25.0217 23.3333 24.7391 23.3333 24.4444V23.3333C23.3333 23.0386 23.4504 22.756 23.6588 22.5476C23.8672 22.3392 24.1498 22.2222 24.4445 22.2222C24.7391 22.2222 25.0218 22.3392 25.2301 22.5476C25.4385 22.756 25.5556 23.0386 25.5556 23.3333V24.4444C25.5556 24.7391 25.4385 25.0217 25.2301 25.2301C25.0218 25.4384 24.7391 25.5555 24.4445 25.5555Z" fill="black"/>
</svg>
