<svg width="40" height="40" viewBox="0 0 40 40" fill="none" xmlns="http://www.w3.org/2000/svg">
<g clip-path="url(#clip0_100_704)">
<path d="M39.8436 20.6163C40.0521 20.2323 40.0521 19.768 39.8436 19.384C36.0225 12.3485 28.5691 7.57227 20 7.57227C11.431 7.57227 3.97755 12.3486 0.156373 19.384C-0.0521242 19.768 -0.0521242 20.2323 0.156373 20.6163C3.97761 27.6517 11.4308 32.4281 20 32.4281C28.5691 32.4281 36.0224 27.6517 39.8436 20.6163ZM20 29.5332C14.735 29.5332 10.467 25.2651 10.467 20.0002C10.467 14.7353 14.735 10.4671 20 10.4671C25.2649 10.4671 29.533 14.7352 29.533 20.0002C29.533 25.2651 25.2649 29.5332 20 29.5332Z" fill="#246BFD"/>
<path d="M20.0001 15.1421C19.599 15.1421 19.2096 15.191 18.8368 15.2826C19.2186 15.7244 19.4501 16.2998 19.4501 16.9295C19.4501 18.3217 18.3215 19.4503 16.9293 19.4503C16.2996 19.4503 15.7242 19.2189 15.2824 18.8371C15.1908 19.2098 15.1418 19.5993 15.1418 20.0003C15.1418 22.6835 17.3169 24.8585 20 24.8585C22.6831 24.8585 24.8582 22.6834 24.8582 20.0003C24.8582 17.3173 22.6832 15.1421 20.0001 15.1421Z" fill="#246BFD"/>
</g>
<defs>
<clipPath id="clip0_100_704">
<rect width="40" height="40" fill="white"/>
</clipPath>
</defs>
</svg>
