<svg width="40" height="40" viewBox="0 0 40 40" fill="none" xmlns="http://www.w3.org/2000/svg">
<g clip-path="url(#clip0_100_730)">
<path d="M20.0002 33.7767C20.0002 39.0728 26.0853 41.5107 26.7255 36.8737C27.01 34.8151 28.9018 35.8454 29.8266 33.9233C30.3276 32.8815 30.0613 32.0375 31.0701 31.5203C32.9303 30.5653 34.2531 27.8477 34.1233 25.7063C34.0534 24.5455 36.0011 22.6403 36.6245 21.6711C37.7732 19.8836 37.7732 17.406 36.6245 15.6184C36.0017 14.6493 35.7024 12.744 35.7731 11.5832C35.9029 9.44188 34.777 7.15798 32.9168 6.20298C31.908 5.68514 31.0909 5.89967 30.5899 4.85793C29.6652 2.93651 28.7996 2.70651 26.7262 2.84034C25.6024 2.91297 25.1007 0.838222 23.3636 0.838222C23.3541 0.838222 23.3501 0.822754 23.3407 0.822754C21.5417 0.822754 20.0009 1.79456 20.0009 2.84034V33.7767H20.0002Z" fill="#89ADF8"/>
<path d="M24.3718 40.0001C24.2978 40.0001 24.2245 39.9974 24.1512 39.9927C21.8216 39.8327 19.3271 37.2959 19.3271 33.7759V2.83953C19.3271 1.38149 21.1645 0.149414 23.3395 0.149414L23.6791 0.183041C24.7343 0.304768 25.4008 1.0163 25.8991 1.54962C26.189 1.85898 26.4701 2.20802 26.6813 2.16835C28.9342 2.02241 30.1212 2.33446 31.1946 4.56524C31.3984 4.98826 31.621 5.05282 32.1597 5.20818C32.4724 5.2983 32.8275 5.40052 33.2229 5.60362C35.2701 6.65479 36.5943 9.12969 36.4437 11.6228C36.3791 12.6907 36.6696 14.444 37.1902 15.2531C38.4727 17.2491 38.4727 20.0374 37.1902 22.0335C36.9918 22.3415 36.7013 22.7 36.365 23.1156C35.7651 23.8567 34.7603 25.0962 34.7946 25.6638C34.9473 28.1764 33.4139 31.0716 31.3768 32.1174C31.0103 32.3057 30.9484 32.496 30.8099 33.0724C30.7332 33.3912 30.6377 33.7873 30.4326 34.2137C29.8791 35.3644 29.0109 35.6939 28.3767 35.936C27.7472 36.1748 27.4869 36.2743 27.3914 36.9643C27.0814 39.2112 25.6677 40.0001 24.3718 40.0001ZM23.0476 1.50456C21.6534 1.5967 20.6729 2.33244 20.6729 2.83953V33.7759C20.6729 36.7572 22.7846 38.5508 24.244 38.651C25.2299 38.7001 25.8836 38.0552 26.0592 36.7814C26.2636 35.3018 27.2085 34.942 27.8985 34.6797C28.4574 34.4672 28.8993 34.2991 29.22 33.6313C29.3626 33.3347 29.4332 33.0408 29.5018 32.757C29.6552 32.1214 29.8294 31.3998 30.7622 30.9216C32.3137 30.1254 33.57 27.707 33.4516 25.7465C33.3857 24.657 34.4126 23.3887 35.3192 22.2696C35.6178 21.901 35.8996 21.5533 36.0576 21.3065C37.0658 19.7388 37.0658 17.5491 36.0576 15.9814C35.3562 14.8906 35.0199 12.8676 35.1006 11.5414C35.2183 9.59575 34.1705 7.60238 32.6082 6.80005C32.3291 6.6568 32.0527 6.57745 31.7864 6.5001C31.1583 6.31852 30.4467 6.1134 29.9827 5.14832C29.2059 3.53492 28.645 3.39168 26.768 3.51004C25.9489 3.54905 25.3967 2.98076 24.9165 2.46762C24.359 1.87109 23.9763 1.50927 23.3623 1.50927L23.0476 1.50456Z" fill="#246BFD"/>
<path d="M20.0004 33.7766C20.0004 39.0727 13.9154 41.5106 13.2751 36.8736C12.9906 34.8149 11.0988 35.8453 10.1741 33.9232C9.67305 32.8814 9.93937 32.0374 8.93057 31.5202C7.07036 30.5652 5.74749 27.8475 5.87729 25.7062C5.94724 24.5454 3.99959 22.6402 3.37616 21.671C2.22748 19.8835 2.22748 17.4059 3.37616 15.6183C3.99892 14.6492 4.29819 12.7439 4.22758 11.5831C4.09778 9.44177 5.22359 7.15786 7.08381 6.20287C8.0926 5.68503 8.90973 5.89956 9.41076 4.85782C10.3355 2.9364 11.201 2.7064 13.2744 2.84023C14.3982 2.91286 14.8999 1.10309 16.6371 0.838111C16.6458 0.836765 16.6519 0.828023 16.6599 0.822642C17.6344 0.162219 19.9997 1.79445 19.9997 2.84023V33.7766H20.0004Z" fill="#89ADF8"/>
<path d="M15.6282 40C14.3322 40 12.9186 39.2112 12.6085 36.9649C12.513 36.2749 12.2528 36.1754 11.6233 35.9366C10.9898 35.6959 10.1215 35.365 9.56803 34.2143C9.36291 33.7879 9.26741 33.3911 9.19007 33.073C9.05085 32.4973 8.98965 32.3063 8.62312 32.118C6.58671 31.0722 5.05334 28.1776 5.20533 25.6644C5.23963 25.0968 4.23487 23.8567 3.63498 23.1162C3.29871 22.7006 3.00818 22.3421 2.80978 22.0341C1.52727 20.038 1.52727 17.2497 2.80978 15.2537C3.33032 14.4446 3.62085 12.6907 3.55629 11.6234C3.40497 9.13029 4.72985 6.65471 6.77703 5.60422C7.17181 5.40111 7.5269 5.29889 7.8403 5.20877C8.379 5.05341 8.6016 4.98885 8.80471 4.56583C9.87874 2.3364 11.0644 2.02434 13.318 2.16894C13.542 2.19584 13.7875 1.94902 14.1796 1.56097C14.6759 1.07003 15.3471 0.404895 16.3949 0.198428C16.9914 -0.128421 17.824 -0.0470447 18.7131 0.424398C19.6889 0.942245 20.6735 1.88984 20.6735 2.84079V33.7771C20.6735 37.2971 18.1791 39.8339 15.8494 39.994C15.7755 39.9973 15.7022 40 15.6282 40ZM12.4021 3.47835C11.1633 3.47835 10.6649 3.80184 10.0166 5.14891C9.55323 6.11399 8.84102 6.31911 8.21288 6.5007C7.94656 6.57804 7.67015 6.6574 7.39105 6.80065C5.82944 7.6023 4.78097 9.59635 4.89866 11.542C4.97936 12.8682 4.6431 14.8905 3.94165 15.982C2.93353 17.5497 2.93353 19.7394 3.94165 21.3071C4.0997 21.5532 4.38148 21.9016 4.68009 22.2702C5.58666 23.3892 6.61361 24.6576 6.5477 25.7471C6.42934 27.7076 7.68562 30.1266 9.23714 30.9222C10.1699 31.4011 10.3441 32.122 10.4975 32.7576C10.5661 33.0414 10.6367 33.3346 10.7799 33.6319C11.1007 34.299 11.5426 34.4671 12.1014 34.6803C12.7915 34.9426 13.737 35.3024 13.9408 36.782C14.1163 38.0564 14.7626 38.7027 15.756 38.6516C17.2154 38.5514 19.3271 36.7578 19.3271 33.7765V2.84012C19.3271 2.63971 18.8543 2.02165 18.0816 1.61208C17.5523 1.33164 17.1905 1.31079 17.0613 1.36661L16.9564 1.46346L16.7352 1.50448C16.0411 1.61007 15.5959 2.05125 15.1245 2.51731C14.6281 3.00893 14.0659 3.56444 13.2299 3.51198C12.9213 3.49046 12.6469 3.47835 12.4021 3.47835Z" fill="#246BFD"/>
<path d="M30.0883 33.1039C29.7171 33.1039 29.4158 32.8032 29.4158 32.4313C29.4158 30.5772 27.9073 29.0687 26.0531 29.0687C25.6819 29.0687 25.3806 28.7681 25.3806 28.3962C25.3806 28.0243 25.6819 27.7236 26.0531 27.7236C28.6491 27.7236 30.7608 29.836 30.7608 32.4313C30.7608 32.8026 30.4596 33.1039 30.0883 33.1039Z" fill="#246BFD"/>
<path d="M9.91227 33.1039C9.54104 33.1039 9.23975 32.8032 9.23975 32.4313C9.23975 29.836 11.3515 27.7236 13.9474 27.7236C14.3187 27.7236 14.62 28.0243 14.62 28.3962C14.62 28.7681 14.3187 29.0687 13.9474 29.0687C12.0933 29.0687 10.5848 30.5772 10.5848 32.4313C10.5848 32.8026 10.2835 33.1039 9.91227 33.1039Z" fill="#246BFD"/>
<path d="M28.0707 8.89308C27.6995 8.89308 27.3982 8.59246 27.3982 8.22055C27.3982 6.36639 28.9067 4.85791 30.7608 4.85791C31.1321 4.85791 31.4334 5.15853 31.4334 5.53044C31.4334 5.90235 31.1321 6.20297 30.7608 6.20297C29.6485 6.20297 28.7433 7.10819 28.7433 8.22055C28.7433 8.59179 28.442 8.89308 28.0707 8.89308Z" fill="#246BFD"/>
<path d="M12.6026 9.56561C12.2313 9.56561 11.93 9.26499 11.93 8.89308C11.93 7.40948 10.7235 6.20297 9.23991 6.20297C8.86868 6.20297 8.56738 5.90235 8.56738 5.53044C8.56738 5.15853 8.86868 4.85791 9.23991 4.85791C11.4653 4.85791 13.2751 6.66769 13.2751 8.89308C13.2751 9.26432 12.9738 9.56561 12.6026 9.56561Z" fill="#246BFD"/>
<path d="M34.1233 25.7063C33.7521 25.7063 33.4508 25.4056 33.4508 25.0337C33.4508 22.8083 31.641 20.9986 29.4156 20.9986C26.4491 20.9986 24.0354 18.5849 24.0354 15.6183C24.0354 15.2464 24.3367 14.9458 24.7079 14.9458C25.0792 14.9458 25.3805 15.2464 25.3805 15.6183C25.3805 17.8437 27.1902 19.6535 29.4156 19.6535C32.3822 19.6535 34.7959 22.0672 34.7959 25.0337C34.7959 25.405 34.4946 25.7063 34.1233 25.7063Z" fill="#246BFD"/>
<path d="M20.0003 8.2207C17.0338 8.2207 14.6201 10.6344 14.6201 13.6009C14.6201 15.8263 12.8103 17.6361 10.5849 17.6361C10.2136 17.6361 9.91235 17.9367 9.91235 18.3086C9.91235 18.6805 10.2136 18.9812 10.5849 18.9812C13.5514 18.9812 15.9651 16.5675 15.9651 13.6009C15.9651 11.3755 17.7749 9.56576 20.0003 9.56576C20.3715 9.56576 20.6728 9.26514 20.6728 8.89323C20.6728 8.52132 20.3715 8.2207 20.0003 8.2207Z" fill="#7D7D7D"/>
<path d="M17.6715 18.7363C17.4085 18.4733 16.9835 18.4733 16.7205 18.7363C15.7998 19.6563 15.2927 20.8803 15.2927 22.1803C15.2927 23.2691 15.6525 24.3008 16.3082 25.1488C15.6525 25.9969 15.2927 27.0292 15.2927 28.1174C15.2927 29.4181 15.7998 30.6414 16.7205 31.5614C16.8516 31.6926 17.0238 31.7585 17.196 31.7585C17.3681 31.7585 17.5403 31.6926 17.6715 31.5614C17.9344 31.2984 17.9344 30.8734 17.6715 30.6105C17.005 29.944 16.6378 29.0583 16.6378 28.1174C16.6378 27.1765 17.005 26.2908 17.6715 25.6243C17.9344 25.3614 17.9344 24.9363 17.6715 24.6734C17.005 24.0069 16.6378 23.1212 16.6378 22.1803C16.6378 21.2394 17.005 20.3537 17.6715 19.6872C17.9337 19.425 17.9337 18.9992 17.6715 18.7363Z" fill="#7D7D7D"/>
<path d="M24.1869 20.9843C23.9239 20.7214 23.4989 20.7214 23.2359 20.9843C22.9729 21.2473 22.9729 21.6723 23.2359 21.9353C24.4855 23.1855 24.4855 25.2199 23.2359 26.4701C22.3757 27.3303 21.9016 28.4736 21.9016 29.6882C21.9016 30.9028 22.3757 32.0461 23.2359 32.9062C23.367 33.0374 23.5392 33.1033 23.7114 33.1033C23.8836 33.1033 24.0557 33.0374 24.1869 32.9062C24.4498 32.6433 24.4498 32.2183 24.1869 31.9553C23.5809 31.3493 23.2467 30.5437 23.2467 29.6882C23.2467 28.8327 23.5809 28.0271 24.1869 27.4211C25.961 25.647 25.961 22.7591 24.1869 20.9843Z" fill="#7D7D7D"/>
<path d="M31.9815 14.5887C30.2444 14.8934 28.5745 13.7265 28.2685 11.9853C28.058 10.7876 27.3942 9.74313 26.3995 9.04572C25.4049 8.34831 24.1963 8.07997 22.9986 8.2898C22.6327 8.35436 22.3879 8.70273 22.4525 9.06859C22.517 9.43444 22.8647 9.67521 23.2313 9.61535C24.0773 9.46336 24.9267 9.65638 25.6275 10.1467C26.3283 10.6383 26.7957 11.374 26.9443 12.218C27.3323 14.4246 29.2578 15.9835 31.426 15.9835C31.6863 15.9835 31.9499 15.9607 32.2149 15.9143C32.5808 15.8497 32.8256 15.5013 32.761 15.1355C32.6964 14.7696 32.3501 14.5255 31.9815 14.5887Z" fill="#7D7D7D"/>
<path d="M9.1525 15.3311C10.2588 15.3311 11.3012 14.6505 11.7061 13.5536C11.8345 13.2045 11.657 12.8178 11.3086 12.6894C10.9609 12.5616 10.5729 12.7391 10.4444 13.0875C10.1815 13.7991 9.38923 14.1636 8.67971 13.9006C7.27413 13.3841 5.70714 14.1044 5.18794 15.51C5.05949 15.859 5.23771 16.2457 5.58608 16.3742C5.66275 16.4024 5.74144 16.4159 5.81878 16.4159C6.0925 16.4159 6.3494 16.2477 6.44961 15.9767C6.71189 15.2658 7.50144 14.8993 8.21432 15.1636C8.52369 15.2766 8.84045 15.3311 9.1525 15.3311Z" fill="#7D7D7D"/>
<path d="M11.2944 25.6233C10.5843 25.3617 10.2191 24.5702 10.4807 23.86V23.8593C10.9999 22.453 10.2776 20.8867 8.87132 20.3668C8.52429 20.2397 8.13557 20.4166 8.00712 20.765C7.87867 21.114 8.05621 21.5007 8.40458 21.6292C9.11545 21.8915 9.48063 22.683 9.21834 23.3932C9.21834 23.3939 9.21834 23.3946 9.21834 23.3946C8.7005 24.7995 9.42212 26.3658 10.8277 26.8857C10.9044 26.9139 10.9831 26.9274 11.0611 26.9274C11.3348 26.9274 11.5917 26.7592 11.6919 26.4882C11.821 26.1392 11.6428 25.7531 11.2944 25.6233Z" fill="#7D7D7D"/>
</g>
<defs>
<clipPath id="clip0_100_730">
<rect width="40" height="40" fill="white"/>
</clipPath>
</defs>
</svg>
