<svg width="40" height="40" viewBox="0 0 40 40" fill="none" xmlns="http://www.w3.org/2000/svg">
<path d="M28.0808 8.36306C29.584 8.36306 30.8 7.11266 30.8 5.56706C30.8 4.03106 29.5832 2.77986 28.0808 2.77986C26.5888 2.77986 25.3712 4.03026 25.3712 5.56706C25.3712 7.11266 26.588 8.36306 28.0808 8.36306ZM30.1016 8.98866H26.1408L19.3904 2.04386C18.8632 1.47346 17.9872 1.44626 17.432 1.99746C16.8776 2.53986 16.8504 3.44146 17.3792 4.01186L24.4336 11.2783V35.3599C24.4336 36.2335 25.1136 36.9319 25.9536 36.9319C26.8032 36.9319 27.4824 36.2335 27.4824 35.3599V22.2983H28.716L28.7256 35.3607C28.7256 36.2343 29.4136 36.9327 30.2536 36.9327C31.096 36.9327 31.7744 36.2343 31.7744 35.3607L31.7656 11.2799L38.8208 4.01346C39.348 3.44306 39.3208 2.54146 38.7664 1.99906C38.2128 1.44786 37.336 1.47426 36.808 2.04546L30.1016 8.98866ZM15.7504 19.6127C15.3392 19.1799 14.7752 18.9231 14.1504 18.9231H8.4712C7.8456 18.9231 7.2824 19.1807 6.88 19.6127L1.1832 25.4727C0.656004 26.0431 0.674404 26.9439 1.2288 27.4871C1.7824 28.0295 2.6688 28.0111 3.1872 27.4407L7.604 22.8967V28.9671H2.6504C1.7392 28.9671 1.004 29.7207 1.004 30.6599C1.004 31.1471 1.1832 31.5799 1.5056 31.8927L7.0848 37.6319C7.5768 38.3775 8.5424 38.6167 9.312 38.1559C10.1248 37.6783 10.3944 36.6207 9.9288 35.7935L6.7456 32.5271L6.808 32.5359H15.9464L12.7544 35.8015C12.2984 36.6295 12.5664 37.6871 13.3704 38.1647C14.14 38.6255 15.1152 38.3871 15.6072 37.6415L21.1864 31.9023C21.5072 31.5887 21.6872 31.1559 21.6872 30.6695C21.6872 29.7303 20.9536 28.9775 20.0424 28.9775H15.0968V22.9703L19.4336 27.4495C19.9616 28.0207 20.8368 28.0391 21.3912 27.4959C21.9456 26.9535 21.9648 26.0519 21.4368 25.4823L15.7504 19.6127ZM11.3696 18.3247C12.8624 18.3247 14.0696 17.0751 14.0696 15.5375C14.0696 13.9919 12.8624 12.7503 11.3696 12.7503C9.8752 12.7503 8.6584 13.9919 8.6584 15.5375C8.6584 17.0751 9.876 18.3247 11.3696 18.3247Z" fill="#246BFD"/>
</svg>
