<svg width="40" height="40" viewBox="0 0 40 40" fill="none" xmlns="http://www.w3.org/2000/svg">
<path d="M34.1376 9.42486C32.2586 7.57441 29.7248 6.5411 27.0876 6.54986H26.9751C24.3568 6.5741 21.8525 7.6243 20.0001 9.47486C18.0767 7.64423 15.5179 6.63147 12.8626 6.64986C10.8458 6.67528 8.88164 7.29735 7.21789 8.43761C5.55415 9.57787 4.26531 11.1853 3.51392 13.0571C2.76253 14.9289 2.58223 16.9812 2.99576 18.9554C3.40929 20.9295 4.39814 22.737 5.83759 24.1499L6.37509 24.6374C6.42664 24.7097 6.48527 24.7767 6.55009 24.8374L19.3251 37.3374C19.5579 37.5683 19.8722 37.6985 20.2001 37.6999C20.3655 37.6992 20.5291 37.6657 20.6814 37.6013C20.8338 37.5369 20.9718 37.443 21.0876 37.3249L33.5876 24.5374C33.7219 24.3987 33.8243 24.2323 33.8876 24.0499L34.2876 23.6624C36.1479 21.7504 37.1762 19.1802 37.1481 16.5127C37.12 13.8452 36.0377 11.2972 34.1376 9.42486Z" fill="#89ADF8"/>
<path d="M36.2501 18.9123L22.8251 18.7498C22.5797 18.75 22.3398 18.8224 22.1353 18.958C21.9308 19.0936 21.7707 19.2864 21.6751 19.5123L21.2501 17.8498C21.1979 17.66 21.1016 17.4853 20.9691 17.3397C20.8366 17.1942 20.6716 17.082 20.4876 17.0123C20.3007 16.9429 20.1 16.9191 19.9021 16.943C19.7042 16.967 19.515 17.0379 19.3501 17.1498L17.7751 18.2123L16.0251 13.2123C15.9497 12.9965 15.8167 12.8055 15.6404 12.66C15.4641 12.5146 15.2512 12.4202 15.0251 12.3873C14.7907 12.3427 14.5485 12.366 14.327 12.4546C14.1055 12.5432 13.914 12.6934 13.7751 12.8873L9.46255 18.7498L3.75005 18.9123C3.5859 18.9172 3.42432 18.9544 3.27455 19.0218C3.12478 19.0892 2.98974 19.1854 2.87715 19.3049C2.64976 19.5464 2.5276 19.8683 2.53755 20.1998C2.5475 20.5313 2.68873 20.8453 2.93018 21.0727C3.17164 21.3001 3.49353 21.4222 3.82505 21.4123L10.1376 21.2498C10.3284 21.2445 10.5155 21.1956 10.6845 21.1067C10.8536 21.0179 11 20.8915 11.1126 20.7373L14.4001 16.2498L15.9001 20.5623C15.9631 20.7432 16.067 20.9072 16.2035 21.0415C16.3401 21.1759 16.5057 21.2771 16.6876 21.3373C16.8701 21.3987 17.0643 21.4171 17.2551 21.3911C17.4459 21.3651 17.6281 21.2953 17.7876 21.1873L19.2626 20.1873L20.2501 23.8123C20.3188 24.0686 20.4672 24.2963 20.674 24.4626C20.8807 24.6289 21.135 24.7251 21.4001 24.7373H21.4626C21.7144 24.7366 21.9601 24.6598 22.1675 24.517C22.3749 24.3743 22.5344 24.1722 22.6251 23.9373L23.6626 21.2498L36.2501 21.4123C36.5816 21.4123 36.8995 21.2806 37.1339 21.0462C37.3684 20.8118 37.5001 20.4938 37.5001 20.1623C37.5001 19.8308 37.3684 19.5128 37.1339 19.2784C36.8995 19.044 36.5816 18.9123 36.2501 18.9123Z" fill="#246BFD"/>
</svg>
