<svg width="40" height="40" viewBox="0 0 40 40" fill="none" xmlns="http://www.w3.org/2000/svg">
<g clip-path="url(#clip0_100_789)">
<path d="M34.1216 12.5676C34.1216 12.5676 39.5271 20.6757 39.5271 29.4595C39.5271 34.8649 38.8514 39.5946 35.473 39.5946C23.9865 39.5946 21.9595 37.5676 21.9595 34.1892V32.8379V23.3784V11.2162C21.9595 10.8108 22.027 10.473 22.1622 10.0676C22.6351 8.91889 23.5811 8.10808 23.5811 8.10808C24.1892 7.49997 25 7.16211 26.0135 7.16211C31.419 7.16219 34.1216 12.5676 34.1216 12.5676ZM0.337891 29.4595C0.337891 20.6757 5.74333 12.5676 5.74333 12.5676C5.74333 12.5676 8.446 7.16219 13.8514 7.16219C14.7974 7.16219 15.6082 7.50005 16.2163 8.10816C16.2163 8.10816 17.2298 8.91897 17.6353 10.1352C17.7704 10.4731 17.838 10.8785 17.838 11.2839V23.446V32.9055V34.2569C17.838 37.6353 15.8109 39.6623 4.32441 39.6623C1.01354 39.5946 0.337891 34.8649 0.337891 29.4595Z" fill="#89ADF8"/>
<path d="M35.473 39.9323C23.9189 39.9323 21.6217 37.8377 21.6217 34.1891V23.3782V13.2431C21.6217 13.0404 21.7568 12.9052 21.9595 12.9052C22.1622 12.9052 22.2974 13.0404 22.2974 13.2431V22.8376L24.5271 21.7566C24.6623 21.689 24.865 21.7566 25.0001 21.8917C25.0676 22.0269 25.0001 22.2296 24.8649 22.3647L22.3649 23.6485V32.5674H23.2433L25.8784 29.9322C26.0136 29.7971 26.2163 29.7971 26.3514 29.9322C26.4865 30.0674 26.4865 30.2701 26.3514 30.4052L24.2568 32.4998H26.1487C26.3514 32.4998 26.4865 32.6349 26.4865 32.8376C26.4865 33.0403 26.3514 33.1755 26.1487 33.1755H23.446H22.4325V34.189C22.4325 36.2836 23.0406 38.1755 29.0541 38.9187L31.3514 36.6214C31.4866 36.4863 31.6893 36.4863 31.8243 36.6214C31.9595 36.7566 31.9595 36.9593 31.8243 37.0944L29.9325 38.9862C31.4866 39.1214 33.3784 39.1889 35.6082 39.1889C38.1758 39.1889 39.3243 36.1484 39.3243 29.3917C39.3243 23.1079 36.4865 17.0943 34.9324 14.3241L33.7838 15.4728C33.6486 15.608 33.4459 15.608 33.3108 15.4728C33.1756 15.3376 33.1756 15.1349 33.3108 14.9999L34.5946 13.7161C34.2567 13.108 33.9865 12.7026 33.9865 12.7026C33.9189 12.635 31.2838 7.4323 26.1486 7.4323C25.2702 7.4323 24.5945 7.70255 23.9864 8.31066C23.8512 8.44582 23.6485 8.44582 23.5135 8.31066C23.3783 8.1755 23.3783 7.97279 23.5135 7.83771C24.2567 7.16206 25.1351 6.8242 26.1486 6.8242C31.6891 6.8242 34.4594 12.162 34.5269 12.4323C34.5269 12.4999 39.9999 20.6756 39.9999 29.4594C39.8649 34.3242 39.3919 39.9323 35.473 39.9323ZM4.39192 39.9323C0.472947 39.9323 0 34.3242 0 29.4593C0 20.6755 5.40544 12.4323 5.47298 12.3647C5.54052 12.162 8.31082 6.8242 13.8513 6.8242C14.8648 6.8242 15.7432 7.16206 16.4865 7.83771C16.6216 7.97287 16.6216 8.17558 16.4865 8.31066C16.3513 8.44582 16.1486 8.44582 16.0135 8.31066C15.4054 7.77009 14.6621 7.49985 13.8513 7.49985C8.71622 7.49985 6.08108 12.635 6.01346 12.7026C6.01346 12.7026 5.74322 13.108 5.33781 13.7836L6.62157 15.0674C6.75673 15.2026 6.75673 15.4053 6.62157 15.5403C6.48641 15.6755 6.28371 15.6755 6.14863 15.5403L4.99995 14.3917C3.44595 17.2296 0.608108 23.1755 0.608108 29.4593C0.608108 36.216 1.75678 39.2566 4.3243 39.2566C6.62157 39.2566 8.4459 39.189 9.99998 39.0539L8.10811 37.162C7.97295 37.0268 7.97295 36.8241 8.10811 36.6891C8.24327 36.5539 8.44598 36.5539 8.58106 36.6891L10.8783 38.9863C16.8919 38.2431 17.5 36.3512 17.5 34.2566V33.2431H16.4865H13.7838C13.5811 33.2431 13.4459 33.1079 13.4459 32.9052C13.4459 32.7025 13.5811 32.5674 13.7838 32.5674H15.6757L13.5811 30.4728C13.4459 30.3376 13.4459 30.1349 13.5811 29.9999C13.7163 29.8647 13.919 29.8647 14.054 29.9999L16.6892 32.635H17.5675V23.7161L15.0676 22.4323C14.9324 22.3648 14.8648 22.1621 14.9324 21.9594C14.9999 21.8242 15.2026 21.7567 15.4053 21.8242L17.6351 22.9053V13.2431C17.6351 13.0404 17.7702 12.9052 17.9729 12.9052C18.1756 12.9052 18.3108 13.0404 18.3108 13.2431V23.3782V34.189C18.2433 37.8377 15.946 39.9323 4.39192 39.9323ZM35.473 27.7701C35.4055 27.7701 35.2703 27.7701 35.2028 27.7026L33.8514 26.3512C33.7162 26.216 33.7162 26.0133 33.8514 25.8783C33.9865 25.7431 34.1892 25.7431 34.3243 25.8783L35.6757 27.2296C35.8109 27.3648 35.8109 27.5675 35.6757 27.7026C35.6757 27.7701 35.5405 27.7701 35.473 27.7701ZM4.39192 27.7701C4.32438 27.7701 4.18922 27.7701 4.12168 27.7026C3.98652 27.5674 3.98652 27.3647 4.12168 27.2296L5.47306 25.8783C5.60822 25.7431 5.81092 25.7431 5.946 25.8783C6.08116 26.0134 6.08116 26.2161 5.946 26.3512L4.59462 27.7026C4.59462 27.7701 4.45946 27.7701 4.39192 27.7701ZM26.0135 14.2566C25.946 14.2566 25.8108 14.2566 25.7433 14.189L19.9324 8.3782L14.1217 14.189C13.9865 14.3242 13.7838 14.3242 13.6487 14.189C13.5135 14.0539 13.5135 13.8512 13.6487 13.7161L19.6622 7.70255V0.405247C19.6622 0.202544 19.7973 0.0673828 20 0.0673828C20.2027 0.0673828 20.3379 0.202544 20.3379 0.405247V7.70255L26.3514 13.7161C26.4866 13.8513 26.4866 14.054 26.3514 14.189C26.2162 14.2566 26.0811 14.2566 26.0135 14.2566Z" fill="#246BFD"/>
</g>
<defs>
<clipPath id="clip0_100_789">
<rect width="40" height="40" fill="white"/>
</clipPath>
</defs>
</svg>
