<svg width="40" height="40" viewBox="0 0 40 40" fill="none" xmlns="http://www.w3.org/2000/svg">
<path d="M12.9101 16.5713C12.9101 21.1982 16.446 25.657 15.4922 28.3748C14.2624 31.879 11.3292 32.0634 9.03709 32.0634C4.0464 32.0634 0 25.1273 0 16.5713C0 8.01516 4.0464 1.0791 9.03709 1.0791C12.061 1.0791 15.3461 3.62498 15.4922 7.53417C15.5873 10.0778 12.9101 13.1984 12.9101 16.5713Z" fill="#246BFD"/>
<path d="M27.0898 16.5713C27.0898 21.1982 23.5539 25.657 24.5078 28.3748C25.7376 31.879 28.6708 32.0634 30.9629 32.0634C35.9536 32.0634 40 25.1273 40 16.5713C40 8.01516 35.9536 1.0791 30.9629 1.0791C27.9389 1.0791 24.6539 3.62498 24.5078 7.53417C24.4126 10.0778 27.0898 13.1984 27.0898 16.5713Z" fill="#246BFD"/>
<path d="M13.279 15.0957C12.871 15.0957 12.5413 14.766 12.5413 14.358C12.5413 13.95 12.871 13.6203 13.279 13.6203C15.5563 13.6203 17.8691 9.88445 17.8691 7.19915C17.8691 6.79119 18.1988 6.46143 18.6068 6.46143C19.0148 6.46143 19.3445 6.79119 19.3445 7.19915C19.3438 10.3168 16.6268 15.0957 13.279 15.0957Z" fill="#6785C4"/>
<path d="M26.5581 15.0957C23.2295 15.0957 20.8201 10.3787 20.8201 7.19915C20.8201 6.79119 21.1498 6.46143 21.5578 6.46143C21.9657 6.46143 22.2955 6.79119 22.2955 7.19915C22.2955 9.73543 24.2055 13.6203 26.5581 13.6203C26.966 13.6203 27.2958 13.95 27.2958 14.358C27.2958 14.766 26.9653 15.0957 26.5581 15.0957Z" fill="#6785C4"/>
<path d="M13.2789 15.0958C12.8709 15.0958 12.5412 14.766 12.5412 14.3581C12.5412 11.3836 10.0794 8.67466 7.37713 8.67466C6.96917 8.67466 6.6394 8.3449 6.6394 7.93694C6.6394 7.52898 6.96917 7.19922 7.37713 7.19922C10.9138 7.19922 14.0166 10.544 14.0166 14.3581C14.0166 14.7653 13.6861 15.0958 13.2789 15.0958Z" fill="#89ADF8"/>
<path d="M7.37713 24.167C6.96917 24.167 6.6394 23.8372 6.6394 23.4292C6.6394 23.0213 6.96917 22.6915 7.37713 22.6915C10.2483 22.6915 12.1767 19.6381 12.1767 16.7861C12.1767 16.3781 12.5065 16.0483 12.9145 16.0483C13.3224 16.0483 13.6522 16.3781 13.6522 16.7861C13.6522 20.3507 11.1307 24.167 7.37713 24.167Z" fill="#89ADF8"/>
<path d="M32.9945 24.1671C29.4578 24.1671 26.355 20.8222 26.355 17.0082C26.355 16.6003 26.6847 16.2705 27.0927 16.2705C27.5007 16.2705 27.8304 16.6003 27.8304 17.0082C27.8304 19.9827 30.2922 22.6916 32.9945 22.6916C33.4024 22.6916 33.7322 23.0214 33.7322 23.4294C33.7322 23.8373 33.4024 24.1671 32.9945 24.1671Z" fill="#89ADF8"/>
<path d="M26.558 15.3142C26.1501 15.3142 25.8203 14.9844 25.8203 14.5764C25.8203 11.0937 28.6598 7.19922 32.4598 7.19922C32.8678 7.19922 33.1975 7.52898 33.1975 7.93694C33.1975 8.3449 32.8678 8.67466 32.4598 8.67466C29.5517 8.67466 27.2958 11.8476 27.2958 14.5764C27.2958 14.9837 26.9653 15.3142 26.558 15.3142Z" fill="#89ADF8"/>
<path d="M32.2569 15.314H27.4425C27.4403 15.314 27.4388 15.3147 27.4366 15.3147C24.1714 15.3236 21.3592 17.2741 20.0815 20.0678C18.8008 17.2675 15.979 15.314 12.7043 15.314C12.6268 15.314 12.556 15.3361 12.4859 15.3582H8.11492C7.70696 15.3582 7.3772 15.688 7.3772 16.0959C7.3772 16.5039 7.70696 16.8337 8.11492 16.8337H12.9293C12.975 16.8337 13.0149 16.816 13.0584 16.8079C16.5545 16.9938 19.3438 19.8878 19.3438 23.4296V38.1841C19.3438 38.592 19.6735 38.9218 20.0815 38.9218C20.4895 38.9218 20.8192 38.592 20.8192 38.1841V23.4296C20.8192 19.7683 23.7974 16.7901 27.4587 16.7901H32.2569C32.6648 16.7901 32.9946 16.4604 32.9946 16.0524C32.9946 15.6445 32.6648 15.314 32.2569 15.314Z" fill="#6785C4"/>
</svg>
