<svg width="40" height="40" viewBox="0 0 40 40" fill="none" xmlns="http://www.w3.org/2000/svg">
<path d="M10 25L30 18.75V25L25 30H15L10 25Z" fill="#89ADF8"/>
<path d="M30 2.5H10L8.75 3.75V24.5375L9.05 25.3375L13.75 30.8125L14.7 31.25H15V32.5L16.25 33.75H18.75V37.5H21.25V33.75H23.75L25 32.5V31.25H25.3625L26.3125 30.8125L30.95 25.3375L31.25 24.5375V3.75L30 2.5ZM28.75 10V12.5H26.25V15H28.75V17.5H26.25V20H28.75V24.075L24.775 28.75H15.225L11.25 24.075V5H28.75V7.5H26.25V10H28.75Z" fill="#246BFD"/>
<path d="M19.025 11.75C18.2 12.85 14.1875 18.4875 15.8125 21.75C16.25 22.65 17.3625 23.75 20 23.75C22.6375 23.75 23.75 22.625 24.25 21.6875C25.8875 18.425 21.9 12.8375 21.0875 11.6875L19.025 11.75ZM21.95 20.5C21.675 21.075 20.7 21.1875 19.9375 21.1875C19.175 21.1875 18.3125 21.075 18.0375 20.55C17.4875 19.45 18.7 16.8 20.025 14.65C21.3375 16.8125 22.5 19.45 21.95 20.5625V20.5Z" fill="#246BFD"/>
</svg>
