<svg width="40" height="40" viewBox="0 0 40 40" fill="none" xmlns="http://www.w3.org/2000/svg">
<path d="M20.1288 26.8117L20.9132 25.8009L17.5493 21.4653L16.7668 22.478L20.1288 26.8117Z" fill="#E0E1E2"/>
<path d="M13.721 28.1251C13.6998 28.1254 13.679 28.1196 13.661 28.1085C13.6429 28.0974 13.6285 28.0814 13.6193 28.0623C13.61 28.0432 13.6064 28.022 13.6089 28.0009C13.6114 27.9799 13.6198 27.96 13.6332 27.9436L14.4702 26.8607C14.4884 26.837 14.5152 26.8214 14.5448 26.8174C14.5744 26.8133 14.6044 26.8212 14.6283 26.8392C14.6517 26.8577 14.6669 26.8846 14.6705 26.9142C14.6742 26.9438 14.666 26.9737 14.6478 26.9973L13.8107 28.0821C13.7998 28.0954 13.7861 28.1062 13.7706 28.1136C13.7551 28.121 13.7382 28.1249 13.721 28.1251ZM15.3951 25.9592C15.3704 25.9589 15.3465 25.9507 15.3268 25.9358C15.3034 25.9173 15.2882 25.8904 15.2846 25.8608C15.2809 25.8312 15.2891 25.8014 15.3073 25.7777L16.1444 24.6948C16.1533 24.6832 16.1645 24.6734 16.1773 24.666C16.19 24.6587 16.2041 24.654 16.2187 24.652C16.2333 24.6501 16.2481 24.6511 16.2623 24.655C16.2765 24.6588 16.2898 24.6654 16.3014 24.6743C16.3131 24.6833 16.3229 24.6945 16.3302 24.7072C16.3376 24.72 16.3423 24.734 16.3442 24.7486C16.3461 24.7632 16.3451 24.778 16.3413 24.7922C16.3375 24.8064 16.3309 24.8197 16.3219 24.8314L15.4849 25.9143C15.4746 25.9284 15.4611 25.9399 15.4454 25.9477C15.4298 25.9555 15.4126 25.9594 15.3951 25.9592ZM17.0712 23.7934C17.0459 23.7934 17.0212 23.7851 17.001 23.7699C16.9775 23.7515 16.9624 23.7245 16.9587 23.6949C16.955 23.6653 16.9632 23.6355 16.9814 23.6119L17.8185 22.527C17.8369 22.5032 17.864 22.4877 17.8938 22.4838C17.9236 22.48 17.9537 22.4882 17.9775 22.5065C18.0013 22.5249 18.0169 22.552 18.0207 22.5818C18.0246 22.6116 18.0164 22.6417 17.998 22.6656L17.159 23.7485C17.1489 23.7623 17.1357 23.7736 17.1205 23.7814C17.1052 23.7892 17.0883 23.7933 17.0712 23.7934Z" fill="#89ADF8"/>
<path d="M22.0877 17.3036C22.0624 17.3036 22.0377 17.2954 22.0175 17.2802C21.9941 17.2617 21.9789 17.2348 21.9752 17.2052C21.9716 17.1756 21.9797 17.1457 21.998 17.1221L22.835 16.0392C22.8535 16.0158 22.8805 16.0006 22.9101 15.9969C22.9396 15.9933 22.9695 16.0015 22.9931 16.0197C23.0048 16.0285 23.0147 16.0396 23.0221 16.0523C23.0294 16.065 23.0342 16.079 23.036 16.0936C23.0378 16.1082 23.0367 16.123 23.0327 16.1371C23.0286 16.1512 23.0218 16.1644 23.0126 16.1758L22.1755 17.2607C22.165 17.2739 22.1517 17.2847 22.1365 17.2921C22.1213 17.2995 22.1046 17.3035 22.0877 17.3036ZM23.7619 15.1377C23.7371 15.1377 23.7131 15.1295 23.6936 15.1143C23.6699 15.0962 23.6543 15.0693 23.6503 15.0397C23.6462 15.0101 23.6541 14.9801 23.6721 14.9563L24.5092 13.8734C24.5277 13.8501 24.5544 13.8348 24.5839 13.8308C24.6133 13.8268 24.6432 13.8344 24.6672 13.8519C24.6909 13.8701 24.7065 13.8969 24.7105 13.9265C24.7146 13.9561 24.7067 13.9861 24.6887 14.0099L23.8516 15.0929C23.841 15.1066 23.8274 15.1178 23.8119 15.1256C23.7963 15.1334 23.7792 15.1375 23.7619 15.1377ZM25.436 12.9719C25.4148 12.9722 25.394 12.9664 25.376 12.9553C25.358 12.9442 25.3435 12.9282 25.3343 12.9091C25.3251 12.8901 25.3215 12.8688 25.324 12.8477C25.3264 12.8267 25.3348 12.8068 25.3482 12.7904L26.1853 11.7075C26.1941 11.6955 26.2053 11.6855 26.2181 11.6779C26.2309 11.6703 26.245 11.6654 26.2598 11.6634C26.2745 11.6614 26.2895 11.6623 26.3038 11.6662C26.3182 11.6701 26.3316 11.6769 26.3433 11.686C26.3667 11.7045 26.3819 11.7315 26.3856 11.761C26.3892 11.7906 26.3811 11.8205 26.3628 11.8441L25.5258 12.927C25.5152 12.9408 25.5016 12.952 25.486 12.9597C25.4705 12.9675 25.4534 12.9717 25.436 12.9719ZM27.1102 10.8041C27.0853 10.8047 27.0611 10.7964 27.0419 10.7807C27.0301 10.7717 27.0202 10.7604 27.0128 10.7476C27.0054 10.7347 27.0006 10.7205 26.9988 10.7058C26.997 10.691 26.9981 10.6761 27.0022 10.6618C27.0062 10.6475 27.0131 10.6342 27.0224 10.6226L27.8594 9.53969C27.8779 9.51628 27.9048 9.50109 27.9344 9.49744C27.964 9.49378 27.9939 9.50196 28.0175 9.52018C28.0409 9.53864 28.0561 9.5656 28.0597 9.59519C28.0634 9.62479 28.0552 9.65463 28.037 9.67823L27.1999 10.7612C27.1895 10.775 27.1759 10.7862 27.1603 10.7937C27.1447 10.8011 27.1275 10.8047 27.1102 10.8041Z" fill="#89ADF8"/>
<path d="M27.9004 28.1347C27.883 28.1345 27.8659 28.1304 27.8504 28.1226C27.8348 28.1148 27.8213 28.1036 27.8107 28.0899L26.9736 27.0069C26.9646 26.9953 26.958 26.982 26.9542 26.9678C26.9504 26.9536 26.9494 26.9387 26.9513 26.9242C26.9532 26.9096 26.9579 26.8955 26.9653 26.8828C26.9726 26.87 26.9824 26.8588 26.9941 26.8499C27.0057 26.8409 27.019 26.8343 27.0332 26.8305C27.0474 26.8267 27.0623 26.8257 27.0768 26.8276C27.0914 26.8295 27.1055 26.8342 27.1182 26.8416C27.131 26.8489 27.1422 26.8587 27.1511 26.8704L27.9882 27.9533C28.0016 27.9697 28.01 27.9896 28.0125 28.0106C28.0149 28.0316 28.0113 28.0529 28.0021 28.072C27.9929 28.091 27.9784 28.1071 27.9604 28.1182C27.9424 28.1293 27.9216 28.135 27.9004 28.1347ZM26.2263 25.9689C26.2088 25.9691 26.1915 25.9652 26.1759 25.9574C26.1603 25.9496 26.1468 25.9381 26.1365 25.924L25.2994 24.8411C25.2905 24.8294 25.2839 24.8161 25.2801 24.8019C25.2762 24.7877 25.2752 24.7729 25.2771 24.7583C25.279 24.7437 25.2838 24.7297 25.2911 24.7169C25.2985 24.7042 25.3083 24.693 25.3199 24.684C25.3316 24.675 25.3449 24.6685 25.3591 24.6646C25.3733 24.6608 25.3881 24.6598 25.4027 24.6617C25.4173 24.6636 25.4314 24.6684 25.4441 24.6757C25.4568 24.6831 25.468 24.6928 25.477 24.7045L26.3141 25.7874C26.3323 25.811 26.3405 25.8409 26.3368 25.8705C26.3332 25.9001 26.318 25.927 26.2946 25.9455C26.2749 25.9604 26.2509 25.9686 26.2263 25.9689ZM24.5502 23.803C24.533 23.803 24.5162 23.7989 24.5009 23.7911C24.4857 23.7833 24.4724 23.772 24.4624 23.7582L23.6253 22.6752C23.6071 22.6516 23.5989 22.6218 23.6025 22.5922C23.6062 22.5626 23.6214 22.5356 23.6448 22.5172C23.6684 22.499 23.6982 22.4908 23.7278 22.4944C23.7574 22.4981 23.7844 22.5133 23.8028 22.5367L24.6399 23.6216C24.6489 23.6331 24.6555 23.6463 24.6594 23.6604C24.6632 23.6745 24.6643 23.6892 24.6625 23.7037C24.6607 23.7182 24.656 23.7322 24.6488 23.7449C24.6416 23.7576 24.6319 23.7687 24.6204 23.7777C24.6008 23.7943 24.5759 23.8033 24.5502 23.803ZM22.876 21.6352C22.8588 21.6354 22.8417 21.6316 22.8262 21.6242C22.8106 21.6167 22.797 21.6058 22.7863 21.5923L21.9492 20.5094C21.9308 20.4856 21.9227 20.4554 21.9265 20.4256C21.9303 20.3958 21.9459 20.3687 21.9697 20.3504C21.9935 20.332 22.0236 20.3238 22.0534 20.3277C22.0833 20.3315 22.1103 20.347 22.1287 20.3708L22.9658 21.4538C22.9785 21.4705 22.9862 21.4905 22.9882 21.5114C22.9902 21.5323 22.9863 21.5534 22.977 21.5722C22.9677 21.5911 22.9533 21.6069 22.9354 21.6181C22.9176 21.6292 22.897 21.6351 22.876 21.6352ZM21.2019 19.4694C21.1847 19.4691 21.1678 19.4652 21.1523 19.4577C21.1368 19.4503 21.1231 19.4397 21.1121 19.4265L20.275 18.3435C20.2568 18.3199 20.2486 18.2901 20.2523 18.2605C20.2559 18.2309 20.2711 18.2039 20.2946 18.1855C20.3061 18.1762 20.3195 18.1693 20.3337 18.1653C20.348 18.1612 20.363 18.1601 20.3777 18.1619C20.3924 18.1637 20.4066 18.1685 20.4195 18.1759C20.4324 18.1833 20.4436 18.1932 20.4526 18.205L21.2897 19.2879C21.303 19.3043 21.3115 19.3242 21.3139 19.3452C21.3164 19.3663 21.3128 19.3876 21.3036 19.4066C21.2943 19.4257 21.2799 19.4417 21.2619 19.4528C21.2439 19.4639 21.223 19.4697 21.2019 19.4694ZM19.5277 17.3035C19.5105 17.3037 19.4934 17.2999 19.4779 17.2925C19.4623 17.285 19.4487 17.2741 19.438 17.2606L18.6009 16.1757C18.5917 16.1643 18.5848 16.1511 18.5808 16.137C18.5768 16.1229 18.5757 16.1081 18.5775 16.0935C18.5793 16.079 18.584 16.0649 18.5914 16.0522C18.5988 16.0395 18.6087 16.0284 18.6204 16.0196C18.632 16.0103 18.6453 16.0035 18.6596 15.9994C18.6739 15.9954 18.6888 15.9942 18.7035 15.9961C18.7183 15.9979 18.7325 16.0026 18.7454 16.01C18.7582 16.0174 18.7695 16.0273 18.7785 16.0391L19.6155 17.1221C19.6338 17.1457 19.6419 17.1755 19.6383 17.2051C19.6346 17.2347 19.6194 17.2617 19.596 17.2801C19.5764 17.295 19.5524 17.3032 19.5277 17.3035ZM17.8516 15.1377C17.8345 15.1376 17.8176 15.1335 17.8024 15.1257C17.7871 15.1179 17.7739 15.1066 17.7638 15.0928L16.9267 14.0099C16.9085 13.9863 16.9003 13.9564 16.904 13.9268C16.9077 13.8972 16.9228 13.8703 16.9463 13.8518C16.9703 13.8343 17.0001 13.8267 17.0296 13.8307C17.0591 13.8347 17.0858 13.85 17.1043 13.8733L17.9414 14.9562C17.9596 14.9798 17.9678 15.0097 17.9641 15.0392C17.9605 15.0688 17.9453 15.0958 17.9219 15.1143C17.9016 15.1295 17.877 15.1377 17.8516 15.1377ZM16.1775 12.9718C16.1601 12.9716 16.143 12.9674 16.1275 12.9597C16.1119 12.9519 16.0983 12.9407 16.0877 12.9269L15.2506 11.844C15.2354 11.8201 15.2297 11.7913 15.2347 11.7633C15.2396 11.7354 15.2549 11.7103 15.2775 11.6931C15.3001 11.6759 15.3284 11.6678 15.3566 11.6705C15.3849 11.6731 15.4112 11.6863 15.4302 11.7074L16.2672 12.7904C16.2852 12.8142 16.2931 12.8442 16.2891 12.8738C16.2851 12.9034 16.2695 12.9302 16.2458 12.9484C16.2262 12.9636 16.2022 12.9718 16.1775 12.9718ZM14.5033 10.804C14.4861 10.8042 14.469 10.8004 14.4535 10.7929C14.4379 10.7855 14.4243 10.7746 14.4136 10.7611L13.5765 9.67816C13.5656 9.66672 13.5572 9.65313 13.5518 9.63824C13.5465 9.62336 13.5443 9.60752 13.5455 9.59175C13.5466 9.57598 13.5511 9.56062 13.5585 9.54667C13.566 9.53272 13.5763 9.52049 13.5887 9.51076C13.6012 9.50103 13.6156 9.49403 13.6309 9.49019C13.6462 9.48636 13.6622 9.48578 13.6778 9.4885C13.6934 9.49122 13.7082 9.49718 13.7213 9.50598C13.7345 9.51479 13.7456 9.52625 13.7541 9.53962L14.5911 10.6226C14.6004 10.6341 14.6073 10.6475 14.6113 10.6617C14.6154 10.676 14.6165 10.691 14.6147 10.7057C14.6129 10.7204 14.6081 10.7346 14.6007 10.7475C14.5933 10.7604 14.5834 10.7716 14.5716 10.7806C14.5525 10.7965 14.5282 10.8048 14.5033 10.804Z" fill="#89ADF8"/>
<path d="M23.0362 14.5385L27.4362 8.51318H26.2303L21.5728 14.5385H23.0362Z" fill="#E0E1E2"/>
<path d="M20.3708 25.5493C20.285 25.4537 20.2108 25.3464 20.1328 25.2449C20.0781 25.1766 20.0157 25.0908 19.9435 25.0322L15.6021 30.6264L16.0664 32.0488L20.7299 26.0371C20.6186 25.8693 20.5035 25.7015 20.3708 25.5493Z" fill="#E0E1E2"/>
<path d="M24.2322 21.524L29.678 14.5094L29.1863 13.1201L23.4692 20.4879C23.7229 20.8333 23.9766 21.1806 24.2322 21.524Z" fill="#E0E1E2"/>
<path d="M15.3835 8.51318H14.0527L18.841 14.5385H20.041L15.3835 8.51318Z" fill="#E0E1E2"/>
<path d="M12.4273 13.1201L11.9375 14.5094L25.5473 32.0489L26.0136 30.6265L12.4273 13.1201Z" fill="#E0E1E2"/>
<path d="M25.5473 32.3417C25.5029 32.3414 25.4591 32.3311 25.4193 32.3115C25.3794 32.2919 25.3445 32.2635 25.3171 32.2285L11.7054 14.689C11.6755 14.6502 11.6557 14.6046 11.6478 14.5562C11.64 14.5078 11.6444 14.4582 11.6605 14.412L13.7756 8.41585C13.794 8.36664 13.8249 8.32309 13.8653 8.28954C13.9056 8.25599 13.9541 8.23361 14.0059 8.22463C14.0578 8.2166 14.1109 8.22269 14.1597 8.24226C14.2084 8.26183 14.251 8.29416 14.2829 8.33585L29.9083 28.5466C29.9389 28.5866 29.9589 28.6337 29.9664 28.6835C29.9739 28.7333 29.9687 28.7842 29.9512 28.8315C29.9327 28.8782 29.9025 28.9194 29.8636 28.9511C29.8247 28.9829 29.7783 29.0042 29.7288 29.0129L26.6654 29.571L25.8264 32.1407C25.8096 32.1911 25.7795 32.236 25.7393 32.2707C25.6992 32.3054 25.6503 32.3286 25.5981 32.3378L25.5473 32.3417ZM12.2654 14.4549L25.442 31.4344L26.1639 29.2217C26.1803 29.1715 26.2101 29.1266 26.2499 29.092C26.2898 29.0573 26.3383 29.034 26.3903 29.0246L29.1512 28.5232L14.1503 9.11829L12.2654 14.4549Z" fill="#246BFD"/>
<path d="M24.2906 21.7425C24.2256 21.7418 24.1626 21.7198 24.1111 21.68C24.0502 21.6323 24.0107 21.5624 24.0012 21.4856C23.9917 21.4088 24.013 21.3314 24.0604 21.2703L29.3482 14.4547L27.4653 9.11809L21.1472 17.2898C21.1237 17.3202 21.0943 17.3456 21.0609 17.3646C21.0275 17.3836 20.9907 17.3959 20.9526 17.4007C20.9144 17.4055 20.8757 17.4028 20.8387 17.3926C20.8016 17.3824 20.7669 17.3651 20.7365 17.3415C20.7061 17.3179 20.6807 17.2886 20.6617 17.2552C20.6427 17.2218 20.6304 17.185 20.6256 17.1468C20.6208 17.1087 20.6235 17.07 20.6337 17.0329C20.6439 16.9958 20.6612 16.9611 20.6848 16.9308L27.3306 8.33565C27.3627 8.29405 27.4054 8.26185 27.4542 8.24243C27.503 8.223 27.5561 8.21707 27.608 8.22525C27.6599 8.23343 27.7086 8.25543 27.7491 8.28893C27.7896 8.32243 27.8202 8.3662 27.838 8.41565L29.9531 14.4117C29.9692 14.458 29.9736 14.5076 29.9658 14.556C29.9579 14.6043 29.9381 14.65 29.9082 14.6888L24.5228 21.6293C24.4953 21.6646 24.46 21.6931 24.4198 21.7127C24.3796 21.7323 24.3354 21.7425 24.2906 21.7425Z" fill="#246BFD"/>
<path d="M16.0664 32.3413L16.0157 32.3374C15.9634 32.3282 15.9146 32.305 15.8744 32.2703C15.8342 32.2356 15.8042 32.1907 15.7874 32.1403L14.9484 29.5706L11.8849 29.0125C11.8356 29.004 11.7894 28.9828 11.7507 28.951C11.7121 28.9192 11.6823 28.8778 11.6645 28.8311C11.6462 28.7841 11.6403 28.7332 11.6475 28.6833C11.6547 28.6333 11.6746 28.5861 11.7054 28.5462L17.2118 21.4242C17.2354 21.3939 17.2647 21.3685 17.2981 21.3494C17.3315 21.3304 17.3683 21.3181 17.4064 21.3133C17.4446 21.3085 17.4833 21.3113 17.5204 21.3214C17.5574 21.3316 17.5921 21.349 17.6225 21.3725C17.6529 21.3961 17.6783 21.4254 17.6973 21.4588C17.7164 21.4922 17.7286 21.5291 17.7334 21.5672C17.7382 21.6053 17.7355 21.644 17.7253 21.6811C17.7152 21.7182 17.6978 21.7529 17.6742 21.7833L12.4625 28.5228L15.2254 29.0242C15.2771 29.0339 15.3252 29.0573 15.3647 29.092C15.4041 29.1267 15.4336 29.1714 15.4498 29.2213L16.1737 31.434L20.5796 25.756C20.6029 25.7254 20.6321 25.6998 20.6653 25.6807C20.6986 25.6615 20.7354 25.6491 20.7735 25.6442C20.8116 25.6393 20.8503 25.642 20.8873 25.6521C20.9244 25.6623 20.959 25.6796 20.9893 25.7033C21.0507 25.7511 21.0906 25.8212 21.1005 25.8983C21.1104 25.9754 21.0893 26.0533 21.042 26.115L16.2967 32.2281C16.2696 32.2635 16.2347 32.2921 16.1948 32.3117C16.1549 32.3313 16.1109 32.3415 16.0664 32.3413Z" fill="#246BFD"/>
<path d="M27.561 8.80607H14.0527C13.9751 8.80607 13.9006 8.77523 13.8457 8.72034C13.7908 8.66546 13.76 8.59101 13.76 8.51339C13.76 8.43576 13.7908 8.36132 13.8457 8.30643C13.9006 8.25154 13.9751 8.2207 14.0527 8.2207H27.561C27.6386 8.2207 27.7131 8.25154 27.7679 8.30643C27.8228 8.36132 27.8537 8.43576 27.8537 8.51339C27.8537 8.59101 27.8228 8.66546 27.7679 8.72034C27.7131 8.77523 27.6386 8.80607 27.561 8.80607Z" fill="#246BFD"/>
<path d="M22.9033 14.8315H18.9287C18.851 14.8315 18.7766 14.8006 18.7217 14.7457C18.6668 14.6908 18.636 14.6164 18.636 14.5388C18.636 14.4612 18.6668 14.3867 18.7217 14.3318C18.7766 14.2769 18.851 14.2461 18.9287 14.2461H22.9033C22.9809 14.2461 23.0554 14.2769 23.1103 14.3318C23.1652 14.3867 23.196 14.4612 23.196 14.5388C23.196 14.6164 23.1652 14.6908 23.1103 14.7457C23.0554 14.8006 22.9809 14.8315 22.9033 14.8315Z" fill="#246BFD"/>
<path d="M21.2662 10.8487V9.9082H20.3238V10.8487H19.3813V11.7911H20.3238V12.7336H21.2662V11.7911H22.2067V10.8487H21.2662Z" fill="#89ADF8"/>
</svg>
