<svg width="40" height="40" viewBox="0 0 40 40" fill="none" xmlns="http://www.w3.org/2000/svg">
<path d="M14.1116 0.356934C10.057 0.356934 9.41111 5.87256 10.4509 8.66051C11.1108 10.4404 13.1205 12.1599 15.1831 11.4284C17.8503 10.1097 18.6039 6.72847 17.8616 4.10693C17.5017 2.36057 16.1085 0.356934 14.1116 0.356934ZM25.4509 0.356934C23.4541 0.356934 22.0609 2.36057 21.7009 4.10693C20.9586 6.72847 21.7122 10.1097 24.3795 11.4284C26.442 12.1599 28.4518 10.4404 29.1116 8.66051C30.1515 5.87256 29.5056 0.356934 25.4509 0.356934ZM2.49996 9.19622C0.898298 10.7979 1.10804 15.407 4.01781 17.3212C5.90376 18.288 7.81787 17.038 8.4821 15.5355C9.60382 13.4016 9.29557 10.3684 7.32138 8.83908C5.43173 7.57785 3.98021 7.71597 2.49996 9.19622ZM32.6785 8.83908C31.3009 9.63446 30.3961 13.4016 31.5178 15.5355C32.182 17.038 34.1854 18.288 36.0714 17.3212C38.9812 15.407 39.1329 10.8292 37.5 9.19622C35.9801 7.92403 34.181 7.97163 32.6785 8.83908ZM20 12.8569C12.8992 12.8569 7.14281 18.6133 7.14281 25.7141C7.14281 32.8149 12.8992 38.5712 20 38.5712C27.1008 38.5712 32.8571 32.8149 32.8571 25.7141C32.8571 18.6133 27.1008 12.8569 20 12.8569ZM17.1428 17.1426H22.8571V22.8569H28.5714V28.5712L22.8571 28.6605V34.2855H17.1428V28.5712H11.4285V22.8569H17.1428V17.1426Z" fill="#246BFD"/>
</svg>
