<svg width="40" height="40" viewBox="0 0 40 40" fill="none" xmlns="http://www.w3.org/2000/svg">
<g clip-path="url(#clip0_100_957)">
<path d="M33.0891 1.5737C29.2379 -1.63416 26.6142 0.813193 25.402 2.31551C23.8199 4.27455 24.5725 7.05832 25.4894 8.20842C26.0743 8.94023 26.4723 9.58202 26.7369 10.1559C26.1949 10.2617 25.5678 10.4923 24.9076 10.9611C22.5234 12.6559 20.8829 16.4955 20.0005 22.4295C19.1171 16.4955 17.4784 12.6559 15.0945 10.9611C14.434 10.4902 13.8088 10.2604 13.2645 10.1546C13.5293 9.58044 13.9249 8.94023 14.512 8.20842C15.4278 7.05832 16.182 4.27455 14.6004 2.31551C13.3869 0.813193 10.7639 -1.63416 6.91245 1.5737C3.7088 4.24375 -1.01716 12.2307 3.45267 17.9057C4.92445 19.7734 8.60614 22.2997 12.9507 18.2816C12.9507 18.2816 15.2322 15.7774 13.4927 13.5878C13.1689 13.1795 12.9193 12.6996 12.8562 12.1165C13.1805 12.1747 13.5685 12.3008 14.0181 12.638C15.3396 13.6283 17.2128 16.3821 18.1671 23.8352C16.0064 24.3669 14.4472 25.7971 14.4472 27.4927C14.4472 29.3304 16.2736 30.8651 18.7188 31.2723C18.7915 33.5683 18.8062 36.1022 18.7283 38.98L18.7017 40H21.2941L21.2675 38.98C21.1899 36.1049 21.2046 33.568 21.2767 31.2723C23.7191 30.8677 25.547 29.3335 25.547 27.4927C25.547 25.7974 23.9886 24.3669 21.8285 23.8352C22.783 16.3821 24.6599 13.6296 25.9777 12.638C26.4302 12.3008 26.819 12.1718 27.1402 12.1144C27.0775 12.6998 26.8306 13.181 26.5036 13.5896C24.7641 15.7777 27.0454 18.2832 27.0454 18.2832C31.3904 22.3013 35.0716 19.775 36.5442 17.9073C41.019 12.2307 36.293 4.24375 33.0891 1.5737Z" fill="#246BFD"/>
</g>
<defs>
<clipPath id="clip0_100_957">
<rect width="40" height="40" fill="white"/>
</clipPath>
</defs>
</svg>
