<svg width="40" height="40" viewBox="0 0 40 40" fill="none" xmlns="http://www.w3.org/2000/svg">
<g clip-path="url(#clip0_100_1010)">
<path d="M6.43127 0.00919129C6.03904 0.0138331 5.72393 0.333936 5.72554 0.726166V3.58256C5.72402 3.97488 6.03913 4.2948 6.43127 4.29945H6.57909V4.50047C6.53964 6.14678 5.58665 8.08794 4.61803 10.1521C3.64942 12.216 2.67562 14.4335 2.89968 16.8051L2.88825 16.7408V20.2806H7.10326V25.3688H2.88834V34.591C2.88834 35.7412 3.2596 36.9121 3.9539 37.8382C4.34006 38.3531 4.85298 38.8556 5.41838 39.2609C5.98379 39.6662 6.59222 39.9999 7.29571 39.9999H15.6029C16.7878 39.9999 17.6825 39.2724 18.3673 38.5049C19.1283 39.1338 19.998 39.6209 20.9616 39.883C21.8134 40.1147 22.7228 39.9386 23.5865 39.7044C24.4502 39.4696 25.262 39.1465 25.7902 38.915C25.8554 38.8878 26.2941 38.8878 26.3592 38.915C26.8874 39.1465 27.6992 39.4696 28.563 39.7044C29.4268 39.9393 30.3361 40.1147 31.1879 39.883C33.7283 39.1926 35.6174 36.9281 36.5745 34.6637C36.9802 33.704 37.1334 32.6825 37.1324 31.6622H33.7989V27.4333H36.3792C36.0981 26.4821 35.7754 25.4738 35.2885 24.5238C34.6762 23.329 33.8064 22.2274 32.4933 21.6868C31.1348 21.1275 29.5363 21.6126 28.1835 22.0969C27.7376 22.2561 27.422 22.3971 27.1124 22.5321C27.0962 22.1381 27.0642 21.7604 27.0119 21.4106C27.304 21.4106 27.4641 21.4321 28.0022 21.3878C28.8723 21.3234 29.8709 21.2356 30.6495 20.6821C31.4814 20.0903 31.9316 19.0976 32.2841 18.2357C32.6366 17.3739 32.8309 16.6205 32.8309 16.6205C32.9381 16.241 32.7172 15.8462 32.3377 15.739C32.2587 15.7167 32.1764 15.7083 32.0944 15.7139C32.0944 15.7139 31.2305 15.7754 30.2171 15.965C29.2037 16.1551 28.0403 16.4126 27.2323 17.1143C26.6895 17.5861 26.4229 18.2326 26.2114 18.8495C25.9152 18.1359 25.6507 17.5579 25.6507 17.5579C25.5259 17.291 25.2501 17.1282 24.9562 17.1478C24.5628 17.1769 24.2675 17.5193 24.2966 17.9126C24.3032 18.0015 24.3263 18.0884 24.3648 18.1687C24.3648 18.1687 24.6168 18.7212 24.9031 19.4129C25.1895 20.1045 25.5051 20.959 25.5894 21.4158C25.6564 21.7786 25.6922 22.2839 25.7065 22.8274C25.3503 22.6487 24.8298 22.3997 23.9659 22.0908C22.7344 21.6503 21.2901 21.2178 20.0159 21.5636L19.9992 16.7265V16.7122C19.9604 14.3395 18.9868 12.1522 18.0716 10.1121C17.1564 8.07205 16.3114 6.17821 16.3114 4.51333V4.29016H16.4369C16.8291 4.28543 17.1441 3.96551 17.1426 3.57328V0.716795C17.1441 0.324565 16.829 0.00455251 16.4369 0H10.0042V2.19806H8.01804V0H6.43109L6.43127 0.00919129Z" fill="#246BFD"/>
<path d="M8.01325 4.30151H14.8867V4.52449C14.8867 6.64435 15.8525 8.67987 16.764 10.7118C17.6756 12.7437 18.5446 14.7688 18.5771 16.754L18.58 17.1555H4.32268V16.701V16.6682C4.1445 14.7817 4.96137 12.7876 5.91552 10.7544C6.86968 8.72119 7.96246 6.68202 8.01325 4.54484V4.53056V4.29883V4.30151Z" fill="#29A3EC"/>
<path d="M7.14844 1.44531H15.7206V2.86802H7.14844V1.44531Z" fill="#3E5A94"/>
<path d="M31.0939 17.2925C31.0281 17.4799 31.0427 17.4771 30.9544 17.6914C30.6402 18.4595 30.1373 19.3067 29.8274 19.527C29.5708 19.7095 28.6725 19.9135 27.8971 19.9702C27.6006 19.9916 27.5819 19.9702 27.3503 19.9844C27.3886 19.8403 27.3827 19.8413 27.434 19.6777C27.6307 19.0532 27.9866 18.3642 28.1732 18.2021C28.5086 17.9105 29.5577 17.552 30.4802 17.3792C30.8107 17.3177 30.8278 17.3305 31.0938 17.295L31.0939 17.2925Z" fill="white"/>
<path d="M4.32275 18.5783H18.5773L18.5885 22.3247C17.8441 22.9089 17.2765 23.6893 16.8479 24.5256C16.5275 25.1508 16.2777 25.807 16.0612 26.4558C15.8008 27.0892 15.5742 27.7206 15.4056 28.3192C15.3819 28.405 15.3673 28.4979 15.3442 28.5842H4.32284V18.5781L4.32275 18.5783Z" fill="white"/>
<path d="M20.778 22.9109C21.4957 22.8966 22.5527 23.1175 23.481 23.4491C24.6802 23.8777 25.635 24.3768 25.696 24.4087C25.6953 24.4301 25.6967 24.4515 25.696 24.4731C25.6652 25.3146 25.6222 25.7385 25.6011 25.985C25.566 25.9578 25.4616 25.8851 25.4616 25.8851C25.312 25.7615 25.1187 25.7042 24.926 25.726C24.5338 25.7684 24.2503 26.1207 24.2926 26.5128C24.313 26.701 24.4073 26.8737 24.5549 26.9924C24.5549 26.9924 24.8052 27.1987 25.1351 27.4026C25.465 27.6061 25.8503 27.8685 26.4322 27.8685C27.0142 27.8685 27.3883 27.6062 27.7182 27.4026C28.0481 27.1992 28.2984 26.9924 28.2984 26.9924C28.6235 26.769 28.7061 26.3245 28.4827 25.9993C28.2594 25.6741 27.8148 25.5917 27.4897 25.8151C27.459 25.8361 27.43 25.8595 27.403 25.8851C27.403 25.8851 27.2232 26.0238 27.0208 26.1557C27.0398 25.9203 27.0855 25.4292 27.1185 24.5264C27.1237 24.385 27.1202 24.229 27.1239 24.0829C27.5269 23.896 28.06 23.6634 28.6581 23.4496C29.896 23.0068 31.3706 22.7639 31.9582 23.0059C32.8422 23.3697 33.4974 24.1545 34.0224 25.179C34.5475 26.2035 34.9178 27.4382 35.2359 28.5626C35.7582 30.4088 35.9411 32.4929 35.258 34.1082C34.4376 36.0492 32.7289 37.9937 30.8087 38.5157C30.4516 38.6128 29.6971 38.5429 28.9425 38.337C28.188 38.1319 27.4253 37.8232 26.9368 37.6089H26.9287C26.3544 37.3578 25.7847 37.3578 25.2104 37.6089C24.7218 37.8232 23.9592 38.1319 23.2047 38.337C22.4501 38.542 21.6956 38.6128 21.3385 38.5157C19.4183 37.9937 17.7012 36.0492 16.8809 34.1082C16.198 32.4929 16.389 30.4088 16.9117 28.5626C17.2167 27.4843 17.5781 26.314 18.0694 25.3155C18.5198 24.4657 19.0552 23.7315 19.7068 23.2791C19.8629 23.1776 20.0196 23.0766 20.1923 23.0054C20.3391 22.9454 20.5388 22.9154 20.7781 22.9097L20.778 22.9109Z" fill="#3E5A94"/>
<path d="M4.32284 30.0073H15.0374C14.7868 31.5686 14.8029 33.2252 15.4363 34.73C15.7765 35.5388 16.3351 36.2784 16.9288 36.9895C17.0077 37.0938 17.0885 37.1937 17.1715 37.2934C17.2065 37.3363 17.2365 37.3792 17.2719 37.4191C16.7268 37.9938 16.1255 38.5795 15.6066 38.5795H7.29644C7.13032 38.5795 6.6856 38.4155 6.25311 38.1054C5.82071 37.7956 5.39054 37.3692 5.10382 36.9869C4.61786 36.3386 4.32275 35.4242 4.32275 34.5934V30.0074L4.32284 30.0073Z" fill="#29A3EC"/>
<path d="M5.40259 19.3359H17.4991L17.5088 22.5151C16.8771 23.0113 16.3954 23.6732 16.0316 24.3829C15.7598 24.9136 15.5478 25.4703 15.3641 26.0209C15.1431 26.5585 14.9509 27.0943 14.8078 27.6022C14.7878 27.6751 14.7754 27.7539 14.756 27.8273H5.40312V19.3361L5.40259 19.3359Z" fill="#89ADF8"/>
<path d="M11.3667 20.0125C11.1707 20.0317 10.9915 20.1308 10.8711 20.2867C10.8711 20.2867 10.3188 20.9973 9.76408 21.847C9.48674 22.2719 9.20511 22.728 8.98391 23.1754C8.76271 23.623 8.57275 24.0302 8.57275 24.5354C8.57275 26.0213 9.90361 27.1501 11.4299 27.1501C12.9562 27.1501 14.2871 26.0213 14.2871 24.5354C14.2871 24.0302 14.1076 23.6227 13.8865 23.1754C13.6653 22.7278 13.3837 22.2719 13.1063 21.847C12.5517 20.9972 11.9993 20.2867 11.9993 20.2867C11.8494 20.0929 11.6106 19.9894 11.3667 20.0125Z" fill="#246BFD"/>
<path d="M11.4405 21.9629C11.6271 22.2204 11.6709 22.2696 11.9044 22.6271C12.1626 23.0227 12.4197 23.4427 12.6002 23.808C12.7807 24.1734 12.8638 24.515 12.8638 24.5353C12.8638 25.1529 12.27 25.7268 11.4299 25.7268C10.5898 25.7268 10.0066 25.1529 10.0066 24.5353C10.0066 24.5139 10.0897 24.1732 10.2702 23.808C10.4507 23.4425 10.7078 23.0229 10.966 22.6271C11.2011 22.2671 11.2532 22.2213 11.4405 21.9629Z" fill="#29A3EC"/>
<path d="M30.5348 17.6939C30.4884 17.8254 30.4986 17.8238 30.437 17.9736C30.2166 18.5123 29.8639 19.1062 29.6466 19.2608C29.4666 19.3892 28.8366 19.5317 28.2928 19.5716C28.0849 19.5873 28.0718 19.5716 27.9094 19.5716C27.9364 19.4701 27.9321 19.4717 27.9681 19.3566C28.1061 18.9189 28.3556 18.4354 28.4865 18.3217C28.7217 18.1172 29.4575 17.8656 30.1044 17.7446C30.3363 17.7017 30.3483 17.7118 30.5348 17.686V17.6939Z" fill="#89ADF8"/>
<path d="M21.5169 24.0024C22.1344 23.9881 23.0438 24.1805 23.8427 24.4656C24.8745 24.8341 25.6961 25.2637 25.7485 25.2914C25.7478 25.3072 25.7491 25.3286 25.7485 25.3471C25.722 26.0711 25.6849 26.436 25.6669 26.648C25.6366 26.6266 25.5469 26.5608 25.5469 26.5608C25.4183 26.4545 25.2519 26.4049 25.086 26.4238C24.7486 26.4602 24.5046 26.7632 24.541 27.1006C24.5585 27.2629 24.6397 27.4114 24.7668 27.5136C24.7668 27.5136 24.9821 27.6911 25.2661 27.8665C25.5499 28.042 25.8815 28.2671 26.3821 28.2671C26.8828 28.2671 27.2048 28.0415 27.4887 27.8665C27.7725 27.6911 27.9879 27.5136 27.9879 27.5136C28.2673 27.321 28.3377 26.9383 28.145 26.6588C27.9524 26.3795 27.5697 26.3091 27.2903 26.5017C27.2646 26.5195 27.2403 26.5392 27.2175 26.5606C27.2175 26.5606 27.0628 26.6806 26.8886 26.7931C26.9048 26.5907 26.9443 26.1681 26.9726 25.3914C26.9771 25.2701 26.9741 25.1355 26.9774 25.0096C27.3242 24.8489 27.7828 24.6486 28.2975 24.4649C29.3626 24.0838 30.6313 23.875 31.137 24.0833C31.8977 24.3965 32.4615 25.0717 32.9132 25.9532C33.365 26.8347 33.6836 27.8969 33.9574 28.8647C34.4068 30.4532 34.5642 32.2463 33.9763 33.6364C33.2704 35.3064 31.8001 36.9796 30.1479 37.4285C29.8405 37.5127 29.1914 37.45 28.5421 37.2753C27.8929 37.0986 27.2366 36.8333 26.8163 36.6486H26.8094C26.3152 36.4326 25.825 36.4326 25.3308 36.6486C24.9104 36.8332 24.2542 37.0983 23.605 37.2753C22.9558 37.4519 22.3065 37.5122 21.9992 37.4285C20.347 36.9794 18.8695 35.3064 18.1636 33.6364C17.5761 32.2465 17.7405 30.4532 18.19 28.8647C18.4525 27.9368 18.7635 26.9296 19.1861 26.0706C19.5737 25.3395 20.0344 24.7077 20.5951 24.3185C20.7294 24.2312 20.8642 24.1441 21.0128 24.0831C21.1392 24.0289 21.3109 24.006 21.5168 24.0016L21.5169 24.0024Z" fill="#89ADF8"/>
<path d="M24.8894 17.154C24.5 17.2162 24.2347 17.5824 24.2969 17.9719C24.3082 18.043 24.3303 18.112 24.3623 18.1766C24.3623 18.1766 24.6242 18.729 24.9106 19.4207C25.1969 20.1124 25.501 20.967 25.5853 21.4237C25.7187 22.1461 25.7291 23.4212 25.6908 24.4708C25.6523 25.5202 25.5748 26.3581 25.5748 26.3581C25.5439 26.7514 25.8378 27.0955 26.2312 27.1263C26.6191 27.1568 26.9601 26.8711 26.9981 26.4838C26.9981 26.4838 27.0847 25.614 27.1246 24.5228C27.1646 23.4315 27.1676 22.1344 26.9875 21.1594C26.8566 20.4499 26.5294 19.5985 26.2284 18.8715C25.9274 18.1444 25.6485 17.5641 25.6485 17.5641C25.5164 17.2722 25.2061 17.1042 24.8894 17.1529V17.154Z" fill="#246BFD"/>
<path d="M24.9948 25.7148C24.6004 25.7199 24.2848 26.0439 24.2899 26.4382C24.2926 26.6541 24.3929 26.857 24.5625 26.9904C24.5625 26.9904 24.8124 27.1977 25.1423 27.4017C25.4723 27.6051 25.8466 27.8654 26.4286 27.8654C27.0105 27.8654 27.3954 27.6051 27.7254 27.4017C28.0553 27.1983 28.3053 26.9904 28.3053 26.9904C28.613 26.7426 28.6615 26.2922 28.4136 25.9844C28.1657 25.6766 27.7154 25.6283 27.4076 25.876C27.4046 25.8784 27.4015 25.8811 27.3985 25.8835C27.3985 25.8835 27.2102 26.0384 26.9663 26.1889C26.7224 26.3394 26.392 26.4313 26.4286 26.4313C26.4652 26.4313 26.1348 26.34 25.8908 26.1889C25.647 26.0384 25.4586 25.8835 25.4586 25.8835C25.3289 25.7739 25.1645 25.7143 24.9947 25.715L24.9948 25.7148Z" fill="#246BFD"/>
<path d="M11.4392 22.4331C11.5792 22.6263 11.6121 22.663 11.7872 22.9312C11.9809 23.2281 12.1737 23.543 12.3091 23.8171C12.4445 24.0913 12.5068 24.3471 12.5068 24.3626C12.5068 24.8258 12.0615 25.2563 11.4314 25.2563C10.8013 25.2563 10.3638 24.826 10.3638 24.3626C10.3638 24.3469 10.4261 24.0911 10.5615 23.8171C10.6969 23.5428 10.8897 23.2281 11.0834 22.9312C11.2597 22.6613 11.2988 22.6266 11.4392 22.4331Z" fill="#89ADF8"/>
<path d="M8.55167 5.31152V5.50692V5.52263C8.509 7.324 7.58734 9.042 6.78315 10.7558C5.97896 12.4694 5.29117 14.1506 5.44141 15.7407V15.7679V16.1529H17.4587L17.4558 15.8127C17.4284 14.1397 16.6955 12.4344 15.9272 10.7219C15.1589 9.00924 14.3455 7.29214 14.3455 5.50541V5.31849H8.55158L8.55167 5.31152Z" fill="#89ADF8"/>
<path d="M10.0831 6.05367C10.1063 6.05242 10.1296 6.05242 10.1528 6.05367C10.5471 6.06447 10.8579 6.39297 10.8471 6.78717C10.8463 6.81716 10.8436 6.84697 10.839 6.87661C10.6753 8.08043 10.4719 9.27855 9.8264 10.4192C9.62983 10.7623 9.19235 10.8809 8.8493 10.6844C8.5076 10.4886 8.38825 10.0535 8.58222 9.71068C9.07969 8.8316 9.26894 7.85316 9.42747 6.687C9.4655 6.34574 9.74079 6.07983 10.0831 6.05367Z" fill="white"/>
<path d="M8.10243 11.2143C8.11912 11.2137 8.13591 11.2137 8.1526 11.2143C8.54697 11.2143 8.86672 11.534 8.86672 11.9284C8.86672 12.3228 8.54706 12.6425 8.15269 12.6425C8.15269 12.6425 8.15269 12.6425 8.1526 12.6425C7.75823 12.6425 7.43848 12.3228 7.43848 11.9284C7.43759 11.5529 7.72779 11.2406 8.10243 11.2143Z" fill="white"/>
<path d="M5.42017 30.677H14.4612C14.2496 31.9944 14.2634 33.3921 14.7978 34.6621C15.0849 35.3445 15.5562 35.9687 16.0571 36.5687C16.1237 36.6559 16.1918 36.741 16.2618 36.825C16.2916 36.8621 16.3168 36.8965 16.3466 36.9307C15.8867 37.4154 15.3792 37.9098 14.9413 37.9098H7.9294C7.78926 37.9098 7.4139 37.7712 7.04907 37.5097C6.68416 37.2485 6.32121 36.8884 6.0793 36.566C5.66922 36.0189 5.42026 35.2475 5.42026 34.5464V30.6768L5.42017 30.677Z" fill="#89ADF8"/>
</g>
<defs>
<clipPath id="clip0_100_1010">
<rect width="40" height="40" fill="white"/>
</clipPath>
</defs>
</svg>
