<svg width="40" height="40" viewBox="0 0 40 40" fill="none" xmlns="http://www.w3.org/2000/svg">
<g clip-path="url(#clip0_100_529)">
<path d="M29.1297 1.84379C18.9798 -3.38196 3.38553 2.86794 6.42017 15.9475L4.89859 17.7883L2.2113 22.709L4.82601 24.7877L4.71734 28.2825L5.76227 29.7803C5.76227 29.7803 4.51781 34.4555 6.42017 35.1183C9.96808 36.3561 14.1459 35.7469 14.1459 35.7469L14.354 39.9999H32.0045C32.0045 39.9999 30.2577 31.1841 32.9102 27.4403C35.5627 23.6952 44.215 9.60971 29.1297 1.84379Z" fill="#246BFD"/>
<g opacity="0.2">
<path d="M12.4796 35.7471C12.4796 35.7471 11.8278 35.8423 10.8213 35.8814C11.4365 35.9046 12.0023 35.8996 12.4863 35.8814L12.4796 35.7471Z" fill="white"/>
<path d="M29.1296 1.84398C26.4515 0.465843 23.396 -0.114005 20.4023 0.0190425C22.848 0.128887 25.2808 0.720923 27.4622 1.84398C42.5485 9.60998 33.8964 23.6954 31.2438 27.4406C28.5912 31.1844 30.338 40.0002 30.338 40.0002H32.0043C32.0043 40.0002 30.2575 31.1844 32.91 27.4406C35.5626 23.6954 44.2149 9.6099 29.1296 1.84398Z" fill="white"/>
</g>
<path d="M17.789 24.1663C17.789 24.6265 17.4161 25 16.9558 25C16.4956 25 16.1221 24.6265 16.1221 24.1663C16.1221 23.706 16.4956 23.3325 16.9558 23.3325C17.4161 23.3325 17.789 23.706 17.789 24.1663Z" fill="#87AEFE"/>
<path d="M14.4559 27.5003C14.4559 27.9604 14.0824 28.3327 13.6222 28.3327C13.162 28.3327 12.7891 27.9603 12.7891 27.5003C12.7891 27.04 13.162 26.6665 13.6222 26.6665C14.0824 26.6665 14.4559 27.04 14.4559 27.5003Z" fill="#87AEFE"/>
<path d="M11.1222 17.5002C11.1222 17.9604 10.7493 18.3327 10.2891 18.3327C9.82883 18.3327 9.45593 17.9603 9.45593 17.5002C9.45593 17.04 9.82883 16.6665 10.2891 16.6665C10.7493 16.6665 11.1222 17.04 11.1222 17.5002Z" fill="#87AEFE"/>
<path d="M7.78912 20.8635C7.78912 21.3225 7.41623 21.696 6.95599 21.696C6.49576 21.696 6.12231 21.3225 6.12231 20.8635C6.12231 20.4021 6.49583 20.0298 6.95599 20.0298C7.41615 20.0298 7.78912 20.4021 7.78912 20.8635Z" fill="#87AEFE"/>
<path d="M11.1222 24.1663C11.1222 24.6265 10.7493 25 10.2891 25C9.82883 25 9.45593 24.6265 9.45593 24.1663C9.45593 23.706 9.82883 23.3325 10.2891 23.3325C10.7493 23.3325 11.1222 23.706 11.1222 24.1663Z" fill="#87AEFE"/>
<path d="M14.4559 20.8635C14.4559 21.3225 14.0824 21.696 13.6222 21.696C13.162 21.696 12.7891 21.3225 12.7891 20.8635C12.7891 20.4021 13.162 20.0298 13.6222 20.0298C14.0824 20.0297 14.4559 20.4021 14.4559 20.8635Z" fill="#87AEFE"/>
<path d="M17.789 17.5002C17.789 17.9604 17.4161 18.3327 16.9558 18.3327C16.4956 18.3327 16.1221 17.9603 16.1221 17.5002C16.1221 17.04 16.4956 16.6665 16.9558 16.6665C17.4161 16.6666 17.789 17.04 17.789 17.5002Z" fill="#87AEFE"/>
<path d="M17.789 30.8325C17.789 31.2927 17.4161 31.6663 16.9558 31.6663C16.4956 31.6663 16.1221 31.2927 16.1221 30.8325C16.1221 30.3723 16.4957 30 16.9559 30C17.4161 30 17.789 30.3723 17.789 30.8325Z" fill="#87AEFE"/>
<path d="M11.1222 30.8325C11.1222 31.2927 10.7493 31.6663 10.2891 31.6663C9.82883 31.6663 9.45593 31.2927 9.45593 30.8325C9.45593 30.3723 9.8289 30 10.2891 30C10.7494 30 11.1222 30.3723 11.1222 30.8325Z" fill="#87AEFE"/>
<path d="M21.1221 27.5003C21.1221 27.9604 20.7492 28.3327 20.2889 28.3327C19.8288 28.3327 19.4558 27.9603 19.4558 27.5003C19.4558 27.04 19.8287 26.6665 20.2889 26.6665C20.7492 26.6665 21.1221 27.04 21.1221 27.5003Z" fill="#87AEFE"/>
<path d="M21.1221 20.8635C21.1221 21.3225 20.7492 21.696 20.2889 21.696C19.8288 21.696 19.4558 21.3225 19.4558 20.8635C19.4558 20.4021 19.8287 20.0298 20.2889 20.0298C20.7492 20.0297 21.1221 20.4021 21.1221 20.8635Z" fill="#87AEFE"/>
</g>
<defs>
<clipPath id="clip0_100_529">
<rect width="40" height="40" fill="white"/>
</clipPath>
</defs>
</svg>
