<svg width="40" height="40" viewBox="0 0 40 40" fill="none" xmlns="http://www.w3.org/2000/svg">
<g clip-path="url(#clip0_100_567)">
<path d="M38.7082 33.5913C38.6755 33.5665 35.4016 31.1197 32.721 28.4391C30.621 26.3391 30.1228 24.6798 30.0169 24.2013C30.2938 23.4889 31.2152 20.9716 31.268 18.8992C31.3073 17.3669 29.5964 15.7876 27.6063 15.52C25.4654 15.229 23.8329 16.4827 23.2446 18.8674L23.066 19.593C22.8059 20.6537 22.5949 21.5157 22.4553 21.8129C22.3929 21.8073 22.3135 21.7977 22.2443 21.7895C21.853 21.7412 21.2604 21.6687 20.3813 21.7895C18.7869 22.0088 17.3175 22.9893 16.3503 24.4804C15.5151 25.7673 15.221 27.239 15.5634 28.4169C16.0769 30.1838 17.4809 30.0065 18.7154 29.8492C19.6916 29.7271 20.7981 29.5865 22.1178 30.0093C24.6491 30.8217 30.5503 37.3161 32.6107 39.7505C32.7383 39.9008 32.923 39.9912 33.1204 39.9994C33.13 40.0001 33.1399 40.0001 33.1497 40.0001C33.3366 40.0001 33.5162 39.9264 33.6491 39.7932L38.7854 34.6568C38.9307 34.5119 39.0055 34.3106 38.9906 34.1064C38.9758 33.9016 38.8726 33.714 38.7082 33.5913ZM33.1897 38.2553C31.3516 36.1318 25.5376 29.6231 22.5496 28.6644C22.5496 28.6644 22.5496 28.6644 22.5493 28.6644C21.7142 28.3968 20.9416 28.3134 20.2507 28.3134C19.6032 28.3134 19.0269 28.3865 18.5384 28.4485C17.1373 28.6251 17.0718 28.5443 16.9201 28.0224C16.6904 27.2334 16.9204 26.1963 17.5353 25.2493C18.268 24.1197 19.4039 23.3494 20.5739 23.1879C21.2704 23.0926 21.7152 23.1472 22.0721 23.1914C23.5959 23.3768 23.7383 22.7845 24.438 19.9294L24.6159 19.2053C25.1696 16.9625 26.6104 16.8102 27.4181 16.9198C28.7536 17.0992 29.8753 18.1384 29.8566 18.8632C29.8021 20.9893 28.6463 23.828 28.6345 23.8563C28.5916 23.9611 28.5742 24.0749 28.5842 24.188C28.5928 24.2826 28.8273 26.5425 31.7228 29.4376C33.7761 31.4913 36.1083 33.3666 37.2169 34.2286L33.1897 38.2553Z" fill="#246BFD"/>
<path d="M17.0204 20.9575L17.1859 20.2285C17.4273 19.163 17.6234 18.2982 17.7576 17.9983C17.8204 18.0025 17.8997 18.0107 17.9689 18.0182C18.3624 18.0589 18.9557 18.1224 19.8319 17.9859C21.4223 17.7382 22.8739 16.7322 23.8152 15.2252C24.6276 13.9231 24.8963 12.4467 24.5331 11.2749C23.9886 9.51694 22.5904 9.71847 21.3566 9.89762C20.3832 10.0383 19.2794 10.1975 17.9518 9.79695C15.4066 9.02877 9.39336 2.63783 7.29089 0.240502C7.16085 0.0924603 6.97471 0.00471915 6.77703 0C6.58022 0.00279653 6.38953 0.0744576 6.25215 0.215857L1.20581 5.44205C1.06337 5.58957 0.992054 5.79162 1.01041 5.99576C1.02911 6.19991 1.1352 6.38623 1.30177 6.50613C1.33515 6.52955 4.65096 8.91918 7.37776 11.5523C9.51431 13.6151 10.0415 15.2661 10.1559 15.7432C9.89149 16.4597 9.0139 18.9921 8.99695 21.0652C8.98454 22.5982 10.7228 24.1473 12.7172 24.3803C12.8955 24.401 13.0696 24.4113 13.2403 24.4113C15.1241 24.4113 16.5186 23.1533 17.0204 20.9575ZM15.6431 20.6431C15.129 22.8948 13.6918 23.0714 12.8813 22.9775C11.5427 22.8209 10.4034 21.8018 10.4094 21.0762C10.4267 18.9502 11.5331 16.0921 11.5446 16.0638C11.5857 15.9575 11.6009 15.8437 11.5888 15.7307C11.5788 15.6361 11.3048 13.3803 8.35916 10.5356C6.26981 8.51841 3.90534 6.68546 2.78183 5.84265L6.7384 1.74538C8.61312 3.83579 14.54 10.2425 17.5437 11.1487C19.1706 11.6397 20.5505 11.4397 21.5584 11.2955C22.9571 11.0935 23.0233 11.1741 23.1843 11.6928C23.4274 12.4783 23.2152 13.519 22.6171 14.4769C21.9043 15.619 20.7821 16.4086 19.6147 16.5901C18.9199 16.697 18.4747 16.6507 18.1168 16.6135C16.5941 16.448 16.4579 17.0494 15.8086 19.9162L15.6431 20.6431Z" fill="#246BFD"/>
</g>
<defs>
<clipPath id="clip0_100_567">
<rect width="40" height="40" fill="white"/>
</clipPath>
</defs>
</svg>
