<svg width="40" height="40" viewBox="0 0 40 40" fill="none" xmlns="http://www.w3.org/2000/svg">
<path d="M37.4439 11.1619C37.3951 5.49642 32.7768 0.863377 27.1114 0.797596C25.112 0.774392 23.2401 1.3126 21.6432 2.26416C20.6272 2.86947 19.3725 2.86947 18.3566 2.26416C16.7596 1.3126 14.8878 0.774471 12.8884 0.797596C7.22308 0.863377 2.60465 5.49642 2.55582 11.1619C2.53535 13.5348 3.30551 15.7268 4.61871 17.4908C6.2184 19.6398 7.25183 22.1594 7.69777 24.801C8.90652 31.9616 11.2713 39.2033 13.9907 39.2033C16.7212 39.2033 17.0493 31.902 16.9917 24.7128C16.9753 22.6601 17.9128 20.7184 19.5193 19.4403C19.5286 19.4328 19.5381 19.4253 19.5475 19.4177C19.8117 19.206 20.1881 19.206 20.4523 19.4177C20.4617 19.4253 20.4711 19.4328 20.4805 19.4403C22.0868 20.7185 23.0244 22.6601 23.0081 24.7128C22.9507 31.902 23.2786 39.2033 26.0091 39.2033C28.7285 39.2033 31.0932 31.9617 32.3019 24.801C32.7478 22.1595 33.7813 19.6399 35.381 17.4908C36.6943 15.7268 37.4645 13.5349 37.4439 11.1619Z" fill="#89ADF8"/>
<path d="M26.0092 40C25.3934 40 24.8204 39.7506 24.3523 39.2788C22.7616 37.6754 22.1414 33.4535 22.2114 24.7064C22.2259 22.9001 21.4201 21.2136 20 20.076C18.5797 21.2141 17.7741 22.9003 17.7886 24.7064C17.8584 33.4536 17.2382 37.6755 15.6477 39.2788C15.1796 39.7506 14.6067 40 13.9908 40C12.3449 40 10.8884 38.359 9.53805 34.9833C8.50117 32.391 7.56867 28.822 6.91227 24.9337C6.47985 22.3722 5.46571 19.963 3.97969 17.9666C2.50563 15.9865 1.73789 13.6311 1.75922 11.155C1.78453 8.20499 2.95383 5.42148 5.05164 3.31718C7.14961 1.21281 9.92946 0.0349175 12.8792 0.000698784C14.9569 -0.0221918 16.9908 0.522496 18.7645 1.57953C19.5266 2.03359 20.4732 2.03359 21.2354 1.57953C23.0092 0.522496 25.0416 -0.02352 27.1207 0.000776909C30.0705 0.0350738 32.8502 1.21281 34.9482 3.31726C37.046 5.42164 38.2154 8.20515 38.2408 11.155C38.2621 13.631 37.4943 15.9865 36.0203 17.9666C34.5342 19.9629 33.5202 22.372 33.0877 24.9336C32.4314 28.8219 31.4989 32.3909 30.462 34.9832C29.1116 38.359 27.6551 40 26.0092 40ZM19.9999 18.4594C20.3353 18.4594 20.6707 18.5715 20.9506 18.7958L20.9774 18.8172C22.7925 20.2615 23.8234 22.4128 23.8049 24.7191C23.7795 27.9056 23.7117 36.3703 25.4836 38.1564C25.7034 38.3779 25.8799 38.4063 26.0091 38.4063C27.5547 38.4063 30.0101 33.5915 31.5163 24.6682C31.9906 21.8591 33.1059 19.2126 34.7419 17.0149C36.0066 15.3159 36.6655 13.2943 36.647 11.1687C36.6022 5.94999 32.3202 1.65492 27.102 1.59437C25.3204 1.5725 23.5726 2.04195 22.0509 2.94867C20.7857 3.7025 19.2138 3.70242 17.9486 2.94867C16.427 2.04195 14.6799 1.57398 12.8975 1.59437C7.67953 1.65484 3.39766 5.94992 3.35266 11.1687C3.33438 13.2943 3.99321 15.3159 5.25789 17.015C6.89391 19.2127 8.0093 21.8592 8.48344 24.6684C9.98985 33.5916 12.4451 38.4063 13.9906 38.4063C14.1198 38.4063 14.2963 38.378 14.5161 38.1564C16.288 36.3702 16.2203 27.9056 16.1949 24.7191C16.1765 22.4127 17.2073 20.2614 19.0231 18.8166L19.0491 18.7959C19.3291 18.5716 19.6646 18.4594 19.9999 18.4594Z" fill="#246BFD"/>
<path d="M5.35069 11.8506C5.34835 11.8506 5.34601 11.8506 5.34366 11.8506C4.90358 11.8468 4.54999 11.487 4.55374 11.047C4.58093 7.88588 6.36249 5.03315 9.20311 3.60205C9.59593 3.40393 10.0752 3.56205 10.2733 3.95518C10.4713 4.34815 10.3132 4.82729 9.92015 5.02533C7.61507 6.18658 6.16936 8.49924 6.14733 11.0607C6.14351 11.4983 5.78749 11.8506 5.35069 11.8506Z" fill="#246BFD"/>
<path d="M12.1904 4.34185C11.7867 4.34185 11.4405 4.03615 11.3987 3.62576C11.3541 3.18802 11.6728 2.79693 12.1106 2.75232C12.3603 2.72693 12.6144 2.71248 12.8658 2.70951C13.3065 2.70545 13.6667 3.05693 13.6719 3.49701C13.677 3.93701 13.3245 4.29795 12.8844 4.3031C12.6805 4.30552 12.4746 4.31716 12.2722 4.33779C12.2447 4.34052 12.2174 4.34185 12.1904 4.34185Z" fill="#246BFD"/>
</svg>
