<svg width="40" height="40" viewBox="0 0 40 40" fill="none" xmlns="http://www.w3.org/2000/svg">
<path d="M24.3438 6.78115C24.375 6.40615 24.3125 6.0624 24.3125 6.03115C24.2813 5.84365 24.0938 5.71865 23.875 5.7499C23.6875 5.78115 23.5625 5.96865 23.5938 6.1874C23.5938 6.1874 23.75 6.9999 23.3438 7.28115C23.2813 7.3124 23.1875 7.3749 23.125 7.40615C22.5 7.7499 21.8438 8.1874 22 9.1249C22.0313 9.3124 22.1875 9.4374 22.3438 9.4374C22.375 9.4374 22.375 9.4374 22.4063 9.4374C22.5938 9.40615 22.7188 9.21865 22.6875 9.03115C22.625 8.6249 22.8438 8.4374 23.4688 8.0624C23.5313 8.03115 23.625 7.96865 23.6875 7.9374C23.8438 7.84365 23.9688 7.71865 24.0313 7.59365C25.0625 7.40615 25.6563 8.28115 25.6563 8.3124C25.7188 8.40615 25.8438 8.46865 25.9688 8.46865C26.0313 8.46865 26.0938 8.4374 26.1563 8.40615C26.3125 8.3124 26.375 8.09365 26.2813 7.8749C26.0313 7.46865 25.3438 6.78115 24.3438 6.78115Z" fill="#246BFD"/>
<path d="M31.3125 7.62482C31.125 7.21857 30.875 6.93732 30.5625 6.78107C30.5313 6.37482 30.375 5.99982 30.0313 5.68732C29.6875 5.34357 29.1563 5.09357 28.6563 5.09357C28.0313 4.37482 26.5625 3.96857 25.3438 4.12482C24.7188 3.84357 23.9688 3.84357 23.4063 3.84357C23.3438 3.84357 23.2813 3.84357 23.2188 3.84357H23.125C22.4688 3.84357 21.375 3.81232 20.7813 4.37482C20.1875 4.15607 19.25 4.24982 18.5 4.46857C17.5625 4.74982 16.9063 5.21857 16.6875 5.74982C16.0625 5.90607 15.3125 6.46857 14.8438 7.09357C14.5 7.62482 14.125 8.37482 14.4688 9.37482C14.125 10.2811 14.3125 11.2811 15 12.0936C15.7188 12.9061 16.75 13.2498 17.6875 12.9998C18.2188 13.0623 18.5938 13.0311 18.8438 12.9686C18.9063 13.4061 19.0625 13.9998 19.5938 14.4686C19.7813 14.9373 20.2188 15.3123 20.7188 15.4373C21.3125 15.5936 21.9688 15.4998 22.4688 15.1561C22.6563 15.1248 22.8438 15.1248 23.0938 15.0936C23.0625 15.4373 23.0938 15.8123 23.1875 16.0936C23.2188 16.2498 23.3438 16.4998 23.5938 16.7186C23.5938 16.7186 24.4063 17.2811 24.375 17.1873C24.7813 17.3436 25.25 17.4061 25.8125 17.4061C26.25 17.4061 26.625 17.3748 26.9688 17.3436C26.9688 17.3748 27.6563 17.2498 27.6563 17.2498C27.9688 17.1873 28.2813 17.0623 28.5625 16.9373C28.9688 16.9373 29.4063 16.7811 29.7188 16.4686C30.0313 16.1561 30.1875 15.7498 30.25 15.3436C31.25 14.6248 31.7813 13.0936 31.4688 11.5311C31.875 10.4686 31.8125 8.71857 31.3125 7.62482ZM29.3125 11.6873C29.0938 11.6873 28.875 11.6873 28.5938 11.7186C27.4688 11.8123 26.9375 12.9373 26.9063 12.9998C26.8125 13.1873 26.9063 13.4061 27.0938 13.4686C27.1563 13.4998 27.1875 13.4998 27.25 13.4998C27.4063 13.4998 27.5313 13.4373 27.5625 13.2811C27.5625 13.2811 27.9375 12.4998 28.6563 12.4061C28.8438 12.3748 29.0625 12.3748 29.3125 12.3748C29.7813 12.3748 30.3438 12.3748 30.8125 12.1248C30.8438 13.2811 30.4375 14.3436 29.6875 14.7811C29.5625 14.8436 29.5 14.9686 29.5 15.0936C29.5313 15.4061 29.4063 15.7186 29.2188 15.9061C29.0313 16.0936 28.8125 16.1873 28.5313 16.1873C27.5625 15.8436 27.5938 15.0311 27.625 14.9373C27.6563 14.7498 27.5 14.5623 27.3125 14.5311C27.125 14.4998 26.9375 14.6561 26.9063 14.8436C26.8438 15.2186 26.9688 15.9686 27.6563 16.4998C27.2188 16.6248 26.625 16.6873 25.8125 16.6873C24.9375 16.6873 24.3125 16.4998 24.0313 16.0936C23.8125 15.8123 23.75 15.4061 23.8438 14.9373C24.9375 14.7498 25.25 15.2186 25.2813 15.2498C25.3438 15.3436 25.4688 15.4373 25.5938 15.4373C25.6563 15.4373 25.7188 15.4061 25.7813 15.3748C25.9688 15.2811 26 15.0623 25.9375 14.9061C25.9063 14.8748 25.2813 13.8436 23.4688 14.2498C23.125 14.3123 22.75 14.3436 22.5 14.3748C21.7188 13.4373 22.2813 12.7498 22.3438 12.6873C22.5 12.5311 22.4688 12.3123 22.3125 12.1561C22.1563 11.9998 21.9375 12.0311 21.7813 12.1561C21.4063 12.5311 20.9688 13.5311 21.75 14.6248C21.5 14.7186 21.1563 14.7186 20.9063 14.6561C20.6875 14.5936 20.3438 14.4373 20.2188 14.0311C20.1875 13.9686 20.1563 13.9061 20.0938 13.8748C19.4063 13.4061 19.5 12.4998 19.5313 12.3123C19.6563 11.9686 20.0938 11.1248 21.2188 10.7811C21.75 10.6248 22.1563 10.7186 22.6563 10.8123C22.8125 10.8436 22.9688 10.8748 23.125 10.9061C23.3125 12.2186 24.7188 12.7186 24.7813 12.7811C24.8125 12.8123 24.8438 12.8123 24.9063 12.8123C25.0625 12.8123 25.1875 12.7186 25.25 12.5936C25.3125 12.4061 25.2188 12.1873 25.0313 12.1561C25 12.1561 24.125 11.8436 23.9063 11.0623C25.125 11.0311 25.5625 10.0936 25.625 9.62482C25.6563 9.43732 25.5313 9.24982 25.3125 9.21857C25.125 9.18732 24.9375 9.31232 24.9063 9.53107C24.875 9.59357 24.75 10.3436 23.8438 10.3436C23.5 10.3436 23.125 10.2811 22.8438 10.2186C22.2813 10.1248 21.7188 9.99982 21.0313 10.1873C20.2188 10.4373 19.6875 10.9373 19.375 11.3748C19.1563 11.0623 18.7813 10.8123 18.5 10.6561C18.3125 10.5623 18.0938 10.4373 17.9375 10.3123C17.625 9.99982 18 9.31232 18 9.31232C18.0938 9.15607 18.0625 8.90607 17.875 8.84357C17.6563 8.68732 17.4375 8.74982 17.3125 8.90607C17.0625 9.34357 16.75 10.2186 17.375 10.8436C17.5625 11.0311 17.8125 11.1873 18.0938 11.3123C18.5625 11.5936 18.875 11.7498 18.875 12.2498C18.7813 12.3123 18.5313 12.4373 17.7188 12.3436C17.6563 12.3436 17.625 12.3436 17.5625 12.3748C16.875 12.5623 16.125 12.3123 15.5625 11.6873C15 11.0623 14.875 10.3123 15.2188 9.62482C15.25 9.53107 15.25 9.43732 15.2188 9.34357C14.9375 8.59357 15.1875 7.99982 15.4688 7.59357C15.6875 7.24982 16.0625 6.96857 16.3125 6.78107C16.4063 6.84357 16.5 6.84357 16.5938 6.84357C17.5313 6.62482 18.1563 7.68732 18.2188 7.74982C18.2813 7.87482 18.4063 7.93732 18.5313 7.93732C18.5938 7.93732 18.6563 7.90607 18.7188 7.87482C18.9063 7.78107 18.9375 7.56232 18.875 7.40607C18.8438 7.34357 18.3125 6.43732 17.375 6.15607C17.5 5.81232 18.0313 5.43732 18.75 5.24982C19.7188 4.96857 20.4688 5.03107 20.625 5.15607C21.2188 5.96857 20.8438 6.40607 20.4063 7.03107C20.3125 7.15607 20.2188 7.24982 20.125 7.37482C19.375 8.46857 19.9375 9.31232 20.3125 9.59357C20.375 9.65607 20.4688 9.65607 20.5313 9.65607C20.625 9.65607 20.75 9.59357 20.8125 9.49982C20.9375 9.34357 20.9063 9.12482 20.75 8.96857C20.6563 8.90607 20.1875 8.49982 20.7188 7.74982C20.7813 7.65607 20.875 7.53107 20.9375 7.43732C21.3438 6.87482 22 6.09357 21.3125 4.93732C21.7188 4.65607 22.6875 4.65607 23.125 4.65607H23.1875C23.25 4.65607 23.3125 4.65607 23.375 4.65607C23.8438 4.65607 24.625 4.65607 25.0625 4.87482C25.125 4.90607 25.2188 4.93732 25.3125 4.90607C26.3438 4.71857 27.5313 5.09357 28 5.53107C27.8125 5.93732 27.4375 6.81232 27.6563 7.68732C27.875 8.68732 27.9063 8.93732 27.0938 9.24982C26.9063 9.31232 26.8125 9.53107 26.875 9.71857C26.9375 9.87482 27.0625 9.93732 27.2188 9.93732C27.25 9.93732 27.3125 9.93732 27.3438 9.90607C27.9063 9.71857 28.1875 9.46857 28.3438 9.15607C28.4375 9.18732 28.5 9.24982 28.5313 9.31232C28.7813 9.62482 28.75 10.2498 28.7188 10.4373C28.6875 10.6248 28.8125 10.8123 29.0313 10.8436C29.0625 10.8436 29.0625 10.8436 29.0938 10.8436C29.2813 10.8436 29.4063 10.7186 29.4375 10.5311C29.4688 10.4373 29.5938 9.46857 29.0938 8.81232C28.9375 8.59357 28.7188 8.46857 28.4375 8.37482C28.4063 8.09357 28.375 7.74982 28.2813 7.46857C28.125 6.81232 28.4375 6.12482 28.5625 5.78107C28.875 5.81232 29.1875 5.93732 29.4063 6.12482C29.625 6.34357 29.7188 6.65607 29.6875 6.93732C29.6563 7.12482 29.7813 7.28107 29.9688 7.34357C30.1563 7.37482 30.3438 7.56232 30.5313 7.90607C30.9688 8.78107 31.0625 10.2498 30.6875 11.1248C30.4375 11.6561 30 11.6873 29.3125 11.6873Z" fill="#246BFD"/>
<path d="M21.7188 0.6875C14.6562 0.6875 8.125 6 6.78125 11.8438C6.46875 13.1562 6.125 16.5625 6.125 16.5625L2.90625 24.7813C2.84375 24.9375 2.8125 25.0625 2.8125 25.25C2.8125 25.9688 3.375 26.5 4.0625 26.5H6.15625V30.8438C6.15625 34.2188 8.90625 36.9688 12.2812 36.9688H14.75V39.5625H31.375V28.5625C35.0312 25.7188 37.3438 21.25 37.3438 16.2812C37.3125 7.65625 30.3438 0.6875 21.7188 0.6875ZM9.96875 19.6875C9.03125 19.6875 8.21875 18.9062 8.21875 17.9375C8.21875 17 9 16.1875 9.96875 16.1875C10.9375 16.1875 11.7188 16.9688 11.7188 17.9375C11.7188 18.9062 10.9375 19.6875 9.96875 19.6875ZM31.9062 25.0938C31.9062 25.0938 32.2812 20.6562 28.3438 18.75C28.25 18.6562 25.75 17.9688 24.875 17.9062C24.8125 17.875 23.75 17.8438 23.7812 17.875C11.875 17.4688 12.0312 6.875 12.0312 6.875C14.5 4.25 17.9688 2.625 21.8438 2.625C29.2812 2.625 35.3438 8.65625 35.3438 16.125C35.3438 19.5312 34.0312 22.6875 31.9062 25.0938Z" fill="#246BFD"/>
</svg>
