<svg width="40" height="40" viewBox="0 0 40 40" fill="none" xmlns="http://www.w3.org/2000/svg">
<path d="M21.5488 0.607422C14.8357 0.607422 8.64818 5.64742 7.35943 11.2012C7.07255 12.4343 6.75005 15.6605 6.75005 15.6605L3.66568 23.4418C3.58944 23.6231 3.5592 23.8204 3.57765 24.0162C3.59609 24.212 3.66264 24.4002 3.77139 24.564C3.88013 24.7279 4.0277 24.8623 4.20095 24.9554C4.3742 25.0485 4.56777 25.0972 4.76443 25.0974H5.09193C5.05381 24.9674 5.05042 24.8297 5.08212 24.698C5.11381 24.5663 5.17947 24.4452 5.27255 24.3468C5.72637 23.8741 6.22731 23.4489 6.76755 23.078C6.85316 23.0199 6.94938 22.9792 7.05072 22.9582C7.15206 22.9372 7.25654 22.9365 7.35819 22.9559C7.45984 22.9753 7.55668 23.0145 7.64316 23.0714C7.72965 23.1282 7.80409 23.2015 7.86224 23.2871C7.92039 23.3727 7.96111 23.4689 7.98207 23.5703C8.00304 23.6716 8.00384 23.7761 7.98442 23.8778C7.96501 23.9794 7.92577 24.0762 7.86893 24.1627C7.8121 24.2492 7.73878 24.3236 7.65318 24.3818C7.34318 24.5918 7.04255 24.8468 6.75005 25.1193V28.0137H7.44568C7.6547 28.0137 7.85516 28.0967 8.00296 28.2445C8.15077 28.3923 8.2338 28.5928 8.2338 28.8018C8.2338 29.0108 8.15077 29.2113 8.00296 29.3591C7.85516 29.5069 7.6547 29.5899 7.44568 29.5899H6.76755C6.95193 32.6455 9.4813 35.0687 12.5857 35.0687H14.9001V39.6012H18.3644V39.0106C18.3602 38.9044 18.3775 38.7985 18.4152 38.6992C18.4529 38.5999 18.5102 38.5092 18.5838 38.4326C18.6574 38.356 18.7457 38.2951 18.8435 38.2535C18.9412 38.2119 19.0463 38.1904 19.1526 38.1904C19.2588 38.1904 19.3639 38.2119 19.4616 38.2535C19.5594 38.2951 19.6477 38.356 19.7213 38.4326C19.7949 38.5092 19.8522 38.5999 19.8899 38.6992C19.9276 38.7985 19.9449 38.9044 19.9407 39.0106V39.6012H21.3576V39.0118C21.3533 38.9057 21.3706 38.7998 21.4083 38.7005C21.446 38.6012 21.5034 38.5105 21.577 38.4339C21.6506 38.3573 21.7389 38.2964 21.8366 38.2547C21.9343 38.2131 22.0395 38.1917 22.1457 38.1917C22.2519 38.1917 22.357 38.2131 22.4548 38.2547C22.5525 38.2964 22.6408 38.3573 22.7144 38.4339C22.788 38.5105 22.8454 38.6012 22.8831 38.7005C22.9208 38.7998 22.938 38.9057 22.9338 39.0118V39.6012H30.6907V27.0405C34.1319 24.3337 36.3444 20.1249 36.3444 15.4049C36.3438 7.23305 29.7238 0.608047 21.5488 0.608047V0.607422ZM10.3969 15.2705C10.6138 15.2705 10.8286 15.3133 11.0289 15.3964C11.2293 15.4795 11.4113 15.6012 11.5645 15.7547C11.7178 15.9082 11.8393 16.0904 11.922 16.2909C12.0048 16.4913 12.0473 16.7062 12.0469 16.923C12.0469 17.3608 11.8731 17.7806 11.5637 18.0902C11.2543 18.3999 10.8346 18.574 10.3969 18.5743C9.95882 18.5743 9.53866 18.4003 9.22887 18.0905C8.91909 17.7807 8.74505 17.3605 8.74505 16.9224C8.74505 16.4843 8.91909 16.0642 9.22887 15.7544C9.53866 15.4446 9.95882 15.2705 10.3969 15.2705ZM8.58193 22.9474C8.55327 22.848 8.54449 22.7439 8.55609 22.6411C8.56769 22.5382 8.59945 22.4387 8.64954 22.3481C8.69964 22.2576 8.76708 22.1778 8.84803 22.1133C8.92898 22.0489 9.02184 22.001 9.1213 21.9724C9.75381 21.7926 10.4038 21.6812 11.0601 21.6399C11.1635 21.6321 11.2676 21.645 11.366 21.6778C11.4645 21.7107 11.5554 21.7628 11.6335 21.8312C11.7116 21.8995 11.7752 21.9828 11.8208 22.076C11.8663 22.1693 11.8929 22.2707 11.8988 22.3743C11.9058 22.4776 11.8924 22.5813 11.8594 22.6794C11.8263 22.7776 11.7742 22.8682 11.706 22.9462C11.6379 23.0241 11.555 23.0879 11.4622 23.1338C11.3694 23.1797 11.2684 23.2068 11.1651 23.2137C10.6213 23.2472 10.0827 23.3394 9.5588 23.4887C9.35758 23.5458 9.14191 23.521 8.95897 23.4195C8.77602 23.3181 8.64069 23.1484 8.58255 22.9474H8.58193ZM11.6126 29.5893H9.81005C9.60103 29.5893 9.40056 29.5063 9.25276 29.3585C9.10496 29.2107 9.02193 29.0102 9.02193 28.8012C9.02193 28.5922 9.10496 28.3917 9.25276 28.2439C9.40056 28.0961 9.60103 28.013 9.81005 28.013H11.6126C11.8216 28.013 12.022 28.0961 12.1698 28.2439C12.3176 28.3917 12.4007 28.5922 12.4007 28.8012C12.4007 29.0102 12.3176 29.2107 12.1698 29.3585C12.022 29.5063 11.8216 29.5893 11.6126 29.5893ZM21.8969 18.7193H23.6994C23.9085 18.7193 24.1089 18.8023 24.2567 18.9501C24.4045 19.0979 24.4876 19.2984 24.4876 19.5074C24.4876 19.7164 24.4045 19.9169 24.2567 20.0647C24.1089 20.2125 23.9085 20.2955 23.6994 20.2955H21.8969C21.6879 20.2955 21.4874 20.2125 21.3396 20.0647C21.1918 19.9169 21.1088 19.7164 21.1088 19.5074C21.1088 19.2984 21.1918 19.0979 21.3396 18.9501C21.4874 18.8023 21.6879 18.7193 21.8969 18.7193ZM17.6276 20.7968C17.9888 20.1481 18.5469 19.6143 19.2426 19.2574C19.4271 19.1722 19.6373 19.1616 19.8295 19.2276C20.0217 19.2936 20.181 19.4313 20.2742 19.6119C20.3673 19.7925 20.3872 20.0021 20.3296 20.197C20.272 20.3919 20.1414 20.5571 19.9651 20.6581C19.5476 20.8743 19.2157 21.1868 19.0051 21.5643C18.9549 21.6549 18.8873 21.7346 18.8062 21.7991C18.7252 21.8635 18.6322 21.9113 18.5326 21.9397C18.4331 21.9682 18.3289 21.9767 18.226 21.9648C18.1232 21.953 18.0236 21.9209 17.9332 21.8705C17.7504 21.7686 17.6155 21.5982 17.5582 21.3969C17.5009 21.1956 17.5259 20.9797 17.6276 20.7968ZM12.6882 22.4149C12.7049 22.3126 12.7416 22.2146 12.7962 22.1265C12.8507 22.0384 12.9222 21.962 13.0063 21.9015C13.0905 21.841 13.1858 21.7977 13.2867 21.7741C13.3876 21.7504 13.4922 21.7469 13.5944 21.7637C14.2327 21.8683 14.8606 22.0289 15.4707 22.2437C15.5683 22.2779 15.6583 22.331 15.7354 22.4C15.8125 22.4691 15.8753 22.5526 15.9201 22.6459C15.9649 22.7391 15.9909 22.8403 15.9966 22.9437C16.0022 23.047 15.9875 23.1504 15.9532 23.248C15.884 23.4453 15.7394 23.607 15.551 23.6976C15.3627 23.7882 15.1461 23.8003 14.9488 23.7312C14.425 23.5487 13.8866 23.4111 13.3394 23.3199C13.2372 23.3033 13.1393 23.2667 13.0513 23.2122C12.9632 23.1577 12.8868 23.0864 12.8263 23.0024C12.7658 22.9183 12.7225 22.8232 12.6988 22.7224C12.6751 22.6216 12.6715 22.5171 12.6882 22.4149ZM16.3444 29.9331C16.2443 30.1165 16.0755 30.2528 15.8751 30.3122C15.6747 30.3716 15.459 30.3492 15.2751 30.2499C14.8141 30.0005 14.319 29.82 13.8057 29.7143C13.7043 29.6932 13.6081 29.6524 13.5225 29.5942C13.4369 29.536 13.3636 29.4614 13.3068 29.3749C13.25 29.2883 13.2109 29.1914 13.1915 29.0897C13.1722 28.988 13.1731 28.8835 13.1941 28.7821C13.2152 28.6807 13.256 28.5845 13.3142 28.4989C13.3725 28.4133 13.447 28.3401 13.5335 28.2833C13.6201 28.2265 13.717 28.1873 13.8187 28.168C13.9204 28.1486 14.0249 28.1495 14.1263 28.1706C14.7988 28.3112 15.4394 28.5443 16.0269 28.8637C16.4101 29.0724 16.5513 29.5512 16.3438 29.9324L16.3444 29.9331ZM16.6676 23.5943C16.8213 23.353 17.0857 23.2368 17.3526 23.2424C17.4319 22.9918 17.6232 22.7799 17.8969 22.7099C17.9973 22.6843 18.1017 22.6787 18.2042 22.6935C18.3067 22.7082 18.4053 22.743 18.4943 22.7959C18.5833 22.8488 18.6611 22.9187 18.7231 23.0016C18.7851 23.0846 18.8302 23.1789 18.8557 23.2793C19.0526 24.0506 19.4532 24.7149 19.4569 24.7218C19.5585 24.8861 19.5962 25.082 19.5629 25.2722C19.5295 25.4625 19.4275 25.6339 19.2761 25.7539C19.1248 25.8739 18.9346 25.9341 18.7418 25.9231C18.5489 25.9121 18.3668 25.8307 18.2301 25.6943C17.8194 25.32 17.3774 24.9816 16.9088 24.683C16.7327 24.5706 16.6083 24.3929 16.5631 24.1889C16.5178 23.9849 16.5554 23.7713 16.6676 23.5949V23.5943ZM17.6857 32.9118C17.4668 32.4261 17.1855 31.971 16.8488 31.5581C16.783 31.4781 16.7337 31.3859 16.7036 31.2868C16.6735 31.1878 16.6633 31.0837 16.6734 30.9807C16.6836 30.8776 16.714 30.7776 16.7628 30.6863C16.8117 30.595 16.8781 30.5143 16.9582 30.4487C17.0381 30.3828 17.1303 30.3334 17.2294 30.3033C17.3284 30.2732 17.4325 30.2629 17.5356 30.273C17.6386 30.2832 17.7387 30.3136 17.83 30.3625C17.9213 30.4114 18.002 30.4779 18.0676 30.5581C18.4907 31.0766 18.8445 31.6481 19.1201 32.258C19.1752 32.3779 19.1994 32.5098 19.1902 32.6415C19.181 32.7732 19.1388 32.9004 19.0675 33.0115C18.9962 33.1226 18.8981 33.2139 18.7822 33.2771C18.6663 33.3403 18.5364 33.3733 18.4044 33.3731C18.253 33.3728 18.1048 33.3292 17.9774 33.2474C17.85 33.1655 17.7488 33.0488 17.6857 32.9112V32.9118ZM19.9407 36.6449C19.9407 36.854 19.8576 37.0544 19.7098 37.2022C19.562 37.35 19.3616 37.4331 19.1526 37.4331C18.9435 37.4331 18.7431 37.35 18.5953 37.2022C18.4475 37.0544 18.3644 36.854 18.3644 36.6449V36.2043C18.3644 35.7824 18.3344 35.3649 18.2769 34.9618C18.2472 34.7547 18.3008 34.5444 18.4259 34.3767C18.551 34.2091 18.7375 34.0979 18.9444 34.0674C19.047 34.0522 19.1516 34.0574 19.2522 34.0828C19.3527 34.1082 19.4472 34.1534 19.5302 34.2155C19.6132 34.2777 19.6831 34.3558 19.7357 34.4451C19.7884 34.5345 19.8228 34.6334 19.8369 34.7362C19.9069 35.2131 19.9407 35.7068 19.9407 36.2043L19.9413 36.6449H19.9407ZM20.4869 28.7806C20.2553 28.2759 19.9801 27.7924 19.6644 27.3355C19.5529 27.1634 19.5128 26.9547 19.5526 26.7535C19.5924 26.5523 19.709 26.3745 19.8777 26.2578C20.0464 26.1412 20.2539 26.0948 20.4562 26.1286C20.6584 26.1623 20.8396 26.2736 20.9613 26.4387C21.3282 26.9699 21.6513 27.5362 21.92 28.1224C22.0074 28.3125 22.0157 28.5294 21.9431 28.7256C21.8705 28.9217 21.7229 29.081 21.5329 29.1684C21.3428 29.2557 21.1259 29.264 20.9297 29.1914C20.7336 29.1188 20.5743 28.9712 20.4869 28.7812V28.7806ZM21.3538 32.5024C21.3389 31.9476 21.2757 31.3951 21.1651 30.8512C21.1444 30.7497 21.144 30.6452 21.1638 30.5436C21.1836 30.442 21.2232 30.3453 21.2804 30.259C21.3375 30.1727 21.4112 30.0985 21.497 30.0406C21.5828 29.9828 21.6792 29.9424 21.7807 29.9218C21.8821 29.9012 21.9866 29.9008 22.0882 29.9206C22.1898 29.9404 22.2866 29.98 22.3729 30.0371C22.4592 30.0943 22.5334 30.1679 22.5912 30.2537C22.6491 30.3396 22.6894 30.436 22.7101 30.5374C22.8382 31.1681 22.9126 31.8155 22.9301 32.4599C22.933 32.5633 22.9156 32.6662 22.8788 32.7629C22.8419 32.8595 22.7864 32.9479 22.7153 33.023C22.6443 33.0981 22.5591 33.1585 22.4647 33.2007C22.3702 33.2428 22.2684 33.2659 22.1651 33.2687C22.1569 33.2699 22.15 33.2699 22.1419 33.2699C21.7176 33.2699 21.3669 32.9299 21.3544 32.503L21.3538 32.5024ZM22.9338 36.6468C22.9338 36.8558 22.8508 37.0563 22.703 37.2041C22.5552 37.3519 22.3547 37.4349 22.1457 37.4349C21.9367 37.4349 21.7362 37.3519 21.5884 37.2041C21.4406 37.0563 21.3576 36.8558 21.3576 36.6468V34.8462C21.3533 34.74 21.3706 34.6341 21.4083 34.5348C21.446 34.4355 21.5034 34.3449 21.577 34.2683C21.6506 34.1917 21.7389 34.1307 21.8366 34.0891C21.9343 34.0475 22.0395 34.026 22.1457 34.026C22.2519 34.026 22.357 34.0475 22.4548 34.0891C22.5525 34.1307 22.6408 34.1917 22.7144 34.2683C22.788 34.3449 22.8454 34.4355 22.8831 34.5348C22.9208 34.6341 22.938 34.74 22.9338 34.8462V36.6468ZM23.3663 23.8855V22.5424L23.6263 22.5399C24.4327 22.5373 25.2055 22.2163 25.7763 21.6467C26.3472 21.0771 26.67 20.3051 26.6744 19.4987C26.67 18.6923 26.3472 17.9203 25.7763 17.3507C25.2055 16.7811 24.4327 16.46 23.6263 16.4574L23.3663 16.4562V15.1149H23.6282C26.0494 15.1149 28.0188 17.0805 28.0188 19.4993C28.0188 21.9174 26.0494 23.8862 23.6282 23.8862H23.3663V23.8855Z" fill="#246BFD"/>
</svg>
