<svg width="40" height="40" viewBox="0 0 40 40" fill="none" xmlns="http://www.w3.org/2000/svg">
<path d="M26.8062 17.7409C27.3474 14.6384 27.4393 10.1877 25.1893 5.66648C23.0918 1.44836 19.6437 1.74398 19.6437 1.74398C15.3599 -0.182265 10.6962 3.99086 9.82056 6.34961C8.55806 9.75398 10.2474 11.7027 11.5506 12.4021C11.3362 12.7202 11.0087 13.2365 11.4149 13.9084C11.5431 14.1202 11.8012 14.3715 12.3099 14.4015C12.1474 14.7184 12.1487 15.0577 12.3137 15.3384C12.4906 15.6396 12.8212 15.8096 13.1693 15.9046C13.0631 16.329 13.0762 16.8127 13.3768 17.2477C13.5206 17.4571 13.7918 17.7059 14.2587 17.7059C14.3487 17.7059 14.4312 17.6965 14.5062 17.6852C14.6993 18.1665 15.0931 18.8559 16.0012 18.8559C16.8231 18.8559 17.9631 18.2327 19.6674 16.8565C19.4974 19.7565 13.1868 21.1315 13.1868 23.4627C13.1868 25.1515 14.7637 25.6184 14.7637 25.6184C14.7637 25.6184 12.1481 26.6121 10.7349 29.199C10.6699 29.2565 10.5999 29.3059 10.5443 29.3752C10.3681 29.594 10.1893 29.9452 10.2062 30.4427C9.96831 31.186 9.84791 31.9618 9.84931 32.7421C9.84931 36.9227 13.1743 38.7502 17.1037 38.7502H23.5224C23.5224 38.7502 23.9593 37.474 23.1293 33.034C23.0906 32.8309 23.0618 32.6384 23.0318 32.4459L23.0368 32.4434L22.9487 31.8265C22.9437 31.7809 22.9374 31.734 22.9331 31.6884C26.4481 30.7384 30.2024 29.3159 30.5699 27.504C31.0756 25.0134 27.9556 19.6184 26.8062 17.7409ZM22.6893 15.4771C22.584 15.9538 22.5511 16.4437 22.5918 16.9302L19.8049 16.7459L19.8318 16.724C20.0391 16.5563 20.2509 16.3941 20.4668 16.2377C21.7937 15.2565 22.5281 14.5396 21.7112 11.729C21.9793 11.4959 22.1868 11.189 22.3256 10.8346C22.7599 11.7402 23.1781 13.2784 22.6893 15.4771ZM19.4362 16.2402C17.6362 17.7134 16.6174 18.2302 16.0006 18.2302C15.4149 18.2302 15.1899 17.7665 14.9999 17.2159C14.9468 17.064 14.8499 17.0221 14.7312 17.0221C14.6049 17.0221 14.4543 17.0646 14.3062 17.074C13.7024 16.7252 14.1293 15.7509 14.5037 15.1884C13.9493 15.2346 13.2099 15.3059 12.9131 14.599C13.1231 14.2215 13.2662 13.9827 13.0668 13.7421C13.0537 13.7277 13.0268 13.7221 12.9874 13.7221C12.8656 13.7221 12.6318 13.7784 12.4106 13.7784C12.2206 13.7784 12.0406 13.7371 11.9487 13.5834C11.5131 12.864 12.6299 12.6777 12.4762 11.329C12.3931 10.5877 11.0106 10.4471 10.7437 7.75023C10.6874 7.17711 11.1799 6.90523 11.8687 6.90523C12.7406 6.90523 13.9268 7.33961 14.7168 8.15023C16.7656 10.2584 17.8787 10.6196 18.4012 10.6196C18.6731 10.6196 18.7843 10.5215 18.7843 10.5215L18.7956 10.5152C18.617 10.2365 18.4819 9.93217 18.3949 9.61273C18.0531 8.34336 18.5368 7.15336 19.4762 6.95836C19.5656 6.93961 19.6556 6.93086 19.7456 6.93086C20.6062 6.93086 21.4868 7.75336 21.7968 8.90336C22.1068 10.049 21.7406 11.1215 20.9762 11.4652C22.0812 14.8877 21.0243 14.9415 19.4362 16.2402ZM12.6743 29.1996C12.7074 29.1996 12.7256 29.2009 12.7256 29.2009C12.7256 29.2009 13.7068 28.9665 14.5749 29.3984C13.9768 28.7309 13.0818 29.0009 13.0818 28.7652C13.0818 28.3059 13.8056 28.1321 13.8056 28.1321C15.0893 28.1321 15.6943 28.744 16.2643 29.0509V32.7259C16.2643 32.7259 13.5937 33.5921 11.9124 32.849C11.4356 32.3977 11.0818 31.6896 10.8624 30.6871C10.5518 29.264 12.3462 29.1996 12.6743 29.1996ZM22.9893 38.1252H17.1043C15.5493 38.1252 10.4749 37.7371 10.4749 32.7421C10.4749 32.4127 10.5006 32.1009 10.5399 31.7996C11.2368 33.644 12.4699 34.0677 13.4499 34.0677C14.8137 34.0677 15.7149 33.9096 16.3024 33.7296L16.2937 33.9959C19.4768 33.7352 21.5099 33.0765 22.4418 32.7065C22.4656 32.8527 22.4862 32.9965 22.5149 33.1496C23.0443 35.9759 23.0418 37.4684 22.9893 38.1252ZM29.9574 27.3802C29.5268 29.5034 22.2081 31.4652 17.2487 32.3059L17.1024 29.5246C19.2218 29.0002 25.1699 27.4284 26.1862 26.0627L26.4031 25.7721L26.2581 25.439C25.6906 24.1427 22.3531 19.6934 22.3531 19.6934L23.8631 24.8865L23.8299 24.9452C23.4531 25.6115 23.0581 26.3127 22.7543 27.1615C21.6874 27.4927 19.6356 28.1027 17.4424 28.5984H16.8474C16.6949 28.5984 16.4899 28.4665 16.2312 28.2996C15.7124 27.9659 15.0018 27.5084 13.8068 27.5084C13.0281 27.5084 12.6143 27.8184 12.4043 28.0784C12.2779 28.2344 12.1871 28.4161 12.1381 28.6109C12.0318 28.624 11.9168 28.6477 11.8012 28.674C13.0893 26.9534 14.8674 26.249 14.9837 26.2046L16.6718 25.5659L14.9456 25.0221C14.8293 24.9852 13.8118 24.6309 13.8118 23.464C13.8118 22.6984 15.1681 21.8552 16.4793 21.0396C18.0562 20.0596 19.8193 18.9634 20.2168 17.4015L22.6812 17.5646C23.2162 20.169 25.6099 21.9409 25.6099 21.9409C25.6099 21.9409 26.1862 20.6821 26.6293 18.6527C28.1212 21.1659 30.3468 25.4602 29.9574 27.3802ZM23.5231 26.9146C23.9474 25.9115 24.4899 25.0934 24.9324 24.1971C25.2499 24.7859 25.5212 25.3165 25.6849 25.6896C25.3993 26.0727 24.5712 26.4977 23.5231 26.9146Z" fill="#246BFD"/>
<path d="M19.7826 8.02773C19.9338 7.87461 20.1157 7.73648 20.2963 7.56836C20.0466 7.57112 19.8016 7.63598 19.5832 7.75711C19.3505 7.8852 19.1664 8.0864 19.0595 8.32961C18.952 8.59141 18.9286 8.88018 18.9926 9.15586C19.0401 9.37836 19.1357 9.58711 19.2626 9.76773C19.1588 9.78336 19.0638 9.82961 19.0182 9.92148C19.172 9.94586 19.2613 10.0127 19.3488 10.0765C19.4357 10.144 19.5138 10.214 19.5807 10.2915C19.6481 10.3661 19.7062 10.4486 19.7538 10.5371C19.8026 10.629 19.8357 10.7434 19.8588 10.904C19.9895 10.8334 20.0676 10.674 20.0613 10.4984C20.0588 10.3221 19.972 10.1502 19.8588 10.0209C19.7483 9.89396 19.5996 9.80625 19.4351 9.77086C19.4024 9.76578 19.3694 9.76285 19.3363 9.76211C19.2938 9.28836 19.2726 8.86836 19.4276 8.53086C19.5032 8.34523 19.6301 8.18398 19.7826 8.02773Z" fill="#246BFD"/>
<path d="M13.5925 10.3067C13.4487 10.5086 13.3256 10.6867 13.1687 10.838C13.1707 10.6967 13.1401 10.5568 13.0793 10.4292C12.9868 10.2099 12.8562 10.0349 12.7668 9.86486C12.6668 9.69861 12.6031 9.54799 12.5825 9.37861C12.5618 9.20861 12.5981 9.01486 12.6425 8.79736C12.5453 8.85291 12.4614 8.92909 12.3968 9.02056C12.3322 9.11202 12.2885 9.21654 12.2687 9.32674C12.2162 9.57736 12.3087 9.85361 12.4275 10.0561C12.5506 10.263 12.69 10.4267 12.8181 10.5811C12.9075 10.6942 12.9787 10.8111 13.0318 10.9474C12.8978 11.0529 12.7472 11.1355 12.5862 11.1917C12.84 11.358 13.1756 11.3774 13.4506 11.2574C13.7287 11.1449 13.9337 10.9305 14.09 10.7099C14.245 10.4867 14.355 10.2505 14.4475 10.0174C14.5525 9.78861 14.6075 9.56299 14.7918 9.36111C14.4881 9.31299 14.2293 9.53111 14.0556 9.71299C13.8706 9.90361 13.7293 10.1149 13.5925 10.3067Z" fill="#246BFD"/>
</svg>
