<svg width="147" height="128" viewBox="0 0 147 128" fill="none" xmlns="http://www.w3.org/2000/svg">
<path fill-rule="evenodd" clip-rule="evenodd" d="M84.2682 107.842H20.1144C15.599 107.842 11.9028 104.142 11.9028 99.6207V8.31324C11.9028 3.79146 15.599 0.0935059 20.1144 0.0935059H84.2682C88.7856 0.0935059 92.4817 3.79146 92.4817 8.31324V99.6207C92.4817 104.142 88.7856 107.842 84.2682 107.842Z" fill="#E0E2EE"/>
<path fill-rule="evenodd" clip-rule="evenodd" d="M78.7919 111.746H14.6381C10.1227 111.746 6.42651 108.046 6.42651 103.525V12.2173C6.42651 7.69552 10.1227 3.99756 14.6381 3.99756H78.7919C83.3092 3.99756 87.0054 7.69552 87.0054 12.2173V103.525C87.0054 108.046 83.3092 111.746 78.7919 111.746Z" fill="#E8EBF2"/>
<path fill-rule="evenodd" clip-rule="evenodd" d="M73.4652 114.828H9.17877C4.65398 114.828 0.950195 111.144 0.950195 106.641V15.7115C0.950195 11.2084 4.65398 7.52576 9.17877 7.52576H73.4652C77.9918 7.52576 81.6956 11.2084 81.6956 15.7115V106.641C81.6956 111.144 77.9918 114.828 73.4652 114.828Z" fill="#D8DBEA"/>
<path fill-rule="evenodd" clip-rule="evenodd" d="M73.4652 114.828H9.17877C4.65398 114.828 0.950195 111.144 0.950195 106.641V15.7115C0.950195 11.2084 4.65398 7.52576 9.17877 7.52576H73.4652C77.9918 7.52576 81.6956 11.2084 81.6956 15.7115V106.641C81.6956 111.144 77.9918 114.828 73.4652 114.828Z" fill="#F1F2F7"/>
<path fill-rule="evenodd" clip-rule="evenodd" d="M64.1991 35.229H16.7158C15.3597 35.229 14.2498 34.1751 14.2498 32.8876C14.2498 31.5982 15.3597 30.5443 16.7158 30.5443H64.1991C65.5551 30.5443 66.6651 31.5982 66.6651 32.8876C66.6651 34.1751 65.5551 35.229 64.1991 35.229Z" fill="#E0E2EE"/>
<path fill-rule="evenodd" clip-rule="evenodd" d="M64.1991 49.2832H16.7158C15.3597 49.2832 14.2498 48.2293 14.2498 46.9418C14.2498 45.6524 15.3597 44.5985 16.7158 44.5985H64.1991C65.5551 44.5985 66.6651 45.6524 66.6651 46.9418C66.6651 48.2293 65.5551 49.2832 64.1991 49.2832Z" fill="#E0E2EE"/>
<path fill-rule="evenodd" clip-rule="evenodd" d="M64.1991 63.3373H16.7158C15.3597 63.3373 14.2498 62.2834 14.2498 60.9958C14.2498 59.7083 15.3597 58.6526 16.7158 58.6526H64.1991C65.5551 58.6526 66.6651 59.7083 66.6651 60.9958C66.6651 62.2834 65.5551 63.3373 64.1991 63.3373Z" fill="#E0E2EE"/>
<path fill-rule="evenodd" clip-rule="evenodd" d="M64.1991 77.3915H16.7158C15.3597 77.3915 14.2498 76.3376 14.2498 75.05C14.2498 73.7607 15.3597 72.7068 16.7158 72.7068H64.1991C65.5551 72.7068 66.6651 73.7607 66.6651 75.05C66.6651 76.3376 65.5551 77.3915 64.1991 77.3915Z" fill="#E0E2EE"/>
<path fill-rule="evenodd" clip-rule="evenodd" d="M41.5013 91.4458H16.7263C15.3645 91.4458 14.2498 90.3919 14.2498 89.1044C14.2498 87.815 15.3645 86.7611 16.7263 86.7611H41.5013C42.8631 86.7611 43.9779 87.815 43.9779 89.1044C43.9779 90.3919 42.8631 91.4458 41.5013 91.4458Z" fill="#E0E2EE"/>
<path fill-rule="evenodd" clip-rule="evenodd" d="M91.5075 73.282C82.0127 82.7566 67.3136 83.8254 56.6422 76.5104C55.2784 75.5588 53.9803 74.4899 52.7698 73.282C52.1467 72.6622 51.5593 72.0224 51.0058 71.3489C49.8989 70.0039 48.9293 68.5695 48.1349 67.0875C46.7353 64.5842 45.7836 61.928 45.264 59.1824C43.5876 50.572 46.0942 41.3041 52.7698 34.6447C59.4614 27.9654 68.7491 25.48 77.3778 27.1369C80.1273 27.6713 82.7911 28.621 85.2997 30.0017C86.7869 30.8123 88.2045 31.7798 89.5543 32.8844C90.2273 33.4348 90.8684 34.0228 91.4895 34.6447C92.702 35.8526 93.7891 37.1459 94.7248 38.5088C102.057 49.1555 100.984 63.8253 91.5075 73.282Z" fill="white" fill-opacity="0.1"/>
<path fill-rule="evenodd" clip-rule="evenodd" d="M88.8507 71.4161C78.9727 81.2767 62.9645 81.2748 53.0847 71.4161C43.2177 61.5685 43.2177 45.5898 53.0975 35.7311C62.9645 25.8834 78.9727 25.8834 88.8396 35.7311C98.7177 45.5898 98.7177 61.5685 88.8507 71.4161ZM93.9201 30.6659C81.2408 18.0114 60.6944 18.0114 48.0151 30.6659C35.3376 43.3186 35.3266 63.8377 48.0041 76.4922C59.5437 88.0056 77.6308 89.0439 90.3523 79.5907C91.5949 78.6661 92.7915 77.6296 93.933 76.4922C95.0726 75.3529 96.1111 74.1587 97.0357 72.9185C106.508 60.22 105.458 42.1812 93.9201 30.6659Z" fill="#E0E2EE"/>
<path fill-rule="evenodd" clip-rule="evenodd" d="M143.819 124.193L143.287 124.725C139.765 128.241 133.998 128.241 130.475 124.725L97.9578 92.2714L111.302 78.9532L143.819 111.407C147.342 114.923 147.342 120.677 143.819 124.193Z" fill="#246BFD"/>
<path fill-rule="evenodd" clip-rule="evenodd" d="M97.7366 71.9261L107.345 81.5162L100.524 88.3227L90.9167 78.7326C92.1847 77.7891 93.4038 76.7315 94.5705 75.5709C95.7334 74.4102 96.7931 73.1916 97.7366 71.9261Z" fill="#E0E2EE"/>
<path fill-rule="evenodd" clip-rule="evenodd" d="M143.332 111.007L130.073 124.239L127.686 121.855L140.943 108.623L143.332 111.007Z" fill="#262BC6"/>
<path fill-rule="evenodd" clip-rule="evenodd" d="M112.039 79.4114L98.417 93.0074L96.3931 90.9876L110.015 77.3916L112.039 79.4114Z" fill="#262BC6"/>
<path fill-rule="evenodd" clip-rule="evenodd" d="M82.3114 32.3391L48.9036 65.6798C47.6455 63.4293 46.79 61.0414 46.3247 58.573L75.1903 29.7635C77.6618 30.2458 80.0564 31.0978 82.3114 32.3391Z" fill="white" fill-opacity="0.5"/>
<path fill-rule="evenodd" clip-rule="evenodd" d="M93.2637 40.2638L57.1463 74.2684C55.8529 73.4186 54.6217 72.4621 53.4737 71.3812C52.8827 70.8247 52.3238 70.2541 51.8008 69.6514L88.3582 35.229C88.9983 35.7232 89.6063 36.2495 90.1954 36.8059C91.3434 37.8869 92.3762 39.0442 93.2637 40.2638Z" fill="white" fill-opacity="0.5"/>
</svg>
