<svg width="290" height="218" viewBox="0 0 290 218" fill="none" xmlns="http://www.w3.org/2000/svg">
<path d="M86.4867 148.624C84.2147 148.624 82.0787 148.176 80.0787 147.28C78.0787 146.368 76.3187 145.112 74.7987 143.512C73.2947 141.912 72.1107 140.064 71.2467 137.968C70.3987 135.856 69.9747 133.6 69.9747 131.2C69.9747 128.784 70.3987 126.528 71.2467 124.432C72.1107 122.32 73.2947 120.472 74.7987 118.888C76.3187 117.288 78.0787 116.04 80.0787 115.144C82.0787 114.232 84.2147 113.776 86.4867 113.776C89.2067 113.776 91.7107 114.408 93.9987 115.672C96.2867 116.92 98.1827 118.592 99.6867 120.688L93.2547 124.144C92.4227 123.184 91.4227 122.416 90.2547 121.84C89.0867 121.264 87.8307 120.976 86.4867 120.976C85.2067 120.976 83.9987 121.24 82.8627 121.768C81.7427 122.296 80.7507 123.032 79.8867 123.976C79.0387 124.904 78.3747 125.984 77.8947 127.216C77.4147 128.448 77.1747 129.776 77.1747 131.2C77.1747 132.608 77.4147 133.928 77.8947 135.16C78.3747 136.392 79.0387 137.48 79.8867 138.424C80.7507 139.352 81.7427 140.088 82.8627 140.632C83.9987 141.16 85.2067 141.424 86.4867 141.424C87.8307 141.424 89.0867 141.136 90.2547 140.56C91.4227 139.968 92.4227 139.184 93.2547 138.208L99.6867 141.712C98.1827 143.792 96.2867 145.464 93.9987 146.728C91.7107 147.992 89.2067 148.624 86.4867 148.624ZM120.042 124H127.242V148H120.018L119.682 145.84C119.09 146.672 118.338 147.344 117.426 147.856C116.53 148.368 115.482 148.624 114.282 148.624C112.49 148.624 110.81 148.288 109.242 147.616C107.69 146.944 106.322 146.016 105.138 144.832C103.954 143.632 103.026 142.256 102.354 140.704C101.698 139.136 101.37 137.456 101.37 135.664C101.37 133.952 101.682 132.352 102.306 130.864C102.93 129.376 103.802 128.072 104.922 126.952C106.058 125.816 107.362 124.928 108.834 124.288C110.322 123.648 111.914 123.328 113.61 123.328C114.986 123.328 116.234 123.616 117.354 124.192C118.49 124.752 119.498 125.456 120.378 126.304L120.042 124ZM114.09 141.712C115.082 141.712 115.986 141.456 116.802 140.944C117.618 140.432 118.266 139.744 118.746 138.88C119.226 138.016 119.466 137.056 119.466 136C119.466 134.944 119.226 133.984 118.746 133.12C118.266 132.256 117.618 131.568 116.802 131.056C115.986 130.544 115.082 130.288 114.09 130.288C113.098 130.288 112.194 130.544 111.378 131.056C110.578 131.568 109.938 132.256 109.458 133.12C108.994 133.984 108.762 134.944 108.762 136C108.762 137.056 109.002 138.016 109.482 138.88C109.962 139.744 110.602 140.432 111.402 140.944C112.218 141.456 113.114 141.712 114.09 141.712ZM132.06 148V112H139.26V148H132.06ZM167.533 132.664V148H160.333V134.68C160.333 133.928 160.149 133.248 159.781 132.64C159.413 132.016 158.925 131.528 158.317 131.176C157.709 130.808 157.029 130.624 156.277 130.624C155.525 130.624 154.837 130.808 154.213 131.176C153.605 131.528 153.117 132.016 152.749 132.64C152.397 133.248 152.221 133.928 152.221 134.68V148H145.021L144.997 124H152.197L152.221 125.512C153.021 124.824 153.933 124.288 154.957 123.904C155.981 123.52 157.061 123.328 158.197 123.328C159.925 123.328 161.493 123.752 162.901 124.6C164.309 125.432 165.429 126.552 166.261 127.96C167.109 129.368 167.533 130.936 167.533 132.664ZM182.417 148.624C180.209 148.624 178.193 148.056 176.369 146.92C174.561 145.784 173.113 144.256 172.025 142.336C170.953 140.416 170.417 138.296 170.417 135.976C170.417 134.232 170.729 132.6 171.353 131.08C171.977 129.544 172.833 128.2 173.921 127.048C175.025 125.88 176.305 124.968 177.761 124.312C179.217 123.656 180.769 123.328 182.417 123.328C184.337 123.328 186.089 123.752 187.673 124.6C189.273 125.432 190.617 126.568 191.705 128.008C192.809 129.432 193.593 131.04 194.057 132.832C194.521 134.624 194.569 136.472 194.201 138.376H178.193C178.417 138.936 178.713 139.448 179.081 139.912C179.465 140.36 179.929 140.72 180.473 140.992C181.033 141.264 181.681 141.408 182.417 141.424C183.121 141.44 183.769 141.288 184.361 140.968C184.969 140.648 185.497 140.216 185.945 139.672L193.289 141.376C192.313 143.504 190.857 145.248 188.921 146.608C186.985 147.952 184.817 148.624 182.417 148.624ZM177.929 133.096H186.929C186.705 132.408 186.369 131.8 185.921 131.272C185.473 130.744 184.945 130.328 184.337 130.024C183.745 129.72 183.105 129.568 182.417 129.568C181.745 129.568 181.105 129.72 180.497 130.024C179.905 130.328 179.385 130.744 178.937 131.272C178.505 131.8 178.169 132.408 177.929 133.096ZM220.033 132.664V148H212.833V134.68C212.833 133.928 212.649 133.248 212.281 132.64C211.913 132.016 211.425 131.528 210.817 131.176C210.209 130.808 209.529 130.624 208.777 130.624C208.025 130.624 207.337 130.808 206.713 131.176C206.105 131.528 205.617 132.016 205.249 132.64C204.897 133.248 204.721 133.928 204.721 134.68V148H197.521L197.497 112H204.697L204.721 125.512C205.521 124.824 206.433 124.288 207.457 123.904C208.481 123.52 209.561 123.328 210.697 123.328C212.425 123.328 213.993 123.752 215.401 124.6C216.809 125.432 217.929 126.552 218.761 127.96C219.609 129.368 220.033 130.936 220.033 132.664ZM3.27063 206V172.4H24.6786V179.6H10.4706V184.4H21.4146V191.6H10.4706V198.8H24.6786V206H3.27063ZM29.9425 188H45.3025V195.2H29.9425V188ZM70.1871 172.4H77.3871V206H70.1871V191.6H58.2831V206H51.0831V172.4H58.2831V184.4H70.1871V172.4ZM93.19 206.624C90.982 206.624 88.966 206.056 87.142 204.92C85.334 203.784 83.886 202.256 82.798 200.336C81.726 198.416 81.19 196.296 81.19 193.976C81.19 192.232 81.502 190.6 82.126 189.08C82.75 187.544 83.606 186.2 84.694 185.048C85.798 183.88 87.078 182.968 88.534 182.312C89.99 181.656 91.542 181.328 93.19 181.328C95.11 181.328 96.862 181.752 98.446 182.6C100.046 183.432 101.39 184.568 102.478 186.008C103.582 187.432 104.366 189.04 104.83 190.832C105.294 192.624 105.342 194.472 104.974 196.376H88.966C89.19 196.936 89.486 197.448 89.854 197.912C90.238 198.36 90.702 198.72 91.246 198.992C91.806 199.264 92.454 199.408 93.19 199.424C93.894 199.44 94.542 199.288 95.134 198.968C95.742 198.648 96.27 198.216 96.718 197.672L104.062 199.376C103.086 201.504 101.63 203.248 99.694 204.608C97.758 205.952 95.59 206.624 93.19 206.624ZM88.702 191.096H97.702C97.478 190.408 97.142 189.8 96.694 189.272C96.246 188.744 95.718 188.328 95.11 188.024C94.518 187.72 93.878 187.568 93.19 187.568C92.518 187.568 91.878 187.72 91.27 188.024C90.678 188.328 90.158 188.744 89.71 189.272C89.278 189.8 88.942 190.408 88.702 191.096ZM126.253 182H133.453V206H126.229L125.893 203.84C125.301 204.672 124.549 205.344 123.637 205.856C122.741 206.368 121.693 206.624 120.493 206.624C118.701 206.624 117.021 206.288 115.453 205.616C113.901 204.944 112.533 204.016 111.349 202.832C110.165 201.632 109.237 200.256 108.565 198.704C107.909 197.136 107.581 195.456 107.581 193.664C107.581 191.952 107.893 190.352 108.517 188.864C109.141 187.376 110.013 186.072 111.133 184.952C112.269 183.816 113.573 182.928 115.045 182.288C116.533 181.648 118.125 181.328 119.821 181.328C121.197 181.328 122.445 181.616 123.565 182.192C124.701 182.752 125.709 183.456 126.589 184.304L126.253 182ZM120.301 199.712C121.293 199.712 122.197 199.456 123.013 198.944C123.829 198.432 124.477 197.744 124.957 196.88C125.437 196.016 125.677 195.056 125.677 194C125.677 192.944 125.437 191.984 124.957 191.12C124.477 190.256 123.829 189.568 123.013 189.056C122.197 188.544 121.293 188.288 120.301 188.288C119.309 188.288 118.405 188.544 117.589 189.056C116.789 189.568 116.149 190.256 115.669 191.12C115.205 191.984 114.973 192.944 114.973 194C114.973 195.056 115.213 196.016 115.693 196.88C116.173 197.744 116.813 198.432 117.613 198.944C118.429 199.456 119.325 199.712 120.301 199.712ZM138.271 206V170H145.471V206H138.271ZM164.408 189.2H160.328V206H153.128V189.2H150.008V182H153.128V174.464H160.328V182H164.408V189.2ZM191.275 190.664V206H184.075V192.68C184.075 191.928 183.891 191.248 183.523 190.64C183.155 190.016 182.667 189.528 182.059 189.176C181.451 188.808 180.771 188.624 180.019 188.624C179.267 188.624 178.579 188.808 177.955 189.176C177.347 189.528 176.859 190.016 176.491 190.64C176.139 191.248 175.963 191.928 175.963 192.68V206H168.763L168.739 170H175.939L175.963 183.512C176.763 182.824 177.675 182.288 178.699 181.904C179.723 181.52 180.803 181.328 181.939 181.328C183.667 181.328 185.235 181.752 186.643 182.6C188.051 183.432 189.171 184.552 190.003 185.96C190.851 187.368 191.275 188.936 191.275 190.664ZM209.279 198.128L215.759 201.632C214.655 203.136 213.271 204.344 211.607 205.256C209.943 206.168 208.127 206.624 206.159 206.624C203.951 206.624 201.935 206.056 200.111 204.92C198.303 203.784 196.855 202.264 195.767 200.36C194.695 198.44 194.159 196.32 194.159 194C194.159 192.24 194.471 190.6 195.095 189.08C195.719 187.544 196.575 186.2 197.663 185.048C198.767 183.88 200.047 182.968 201.503 182.312C202.959 181.656 204.511 181.328 206.159 181.328C208.127 181.328 209.943 181.784 211.607 182.696C213.271 183.608 214.655 184.832 215.759 186.368L209.279 189.872C208.847 189.44 208.359 189.112 207.815 188.888C207.287 188.648 206.735 188.528 206.159 188.528C205.247 188.528 204.431 188.784 203.711 189.296C202.991 189.808 202.415 190.48 201.983 191.312C201.567 192.144 201.359 193.04 201.359 194C201.359 194.944 201.567 195.832 201.983 196.664C202.415 197.48 202.991 198.144 203.711 198.656C204.431 199.168 205.247 199.424 206.159 199.424C206.735 199.424 207.287 199.312 207.815 199.088C208.359 198.848 208.847 198.528 209.279 198.128ZM236.315 182H243.515V206H236.291L235.955 203.84C235.363 204.672 234.611 205.344 233.699 205.856C232.803 206.368 231.755 206.624 230.555 206.624C228.763 206.624 227.083 206.288 225.515 205.616C223.963 204.944 222.595 204.016 221.411 202.832C220.227 201.632 219.299 200.256 218.627 198.704C217.971 197.136 217.643 195.456 217.643 193.664C217.643 191.952 217.955 190.352 218.579 188.864C219.203 187.376 220.075 186.072 221.195 184.952C222.331 183.816 223.635 182.928 225.107 182.288C226.595 181.648 228.187 181.328 229.883 181.328C231.259 181.328 232.507 181.616 233.627 182.192C234.763 182.752 235.771 183.456 236.651 184.304L236.315 182ZM230.363 199.712C231.355 199.712 232.259 199.456 233.075 198.944C233.891 198.432 234.539 197.744 235.019 196.88C235.499 196.016 235.739 195.056 235.739 194C235.739 192.944 235.499 191.984 235.019 191.12C234.539 190.256 233.891 189.568 233.075 189.056C232.259 188.544 231.355 188.288 230.363 188.288C229.371 188.288 228.467 188.544 227.651 189.056C226.851 189.568 226.211 190.256 225.731 191.12C225.267 191.984 225.035 192.944 225.035 194C225.035 195.056 225.275 196.016 225.755 196.88C226.235 197.744 226.875 198.432 227.675 198.944C228.491 199.456 229.387 199.712 230.363 199.712ZM248.357 206L248.333 182H255.533L255.557 183.512C256.357 182.824 257.269 182.288 258.293 181.904C259.317 181.52 260.397 181.328 261.533 181.328C262.397 181.328 263.277 181.456 264.173 181.712L261.341 189.008C260.781 188.752 260.205 188.624 259.613 188.624C258.861 188.624 258.173 188.808 257.549 189.176C256.941 189.528 256.453 190.016 256.085 190.64C255.733 191.248 255.557 191.928 255.557 192.68V206H248.357ZM276.19 206.624C273.982 206.624 271.966 206.056 270.142 204.92C268.334 203.784 266.886 202.256 265.798 200.336C264.726 198.416 264.19 196.296 264.19 193.976C264.19 192.232 264.502 190.6 265.126 189.08C265.75 187.544 266.606 186.2 267.694 185.048C268.798 183.88 270.078 182.968 271.534 182.312C272.99 181.656 274.542 181.328 276.19 181.328C278.11 181.328 279.862 181.752 281.446 182.6C283.046 183.432 284.39 184.568 285.478 186.008C286.582 187.432 287.366 189.04 287.83 190.832C288.294 192.624 288.342 194.472 287.974 196.376H271.966C272.19 196.936 272.486 197.448 272.854 197.912C273.238 198.36 273.702 198.72 274.246 198.992C274.806 199.264 275.454 199.408 276.19 199.424C276.894 199.44 277.542 199.288 278.134 198.968C278.742 198.648 279.27 198.216 279.718 197.672L287.062 199.376C286.086 201.504 284.63 203.248 282.694 204.608C280.758 205.952 278.59 206.624 276.19 206.624ZM271.702 191.096H280.702C280.478 190.408 280.142 189.8 279.694 189.272C279.246 188.744 278.718 188.328 278.11 188.024C277.518 187.72 276.878 187.568 276.19 187.568C275.518 187.568 274.878 187.72 274.27 188.024C273.678 188.328 273.158 188.744 272.71 189.272C272.278 189.8 271.942 190.408 271.702 191.096Z" fill="url(#paint0_linear_355_1707)"/>
<path d="M181.517 6.36532C179.487 4.34733 177.077 2.74651 174.424 1.65433C171.772 0.562149 168.928 0 166.057 0C163.185 0 160.342 0.562149 157.689 1.65433C155.037 2.74651 152.626 4.34733 150.596 6.36532L146.384 10.5514L142.171 6.36532C138.07 2.29103 132.509 0.00211185 126.71 0.00211189C120.912 0.00211194 115.35 2.29103 111.25 6.36532C107.15 10.4396 104.846 15.9655 104.846 21.7275C104.846 27.4894 107.15 33.0153 111.25 37.0896L115.463 41.2757L146.384 72L177.304 41.2757L181.517 37.0896C183.548 35.0726 185.159 32.6777 186.258 30.0418C187.357 27.4059 187.923 24.5807 187.923 21.7275C187.923 18.8743 187.357 16.049 186.258 13.4131C185.159 10.7772 183.548 8.38237 181.517 6.36532Z" fill="url(#paint1_linear_355_1707)"/>
<g filter="url(#filter0_b_355_1707)">
<path d="M136 52.6155C135.211 52.6147 134.436 52.4064 133.753 52.0115C133.069 51.6166 132.502 51.049 132.108 50.3656L124.435 36.5734L119.53 43.9307C119.108 44.5395 118.542 45.0346 117.883 45.3721C117.223 45.7097 116.491 45.8792 115.75 45.8657H95.5C94.3065 45.8657 93.1619 45.3916 92.318 44.5477C91.4741 43.7038 91 42.5592 91 41.3658C91 40.1723 91.4741 39.0278 92.318 38.1839C93.1619 37.34 94.3065 36.8659 95.5 36.8659H113.343L121.015 25.3686C121.444 24.7281 122.03 24.2083 122.717 23.8592C123.404 23.5101 124.169 23.3434 124.94 23.375C125.71 23.4066 126.459 23.6355 127.115 24.0398C127.771 24.444 128.313 25.0101 128.688 25.6836L136 39.1158L147.767 18.8663C148.17 18.1695 148.751 17.5933 149.452 17.1976C150.152 16.8019 150.946 16.6012 151.75 16.6163C152.535 16.6211 153.306 16.8313 153.985 17.226C154.664 17.6207 155.227 18.1862 155.62 18.8663L166.397 36.8659L170.897 33.311C171.695 32.6919 172.678 32.3591 173.688 32.366H194.5C195.693 32.366 196.838 32.8401 197.682 33.684C198.526 34.5279 199 35.6724 199 36.8659C199 38.0593 198.526 39.2039 197.682 40.0478C196.838 40.8917 195.693 41.3658 194.5 41.3658H175.263L167.95 47.1482C167.446 47.5626 166.858 47.8626 166.227 48.0272C165.596 48.1919 164.936 48.2173 164.294 48.1017C163.652 47.9862 163.043 47.7324 162.508 47.3579C161.974 46.9835 161.528 46.4973 161.2 45.9332L151.75 29.981L139.892 50.3656C139.498 51.049 138.931 51.6166 138.247 52.0115C137.564 52.4064 136.789 52.6147 136 52.6155Z" fill="white" fill-opacity="0.2"/>
</g>
<defs>
<filter id="filter0_b_355_1707" x="66" y="-8.38446" width="158" height="85.9999" filterUnits="userSpaceOnUse" color-interpolation-filters="sRGB">
<feFlood flood-opacity="0" result="BackgroundImageFix"/>
<feGaussianBlur in="BackgroundImageFix" stdDeviation="12.5"/>
<feComposite in2="SourceAlpha" operator="in" result="effect1_backgroundBlur_355_1707"/>
<feBlend mode="normal" in="SourceGraphic" in2="effect1_backgroundBlur_355_1707" result="shape"/>
</filter>
<linearGradient id="paint0_linear_355_1707" x1="0" y1="102" x2="290" y2="218" gradientUnits="userSpaceOnUse">
<stop stop-color="#262CC7"/>
<stop offset="1" stop-color="#246BFD"/>
</linearGradient>
<linearGradient id="paint1_linear_355_1707" x1="104.846" y1="33.6" x2="185.931" y2="34.0175" gradientUnits="userSpaceOnUse">
<stop stop-color="#262BC6"/>
<stop offset="1" stop-color="#246BFD"/>
</linearGradient>
</defs>
</svg>
