<svg width="48" height="48" viewBox="0 0 48 48" fill="none" xmlns="http://www.w3.org/2000/svg">
<path d="M25.4229 33.1897L24.8084 32.991V10.0543C24.8084 9.55806 24.3554 9.15698 23.796 9.15698C23.2366 9.15698 22.7844 9.55749 22.7844 10.0543V33.0843L22.2217 33.32C20.4912 34.0408 19.3733 35.717 19.3733 37.5898C19.3733 40.1418 21.4484 42.2167 23.9995 42.2167C26.5508 42.2167 28.6261 40.1424 28.6261 37.5898C28.6262 35.5779 27.3384 33.8095 25.4229 33.1897Z" fill="#246BFD"/>
<path d="M29.2044 28.5729V5.49394C29.2044 2.46442 26.7399 0 23.7105 0C20.6811 0 18.2166 2.46442 18.2166 5.49394V28.9322C15.3544 30.8386 13.5903 34.0598 13.5903 37.5898C13.5903 43.3304 18.2604 47.9999 23.9996 47.9999C29.7393 47.9999 34.4095 43.3304 34.4095 37.5898C34.4089 33.805 32.3852 30.403 29.2044 28.5729ZM23.9996 45.1088C19.848 45.1088 16.4817 41.7423 16.4817 37.5898C16.4817 34.464 18.392 31.7829 21.1082 30.65V5.49394C21.1082 4.05791 22.2728 2.89171 23.7104 2.89171C25.1478 2.89171 26.3126 4.05801 26.3126 5.49394V14.8916H25.5172V16.0492H26.3126V19.0133H25.5172V20.1697H26.3126V23.4223H25.5172V24.5787H26.3126V30.4384C29.3317 31.4157 31.5172 34.2456 31.5172 37.5898C31.5173 41.7417 28.1519 45.1088 23.9996 45.1088Z" fill="#246BFD"/>
</svg>
