<svg width="23" height="22" viewBox="0 0 23 22" fill="none" xmlns="http://www.w3.org/2000/svg">
<path d="M2.08406e-05 4.46964C2.08406e-05 3.85283 0.52327 3.35223 1.14082 3.35223H21.8592C22.4894 3.35223 23 3.84947 23 4.46964V20.1134C23 20.7302 22.4767 21.2308 21.8592 21.2308H1.14082C0.990317 21.2305 0.841355 21.2013 0.702482 21.1449C0.56361 21.0886 0.43756 21.0061 0.331566 20.9023C0.225573 20.7985 0.141723 20.6753 0.0848275 20.54C0.0279323 20.4046 -0.000887927 20.2596 2.08406e-05 20.1134V4.46964ZM2.30002 5.58704V18.996H20.7V5.58704H2.30002ZM13.8 15.6437C14.715 15.6437 15.5925 15.2905 16.2395 14.6619C16.8865 14.0332 17.25 13.1806 17.25 12.2915C17.25 11.4024 16.8865 10.5498 16.2395 9.92112C15.5925 9.29245 14.715 8.93927 13.8 8.93927C12.885 8.93927 12.0075 9.29245 11.3605 9.92112C10.7135 10.5498 10.35 11.4024 10.35 12.2915C10.35 13.1806 10.7135 14.0332 11.3605 14.6619C12.0075 15.2905 12.885 15.6437 13.8 15.6437V15.6437ZM13.8 17.8785C12.275 17.8785 10.8125 17.2899 9.73415 16.2421C8.65581 15.1944 8.05001 13.7733 8.05001 12.2915C8.05001 10.8097 8.65581 9.38864 9.73415 8.34086C10.8125 7.29309 12.275 6.70445 13.8 6.70445C15.325 6.70445 16.7875 7.29309 17.8659 8.34086C18.9442 9.38864 19.55 10.8097 19.55 12.2915C19.55 13.7733 18.9442 15.1944 17.8659 16.2421C16.7875 17.2899 15.325 17.8785 13.8 17.8785V17.8785ZM2.30002 0H9.20001V2.23482H2.30002V0Z" fill="white" fill-opacity="0.8"/>
</svg>
