<svg width="48" height="48" viewBox="0 0 48 48" fill="none" xmlns="http://www.w3.org/2000/svg">
<path d="M22.3447 0.000163437C22.1113 0.00106563 21.8789 0.00377241 21.6469 0.0107644C21.4645 0.0164031 21.2822 0.0227184 21.1007 0.0319659C20.2103 0.208683 19.7991 0.643879 19.5758 1.142C19.3298 1.69121 19.3394 2.43022 19.6137 3.08736C19.8882 3.74483 20.3916 4.28231 21.0945 4.48305C21.7974 4.68379 22.7651 4.58004 24.0369 3.67254L25.0536 5.44874C23.4555 6.58888 21.9092 6.88965 20.6272 6.52347C19.3454 6.1573 18.3942 5.15631 17.9027 3.97895C17.4396 2.8697 17.3545 1.56829 17.7986 0.412579C13.4628 1.19523 9.53687 3.05127 6.52129 5.66357C5.5302 6.8689 5.43322 8.26978 5.86764 9.22656C6.3556 10.3008 7.5053 11.0851 9.8047 10.2731L10.3761 12.2819C7.48873 13.3014 5.10881 12.2156 4.18512 10.1815C3.95982 9.68566 3.82222 9.14897 3.76817 8.59559C3.28182 9.23975 2.84276 9.91031 2.45481 10.6079L2.46754 10.6147C1.59728 12.8269 1.57748 14.3591 1.92441 15.3548C2.27155 16.3506 2.99885 16.9833 4.11874 17.332C6.35833 18.0289 9.98493 17.188 12.5387 15.0589C13.6318 14.1477 14.6681 11.9376 14.7583 10.2237C14.8033 9.36662 14.6406 8.68953 14.3193 8.25715C13.9981 7.82478 13.4836 7.50123 12.4187 7.51352L12.3998 5.40622C13.8634 5.3893 15.0518 5.94235 15.7716 6.91108C16.4913 7.87981 16.7071 9.12732 16.643 10.3471C16.5147 12.7867 15.3705 15.3285 13.6689 16.747C10.6506 19.2635 6.66404 20.3114 3.6136 19.362C2.20042 18.9222 0.949494 17.9652 0.304935 16.4829C-0.659477 21.608 0.741679 26.3687 3.40831 29.6633C3.75686 30.0941 4.12783 30.5012 4.51659 30.879C4.23836 29.9895 4.11086 29.0633 4.14076 28.1619C4.19431 26.5464 4.75522 24.9652 5.88047 23.8731C6.80326 22.977 8.07803 22.46 9.60264 22.4634C9.70427 22.4634 9.80813 22.4655 9.91199 22.4702C10.1494 22.4815 10.3932 22.5045 10.6414 22.5408L10.3949 24.6307C8.82008 24.3998 7.79798 24.8024 7.11796 25.4624C6.43804 26.1226 6.06292 27.1105 6.02554 28.2395C5.95078 30.4977 7.24495 33.1346 10.0353 33.8994L10.0321 33.9206C12.7793 34.5059 15.8449 33.9626 18.9226 31.8659C18.9244 31.8645 18.9269 31.8639 18.9288 31.8625C19.5693 31.3606 19.9144 30.8692 20.0844 30.4457C20.2849 29.9459 20.2807 29.5106 20.1379 29.043C19.8526 28.1081 18.8306 27.1471 17.8933 26.8792C16.3777 26.4462 15.4149 27.0412 14.9635 27.7498C14.5121 28.4581 14.4846 29.1539 15.1813 29.7583L14.0225 31.4218C12.5892 30.1775 12.4978 27.9836 13.4259 26.5268C14.1222 25.4342 15.344 24.6856 16.8168 24.6378C16.8782 24.6358 16.9409 24.6338 17.0031 24.6344C17.4382 24.6378 17.8912 24.7046 18.3607 24.8386C19.9271 25.2863 21.3753 26.5614 21.9249 28.3628C22.068 28.8313 22.1361 29.3428 22.1144 29.8642C23.8026 28.9014 25.5829 28.0463 27.3964 27.4042C30.443 25.8501 31.7638 23.1257 31.7123 20.8317C31.6603 18.5206 30.38 16.5756 27.4311 16.2501L27.6174 14.1532C31.3217 14.5621 33.5237 17.5193 33.5971 20.7787C33.6397 22.6778 33.0158 24.654 31.7596 26.3362C33.3833 26.1332 34.9969 26.1676 36.5614 26.5197C36.243 25.7898 36.0886 24.9997 36.1101 24.2148C36.1785 21.7297 38.0721 19.4114 41.0479 19.3761C41.2462 19.3736 41.4494 19.3821 41.6571 19.4007L41.5055 21.5011C38.9872 21.2758 38.0403 22.7513 37.9981 24.2817C37.9564 25.7951 38.8613 27.4892 41.4552 27.7141C44.3143 27.7423 46.364 26.0114 47.3684 23.4393C48.7131 19.9956 48.0753 14.8327 43.8482 10.1107C43.7682 10.0213 43.6888 9.93106 43.6082 9.84287C43.5634 10.2705 43.4644 10.6822 43.3211 11.0658C42.5887 13.0269 40.8729 14.3507 39.0906 14.7205C36.6321 15.2304 34.616 14.1175 33.6856 12.4192C32.7551 10.7212 32.9994 8.31985 34.6736 7.05566L35.7314 8.80365C34.8309 9.48346 34.7939 10.4039 35.2957 11.3196C35.7975 12.2356 36.9293 13.0289 38.7464 12.652C39.8886 12.4149 41.1605 11.3742 41.5782 10.2555C41.7873 9.69615 41.8277 9.14333 41.6194 8.51089C41.4502 7.99721 41.0954 7.40977 40.4354 6.79109L40.4165 6.77361C37.6568 4.45192 34.7248 2.78219 31.7533 1.68106C31.7551 1.68467 31.7579 1.68783 31.7597 1.69155C32.435 3.06965 32.4851 4.63293 32.0691 6.01576C31.2374 8.78155 28.6271 10.9607 25.3981 10.8402C24.6961 10.8143 24.0281 11.1921 23.4597 11.9293C22.8912 12.6665 22.4762 13.7464 22.3799 14.8967C22.1875 17.1973 23.0794 19.7332 26.5568 20.9865L25.9753 22.9919C21.8248 21.496 20.2339 17.8555 20.4976 14.703C20.6296 13.127 21.1751 11.6624 22.0289 10.5552C22.8828 9.44793 24.0974 8.68276 25.4608 8.73317C27.8895 8.82362 29.7366 7.14486 30.2785 5.34284C30.5495 4.442 30.5144 3.54556 30.1017 2.70336C29.7008 1.88552 28.9066 1.07682 27.4845 0.486672C25.7555 0.152071 24.0334 -0.0058136 22.3447 0.000163437ZM32.5704 28.4123C28.3358 28.7968 23.744 31.0512 19.9137 33.6633C14.2581 37.5199 8.30655 36.6781 4.08378 33.1806C5.74509 39.8167 11.6318 41.1636 17.7731 39.4852C18.3876 39.2275 18.9915 38.7479 19.5064 38.1286C20.2194 37.2707 20.7359 36.1584 20.8986 35.2387L22.7518 35.6475C22.5048 37.044 21.8347 38.4292 20.8923 39.563C19.9881 40.6507 18.8101 41.5197 17.4479 41.7479C16.7643 43.4474 16.2018 45.0951 15.9735 46.2483C15.6148 48.0594 17.4087 48.7547 18.2118 46.9283C20.1336 42.5591 22.846 38.6699 26.2341 35.3163C28.8673 33.3819 31.1244 30.9967 32.5705 28.4123H32.5704Z" fill="#246BFD"/>
</svg>
