<svg width="15" height="15" viewBox="0 0 15 15" fill="none" xmlns="http://www.w3.org/2000/svg">
<g clip-path="url(#clip0_110_1050)">
<path d="M4.53313 11.5587L4.98563 11.8231C5.74872 12.2682 6.61663 12.5018 7.50001 12.5C8.48891 12.5 9.45561 12.2068 10.2779 11.6573C11.1001 11.1079 11.741 10.327 12.1194 9.41342C12.4978 8.49979 12.5969 7.49445 12.4039 6.52455C12.211 5.55464 11.7348 4.66373 11.0355 3.96447C10.3363 3.2652 9.44536 2.789 8.47546 2.59607C7.50555 2.40315 6.50022 2.50216 5.58659 2.8806C4.67296 3.25904 3.89207 3.8999 3.34266 4.72215C2.79325 5.54439 2.50001 6.51109 2.50001 7.5C2.50001 8.3975 2.73563 9.25812 3.17751 10.015L3.44126 10.4675L3.03313 11.9681L4.53313 11.5587ZM1.25251 13.75L2.09751 10.645C1.54072 9.69053 1.24819 8.60499 1.25001 7.5C1.25001 4.04812 4.04813 1.25 7.50001 1.25C10.9519 1.25 13.75 4.04812 13.75 7.5C13.75 10.9519 10.9519 13.75 7.50001 13.75C6.39549 13.7518 5.31042 13.4595 4.35626 12.9031L1.25251 13.75ZM5.24438 4.5675C5.32813 4.56125 5.41251 4.56125 5.49626 4.565C5.53001 4.5675 5.56376 4.57125 5.59751 4.575C5.69688 4.58625 5.80626 4.64687 5.84313 4.73062C6.02938 5.15312 6.21063 5.57875 6.38563 6.00562C6.42438 6.10062 6.40126 6.2225 6.32751 6.34125C6.27679 6.42155 6.22192 6.49915 6.16313 6.57375C6.09251 6.66437 5.94063 6.83062 5.94063 6.83062C5.94063 6.83062 5.87876 6.90437 5.90251 6.99625C5.91126 7.03125 5.94001 7.08187 5.96626 7.12437L6.00313 7.18375C6.16313 7.45062 6.37813 7.72125 6.64063 7.97625C6.71563 8.04875 6.78876 8.12312 6.86751 8.1925C7.16001 8.45062 7.49126 8.66125 7.84876 8.8175L7.85188 8.81875C7.90501 8.84187 7.93188 8.85437 8.00938 8.8875C8.04813 8.90375 8.08813 8.91812 8.12876 8.92875C8.17074 8.93944 8.21495 8.93743 8.25579 8.92296C8.29662 8.9085 8.33224 8.88223 8.35813 8.8475C8.81063 8.29937 8.85188 8.26375 8.85563 8.26375V8.265C8.88707 8.23568 8.92442 8.21343 8.96516 8.19973C9.00591 8.18604 9.04912 8.18123 9.09188 8.18562C9.12938 8.18812 9.16751 8.195 9.20251 8.21062C9.53438 8.3625 10.0775 8.59937 10.0775 8.59937L10.4413 8.7625C10.5025 8.79187 10.5581 8.86125 10.56 8.92812C10.5625 8.97 10.5663 9.0375 10.5519 9.16125C10.5319 9.32312 10.4831 9.5175 10.4344 9.61937C10.401 9.6889 10.3567 9.75262 10.3031 9.80812C10.2401 9.87434 10.171 9.9346 10.0969 9.98812C10.0712 10.0074 10.0452 10.0262 10.0188 10.0444C9.94102 10.0937 9.86115 10.1396 9.77938 10.1819C9.61847 10.2673 9.44073 10.3164 9.25876 10.3256C9.14313 10.3319 9.02751 10.3406 8.91126 10.3344C8.90626 10.3344 8.55626 10.28 8.55626 10.28C7.66767 10.0463 6.84588 9.60841 6.15626 9.00125C6.01501 8.87687 5.88438 8.74312 5.75063 8.61C5.19438 8.05687 4.77438 7.46 4.51938 6.89625C4.38886 6.61955 4.31836 6.31838 4.31251 6.0125C4.30993 5.63303 4.43397 5.26354 4.66501 4.9625C4.71063 4.90375 4.75376 4.8425 4.82813 4.77187C4.90751 4.69687 4.95751 4.65687 5.01188 4.62937C5.08418 4.59314 5.16305 4.57189 5.24376 4.56687L5.24438 4.5675Z" fill="white"/>
</g>
<defs>
<clipPath id="clip0_110_1050">
<rect width="15" height="15" fill="white"/>
</clipPath>
</defs>
</svg>
