<svg width="32" height="30" viewBox="0 0 32 30" fill="none" xmlns="http://www.w3.org/2000/svg">
<path d="M5.90947 15.5447C5.94955 16.1974 6.54602 16.6961 7.2417 16.6585C7.93739 16.6209 8.46887 16.0612 8.42878 15.4085C8.3887 14.7557 7.79223 14.2571 7.09654 14.2947C6.40086 14.3323 5.86938 14.8919 5.90947 15.5447Z" fill="white"/>
<path d="M13.4674 15.136C13.3735 13.6063 12.6511 12.1704 11.4521 11.1302C11.206 10.917 10.8798 10.8043 10.5452 10.8169C10.2106 10.8294 9.89498 10.9661 9.66782 11.197C9.44066 11.4279 9.32055 11.7339 9.3339 12.0479C9.34726 12.3618 9.49299 12.658 9.73903 12.8711C10.4353 13.5069 10.8525 14.3643 10.9084 15.2744C10.9642 16.1845 10.6548 17.0812 10.041 17.7878C9.82264 18.026 9.71412 18.3359 9.73929 18.6492C9.76445 18.9625 9.92124 19.2536 10.1752 19.4585C10.4291 19.6633 10.7593 19.7651 11.0932 19.7415C11.4272 19.7179 11.7374 19.5708 11.9558 19.3326C13.0195 18.17 13.5614 16.6657 13.4674 15.136ZM19.7657 14.7955C19.677 13.3681 19.2831 11.972 18.6073 10.6904C17.9315 9.40888 16.9877 8.26805 15.8321 7.33592C15.7039 7.23462 15.5556 7.15801 15.3959 7.11046C15.2361 7.06291 15.0679 7.04535 14.9009 7.05878C14.7339 7.07221 14.5714 7.11638 14.4226 7.18875C14.2738 7.26112 14.1416 7.36029 14.0337 7.48058C13.8156 7.72352 13.7094 8.03779 13.7383 8.35424C13.7526 8.51092 13.7997 8.66343 13.8768 8.80305C13.9539 8.94268 14.0596 9.06668 14.1878 9.16797C15.0886 9.8936 15.8242 10.7822 16.3507 11.7806C16.8772 12.779 17.1838 13.8668 17.252 14.9789C17.3203 16.091 17.149 17.2046 16.7482 18.2531C16.3474 19.3017 15.7254 20.2636 14.9194 21.0815C14.8071 21.1974 14.7205 21.3331 14.6644 21.4806C14.6084 21.6282 14.5842 21.7847 14.5931 21.9411C14.6082 22.172 14.6951 22.3937 14.843 22.5788C14.991 22.7639 15.1935 22.9043 15.4255 22.9825C15.6575 23.0608 15.9089 23.0736 16.1486 23.0193C16.3883 22.965 16.6058 22.846 16.7741 22.677C17.8138 21.6206 18.6148 20.3778 19.1289 19.0233C19.643 17.6688 19.8596 16.2307 19.7657 14.7955Z" fill="white"/>
<path d="M21.8189 26.211C24.8006 22.9553 26.3198 18.7412 26.0566 14.4557C25.7934 10.1702 23.7685 6.14772 20.408 3.23489C20.1593 3.04821 19.8447 2.95664 19.5271 2.97855C19.2095 3.00046 18.9125 3.13423 18.6957 3.35303C18.4788 3.57182 18.3581 3.85946 18.3579 4.15824C18.3576 4.45702 18.4778 4.74485 18.6942 4.96398C21.5811 7.46131 23.3211 10.9133 23.547 14.5914C23.7728 18.2695 22.4669 21.8862 19.9049 24.6781C19.6932 24.9093 19.5848 25.2083 19.6022 25.5127C19.6127 25.6718 19.6573 25.8274 19.7333 25.97C19.8094 26.1126 19.9154 26.2393 20.045 26.3425C20.2992 26.545 20.6285 26.6448 20.9609 26.6201C21.2933 26.5955 21.6018 26.4484 21.8189 26.211Z" fill="white"/>
</svg>
